<?xml version="1.0" encoding="UTF-8"?>
<!-- Generated by Pixelmator Pro 3.5.7 -->
<svg width="32" height="32" viewBox="0 0 32 32" xmlns="http://www.w3.org/2000/svg">
    <g id="g2">
        <path id="path7" fill="#1ca838" stroke="none" d="M 25.064381 2.967625 C 25.352041 3.327959 25.770786 3.651545 25.906446 4.054518 C 26.927689 7.088026 27.354797 10.148609 26.429729 13.19083 C 25.823603 15.184212 24.629551 16.668648 22.451468 17.157944 C 21.24184 17.429701 20.029116 17.263584 18.824144 16.923599 C 18.71389 16.89249 18.602512 16.865986 18.445784 16.825489 C 18.815706 17.298325 19.181673 17.705931 19.478268 18.155626 C 20.754076 20.089972 20.642799 22.152992 19.084587 23.724792 C 16.819511 26.009628 13.947805 27.035778 10.650714 27.06361 C 10.21214 27.067308 9.76503 26.927383 9.311609 26.804462 C 10.080127 25.524923 10.846791 24.286953 11.640409 23.066647 C 12.949889 21.053116 14.275889 19.050385 15.596699 17.044273 C 16.325533 15.937254 17.052572 14.828981 17.79006 13.727753 C 18.961821 11.978067 20.143524 10.235069 21.314598 8.484919 C 21.411049 8.340664 21.458548 8.163506 21.552881 7.962315 C 22.739502 6.271257 23.901905 4.619415 25.064375 2.967621 Z"/>
        <path id="path8" fill="#81c123" stroke="none" d="M 25.034706 2.937862 C 23.901905 4.619415 22.739437 6.271212 21.55171 7.964277 C 21.52672 8.005749 21.522808 8.007719 21.484037 8.017704 C 21.303812 8.223484 21.16227 8.419193 20.988308 8.650059 C 20.249456 9.62995 19.542057 10.573969 18.836866 11.519627 C 17.41658 13.424223 15.995403 15.328171 14.578457 17.235233 C 12.893592 19.502895 11.215423 21.775505 9.528525 24.041651 C 9.052754 24.680792 8.556561 25.304808 8.06973 25.935762 C 7.823648 25.521618 7.5066 25.129864 7.342928 24.68972 C 6.234366 21.708616 6.201475 18.760151 7.494571 15.958511 C 8.722042 13.29907 11.20724 12.549976 14.011951 13.848398 C 14.086077 13.88271 14.159746 13.918093 14.362267 14.01372 C 14.101115 13.628256 13.905399 13.354959 13.726076 13.07214 C 12.637239 11.354847 12.172719 9.572977 12.948767 7.691349 C 13.474299 6.417118 14.420959 5.486683 15.569437 4.756851 C 17.984652 3.222042 20.727449 2.630896 23.619492 2.541595 C 24.070089 2.527679 24.542587 2.779215 25.034636 2.937775 Z"/>
        <path id="path9" fill="#1c7258" stroke="none" d="M 8.050817 25.975653 C 8.556624 25.30489 9.05283 24.680874 9.528597 24.041739 C 11.215496 21.775589 12.89366 19.502975 14.57853 17.235331 C 15.995473 15.328253 17.416647 13.424311 18.836941 11.519705 C 19.542118 10.574043 20.249531 9.630035 21.024025 8.638897 C 21.235703 8.397593 21.379274 8.202673 21.522827 8.007732 C 21.522827 8.007732 21.526449 8.005451 21.527702 8.003662 C 21.458609 8.163553 21.411163 8.340767 21.314665 8.484989 C 20.143599 10.235138 18.961893 11.978134 17.790136 13.727821 C 17.052649 14.829052 16.325617 15.937323 15.596767 17.044338 C 14.275958 19.050455 12.949961 21.053177 11.640479 23.066713 C 10.846862 24.28702 10.080199 25.524992 9.276485 26.791487 C 8.787065 27.51199 8.320649 28.194729 7.858802 28.88055 C 7.542518 29.350246 7.209353 29.418434 6.751981 29.098377 C 6.298379 28.781012 6.255926 28.454952 6.601588 27.981773 C 7.079675 27.327324 7.555219 26.671021 8.050883 25.975719 Z"/>
    </g>
</svg>
