<?xml version="1.0" encoding="UTF-8"?>
<!-- Generated by Pixelmator Pro 3.5.7 -->
<svg width="288" height="288" viewBox="0 0 288 288" xmlns="http://www.w3.org/2000/svg">
    <g id="g2">
        <path id="path7" fill="#1ca838" stroke="none" d="M 225.579422 26.708618 C 228.168365 29.95163 231.937073 32.863892 233.158005 36.490662 C 242.349182 63.792221 246.193161 91.337479 237.867554 118.717468 C 232.412415 136.657913 221.665955 150.017838 202.063202 154.421509 C 191.176559 156.86731 180.262039 155.372253 169.417297 152.312408 C 168.425018 152.03241 167.422607 151.793884 166.012054 151.429413 C 169.341354 155.684921 172.635056 159.353378 175.304413 163.400635 C 186.786682 180.809753 185.785187 199.376923 171.761276 213.523132 C 151.37561 234.08667 125.530251 243.321991 95.856422 243.572495 C 91.909264 243.605774 87.885269 242.346451 83.804482 241.240158 C 90.721138 229.724319 97.621124 218.582581 104.763687 207.599823 C 116.549004 189.478043 128.483002 171.453461 140.370285 153.398453 C 146.929794 143.435287 153.473145 133.460831 160.110535 123.549774 C 170.656387 107.802597 181.291718 92.115616 191.83139 76.364258 C 192.699448 75.065964 193.126923 73.471542 193.975937 71.660828 C 204.655518 56.441315 215.117142 41.574738 225.579361 26.708588 Z"/>
        <path id="path8" fill="#81c123" stroke="none" d="M 225.312347 26.440765 C 215.117142 41.574738 204.654922 56.440903 193.965393 71.678497 C 193.740479 72.051743 193.705261 72.069473 193.356339 72.159332 C 191.734299 74.011353 190.460419 75.772751 188.89476 77.850525 C 182.245117 86.669556 175.878525 95.165726 169.531799 103.676651 C 156.749222 120.818008 143.958633 137.953537 131.206116 155.117111 C 116.042328 175.526062 100.938805 195.979538 85.756729 216.374847 C 81.474792 222.127121 77.009048 227.743271 72.627571 233.42186 C 70.412834 229.694565 67.559402 226.168777 66.086349 222.207489 C 56.109295 195.377548 55.813278 168.84137 67.451141 143.626602 C 78.498375 119.691635 100.865158 112.949799 126.107567 124.63559 C 126.774696 124.944397 127.437721 125.262833 129.260406 126.123474 C 126.910042 122.654312 125.148598 120.194641 123.534691 117.649261 C 113.735146 102.193619 109.554466 86.156799 116.538902 69.222137 C 121.268692 57.754059 129.788635 49.380157 140.124939 42.811661 C 161.861862 28.998383 186.547043 23.67807 212.575424 22.874359 C 216.630798 22.749115 220.883286 25.012939 225.311722 26.439972 Z"/>
        <path id="path9" fill="#1c7258" stroke="none" d="M 72.457359 233.780884 C 77.009621 227.744019 81.475471 222.127869 85.75737 216.375641 C 100.939468 195.980301 116.042938 175.526779 131.206772 155.117981 C 143.959259 137.954285 156.749817 120.818802 169.532471 103.677338 C 175.879059 95.166397 182.245773 86.670319 189.216217 77.750076 C 191.121323 75.578339 192.413467 73.824066 193.705444 72.069595 C 193.705444 72.069595 193.738037 72.049057 193.749313 72.032959 C 193.127472 73.471985 192.70047 75.06691 191.831985 76.364899 C 181.292389 92.116241 170.657043 107.803207 160.111221 123.5504 C 153.473846 133.461472 146.930557 143.435898 140.370911 153.399048 C 128.483627 171.454102 116.549652 189.478607 104.764313 207.600418 C 97.621758 218.583176 90.721794 229.724915 83.488365 241.123383 C 79.08358 247.607895 74.885841 253.752563 70.729218 259.924957 C 67.88266 264.152222 64.884178 264.7659 60.767826 261.885406 C 56.685413 259.029114 56.303329 256.094574 59.414295 251.835968 C 63.717075 245.945923 67.996971 240.039185 72.457947 233.781479 Z"/>
    </g>
</svg>
