<?xml version="1.0" encoding="UTF-8"?>
<svg xmlns="http://www.w3.org/2000/svg" width="363" height="104" viewBox="0 0 363 104" fill="none">
  <path d="M0 90.5615H5.89583C7.3125 90.5615 8.5625 90.8324 9.64583 91.374C10.7292 91.9157 11.5677 92.6813 12.1667 93.6657C12.7604 94.6396 13.0625 95.7699 13.0625 97.0615C13.0625 98.3688 12.7604 99.5094 12.1667 100.478C11.5677 101.452 10.7292 102.207 9.64583 102.749C8.5625 103.291 7.3125 103.562 5.89583 103.562H0V90.5615ZM5.75 101.082C7.05208 101.082 8.08854 100.723 8.85417 99.999C9.63021 99.2803 10.0208 98.3011 10.0208 97.0615C10.0208 95.8271 9.63021 94.848 8.85417 94.124C8.08854 93.4053 7.05208 93.0407 5.75 93.0407H3V101.082H5.75Z" fill="#0A3142"></path>
  <path d="M23.5902 103.562L21.0902 99.9365H18.3193V103.562H15.3193V90.5615H20.9443C22.0954 90.5615 23.0954 90.7594 23.9443 91.1449C24.7881 91.5355 25.4443 92.0824 25.9027 92.7907C26.361 93.4886 26.5902 94.3219 26.5902 95.2907C26.5902 96.249 26.3506 97.0824 25.8818 97.7907C25.4235 98.4886 24.762 99.0199 23.9027 99.3949L26.8193 103.562H23.5902ZM23.5485 95.2907C23.5485 94.5563 23.3089 93.9938 22.8402 93.6032C22.3662 93.2178 21.6787 93.0199 20.7777 93.0199H18.3193V97.5407H20.7777C21.6787 97.5407 22.3662 97.348 22.8402 96.9574C23.3089 96.5563 23.5485 95.999 23.5485 95.2907Z" fill="#0A3142"></path>
  <path d="M28.9512 90.5615H31.9512V103.562H28.9512V90.5615Z" fill="#0A3142"></path>
  <path d="M47.4603 90.5615L41.8353 103.562H38.8561L33.252 90.5615H36.502L40.4603 99.8532L44.4603 90.5615H47.4603Z" fill="#0A3142"></path>
  <path d="M58.5801 101.145V103.562H48.5176V90.5615H58.3301V92.9782H51.4967V95.8115H57.5384V98.1449H51.4967V101.145H58.5801Z" fill="#0A3142"></path>
  <path d="M69.2337 103.562L66.7337 99.9365H63.9629V103.562H60.9629V90.5615H66.5879C67.7389 90.5615 68.7389 90.7594 69.5879 91.1449C70.4316 91.5355 71.0879 92.0824 71.5462 92.7907C72.0046 93.4886 72.2337 94.3219 72.2337 95.2907C72.2337 96.249 71.9941 97.0824 71.5254 97.7907C71.0671 98.4886 70.4056 99.0199 69.5462 99.3949L72.4629 103.562H69.2337ZM69.1921 95.2907C69.1921 94.5563 68.9525 93.9938 68.4837 93.6032C68.0098 93.2178 67.3223 93.0199 66.4212 93.0199H63.9629V97.5407H66.4212C67.3223 97.5407 68.0098 97.348 68.4837 96.9574C68.9525 96.5563 69.1921 95.999 69.1921 95.2907Z" fill="#0A3142"></path>
  <path d="M78.8659 103.791C77.8346 103.791 76.8451 103.65 75.8867 103.374C74.9284 103.098 74.1576 102.739 73.5742 102.291L74.5951 100.02C75.1471 100.426 75.8086 100.749 76.5742 100.999C77.3503 101.249 78.1211 101.374 78.8867 101.374C79.7305 101.374 80.3555 101.249 80.7617 100.999C81.1784 100.739 81.3867 100.395 81.3867 99.9785C81.3867 99.6764 81.2617 99.416 81.0117 99.2077C80.7721 98.9993 80.4701 98.8431 80.0951 98.7285C79.7201 98.6035 79.2096 98.4681 78.5742 98.3118C77.5742 98.0775 76.7513 97.8431 76.1159 97.6035C75.4909 97.3691 74.9492 96.9941 74.4909 96.4785C74.043 95.9525 73.8242 95.2598 73.8242 94.3952C73.8242 93.6348 74.0221 92.9473 74.4284 92.3327C74.8451 91.7233 75.4596 91.2441 76.2826 90.8952C77.1159 90.5358 78.1211 90.3535 79.3034 90.3535C80.1367 90.3535 80.9492 90.4525 81.7409 90.6452C82.5326 90.8431 83.2253 91.1243 83.8242 91.4993L82.8867 93.7702C81.6888 93.0931 80.4909 92.7493 79.2826 92.7493C78.4492 92.7493 77.8294 92.89 77.4284 93.166C77.0221 93.4473 76.8242 93.8066 76.8242 94.2493C76.8242 94.6973 77.0534 95.0306 77.5117 95.2493C77.9805 95.4577 78.6888 95.666 79.6367 95.8743C80.6367 96.1139 81.4492 96.3483 82.0742 96.5827C82.6992 96.8223 83.2409 97.1973 83.6992 97.7077C84.1576 98.2077 84.3867 98.89 84.3867 99.7493C84.3867 100.499 84.1784 101.182 83.7617 101.791C83.3451 102.406 82.7201 102.89 81.8867 103.249C81.0534 103.609 80.043 103.791 78.8659 103.791Z" fill="#0A3142"></path>
  <path d="M97.8851 103.791C96.5622 103.791 95.3695 103.51 94.3018 102.937C93.2288 102.354 92.3903 101.557 91.7809 100.541C91.1663 99.515 90.8643 98.3535 90.8643 97.0618C90.8643 95.7702 91.1663 94.6191 91.7809 93.6035C92.3903 92.5775 93.2288 91.7806 94.3018 91.2077C95.3695 90.64 96.5726 90.3535 97.9059 90.3535C99.0309 90.3535 100.041 90.5566 100.948 90.9577C101.864 91.3483 102.635 91.9108 103.26 92.6452L101.323 94.4368C100.448 93.4264 99.3538 92.916 98.0518 92.916C97.2601 92.916 96.5413 93.0931 95.9059 93.4368C95.2809 93.7858 94.7861 94.2806 94.4268 94.916C94.0778 95.541 93.9059 96.2598 93.9059 97.0618C93.9059 97.8691 94.0778 98.5931 94.4268 99.2285C94.7861 99.8535 95.2809 100.348 95.9059 100.708C96.5413 101.057 97.2601 101.229 98.0518 101.229C99.3538 101.229 100.448 100.718 101.323 99.6868L103.26 101.458C102.635 102.223 101.864 102.807 100.948 103.208C100.041 103.593 99.0205 103.791 97.8851 103.791Z" fill="#0A3142"></path>
  <path d="M111.285 103.791C109.936 103.791 108.722 103.499 107.639 102.916C106.556 102.333 105.707 101.536 105.097 100.52C104.483 99.4941 104.181 98.3431 104.181 97.0618C104.181 95.7858 104.483 94.64 105.097 93.6243C105.707 92.5983 106.556 91.8014 107.639 91.2285C108.722 90.6452 109.936 90.3535 111.285 90.3535C112.629 90.3535 113.837 90.6452 114.91 91.2285C115.993 91.8014 116.837 92.5983 117.451 93.6243C118.076 94.64 118.389 95.7858 118.389 97.0618C118.389 98.3431 118.076 99.4941 117.451 100.52C116.837 101.536 115.993 102.333 114.91 102.916C113.837 103.499 112.629 103.791 111.285 103.791ZM111.285 101.229C112.045 101.229 112.733 101.057 113.347 100.708C113.972 100.348 114.457 99.8535 114.806 99.2285C115.165 98.5931 115.347 97.8691 115.347 97.0618C115.347 96.2598 115.165 95.541 114.806 94.916C114.457 94.2806 113.972 93.7858 113.347 93.4368C112.733 93.0931 112.045 92.916 111.285 92.916C110.519 92.916 109.826 93.0931 109.201 93.4368C108.587 93.7858 108.103 94.2806 107.743 94.916C107.394 95.541 107.222 96.2598 107.222 97.0618C107.222 97.8691 107.394 98.5931 107.743 99.2285C108.103 99.8535 108.587 100.348 109.201 100.708C109.826 101.057 110.519 101.229 111.285 101.229Z" fill="#0A3142"></path>
  <path d="M126.938 103.791C125.589 103.791 124.376 103.499 123.292 102.916C122.209 102.333 121.36 101.536 120.751 100.52C120.136 99.4941 119.834 98.3431 119.834 97.0618C119.834 95.7858 120.136 94.64 120.751 93.6243C121.36 92.5983 122.209 91.8014 123.292 91.2285C124.376 90.6452 125.589 90.3535 126.938 90.3535C128.282 90.3535 129.49 90.6452 130.563 91.2285C131.646 91.8014 132.49 92.5983 133.105 93.6243C133.73 94.64 134.042 95.7858 134.042 97.0618C134.042 98.3431 133.73 99.4941 133.105 100.52C132.49 101.536 131.646 102.333 130.563 102.916C129.49 103.499 128.282 103.791 126.938 103.791ZM126.938 101.229C127.699 101.229 128.386 101.057 129.001 100.708C129.626 100.348 130.11 99.8535 130.459 99.2285C130.818 98.5931 131.001 97.8691 131.001 97.0618C131.001 96.2598 130.818 95.541 130.459 94.916C130.11 94.2806 129.626 93.7858 129.001 93.4368C128.386 93.0931 127.699 92.916 126.938 92.916C126.173 92.916 125.48 93.0931 124.855 93.4368C124.24 93.7858 123.756 94.2806 123.396 94.916C123.048 95.541 122.876 96.2598 122.876 97.0618C122.876 97.8691 123.048 98.5931 123.396 99.2285C123.756 99.8535 124.24 100.348 124.855 100.708C125.48 101.057 126.173 101.229 126.938 101.229Z" fill="#0A3142"></path>
  <path d="M141.925 90.5615C143.076 90.5615 144.076 90.7594 144.925 91.1449C145.769 91.5355 146.425 92.0824 146.883 92.7907C147.341 93.4886 147.571 94.3219 147.571 95.2907C147.571 96.2386 147.341 97.0719 146.883 97.7907C146.425 98.499 145.769 99.0407 144.925 99.4157C144.076 99.7907 143.076 99.9782 141.925 99.9782H139.3V103.562H136.3V90.5615H141.925ZM141.758 97.5199C142.659 97.5199 143.347 97.3271 143.821 96.9365C144.289 96.5511 144.529 95.999 144.529 95.2907C144.529 94.5563 144.289 93.9938 143.821 93.6032C143.347 93.2178 142.659 93.0199 141.758 93.0199H139.3V97.5199H141.758Z" fill="#0A3142"></path>
  <path d="M159.753 101.145V103.562H149.69V90.5615H159.503V92.9782H152.67V95.8115H158.711V98.1449H152.67V101.145H159.753Z" fill="#0A3142"></path>
  <path d="M170.407 103.562L167.907 99.9365H165.136V103.562H162.136V90.5615H167.761C168.912 90.5615 169.912 90.7594 170.761 91.1449C171.604 91.5355 172.261 92.0824 172.719 92.7907C173.177 93.4886 173.407 94.3219 173.407 95.2907C173.407 96.249 173.167 97.0824 172.698 97.7907C172.24 98.4886 171.578 99.0199 170.719 99.3949L173.636 103.562H170.407ZM170.365 95.2907C170.365 94.5563 170.125 93.9938 169.657 93.6032C169.183 93.2178 168.495 93.0199 167.594 93.0199H165.136V97.5407H167.594C168.495 97.5407 169.183 97.348 169.657 96.9574C170.125 96.5563 170.365 95.999 170.365 95.2907Z" fill="#0A3142"></path>
  <path d="M184.329 100.77H178.288L177.142 103.562H174.059L179.85 90.5615H182.829L188.621 103.562H185.475L184.329 100.77ZM183.371 98.499L181.309 93.5199L179.246 98.499H183.371Z" fill="#0A3142"></path>
  <path d="M192.012 93.0199H187.866V90.5615H199.179V93.0199H195.012V103.562H192.012V93.0199Z" fill="#0A3142"></path>
  <path d="M200.786 90.5615H203.786V103.562H200.786V90.5615Z" fill="#0A3142"></path>
  <path d="M219.295 90.5615L213.67 103.562H210.691L205.087 90.5615H208.337L212.295 99.8532L216.295 90.5615H219.295Z" fill="#0A3142"></path>
  <path d="M230.416 101.145V103.562H220.354V90.5615H230.166V92.9782H223.333V95.8115H229.374V98.1449H223.333V101.145H230.416Z" fill="#0A3142"></path>
  <path d="M237.464 97.166H242.714V99.4993H237.464V97.166Z" fill="#0A3142"></path>
  <path d="M256.663 103.791C255.34 103.791 254.148 103.51 253.08 102.937C252.007 102.354 251.169 101.557 250.559 100.541C249.945 99.515 249.643 98.3535 249.643 97.0618C249.643 95.7702 249.945 94.6191 250.559 93.6035C251.169 92.5775 252.007 91.7806 253.08 91.2077C254.148 90.64 255.351 90.3535 256.684 90.3535C257.809 90.3535 258.82 90.5566 259.726 90.9577C260.643 91.3483 261.413 91.9108 262.038 92.6452L260.101 94.4368C259.226 93.4264 258.132 92.916 256.83 92.916C256.038 92.916 255.32 93.0931 254.684 93.4368C254.059 93.7858 253.564 94.2806 253.205 94.916C252.856 95.541 252.684 96.2598 252.684 97.0618C252.684 97.8691 252.856 98.5931 253.205 99.2285C253.564 99.8535 254.059 100.348 254.684 100.708C255.32 101.057 256.038 101.229 256.83 101.229C258.132 101.229 259.226 100.718 260.101 99.6868L262.038 101.458C261.413 102.223 260.643 102.807 259.726 103.208C258.82 103.593 257.799 103.791 256.663 103.791Z" fill="#0A3142"></path>
  <path d="M270.063 103.791C268.714 103.791 267.501 103.499 266.417 102.916C265.334 102.333 264.485 101.536 263.876 100.52C263.261 99.4941 262.959 98.3431 262.959 97.0618C262.959 95.7858 263.261 94.64 263.876 93.6243C264.485 92.5983 265.334 91.8014 266.417 91.2285C267.501 90.6452 268.714 90.3535 270.063 90.3535C271.407 90.3535 272.615 90.6452 273.688 91.2285C274.771 91.8014 275.615 92.5983 276.23 93.6243C276.855 94.64 277.167 95.7858 277.167 97.0618C277.167 98.3431 276.855 99.4941 276.23 100.52C275.615 101.536 274.771 102.333 273.688 102.916C272.615 103.499 271.407 103.791 270.063 103.791ZM270.063 101.229C270.824 101.229 271.511 101.057 272.126 100.708C272.751 100.348 273.235 99.8535 273.584 99.2285C273.943 98.5931 274.126 97.8691 274.126 97.0618C274.126 96.2598 273.943 95.541 273.584 94.916C273.235 94.2806 272.751 93.7858 272.126 93.4368C271.511 93.0931 270.824 92.916 270.063 92.916C269.298 92.916 268.605 93.0931 267.98 93.4368C267.365 93.7858 266.881 94.2806 266.521 94.916C266.173 95.541 266.001 96.2598 266.001 97.0618C266.001 97.8691 266.173 98.5931 266.521 99.2285C266.881 99.8535 267.365 100.348 267.98 100.708C268.605 101.057 269.298 101.229 270.063 101.229Z" fill="#0A3142"></path>
  <path d="M279.425 90.5615H282.425V101.103H288.946V103.562H279.425V90.5615Z" fill="#0A3142"></path>
  <path d="M296.696 103.791C295.347 103.791 294.133 103.499 293.05 102.916C291.967 102.333 291.118 101.536 290.508 100.52C289.894 99.4941 289.592 98.3431 289.592 97.0618C289.592 95.7858 289.894 94.64 290.508 93.6243C291.118 92.5983 291.967 91.8014 293.05 91.2285C294.133 90.6452 295.347 90.3535 296.696 90.3535C298.04 90.3535 299.248 90.6452 300.321 91.2285C301.404 91.8014 302.248 92.5983 302.863 93.6243C303.488 94.64 303.8 95.7858 303.8 97.0618C303.8 98.3431 303.488 99.4941 302.863 100.52C302.248 101.536 301.404 102.333 300.321 102.916C299.248 103.499 298.04 103.791 296.696 103.791ZM296.696 101.229C297.456 101.229 298.144 101.057 298.758 100.708C299.383 100.348 299.868 99.8535 300.217 99.2285C300.576 98.5931 300.758 97.8691 300.758 97.0618C300.758 96.2598 300.576 95.541 300.217 94.916C299.868 94.2806 299.383 93.7858 298.758 93.4368C298.144 93.0931 297.456 92.916 296.696 92.916C295.93 92.916 295.238 93.0931 294.613 93.4368C293.998 93.7858 293.514 94.2806 293.154 94.916C292.805 95.541 292.633 96.2598 292.633 97.0618C292.633 97.8691 292.805 98.5931 293.154 99.2285C293.514 99.8535 293.998 100.348 294.613 100.708C295.238 101.057 295.93 101.229 296.696 101.229Z" fill="#0A3142"></path>
  <path d="M314.328 103.562L311.828 99.9365H309.058V103.562H306.058V90.5615H311.683C312.834 90.5615 313.834 90.7594 314.683 91.1449C315.526 91.5355 316.183 92.0824 316.641 92.7907C317.099 93.4886 317.328 94.3219 317.328 95.2907C317.328 96.249 317.089 97.0824 316.62 97.7907C316.162 98.4886 315.5 99.0199 314.641 99.3949L317.558 103.562H314.328ZM314.287 95.2907C314.287 94.5563 314.047 93.9938 313.578 93.6032C313.104 93.2178 312.417 93.0199 311.516 93.0199H309.058V97.5407H311.516C312.417 97.5407 313.104 97.348 313.578 96.9574C314.047 96.5563 314.287 95.999 314.287 95.2907Z" fill="#0A3142"></path>
  <path d="M328.252 100.77H322.211L321.065 103.562H317.981L323.773 90.5615H326.752L332.544 103.562H329.398L328.252 100.77ZM327.294 98.499L325.231 93.5199L323.169 98.499H327.294Z" fill="#0A3142"></path>
  <path d="M333.896 90.5615H339.792C341.209 90.5615 342.459 90.8324 343.542 91.374C344.626 91.9157 345.464 92.6813 346.063 93.6657C346.657 94.6396 346.959 95.7699 346.959 97.0615C346.959 98.3688 346.657 99.5094 346.063 100.478C345.464 101.452 344.626 102.207 343.542 102.749C342.459 103.291 341.209 103.562 339.792 103.562H333.896V90.5615ZM339.646 101.082C340.949 101.082 341.985 100.723 342.751 99.999C343.527 99.2803 343.917 98.3011 343.917 97.0615C343.917 95.8271 343.527 94.848 342.751 94.124C341.985 93.4053 340.949 93.0407 339.646 93.0407H336.896V101.082H339.646Z" fill="#0A3142"></path>
  <path d="M355.507 103.791C354.159 103.791 352.945 103.499 351.862 102.916C350.778 102.333 349.929 101.536 349.32 100.52C348.705 99.4941 348.403 98.3431 348.403 97.0618C348.403 95.7858 348.705 94.64 349.32 93.6243C349.929 92.5983 350.778 91.8014 351.862 91.2285C352.945 90.6452 354.159 90.3535 355.507 90.3535C356.851 90.3535 358.06 90.6452 359.132 91.2285C360.216 91.8014 361.06 92.5983 361.674 93.6243C362.299 94.64 362.612 95.7858 362.612 97.0618C362.612 98.3431 362.299 99.4941 361.674 100.52C361.06 101.536 360.216 102.333 359.132 102.916C358.06 103.499 356.851 103.791 355.507 103.791ZM355.507 101.229C356.268 101.229 356.955 101.057 357.57 100.708C358.195 100.348 358.679 99.8535 359.028 99.2285C359.388 98.5931 359.57 97.8691 359.57 97.0618C359.57 96.2598 359.388 95.541 359.028 94.916C358.679 94.2806 358.195 93.7858 357.57 93.4368C356.955 93.0931 356.268 92.916 355.507 92.916C354.742 92.916 354.049 93.0931 353.424 93.4368C352.81 93.7858 352.325 94.2806 351.966 94.916C351.617 95.541 351.445 96.2598 351.445 97.0618C351.445 97.8691 351.617 98.5931 351.966 99.2285C352.325 99.8535 352.81 100.348 353.424 100.708C354.049 101.057 354.742 101.229 355.507 101.229Z" fill="#0A3142"></path>
  <mask id="mask0_24_1139" style="mask-type:luminance" maskUnits="userSpaceOnUse" x="104" y="0" width="69" height="73">
    <path d="M104.962 0H172.894V72.151H104.962V0Z" fill="white"></path>
  </mask>
  <g mask="url(#mask0_24_1139)">
    <mask id="mask1_24_1139" style="mask-type:luminance" maskUnits="userSpaceOnUse" x="105" y="0" width="68" height="73">
      <path d="M159.186 37.9479C158.347 46.3698 151.53 53.1875 143.108 54.0261C131.728 55.1615 122.196 45.6354 123.337 34.2604C124.181 25.8333 130.998 19.0208 139.42 18.1771C150.8 17.0417 160.326 26.5677 159.186 37.9479ZM172.78 18.6302C166.337 7.03647 153.686 -0.635402 139.321 0.119806C121.316 1.06772 106.582 15.5104 105.316 33.5C103.842 54.5834 120.498 72.1406 141.264 72.1406C154.826 72.1406 166.629 64.6511 172.78 53.5781C169.905 48.4063 168.259 42.4479 168.259 36.1094C168.259 29.7656 169.905 23.8125 172.78 18.6354" fill="white"></path>
    </mask>
    <g mask="url(#mask1_24_1139)">
      <path d="M48.5713 -2.30728H313.373V82.1094H48.5713V-2.30728Z" fill="#0A3142"></path>
    </g>
  </g>
  <mask id="mask2_24_1139" style="mask-type:luminance" maskUnits="userSpaceOnUse" x="50" y="0" width="61" height="73">
    <path d="M50.8994 0H110.238V72.151H50.8994V0Z" fill="white"></path>
  </mask>
  <g mask="url(#mask2_24_1139)">
    <mask id="mask3_24_1139" style="mask-type:luminance" maskUnits="userSpaceOnUse" x="50" y="0" width="60" height="73">
      <path d="M102.16 48.5C101.91 47.7135 100.91 47.5313 100.363 48.1406C97.0296 51.8438 92.2015 54.1719 86.8265 54.1198C77.4255 54.0417 69.514 46.5 68.9984 37.1146C68.4255 26.724 76.7171 18.0885 86.988 18.0885C92.3161 18.0885 97.1025 20.4219 100.405 24.1146C100.931 24.7083 101.915 24.4844 102.155 23.724C103.759 18.6406 106.337 13.9844 109.66 9.97396C110.165 9.35417 110.082 8.45834 109.452 7.95834C102.811 2.64063 94.2536 -0.385414 84.9671 0.125003C66.9671 1.10938 52.264 15.5938 51.0348 33.5729C49.5973 54.6146 66.2484 72.1354 86.9828 72.1354C95.488 72.1354 103.29 69.1823 109.452 64.2552C110.077 63.7552 110.165 62.8542 109.655 62.2344C106.337 58.2292 103.764 53.5781 102.155 48.5" fill="white"></path>
    </mask>
    <g mask="url(#mask3_24_1139)">
      <path d="M48.5713 -2.30728H313.373V82.1094H48.5713V-2.30728Z" fill="#0A3142"></path>
    </g>
  </g>
  <mask id="mask4_24_1139" style="mask-type:luminance" maskUnits="userSpaceOnUse" x="238" y="0" width="73" height="80">
    <path d="M238.514 0H310.899V79.8021H238.514V0Z" fill="white"></path>
  </mask>
  <g mask="url(#mask4_24_1139)">
    <mask id="mask5_24_1139" style="mask-type:luminance" maskUnits="userSpaceOnUse" x="238" y="0" width="73" height="80">
      <path d="M274.811 18.0886C284.748 18.0886 292.831 26.1719 292.831 36.1094C292.831 46.0417 284.748 54.1198 274.811 54.1198C264.878 54.1198 256.795 46.0417 256.795 36.1094C256.795 26.1719 264.878 18.0886 274.811 18.0886ZM248.274 41.3177C247.222 49.3021 243.821 56.5365 238.79 62.3125V79.7344H256.3V67.0208C261.706 70.2708 268.04 72.1354 274.805 72.1354C294.712 72.1354 310.842 56.0052 310.842 36.1042C310.842 16.1979 294.717 0.0677185 274.811 0.0677185C261.743 0.0677185 250.305 7.03647 243.988 17.4531C247.831 24.6771 249.373 32.9531 248.274 41.3177Z" fill="white"></path>
    </mask>
    <g mask="url(#mask5_24_1139)">
      <path d="M48.571 -2.30728H313.373V82.1094H48.571V-2.30728Z" fill="#0A3142"></path>
    </g>
  </g>
  <mask id="mask6_24_1139" style="mask-type:luminance" maskUnits="userSpaceOnUse" x="172" y="0" width="73" height="73">
    <path d="M172.561 0H244.779V72.151H172.561V0Z" fill="white"></path>
  </mask>
  <g mask="url(#mask6_24_1139)">
    <mask id="mask7_24_1139" style="mask-type:luminance" maskUnits="userSpaceOnUse" x="172" y="0" width="73" height="73">
      <path d="M204.17 56.8177C204.17 57.7188 203.305 58.375 202.436 58.1302C194.566 55.901 188.404 49.5677 186.441 41.5938C186.227 40.7344 186.878 39.901 187.764 39.901H195.258C195.8 39.901 196.29 40.2292 196.508 40.7292C197.883 43.9167 200.488 46.4479 203.727 47.724C203.993 47.8281 204.17 48.0781 204.17 48.3594C204.17 49.8177 204.17 54.3125 204.17 56.8125M186.774 29.3958C189.654 20.0313 198.373 13.2031 208.67 13.2031C218.967 13.2031 227.686 20.0313 230.566 29.3958C230.831 30.2656 230.17 31.151 229.258 31.151H221.837C221.29 31.151 220.8 30.8177 220.581 30.3125C218.566 25.6563 213.941 22.3958 208.54 22.3958C203.144 22.3958 198.519 25.6563 196.503 30.3125C196.285 30.8177 195.795 31.151 195.248 31.151H188.081C187.17 31.151 186.508 30.2708 186.774 29.3958ZM230.904 41.5938C228.915 49.6563 222.639 56.0469 214.639 58.2031C213.774 58.4375 212.92 57.7865 212.92 56.8906V48.8177C212.92 48.2708 213.253 47.7813 213.758 47.5625C216.811 46.2344 219.253 43.7917 220.581 40.7344C220.8 40.2344 221.29 39.901 221.837 39.901H229.581C230.462 39.901 231.113 40.7344 230.904 41.5938ZM212.503 71.9271C229.295 70.1198 242.696 56.724 244.498 39.9271C246.941 17.1719 227.602 -2.16666 204.842 0.276046C188.05 2.07813 174.649 15.4792 172.842 32.276C170.399 55.0365 189.738 74.3698 212.498 71.9271" fill="white"></path>
    </mask>
    <g mask="url(#mask7_24_1139)">
      <path d="M48.571 -2.30728H313.373V82.1094H48.571V-2.30728Z" fill="#FFD72A"></path>
    </g>
  </g>
</svg>
