<?xml version="1.0" encoding="UTF-8" standalone="no"?>
<!-- Created with Inkscape (http://www.inkscape.org/) -->

<svg
   width="132.29166mm"
   height="26.191635mm"
   viewBox="0 0 132.29166 26.191635"
   version="1.1"
   id="svg1"
   xmlns="http://www.w3.org/2000/svg"
   xmlns:svg="http://www.w3.org/2000/svg">
  <defs
     id="defs1" />
  <g
     id="layer1"
     transform="translate(-38.89375,-135.46667)">
    <g
       id="g99"
       transform="matrix(0.26458333,0,0,0.26458333,-27.252083,16.270817)">
	<polygon
   style="clip-rule:evenodd;fill:#fe2e33;fill-rule:evenodd"
   points="250,450.504 348.683,450.504 348.683,549.496 250,549.496 "
   id="polygon92" />

	<polygon
   style="clip-rule:evenodd;fill:#ffffff;fill-rule:evenodd"
   points="289.226,510.168 309.457,510.168 309.457,489.832 328.761,489.832 328.761,470.426 269.922,470.426 269.922,529.574 289.226,529.574 "
   id="polygon93" />

	<polygon
   style="clip-rule:evenodd;fill-rule:evenodd"
   points="455.556,470.333 468.951,470.333 468.951,529.475 455.556,529.475 "
   id="polygon94" />

	<path
   style="clip-rule:evenodd;fill-rule:evenodd"
   d="m 475.778,470.333 h 18.356 c 11.273,0 21.372,6.414 21.372,20.236 0,13.735 -10.101,20.759 -21.372,20.759 h -4.961 v 18.147 h -13.395 z m 13.395,10.565 v 19.617 h 3.273 c 6.449,0 9.457,-4.062 9.457,-9.809 0,-5.746 -3.096,-9.808 -9.457,-9.808 z"
   id="path94" />

	<path
   style="clip-rule:evenodd;fill-rule:evenodd"
   d="m 520.254,470.333 h 19.776 c 12.76,0 19.343,5.35 19.343,15.131 0,7.024 -3.439,10.98 -9.145,12.525 7.031,1.401 11.013,7.01 11.013,13.725 0,10.632 -6.853,17.761 -20.102,17.761 h -20.887 z m 13.394,10.565 v 13.043 h 3.492 c 6.554,0 8.664,-2.539 8.664,-7.096 0,-4.305 -4.367,-5.947 -7.483,-5.947 z m 0,23.129 v 14.883 h 5.415 c 5.983,0 8.588,-3.559 8.588,-7.583 0,-5.57 -4.187,-7.301 -10.309,-7.301 h -3.694 z"
   id="path95" />

	<path
   style="clip-rule:evenodd;fill-rule:evenodd"
   d="m 625.109,470.333 h 17.234 l 14.759,59.143 h -14.106 l -2.376,-11.689 h -14.551 l -2.437,11.689 h -13.694 z m 13.271,36.429 -4.943,-24.317 -5.07,24.317 z"
   id="path96" />

	<path
   style="clip-rule:evenodd;fill-rule:evenodd"
   d="m 660.804,470.333 h 18.087 c 11.273,0 21.461,4.48 21.461,18.566 0,8.92 -4.265,14.564 -10.364,17.425 l 12.323,23.151 H 687.598 L 677.547,508.603 H 674.2 v 20.872 h -13.394 v -59.142 z m 13.394,10.565 v 16.979 h 3.267 c 6.098,0 9.195,-2.743 9.195,-8.489 0,-5.746 -3.1,-8.49 -9.457,-8.49 z"
   id="path97" />

	<path
   style="clip-rule:evenodd;fill-rule:evenodd"
   d="m 707.543,470.333 h 17.218 c 13.882,0 25.239,8.451 25.239,29.572 0,20.187 -10.65,29.571 -25.477,29.571 h -16.98 z m 13.394,11.154 v 36.834 h 3.322 c 9.054,0 11.974,-9.675 11.969,-18.887 -0.005,-9.2 -2.934,-17.946 -11.969,-17.946 h -3.322 z"
   id="path98" />

	<polygon
   style="clip-rule:evenodd;fill-rule:evenodd"
   points="430.843,518.156 450.273,518.156 450.273,529.475 417.449,529.475 417.449,470.333 430.843,470.333 "
   id="polygon98" />

	<polygon
   style="clip-rule:evenodd;fill-rule:evenodd"
   points="391.697,529.475 378.302,529.475 378.302,470.333 412.449,470.333 412.449,481.652 391.697,481.652 391.697,495.357 408.958,495.357 408.958,506.056 391.697,506.056 "
   id="polygon99" />

	<path
   style="clip-rule:evenodd;fill-rule:evenodd"
   d="m 587.868,469.526 c 13.787,0 22.307,8.432 22.307,30.523 0,22.09 -8.243,30.522 -22.307,30.522 -14.064,0 -22.307,-9.364 -22.307,-30.522 0,-21.159 8.519,-30.523 22.307,-30.523 z m 0,11.384 c 4.275,0 8.904,3.336 8.904,19.139 0,15.802 -4.905,19.139 -8.904,19.139 -3.999,0 -8.904,-4.267 -8.904,-19.139 0,-14.872 4.629,-19.139 8.904,-19.139 z"
   id="path99" />

</g>
  </g>
</svg>
