<?xml version="1.0" encoding="UTF-8" standalone="no"?>
<!-- Created with Inkscape (http://www.inkscape.org/) -->

<svg
   version="1.1"
   id="svg1"
   width="750"
   height="750"
   viewBox="0 0 750.00003 749.99997"
   xmlns="http://www.w3.org/2000/svg"
   xmlns:svg="http://www.w3.org/2000/svg">
  <defs
     id="defs1" />
  <g
     id="g1">
    <g
       id="group-R5"
       transform="translate(-291.66667,-229.90731)">
      <path
         id="path2"
         d="m 5000,4631.29 c -852.51,871.63 -1854.1,335.95 -1844.18,-820.3 4.46,-519.34 179.65,-1062.43 482.24,-1486.64 129.33,-181.32 303.6,-442.47 552.14,-473.57 193.46,-24.2 595.55,376.72 741.85,209.53 -257.59,297.87 -552.24,-91.76 -891.21,83.53 -321.37,166.18 -508.22,750.51 -584.46,1068.72 -268.87,1122.25 324.54,2176.43 1543.62,1418.73"
         style="fill:#ed1e24;fill-opacity:1;fill-rule:nonzero;stroke:none"
         transform="matrix(0.13333333,0,0,-0.13333333,0,1066.6667)" />
      <path
         id="path5"
         d="m 819.65198,263.23468 c 0,0 -150.13866,-54.32534 -179.968,81.27999 0,0 16.9,-43.39599 111.61867,-59.43866 0,0 -96.336,41.09733 -108.15733,80.9 0,0 58.916,28.964 93.51466,-13.75467 34.6,-42.72 53.31867,-84.296 82.992,-88.98666"
         style="fill:#59ad34;fill-opacity:1;fill-rule:nonzero;stroke:none;stroke-width:0.133333" />
      <path
         id="path3"
         d="m 5000,4631.29 c 852.51,871.63 1854.1,335.95 1844.18,-820.3 -4.46,-519.34 -179.65,-1062.43 -482.24,-1486.64 -129.32,-181.32 -303.6,-442.47 -552.14,-473.57 -193.46,-24.2 -595.55,376.72 -741.84,209.53 257.58,297.87 552.23,-91.76 891.21,83.53 321.36,166.18 508.21,750.51 584.45,1068.72 C 6812.5,4334.81 6219.08,5388.99 5000,4631.29"
         style="fill:#ed1e24;fill-opacity:1;fill-rule:nonzero;stroke:none"
         transform="matrix(0.13333333,0,0,-0.13333333,0,1066.6667)" />
      <path
         id="path4"
         d="m 5356.77,4580.33 c 0,0 620.09,67.64 777.24,-424.72 152.37,-477.4 33.98,-964.12 33.98,-964.12 0,0 322.78,637.08 106.18,1117.01 -244.99,542.82 -917.4,271.83 -917.4,271.83"
         style="fill:#ed1e24;fill-opacity:1;fill-rule:nonzero;stroke:none"
         transform="matrix(0.13333333,0,0,-0.13333333,0,1066.6667)" />
    </g>
    <path
       style="font-size:96px;line-height:1.1;font-family:Futura;-inkscape-font-specification:Futura;letter-spacing:0.6px;fill:#59ad34;stroke:#000000;stroke-width:1.00157;stroke-opacity:0"
       d="m 166.47187,656.42108 h 10.59375 v 45.65625 h -10.59375 v -4.78125 q -6.51562,6.09375 -14.01562,6.09375 -9.46875,0 -15.65625,-6.84375 -6.14063,-6.98437 -6.14063,-17.4375 0,-10.26562 6.14063,-17.10937 6.14062,-6.84375 15.375,-6.84375 7.96875,0 14.29687,6.5625 z m -25.03125,22.6875 q 0,6.5625 3.51563,10.6875 3.60937,4.17188 9.09375,4.17188 5.85937,0 9.46875,-4.03125 3.60937,-4.17188 3.60937,-10.59375 0,-6.42188 -3.60937,-10.59375 -3.60938,-4.07813 -9.375,-4.07813 -5.4375,0 -9.09375,4.125 -3.60938,4.17188 -3.60938,10.3125 z m 60.08437,47.8125 h -10.54687 v -70.5 h 10.54687 v 4.96875 q 6.23438,-6.23437 14.15625,-6.23437 9.42188,0 15.51563,6.9375 6.1875,6.89062 6.1875,17.39062 0,10.26563 -6.14063,17.10938 -6.09375,6.79687 -15.375,6.79687 -8.01562,0 -14.34375,-6.42187 z m 25.07813,-47.39062 q 0,-6.5625 -3.5625,-10.6875 -3.60938,-4.17188 -9.09375,-4.17188 -5.8125,0 -9.42188,4.03125 -3.60937,4.03125 -3.60937,10.59375 0,6.42188 3.60937,10.59375 3.5625,4.07813 9.375,4.07813 5.48438,0 9.04688,-4.125 3.65625,-4.125 3.65625,-10.3125 z m 33.08437,47.39062 h -10.54687 v -70.5 h 10.54687 v 4.96875 q 6.23438,-6.23437 14.15625,-6.23437 9.42188,0 15.51563,6.9375 6.1875,6.89062 6.1875,17.39062 0,10.26563 -6.14063,17.10938 -6.09375,6.79687 -15.375,6.79687 -8.01562,0 -14.34375,-6.42187 z m 25.07813,-47.39062 q 0,-6.5625 -3.5625,-10.6875 -3.60938,-4.17188 -9.09375,-4.17188 -5.8125,0 -9.42188,4.03125 -3.60937,4.03125 -3.60937,10.59375 0,6.42188 3.60937,10.59375 3.5625,4.07813 9.375,4.07813 5.48438,0 9.04688,-4.125 3.65625,-4.125 3.65625,-10.3125 z m 33.08438,-56.625 v 79.17187 h -10.54688 v -79.17187 z m 29.19374,70.6875 -20.53125,-37.17188 h 12.23437 l 13.96875,26.25 13.03125,-26.25 h 11.90625 l -36.375,70.5 h -12.04687 z m 34.35001,3.23437 q 0,-2.625 1.92187,-4.54687 1.92188,-1.92188 4.59375,-1.92188 2.67188,0 4.59375,1.92188 1.92188,1.92187 1.92188,4.59375 0,2.71875 -1.92188,4.64062 -1.875,1.875 -4.59375,1.875 -2.76562,0 -4.64062,-1.875 -1.875,-1.875 -1.875,-4.6875 z m 64.11563,-38.4375 v 14.01563 q -3.60938,-4.40625 -6.46875,-6.04688 -2.8125,-1.6875 -6.60938,-1.6875 -5.95312,0 -9.89062,4.17188 -3.9375,4.17187 -3.9375,10.45312 0,6.42188 3.79687,10.54688 3.84375,4.125 9.79688,4.125 3.79687,0 6.70312,-1.64063 2.8125,-1.59375 6.60938,-6.1875 v 13.92188 q -6.42188,3.32812 -12.84375,3.32812 -10.59375,0 -17.71875,-6.84375 -7.125,-6.89062 -7.125,-17.10937 0,-10.21875 7.21875,-17.25 7.21875,-7.03125 17.71875,-7.03125 6.75,0 12.75,3.23437 z m 8.6625,20.53125 q 0,-9.89062 7.07813,-16.82812 7.07812,-6.9375 17.25,-6.9375 10.21875,0 17.34375,6.98437 7.03125,6.98438 7.03125,17.15625 0,10.26563 -7.07813,17.20313 -7.125,6.89062 -17.48437,6.89062 -10.26563,0 -17.20313,-7.03125 -6.9375,-6.9375 -6.9375,-17.4375 z m 10.78125,0.1875 q 0,6.84375 3.65625,10.82813 3.75,4.03125 9.89063,4.03125 6.1875,0 9.89062,-3.98438 3.70313,-3.98437 3.70313,-10.64062 0,-6.65625 -3.70313,-10.64063 -3.75,-4.03125 -9.89062,-4.03125 -6.04688,0 -9.79688,4.03125 -3.75,4.03125 -3.75,10.40625 z m 47.52185,-0.1875 q 0,-9.89062 7.07813,-16.82812 7.07812,-6.9375 17.25,-6.9375 10.21875,0 17.34375,6.98437 7.03125,6.98438 7.03125,17.15625 0,10.26563 -7.07813,17.20313 -7.125,6.89062 -17.48437,6.89062 -10.26563,0 -17.20313,-7.03125 -6.9375,-6.9375 -6.9375,-17.4375 z m 10.78125,0.1875 q 0,6.84375 3.65625,10.82813 3.75,4.03125 9.89063,4.03125 6.1875,0 9.89062,-3.98438 3.70313,-3.98437 3.70313,-10.64062 0,-6.65625 -3.70313,-10.64063 -3.75,-4.03125 -9.89062,-4.03125 -6.04688,0 -9.79688,4.03125 -3.75,4.03125 -3.75,10.40625 z m 60.22501,47.8125 h -10.54688 v -70.5 h 10.54688 v 4.96875 q 6.23437,-6.23437 14.15625,-6.23437 9.42187,0 15.51562,6.9375 6.1875,6.89062 6.1875,17.39062 0,10.26563 -6.14062,17.10938 -6.09375,6.79687 -15.375,6.79687 -8.01563,0 -14.34375,-6.42187 z m 25.07812,-47.39062 q 0,-6.5625 -3.5625,-10.6875 -3.60937,-4.17188 -9.09375,-4.17188 -5.8125,0 -9.42187,4.03125 -3.60938,4.03125 -3.60938,10.59375 0,6.42188 3.60938,10.59375 3.5625,4.07813 9.375,4.07813 5.48437,0 9.04687,-4.125 3.65625,-4.125 3.65625,-10.3125 z"
       id="text1"
       aria-label="apply.coop" />
  </g>
</svg>
