<?xml version="1.0" encoding="UTF-8" standalone="no"?>
<svg
   version="1.1"
   width="1024"
   height="1024"
   viewBox="0 0 1024 1024"
   xml:space="preserve"
   id="svg3"
   xmlns="http://www.w3.org/2000/svg"
   xmlns:svg="http://www.w3.org/2000/svg">
<desc
   id="desc1">Created with Fabric.js 5.3.0</desc>
<defs
   id="defs1" />
<g
   transform="translate(640,512)"
   id="background-logo">
<rect
   style="opacity:1;fill:#ffffff;fill-opacity:0;fill-rule:nonzero;stroke:none;stroke-width:0;stroke-linecap:butt;stroke-linejoin:miter;stroke-miterlimit:4;stroke-dasharray:none;stroke-dashoffset:0"
   paint-order="stroke"
   x="-640"
   y="-512"
   rx="0"
   ry="0"
   width="1280"
   height="1024"
   id="rect1" />
</g>

<g
   id="g3"
   transform="translate(-27.728919,-4.4368075)"><g
     transform="matrix(3.5457358,0,0,3.5457358,539.72892,435.83199)"
     id="logo-logo">
<g
   paint-order="stroke"
   id="g2">
		<g
   transform="scale(0.93733377)"
   id="g1">
<path
   style="opacity:1;fill:#7fd858;fill-rule:nonzero;stroke:none;stroke-width:1;stroke-linecap:butt;stroke-linejoin:miter;stroke-miterlimit:4;stroke-dasharray:none;stroke-dashoffset:0"
   paint-order="stroke"
   transform="translate(-83.6,-105.95)"
   d="M 83.6,0 C 37.5,0 0,37.5 0,83.6 v 44.7 c 0,46.1 37.5,83.6 83.6,83.6 46.1,0 83.6,-37.5 83.6,-83.6 V 83.6 C 167.2,37.5 129.7,0 83.6,0 Z M 156,128.3 c 0,38.4 -30.1,69.9 -68,72.2 v -25.1 c 23.4,-2.2 42,-21.5 42.9,-45.2 h -11.3 c -1,19 -16.8,34.2 -36.1,34.2 -19.3,0 -35.1,-15.2 -36.1,-34.2 H 36.3 c 0.9,22.9 18.2,41.7 40.5,44.9 v 25.2 C 40.1,196.8 11.3,165.9 11.3,128.3 V 83.6 c 0,-39.9 32.5,-72.4 72.4,-72.4 39.9,0 72.4,32.5 72.4,72.4 v 44.7 z M 83.6,54.4 c -16.1,0 -29.2,13.1 -29.2,29.2 v 44.7 c 0,16.1 13.1,29.2 29.2,29.2 16.1,0 29.2,-13.1 29.2,-29.2 V 83.6 C 112.8,67.5 99.7,54.4 83.6,54.4 Z m 18,73.9 c 0,9.9 -8.1,18 -18,18 -8.4,0 -15.5,-5.9 -17.5,-13.7 h 17.5 v -11.2 h -18 v -8.5 h 18 v -11.2 h -18 V 93 h 18 V 81.7 H 65.7 c 0.9,-9 8.6,-16.1 17.9,-16.1 9.9,0 18,8.1 18,18 z m -18,-92.1 c -25.5,0 -46.3,20.2 -47.3,45.4 h 11.3 c 1,-19 16.8,-34.2 36.1,-34.2 19.3,0 35.1,15.2 36.1,34.2 h 11.3 C 129.9,56.5 109.1,36.2 83.6,36.2 Z M 59.4,35.1 V 22.8 C 35.3,32.5 18.2,56.1 18.2,83.6 v 44.7 c 0,27.5 17.1,51.2 41.2,60.8 v -12.3 c -17.8,-8.9 -30,-27.3 -30,-48.5 V 83.6 c 0,-21.2 12.2,-39.6 30,-48.5 z m 48.5,-12.3 v 12.3 c 17.8,8.9 30,27.3 30,48.5 v 44.7 c 0,21.2 -12.2,39.6 -30,48.5 v 12.3 c 24.1,-9.7 41.2,-33.3 41.2,-60.8 V 83.6 C 149.1,56.1 132,32.4 107.9,22.8 Z"
   stroke-linecap="round"
   id="path1" />
</g>
</g>
</g><g
     transform="matrix(3.5457358,0,0,3.5457358,515.8493,824.44584)"
     id="text-logo">

<path
   style="font-size:54.1341px;font-family:'SF Pro';-inkscape-font-specification:'SF Pro';fill:#7fd858;stroke-width:0.52134"
   d="M -93.722606,34.647297 V -3.4950415 h 4.75788 V 30.365205 h 18.397136 v 4.282092 z m 27.965762,0 V 7.1573233 h 4.599284 V 34.647297 Z m 2.299642,-32.1421231 q -1.18947,0 -2.035315,-0.8458453 -0.845845,-0.84584536 -0.845845,-2.03531537 0,-1.21590273 0.845845,-2.03531533 0.845845,-0.8458454 2.035315,-0.8458454 1.215903,0 2.035316,0.8458454 0.845845,0.8194126 0.845845,2.03531533 0,1.18947001 -0.845845,2.03531537 -0.819413,0.8458453 -2.035316,0.8458453 z m 8.564184,32.1421231 V 7.1573233 h 4.599284 v 4.0177657 h 0.105731 q 0.925143,-2.0353157 2.907593,-3.277651 1.98245,-1.268768 4.625717,-1.268768 1.876719,0 3.383381,0.634384 1.533095,0.6079513 2.643267,1.7974213 1.110172,1.1630377 1.69169,2.8547277 h 0.105731 q 0.766547,-1.665258 2.035315,-2.828295 1.295201,-1.18947 2.960459,-1.823854 1.691691,-0.634384 3.621275,-0.634384 2.722565,0 4.731448,1.1366046 2.008883,1.1101721 3.119055,3.1454874 1.110172,2.008883 1.110172,4.75788 v 18.978655 h -4.599284 V 16.725949 q 0,-1.903152 -0.68725,-3.251218 -0.660817,-1.348066 -1.929585,-2.061748 -1.268768,-0.713682 -3.092622,-0.713682 -1.823854,0 -3.224785,0.845845 -1.400931,0.819413 -2.193911,2.299642 -0.79298,1.453797 -0.79298,3.330516 v 17.471993 h -4.599284 V 16.223728 q 0,-1.665258 -0.713682,-2.907593 -0.68725,-1.242336 -1.956018,-1.929585 -1.242335,-0.687249 -2.960458,-0.687249 -1.823854,0 -3.251218,0.89871 -1.400932,0.872278 -2.220344,2.37894 -0.819413,1.506662 -0.819413,3.436247 v 17.234099 z m 54.79492034,0.528653 q -3.93846734,0 -6.79319544,-1.744556 -2.8282953,-1.744556 -4.3613899,-4.916476 -1.506662,-3.198353 -1.506662,-7.506877 v -0.02643 q 0,-4.255659 1.533095,-7.480445 1.5330942,-3.251218 4.3085243,-5.048639 2.77543,-1.823854 6.5288687,-1.823854 3.7534387,0 6.4495707,1.744556 2.7225647,1.718123 4.1763613,4.837178 1.453797,3.119055 1.453797,7.242551 v 1.69169 H -10.459703 V 18.549803 H 9.4176624 L 7.0915877,21.880319 V 20.10933 q 0,-3.198353 -0.9780086,-5.286533 -0.951576,-2.088181 -2.6432667,-3.092622 -1.6916907,-1.030874 -3.88560207,-1.030874 -2.19391133,0 -3.93846733,1.083739 -1.7445561,1.057307 -2.7489974,3.17192 -1.0044413,2.088181 -1.0044413,5.15437 v 1.770989 q 0,2.907593 0.9780086,4.969341 1.0044414,2.061748 2.8282954,3.17192 1.823854,1.08374 4.3085247,1.08374 1.744556,0 3.1190547,-0.528654 1.3744987,-0.528653 2.299642,-1.453796 0.9251434,-0.925144 1.3216334,-2.114614 l 0.079298,-0.237894 h 4.5199859 l -0.05286,0.264327 q -0.343625,1.691691 -1.3216336,3.17192 -0.951576,1.480229 -2.458238,2.616834 -1.506662,1.110172 -3.4362467,1.744556 -1.9295847,0.607951 -4.17636136,0.607951 z m 27.80716466,0 q -3.885602,0 -6.766762,-1.744556 -2.854728,-1.770988 -4.414256,-4.969341 -1.559527,-3.224786 -1.559527,-7.586176 v -0.02643 q 0,-4.334958 1.58596,-7.53331 1.58596,-3.198353 4.440688,-4.942909 2.854728,-1.744556 6.661032,-1.744556 3.436247,0 5.894485,1.348066 2.458238,1.3216333 3.859169,3.436247 1.427364,2.114613 1.718124,4.46712 l 0.02643,0.211462 h -4.493553 l -0.05287,-0.211462 q -0.502221,-2.061748 -2.220344,-3.621275 -1.691691,-1.559527 -4.731448,-1.559527 -2.37894,0 -4.176361,1.268768 -1.797422,1.242335 -2.801863,3.541977 -1.004441,2.273209 -1.004441,5.392264 v 0.02643 q 0,3.198352 1.004441,5.471562 1.030874,2.273209 2.828295,3.489112 1.823854,1.215903 4.202794,1.215903 2.828296,0 4.572852,-1.427364 1.770989,-1.453797 2.352507,-3.753439 l 0.05287,-0.211462 h 4.519986 l -0.02643,0.185029 q -0.370057,2.616834 -1.929585,4.731448 -1.533094,2.08818 -3.991332,3.330516 -2.431806,1.215902 -5.550861,1.215902 z m 23.762963,0 q -2.722565,0 -4.784313,-1.030874 -2.061748,-1.030874 -3.224785,-2.907593 -1.136605,-1.876719 -1.136605,-4.36139 v -0.05287 q 0,-2.352507 1.163038,-4.07063 1.18947,-1.718124 3.409814,-2.722565 2.246776,-1.004441 5.392264,-1.18947 l 10.176576,-0.581519 v 3.56841 l -9.647923,0.581519 q -2.748997,0.158596 -4.282092,1.321633 -1.506662,1.163038 -1.506662,3.092622 v 0.05287 q 0,1.98245 1.480229,3.145487 1.506662,1.163038 3.991333,1.163038 2.167479,0 3.885602,-0.898711 1.744556,-0.925143 2.748997,-2.511103 1.030874,-1.585961 1.030874,-3.568411 v -8.114828 q 0,-2.511104 -1.58596,-3.938468 -1.559527,-1.453796 -4.440688,-1.453796 -2.643266,0 -4.282092,1.163037 -1.612392,1.136605 -2.008882,2.986891 l -0.05287,0.237894 h -4.440688 l 0.02643,-0.290759 q 0.211461,-2.273209 1.533095,-4.123496 1.348066,-1.8502867 3.700573,-2.934026 2.352507,-1.110172 5.577293,-1.110172 3.251218,0 5.603725,1.110172 2.37894,1.110172 3.674141,3.145487 1.2952,2.008883 1.2952,4.75788 V 34.647297 H 60.16837 v -4.467121 h -0.10573 q -0.79298,1.506662 -2.114614,2.643267 -1.321633,1.110172 -2.986891,1.744556 -1.638825,0.607951 -3.489112,0.607951 z m 28.890914,0 q -3.224786,0 -5.577293,-1.030874 -2.352507,-1.030874 -3.727006,-2.88116 -1.348066,-1.850287 -1.638825,-4.308525 l -0.02643,-0.237894 h 4.599284 l 0.05286,0.264326 q 0.422923,2.061749 1.98245,3.224786 1.559528,1.136605 4.361391,1.136605 1.876719,0 3.198352,-0.475788 1.321634,-0.502221 2.035316,-1.400932 0.713682,-0.925143 0.713682,-2.167479 v -0.02643 q 0,-1.48023 -0.898711,-2.37894 -0.898711,-0.898711 -3.251218,-1.48023 l -4.36139,-1.057306 Q 75.235004,21.721725 73.516881,20.717283 71.82519,19.686409 70.979345,18.20618 70.1335,16.725951 70.1335,14.743501 v -0.02643 q 0,-2.37894 1.268768,-4.202794 1.2952,-1.823854 3.56841,-2.854728 2.299642,-1.030874 5.260101,-1.030874 3.013324,0 5.233668,1.0837393 2.246776,1.0573067 3.515544,2.9075937 1.295201,1.823854 1.453797,4.123496 l 0.02643,0.343624 H 86.0724 L 86.04597,14.9021 q -0.264326,-2.008883 -1.770988,-3.224786 -1.48023,-1.215902 -4.044198,-1.215902 -1.665259,0 -2.881161,0.50222 -1.215903,0.502221 -1.87672,1.427364 -0.634384,0.898711 -0.634384,2.114614 v 0.02643 q 0,0.925144 0.422923,1.691691 0.449355,0.740115 1.400931,1.295201 0.951576,0.555086 2.458238,0.925143 l 4.361391,1.057307 q 4.176361,1.004441 5.868052,2.77543 1.69169,1.744556 1.69169,4.678582 v 0.02643 q 0,2.405373 -1.400931,4.25566 -1.374499,1.850287 -3.806304,2.907593 -2.405373,1.030874 -5.471562,1.030874 z m 24.370906,0 q -3.77987,0 -5.656587,-1.797421 -1.876719,-1.797421 -1.876719,-5.735889 V 10.963627 H 93.182779 V 7.1573233 h 4.017765 v -7.42757941 h 4.757876 V 7.1573233 h 5.23367 v 3.8063037 h -5.23367 v 16.652581 q 0,2.193911 0.95158,2.986891 0.95158,0.766547 2.80186,0.766547 0.42293,0 0.79298,-0.02643 0.39649,-0.05287 0.68725,-0.0793 v 3.727006 q -0.42292,0.05287 -1.11017,0.10573 -0.66082,0.0793 -1.34807,0.0793 z"
   id="text3"
   aria-label="Limecast" /></g></g>
</svg>
