<?xml version="1.0" encoding="UTF-8"?>
<!-- Generated by Pixelmator Pro 3.5.7 -->
<svg width="356" height="305" viewBox="0 0 356 305" xmlns="http://www.w3.org/2000/svg">
    <text id="Limeleaf" xml:space="preserve" x="-9" y="305" font-family="Helvetica" font-size="96" fill="#1c7258" letter-spacing="0.238125">Limeleaf</text>
    <g id="g19">
        <g id="g18">
            <path id="path16" fill="#1ca838" stroke="none" d="M 166.91568 0.233276 C 169.920563 1.150696 173.496674 1.370117 175.839203 3.096985 C 193.473328 16.096191 207.964203 31.484253 214.983856 51.864502 C 219.583435 65.218445 218.94516 77.960938 208.971008 88.884155 C 203.431763 94.9505 196.136749 98.596863 188.193726 101.248413 C 187.466919 101.491028 186.752289 101.763489 185.733978 102.129028 C 189.635651 103.361267 193.256653 104.246216 196.665314 105.626221 C 211.327301 111.562134 218.911011 123.438477 216.627167 138.038086 C 213.307373 159.26062 201.669952 175.778442 183.740723 188.354614 C 181.355743 190.027527 178.35376 190.934875 175.384766 191.960449 C 174.508423 181.959167 173.787048 172.195618 173.283234 162.428589 C 172.451996 146.312927 171.753967 130.195007 171.01416 114.077942 C 170.605835 105.184143 170.182678 96.290161 169.844696 87.395996 C 169.307617 73.264465 168.851563 59.132568 168.308899 45.001099 C 168.263794 43.836548 167.82016 42.673706 167.537354 41.20105 C 167.314453 27.33905 167.114746 13.786194 166.915619 0.233276 Z"/>
            <path id="path17" fill="#81c123" stroke="none" d="M 166.635132 0.17981 C 167.114746 13.786194 167.313873 27.33905 167.538696 41.216309 C 167.566803 41.540833 167.553162 41.566467 167.380676 41.768005 C 167.211761 43.589844 167.214508 45.209961 167.179474 47.147461 C 167.028229 55.372925 166.906555 63.280701 166.803497 71.189209 C 166.595886 87.117432 166.380859 103.045288 166.201355 118.974609 C 165.987854 137.915833 165.830719 156.859314 165.600189 175.799805 C 165.535095 181.141724 165.298279 186.476685 165.140228 191.814819 C 162.1492 190.441956 158.858795 189.460815 156.215393 187.633057 C 138.311584 175.253784 126.422882 159.003235 122.372284 138.572449 C 118.527283 119.17865 129.150146 105.65564 149.652161 102.299866 C 150.19397 102.211243 150.737579 102.130127 152.225403 101.898193 C 149.265808 100.741394 147.10965 99.960938 145.005371 99.065918 C 132.228241 93.630981 122.610626 85.485352 119.384521 72.111877 C 117.199799 63.055359 118.684509 54.321655 122.070068 45.941589 C 129.189819 28.318787 141.849335 14.702454 157.318298 3.310852 C 159.728485 1.53595 163.312592 1.152832 166.63446 0.179565 Z"/>
            <path id="path18" fill="#1c7258" stroke="none" d="M 165.195099 192.107666 C 165.298889 186.476929 165.535797 181.141968 165.60083 175.800049 C 165.831421 156.859497 165.988556 137.916016 166.202057 118.974854 C 166.3815 103.045471 166.596558 87.117615 166.804169 71.189392 C 166.907135 63.280884 167.0289 55.373108 167.330536 46.950928 C 167.530457 44.813293 167.541962 43.189941 167.553253 41.566467 C 167.553253 41.566467 167.563263 41.540222 167.563751 41.525513 C 167.820679 42.673828 168.264832 43.83667 168.30957 45.00116 C 168.852203 59.13269 169.308319 73.264526 169.845337 87.396118 C 170.18338 96.290283 170.606567 105.184204 171.014801 114.078003 C 171.754669 130.195129 172.452637 146.313049 173.283905 162.428772 C 173.787689 172.19574 174.509094 181.959229 175.141052 192.020752 C 175.324432 197.865967 175.483673 203.414795 175.680206 208.963562 C 175.814941 212.763611 174.262817 214.397522 170.489349 214.34314 C 166.747192 214.289551 165.220093 212.638794 165.23233 208.708618 C 165.249268 203.272949 165.244873 197.836548 165.195709 192.107788 Z"/>
        </g>
    </g>
</svg>
