<?xml version="1.0" encoding="UTF-8"?>
<!-- Generated by Pixelmator Pro 3.5.7 -->
<svg width="288" height="288" viewBox="0 0 288 288" xmlns="http://www.w3.org/2000/svg">
    <g id="g2">
        <path id="path7" fill="#1ca838" stroke="none" d="M 143.234558 0.762085 C 147.215424 1.933655 151.972961 2.157593 155.053314 4.428162 C 178.241821 21.520447 197.189941 41.879395 206.074524 69.08313 C 211.896149 86.90802 210.756104 104.015747 197.224304 118.866699 C 189.709351 127.114502 179.911163 132.150146 169.272614 135.863953 C 168.299194 136.203735 167.341248 136.583313 165.976746 137.093811 C 171.144806 138.670105 175.946991 139.78595 180.455017 141.57019 C 199.846191 149.244934 209.675507 165.028717 206.301727 184.6604 C 201.397522 213.197784 185.523407 235.587219 161.359711 252.812622 C 158.145477 255.103882 154.126892 256.380371 150.149567 257.814789 C 149.210144 244.414337 148.471649 231.329895 148.023041 218.236542 C 147.282776 196.632263 146.720062 175.022339 146.101624 153.414276 C 145.760223 141.49054 145.399109 129.566833 145.151398 117.641113 C 144.757843 98.692932 144.472107 79.742737 144.071106 60.794678 C 144.037506 59.233276 143.473145 57.682007 143.130035 55.711792 C 143.148682 37.119141 143.191223 18.940613 143.234497 0.762085 Z"/>
        <path id="path8" fill="#81c123" stroke="none" d="M 142.862152 0.695862 C 143.191223 18.940613 143.147949 37.119141 143.131531 55.7323 C 143.161377 56.167053 143.1427 56.201782 142.908417 56.475525 C 142.641998 58.922974 142.608795 61.096497 142.518036 63.696533 C 142.129364 74.734741 141.787354 85.34613 141.470093 95.958191 C 140.831085 117.33136 140.18219 138.704346 139.580566 160.078461 C 138.865204 185.49408 138.224762 210.911621 137.486603 236.326569 C 137.278412 243.494568 136.841583 250.656494 136.509583 257.821228 C 132.557495 256.03833 128.197784 254.786835 124.719025 252.386841 C 101.157288 236.131653 85.694275 214.56427 80.764862 187.234344 C 76.085693 161.291534 90.540527 142.93988 117.920593 138.033875 C 118.644196 137.904175 119.369965 137.784729 121.356659 137.444275 C 117.441528 135.950623 114.58783 134.946106 111.805817 133.786743 C 94.913513 126.747009 82.290558 116.008362 78.298553 98.130188 C 75.595154 86.023193 77.77121 74.276855 82.470673 62.96759 C 92.353546 39.184631 109.522858 20.667664 130.383057 5.080017 C 133.633209 2.651367 138.4151 2.06665 142.861176 0.695557 Z"/>
        <path id="path9" fill="#1c7258" stroke="none" d="M 136.57608 258.212952 C 136.842468 250.656769 137.279388 243.494781 137.487579 236.326843 C 138.225739 210.911865 138.866119 185.494324 139.581604 160.078796 C 140.183136 138.70459 140.832031 117.331665 141.471039 95.958374 C 141.788177 85.346375 142.130341 74.734985 142.723755 63.429871 C 143.038666 60.558167 143.090912 58.380005 143.142914 56.201782 C 143.142914 56.201782 143.157837 56.16626 143.157837 56.146606 C 143.473846 57.682068 144.038879 59.233459 144.07196 60.794861 C 144.473022 79.742859 144.758728 98.693054 145.152313 117.641235 C 145.400055 129.566956 145.7612 141.490601 146.102478 153.414398 C 146.720947 175.022491 147.28363 196.632355 148.023895 218.236664 C 148.472504 231.330017 149.211029 244.414459 149.823639 257.900452 C 149.934814 265.738739 150.02066 273.179871 150.156097 280.620148 C 150.248993 285.715637 148.144775 287.938202 143.120667 287.939667 C 138.138245 287.941498 136.14209 285.756836 136.247803 280.484009 C 136.394043 273.191193 136.511963 265.897827 136.576904 258.213104 Z"/>
    </g>
</svg>
