<?xml version="1.0" encoding="UTF-8" standalone="no"?>
<svg
   version="1.1"
   width="1024"
   height="1024"
   viewBox="0 0 1024 1024"
   xml:space="preserve"
   id="svg3"
   xmlns="http://www.w3.org/2000/svg"
   xmlns:svg="http://www.w3.org/2000/svg">
<desc
   id="desc1">Created with Fabric.js 5.3.0</desc>
<defs
   id="defs1" />
<g
   transform="translate(640,512)"
   id="background-logo">
<rect
   style="opacity:1;fill:#ffffff;fill-opacity:0;fill-rule:nonzero;stroke:none;stroke-width:0;stroke-linecap:butt;stroke-linejoin:miter;stroke-miterlimit:4;stroke-dasharray:none;stroke-dashoffset:0"
   paint-order="stroke"
   x="-640"
   y="-512"
   rx="0"
   ry="0"
   width="1280"
   height="1024"
   id="rect1" />
</g>

<g
   id="g3"
   transform="translate(-27.728919,-4.4368075)"><g
     transform="matrix(3.5457358,0,0,3.5457358,539.72892,435.83199)"
     id="logo-logo">
<g
   paint-order="stroke"
   id="g2">
		<g
   transform="scale(0.93733377)"
   id="g1">
<path
   style="opacity:1;fill:#7fd858;fill-rule:nonzero;stroke:none;stroke-width:1;stroke-linecap:butt;stroke-linejoin:miter;stroke-miterlimit:4;stroke-dasharray:none;stroke-dashoffset:0"
   paint-order="stroke"
   transform="translate(-83.6,-105.95)"
   d="M 83.6,0 C 37.5,0 0,37.5 0,83.6 v 44.7 c 0,46.1 37.5,83.6 83.6,83.6 46.1,0 83.6,-37.5 83.6,-83.6 V 83.6 C 167.2,37.5 129.7,0 83.6,0 Z M 156,128.3 c 0,38.4 -30.1,69.9 -68,72.2 v -25.1 c 23.4,-2.2 42,-21.5 42.9,-45.2 h -11.3 c -1,19 -16.8,34.2 -36.1,34.2 -19.3,0 -35.1,-15.2 -36.1,-34.2 H 36.3 c 0.9,22.9 18.2,41.7 40.5,44.9 v 25.2 C 40.1,196.8 11.3,165.9 11.3,128.3 V 83.6 c 0,-39.9 32.5,-72.4 72.4,-72.4 39.9,0 72.4,32.5 72.4,72.4 v 44.7 z M 83.6,54.4 c -16.1,0 -29.2,13.1 -29.2,29.2 v 44.7 c 0,16.1 13.1,29.2 29.2,29.2 16.1,0 29.2,-13.1 29.2,-29.2 V 83.6 C 112.8,67.5 99.7,54.4 83.6,54.4 Z m 18,73.9 c 0,9.9 -8.1,18 -18,18 -8.4,0 -15.5,-5.9 -17.5,-13.7 h 17.5 v -11.2 h -18 v -8.5 h 18 v -11.2 h -18 V 93 h 18 V 81.7 H 65.7 c 0.9,-9 8.6,-16.1 17.9,-16.1 9.9,0 18,8.1 18,18 z m -18,-92.1 c -25.5,0 -46.3,20.2 -47.3,45.4 h 11.3 c 1,-19 16.8,-34.2 36.1,-34.2 19.3,0 35.1,15.2 36.1,34.2 h 11.3 C 129.9,56.5 109.1,36.2 83.6,36.2 Z M 59.4,35.1 V 22.8 C 35.3,32.5 18.2,56.1 18.2,83.6 v 44.7 c 0,27.5 17.1,51.2 41.2,60.8 v -12.3 c -17.8,-8.9 -30,-27.3 -30,-48.5 V 83.6 c 0,-21.2 12.2,-39.6 30,-48.5 z m 48.5,-12.3 v 12.3 c 17.8,8.9 30,27.3 30,48.5 v 44.7 c 0,21.2 -12.2,39.6 -30,48.5 v 12.3 c 24.1,-9.7 41.2,-33.3 41.2,-60.8 V 83.6 C 149.1,56.1 132,32.4 107.9,22.8 Z"
   stroke-linecap="round"
   id="path1" />
</g>
</g>
</g><g
     transform="matrix(3.5457358,0,0,3.5457358,515.8493,824.44584)"
     id="text-logo">

<text
   xml:space="preserve"
   style="font-size:54.1341px;font-family:'SF Pro';-inkscape-font-specification:'SF Pro';fill:#7fd858;fill-opacity:1;stroke-width:0.521338"
   x="-97.42318"
   y="34.647297"
   id="text3"><tspan
     id="tspan3"
     style="font-size:54.1341px;fill:#7fd858;fill-opacity:1;stroke-width:0.52134"
     x="-97.42318"
     y="34.647297">Limecast</tspan></text></g></g>
</svg>
