<?xml version="1.0" encoding="UTF-8" standalone="no"?>
<svg
   viewBox="0 0 393.95856 308.31601"
   version="1.1"
   id="svg142"
   sodipodi:docname="rust-programming.svg"
   inkscape:version="1.3.2 (091e20e, 2023-11-25)"
   width="393.95856"
   height="308.31601"
   xmlns:inkscape="http://www.inkscape.org/namespaces/inkscape"
   xmlns:sodipodi="http://sodipodi.sourceforge.net/DTD/sodipodi-0.dtd"
   xmlns="http://www.w3.org/2000/svg"
   xmlns:svg="http://www.w3.org/2000/svg">
  <sodipodi:namedview
     id="namedview142"
     pagecolor="#ffffff"
     bordercolor="#000000"
     borderopacity="0.25"
     inkscape:showpageshadow="2"
     inkscape:pageopacity="0.0"
     inkscape:pagecheckerboard="0"
     inkscape:deskcolor="#d1d1d1"
     inkscape:zoom="1.166"
     inkscape:cx="201.11492"
     inkscape:cy="165.09434"
     inkscape:window-width="1392"
     inkscape:window-height="1212"
     inkscape:window-x="588"
     inkscape:window-y="25"
     inkscape:window-maximized="0"
     inkscape:current-layer="svg142" />
  <defs
     id="defs4">
    <clipPath
       id="freepik--clip-path--inject-3">
      <path
         d="m 212.75,195.81 c 0,0 0.38,7 -0.78,10.26 -1.16,3.26 -2.71,5.42 -2.71,7 0,1.58 2.52,3.49 2.52,6.58 0,3.09 -5.61,18 -7.16,20.9 -1.55,2.9 -1,3.87 -2.9,4.06 -1.9,0.19 -6.77,-2.12 -6.77,-2.12 0,0 -2.91,0.38 -3.29,1.54 -0.38,1.16 -1.36,5.23 -1.36,5.23 l -28.25,-12.58 a 28.26,28.26 0 0 0 5.81,-9.87 c 1.74,-5.61 -1,-14.32 -1,-14.32 0,0 -2.71,-20.31 9.67,-26.12 12.38,-5.81 30.38,-2.13 33.29,0.78 2.91,2.91 2.93,8.66 2.93,8.66 z"
         style="fill:#ffffff;stroke:#263238;stroke-linecap:round;stroke-linejoin:round"
         id="path1" />
    </clipPath>
    <clipPath
       id="freepik--clip-path-2--inject-3">
      <path
         d="m 156.25,240.51 -0.71,0.49 c -2.72,1.87 -12.76,8.83 -20.38,14.8 -8.9,7 -9.48,19.93 -9.87,30 -0.39,10.07 -6.88,72.7 -8.43,80.44 -1.55,7.74 12.3,9.72 25.65,11.66 13.35,1.94 30.57,-0.19 38.89,-4.06 8.32,-3.87 10.26,-3.68 10.26,-7.94 0,-4.26 0.19,-13.93 0.19,-14.7 0,-0.77 6,-48.18 5.61,-62.11 -0.39,-13.93 0.78,-21.48 -2.51,-28.45 -3.29,-6.97 -11.61,-12.38 -22.64,-16.06 -11.03,-3.68 -16.06,-4.07 -16.06,-4.07 z"
         style="fill:#92e3a9;stroke:#263238;stroke-linecap:round;stroke-linejoin:round"
         id="path2" />
    </clipPath>
    <clipPath
       id="freepik--clip-path-3--inject-3">
      <path
         d="m 158.18,233.93 -5.18,8.71 c 0,0 15.67,3.68 23.8,7 8.13,3.32 19,12 19,12 0,0 -1.74,-9.87 -3.29,-12.38 -1.55,-2.51 -17.61,-11 -24.19,-13.55 -6.58,-2.55 -10.14,-1.78 -10.14,-1.78 z"
         style="fill:#92e3a9;stroke:#263238;stroke-linecap:round;stroke-linejoin:round"
         id="path3" />
    </clipPath>
    <clipPath
       id="freepik--clip-path-4--inject-3">
      <path
         d="m 179.47,280.36 c 0,0 -5.42,7.36 -7.16,13.17 -1.74,5.81 0.38,14.12 1,16.06 0.62,1.94 31.53,62.88 34.82,68.88 3.29,6 7,6.38 9.68,5.42 2.68,-0.96 33.86,-23.22 35,-24.38 1.14,-1.16 6.39,-5.61 6.39,-5.61 0,0 1,-6.2 -3.29,-9.48 -4.29,-3.28 -6.39,-1.55 -6.39,-1.55 l -27.09,7.35 c 0,0 -15.28,-52.63 -17,-62.69 -1.72,-10.06 1,-9.48 -4.45,-14.9 a 75.81,75.81 0 0 0 -12,-9.5"
         style="fill:#92e3a9;stroke:#263238;stroke-linecap:round;stroke-linejoin:round"
         id="path4" />
    </clipPath>
  </defs>
  <g
     id="freepik--background-simple--inject-3"
     transform="translate(-48.711457,-84.703904)">
    <path
       d="m 84.3,283.67 c 0,0 14.34,57.67 70.9,85.33 56.56,27.66 124,15.12 178.92,6.39 54.92,-8.73 89.87,-49 86.14,-97 -3.73,-48 -48,-52.19 -81.83,-100 -33.83,-47.81 -35.56,-65.74 -90,-87.45 C 193.99,69.23 124,106.19 97,171 70,235.81 84.3,283.67 84.3,283.67 Z"
       style="fill:#92e3a9"
       id="path5" />
    <path
       d="m 84.3,283.67 c 0,0 14.34,57.67 70.9,85.33 56.56,27.66 124,15.12 178.92,6.39 54.92,-8.73 89.87,-49 86.14,-97 -3.73,-48 -48,-52.19 -81.83,-100 -33.83,-47.81 -35.56,-65.74 -90,-87.45 C 193.99,69.23 124,106.19 97,171 70,235.81 84.3,283.67 84.3,283.67 Z"
       style="opacity:0.7;fill:#ffffff"
       id="path6" />
  </g>
  <g
     id="freepik--Plants--inject-3"
     transform="translate(-48.711457,-84.703904)">
    <path
       d="m 412.84,340 c -3.62,4.53 -5.39,7.05 -6.15,8.19 a 86.42,86.42 0 0 1 4.13,-14.6 42.81,42.81 0 0 0 2.51,-11.41 l -0.33,0.18 -0.32,-0.6 c 0.13,-0.06 12.46,-6.61 15.95,-12.78 l 0.58,0.33 c -3.15,5.58 -12.88,11.22 -15.55,12.69 2.53,-0.24 10.43,-1.45 15.13,-7.25 5.64,-7 4.65,-15.61 4.65,-15.61 0,0 -10.63,7.3 -14.95,12.95 a 40.58,40.58 0 0 0 -5,8.39 58.4,58.4 0 0 0 -1.05,-13.73 C 416,304 429,293.23 430.45,285.2 c 1.66,-9.3 -0.67,-25.25 -0.67,-25.25 a 81.91,81.91 0 0 1 -4.65,9.64 c -3,5.31 -12.29,13.62 -13.95,22.59 a 38.79,38.79 0 0 0 -0.66,6.8 133.53,133.53 0 0 0 -5.36,-14.71 25.91,25.91 0 0 1 -1.33,-4 v 0 l -0.29,-0.17 c 0.06,-0.1 6,-10.2 6,-13.1 h 0.68 c 0,2.71 -4.57,10.75 -5.83,12.91 2.09,-1.25 5.49,-3.83 6.77,-7.83 a 16,16 0 0 0 -0.91,-11.3 c 0,0 -5.05,7.42 -6.43,12.17 a 28.56,28.56 0 0 0 -1.16,6.66 37,37 0 0 0 -4.15,-8.07 41.57,41.57 0 0 1 -5,-10 c 0,0 -3.65,6.32 -1,13 2.19,5.46 8.4,7.55 10.55,8.13 0.24,0.72 0.5,1.43 0.79,2.1 a 113.55,113.55 0 0 1 6.81,20.45 40.75,40.75 0 0 0 -7.24,-7.72 41.51,41.51 0 0 1 -7.66,-8.1 c 0,0 -1.67,7.1 2.8,12.69 3.66,4.57 10.16,4.79 12.42,4.72 1.54,8.05 1.71,16.45 -0.89,24.56 -0.17,-1.57 -1.12,-5.86 -6.34,-10.66 -6.58,-6.05 -19.77,-25.42 -19.77,-25.42 0,0 1.06,22.86 7.37,30.38 5.79,6.88 16.72,6.48 18.51,6.37 -0.12,0.35 -0.24,0.71 -0.37,1.07 -4.16,11.17 -5,19 -5.14,23.16 h -7.85 v 36.21 h 21.6 V 356.3 h -12.32 a 52.06,52.06 0 0 1 0.73,-7.05 l -0.23,0.07 -0.18,-0.66 c 0.14,0 13.67,-3.85 23.13,-13.58 l 0.48,0.48 c -7.63,7.85 -17.86,11.89 -21.79,13.23 3.9,-0.48 13.44,-1.92 17.88,-4.78 5.64,-3.66 10.63,-14.62 10.63,-14.62 0,0 -18.27,3.99 -23.59,10.61 z m -10.28,-58.84 a 16.92,16.92 0 0 1 -8.66,-11.6 l 0.66,-0.13 a 16.23,16.23 0 0 0 8.28,11.11 z m 9.56,25.8 -0.15,0.23 -0.25,-0.1 c -0.38,-0.15 -9.22,-3.79 -12.82,-9.05 l 0.56,-0.38 c 3.15,4.6 10.76,8.05 12.25,8.7 1.15,-1.76 8.33,-12.9 10.83,-19.91 l 0.64,0.23 c -2.73,7.68 -10.97,20.18 -11.06,20.32 z M 409,331.78 c -0.11,0 -10.64,-4 -15.33,-13.1 l 0.6,-0.31 c 4.57,8.87 14.86,12.74 15,12.78 z"
       style="fill:#263238"
       id="path7" />
  </g>
  <g
     id="freepik--Table--inject-3"
     transform="translate(-48.711457,-84.703904)">
    <rect
       x="198.05"
       y="215.89999"
       width="155.78"
       height="176.61"
       style="fill:none;stroke:#263238;stroke-miterlimit:10"
       id="rect7" />
    <rect
       x="198.05"
       y="230.89"
       width="142.56"
       height="161.62"
       style="fill:none;stroke:#263238;stroke-miterlimit:10"
       id="rect8" />
    <polygon
       points="353.84,215.9 353.84,392.51 340.62,392.51 340.62,230.89 "
       style="fill:#263238"
       id="polygon8" />
    <rect
       x="347.39999"
       y="359.98001"
       width="6.4400001"
       height="32.540001"
       style="fill:#ffffff;stroke:#263238;stroke-linecap:round;stroke-linejoin:round"
       id="rect9" />
    <polygon
       points="381.81,337.43 353.84,359.98 353.84,392.51 381.81,392.51 "
       style="fill:#263238;stroke:#263238;stroke-linecap:round;stroke-linejoin:round"
       id="polygon9" />
    <rect
       x="128.44"
       y="359.98001"
       width="6.4400001"
       height="32.540001"
       style="fill:#ffffff;stroke:#263238;stroke-linecap:round;stroke-linejoin:round"
       id="rect10" />
    <polygon
       points="162.85,337.43 134.88,359.98 134.88,392.51 162.85,392.51 "
       style="fill:#263238;stroke:#263238;stroke-linecap:round;stroke-linejoin:round"
       id="polygon10" />
    <polygon
       points="361.6,365.73 103.64,365.73 103.54,363.63 402.39,332.25 402.39,334.37 "
       style="fill:#ffffff;stroke:#263238;stroke-linecap:round;stroke-linejoin:round"
       id="polygon11" />
    <polygon
       points="103.64,363.61 168.72,332.25 402.39,332.25 361.6,363.61 "
       style="fill:#ffffff;stroke:#263238;stroke-linecap:round;stroke-linejoin:round"
       id="polygon12" />
    <polygon
       points="319.25,358.31 335.02,345.7 363.79,345.7 346.57,358.31 "
       style="fill:#92e3a9;stroke:#263238;stroke-linecap:round;stroke-linejoin:round"
       id="polygon13" />
    <polygon
       points="361.6,363.61 402.39,332.25 402.39,334.37 361.6,365.73 "
       style="fill:#263238;stroke:#263238;stroke-linecap:round;stroke-linejoin:round"
       id="polygon14" />
    <path
       d="m 327.61,333.71 h 47.07 c 0,0 7,-0.65 5.67,2.84 -1.33,3.49 -7.41,3.7 -20.92,4.14 -13.51,0.44 -17,8.71 -17,8.71"
       style="fill:none;stroke:#263238;stroke-linecap:round;stroke-linejoin:round"
       id="path14" />
    <path
       d="m 346,346.62 c 0,0 -4.44,-0.79 -7.58,0.78 -2,1 -3.73,4.45 -4.77,6.89 a 1.81,1.81 0 0 0 1.67,2.52 h 5.95 a 1.81,1.81 0 0 0 1.35,-0.6 l 6,-6.72 c 0,0 -0.23,-2.61 -2.62,-2.87 z"
       style="fill:#263238"
       id="path15" />
    <path
       d="m 342.3,355 a 6.74,6.74 0 0 1 3.7,-6.53"
       style="fill:none;stroke:#ffffff;stroke-width:0.5px;stroke-linecap:round;stroke-linejoin:round"
       id="path16" />
    <polygon
       points="214.7,360.09 238.04,341.46 334.01,341.46 310.67,360.09 "
       style="fill:#ffffff;stroke:#263238;stroke-linecap:round;stroke-linejoin:round"
       id="polygon16" />
    <polygon
       points="334.01,341.46 310.67,360.09 310.67,361.25 334.01,342.63 "
       style="fill:none;stroke:#263238;stroke-linecap:round;stroke-linejoin:round"
       id="polygon17" />
    <rect
       x="214.7"
       y="360.09"
       width="95.970001"
       height="1.17"
       style="fill:#ffffff;stroke:#263238;stroke-linecap:round;stroke-linejoin:round"
       id="rect17" />
    <polygon
       points="242.91,354.53 249.24,354.53 252.33,352.04 245.99,352.04 "
       style="fill:none;stroke:#263238;stroke-linecap:round;stroke-linejoin:round"
       id="polygon18" />
    <polygon
       points="249.24,354.53 255.58,354.53 258.66,352.04 252.33,352.04 "
       style="fill:none;stroke:#263238;stroke-linecap:round;stroke-linejoin:round"
       id="polygon19" />
    <polygon
       points="236.57,354.53 242.91,354.53 245.99,352.04 239.65,352.04 "
       style="fill:none;stroke:#263238;stroke-linecap:round;stroke-linejoin:round"
       id="polygon20" />
    <polygon
       points="242.74,349.55 239.65,352.04 245.99,352.04 249.07,349.55 "
       style="fill:none;stroke:#263238;stroke-linecap:round;stroke-linejoin:round"
       id="polygon21" />
    <polygon
       points="258.5,347.06 252.16,347.06 249.07,349.55 255.41,349.55 "
       style="fill:none;stroke:#263238;stroke-linecap:round;stroke-linejoin:round"
       id="polygon22" />
    <polygon
       points="245.82,347.06 242.74,349.55 249.07,349.55 252.16,347.06 "
       style="fill:none;stroke:#263238;stroke-linecap:round;stroke-linejoin:round"
       id="polygon23" />
    <polygon
       points="255.58,354.53 261.92,354.53 265,352.04 258.66,352.04 "
       style="fill:none;stroke:#263238;stroke-linecap:round;stroke-linejoin:round"
       id="polygon24" />
    <polygon
       points="287.26,354.53 293.6,354.53 296.69,352.04 290.35,352.04 "
       style="fill:none;stroke:#263238;stroke-linecap:round;stroke-linejoin:round"
       id="polygon25" />
    <polygon
       points="264.83,347.06 258.5,347.06 255.41,349.55 261.75,349.55 "
       style="fill:none;stroke:#263238;stroke-linecap:round;stroke-linejoin:round"
       id="polygon26" />
    <polygon
       points="261.92,354.53 268.25,354.53 271.34,352.04 265,352.04 "
       style="fill:none;stroke:#263238;stroke-linecap:round;stroke-linejoin:round"
       id="polygon27" />
    <polygon
       points="306.27,354.53 309.36,352.04 303.02,352.04 299.94,354.53 "
       style="fill:none;stroke:#263238;stroke-linecap:round;stroke-linejoin:round"
       id="polygon28" />
    <polygon
       points="309.36,352.04 312.44,349.55 306.11,349.55 303.02,352.04 "
       style="fill:none;stroke:#263238;stroke-linecap:round;stroke-linejoin:round"
       id="polygon29" />
    <polygon
       points="293.6,354.53 299.94,354.53 303.02,352.04 296.69,352.04 "
       style="fill:none;stroke:#263238;stroke-linecap:round;stroke-linejoin:round"
       id="polygon30" />
    <polygon
       points="280.93,354.53 287.26,354.53 290.35,352.04 284.01,352.04 "
       style="fill:none;stroke:#263238;stroke-linecap:round;stroke-linejoin:round"
       id="polygon31" />
    <polygon
       points="268.25,354.53 274.59,354.53 277.68,352.04 271.34,352.04 "
       style="fill:none;stroke:#263238;stroke-linecap:round;stroke-linejoin:round"
       id="polygon32" />
    <polygon
       points="274.59,354.53 280.93,354.53 284.01,352.04 277.68,352.04 "
       style="fill:none;stroke:#263238;stroke-linecap:round;stroke-linejoin:round"
       id="polygon33" />
    <polygon
       points="290.18,347.06 283.84,347.06 280.76,349.55 287.1,349.55 "
       style="fill:none;stroke:#263238;stroke-linecap:round;stroke-linejoin:round"
       id="polygon34" />
    <polygon
       points="290.35,352.04 296.69,352.04 299.77,349.55 293.43,349.55 "
       style="fill:none;stroke:#263238;stroke-linecap:round;stroke-linejoin:round"
       id="polygon35" />
    <polygon
       points="277.68,352.04 284.01,352.04 287.1,349.55 280.76,349.55 "
       style="fill:none;stroke:#263238;stroke-linecap:round;stroke-linejoin:round"
       id="polygon36" />
    <polygon
       points="265,352.04 271.34,352.04 274.42,349.55 268.08,349.55 "
       style="fill:none;stroke:#263238;stroke-linecap:round;stroke-linejoin:round"
       id="polygon37" />
    <polygon
       points="284.01,352.04 290.35,352.04 293.43,349.55 287.1,349.55 "
       style="fill:none;stroke:#263238;stroke-linecap:round;stroke-linejoin:round"
       id="polygon38" />
    <polygon
       points="271.17,347.06 264.83,347.06 261.75,349.55 268.08,349.55 "
       style="fill:none;stroke:#263238;stroke-linecap:round;stroke-linejoin:round"
       id="polygon39" />
    <polygon
       points="245.99,352.04 252.33,352.04 255.41,349.55 249.07,349.55 "
       style="fill:none;stroke:#263238;stroke-linecap:round;stroke-linejoin:round"
       id="polygon40" />
    <polygon
       points="258.66,352.04 265,352.04 268.08,349.55 261.75,349.55 "
       style="fill:none;stroke:#263238;stroke-linecap:round;stroke-linejoin:round"
       id="polygon41" />
    <polygon
       points="252.33,352.04 258.66,352.04 261.75,349.55 255.41,349.55 "
       style="fill:none;stroke:#263238;stroke-linecap:round;stroke-linejoin:round"
       id="polygon42" />
    <polygon
       points="271.34,352.04 277.68,352.04 280.76,349.55 274.42,349.55 "
       style="fill:none;stroke:#263238;stroke-linecap:round;stroke-linejoin:round"
       id="polygon43" />
    <polygon
       points="283.84,347.06 277.51,347.06 274.42,349.55 280.76,349.55 "
       style="fill:none;stroke:#263238;stroke-linecap:round;stroke-linejoin:round"
       id="polygon44" />
    <polygon
       points="312.44,349.55 315.53,347.06 309.19,347.06 306.11,349.55 "
       style="fill:none;stroke:#263238;stroke-linecap:round;stroke-linejoin:round"
       id="polygon45" />
    <polygon
       points="277.51,347.06 271.17,347.06 268.08,349.55 274.42,349.55 "
       style="fill:none;stroke:#263238;stroke-linecap:round;stroke-linejoin:round"
       id="polygon46" />
    <polygon
       points="302.85,347.06 296.52,347.06 293.43,349.55 299.77,349.55 "
       style="fill:none;stroke:#263238;stroke-linecap:round;stroke-linejoin:round"
       id="polygon47" />
    <polygon
       points="309.19,347.06 302.85,347.06 299.77,349.55 306.11,349.55 "
       style="fill:none;stroke:#263238;stroke-linecap:round;stroke-linejoin:round"
       id="polygon48" />
    <polygon
       points="303.02,352.04 306.11,349.55 299.77,349.55 296.69,352.04 "
       style="fill:none;stroke:#263238;stroke-linecap:round;stroke-linejoin:round"
       id="polygon49" />
    <polygon
       points="296.52,347.06 290.18,347.06 287.1,349.55 293.43,349.55 "
       style="fill:none;stroke:#263238;stroke-linecap:round;stroke-linejoin:round"
       id="polygon50" />
    <polygon
       points="271.51,357.02 277.84,357.02 280.93,354.53 274.59,354.53 "
       style="fill:none;stroke:#263238;stroke-linecap:round;stroke-linejoin:round"
       id="polygon51" />
    <polygon
       points="277.84,357.02 284.18,357.02 287.26,354.53 280.93,354.53 "
       style="fill:none;stroke:#263238;stroke-linecap:round;stroke-linejoin:round"
       id="polygon52" />
    <polygon
       points="265.17,357.02 271.51,357.02 274.59,354.53 268.25,354.53 "
       style="fill:none;stroke:#263238;stroke-linecap:round;stroke-linejoin:round"
       id="polygon53" />
    <polygon
       points="284.18,357.02 290.52,357.02 293.6,354.53 287.26,354.53 "
       style="fill:none;stroke:#263238;stroke-linecap:round;stroke-linejoin:round"
       id="polygon54" />
    <polygon
       points="258.83,357.02 265.17,357.02 268.25,354.53 261.92,354.53 "
       style="fill:none;stroke:#263238;stroke-linecap:round;stroke-linejoin:round"
       id="polygon55" />
    <polygon
       points="252.5,357.02 258.83,357.02 261.92,354.53 255.58,354.53 "
       style="fill:none;stroke:#263238;stroke-linecap:round;stroke-linejoin:round"
       id="polygon56" />
    <polygon
       points="290.52,357.02 296.85,357.02 299.94,354.53 293.6,354.53 "
       style="fill:none;stroke:#263238;stroke-linecap:round;stroke-linejoin:round"
       id="polygon57" />
    <polygon
       points="239.82,357.02 246.16,357.02 249.24,354.53 242.91,354.53 "
       style="fill:none;stroke:#263238;stroke-linecap:round;stroke-linejoin:round"
       id="polygon58" />
    <polygon
       points="246.16,357.02 252.5,357.02 255.58,354.53 249.24,354.53 "
       style="fill:none;stroke:#263238;stroke-linecap:round;stroke-linejoin:round"
       id="polygon59" />
    <polygon
       points="315.7,352.04 318.78,349.55 312.44,349.55 309.36,352.04 "
       style="fill:none;stroke:#263238;stroke-linecap:round;stroke-linejoin:round"
       id="polygon60" />
    <polygon
       points="315.53,347.06 321.86,347.06 324.95,344.57 318.61,344.57 "
       style="fill:none;stroke:#263238;stroke-linecap:round;stroke-linejoin:round"
       id="polygon61" />
    <polygon
       points="318.78,349.55 321.86,347.06 315.53,347.06 312.44,349.55 "
       style="fill:none;stroke:#263238;stroke-linecap:round;stroke-linejoin:round"
       id="polygon62" />
    <polygon
       points="233.49,357.02 239.82,357.02 242.91,354.53 236.57,354.53 "
       style="fill:none;stroke:#263238;stroke-linecap:round;stroke-linejoin:round"
       id="polygon63" />
    <polygon
       points="296.85,357.02 303.19,357.02 306.27,354.53 299.94,354.53 "
       style="fill:none;stroke:#263238;stroke-linecap:round;stroke-linejoin:round"
       id="polygon64" />
    <polygon
       points="309.53,357.02 312.61,354.53 306.27,354.53 303.19,357.02 "
       style="fill:none;stroke:#263238;stroke-linecap:round;stroke-linejoin:round"
       id="polygon65" />
    <polygon
       points="312.61,354.53 315.7,352.04 309.36,352.04 306.27,354.53 "
       style="fill:none;stroke:#263238;stroke-linecap:round;stroke-linejoin:round"
       id="polygon66" />
    <polygon
       points="236.4,349.55 233.32,352.04 239.65,352.04 242.74,349.55 "
       style="fill:none;stroke:#263238;stroke-linecap:round;stroke-linejoin:round"
       id="polygon67" />
    <polygon
       points="286.93,344.57 280.59,344.57 277.51,347.06 283.84,347.06 "
       style="fill:none;stroke:#263238;stroke-linecap:round;stroke-linejoin:round"
       id="polygon68" />
    <polygon
       points="293.26,344.57 286.93,344.57 283.84,347.06 290.18,347.06 "
       style="fill:none;stroke:#263238;stroke-linecap:round;stroke-linejoin:round"
       id="polygon69" />
    <polygon
       points="280.59,344.57 274.25,344.57 271.17,347.06 277.51,347.06 "
       style="fill:none;stroke:#263238;stroke-linecap:round;stroke-linejoin:round"
       id="polygon70" />
    <polygon
       points="299.6,344.57 293.26,344.57 290.18,347.06 296.52,347.06 "
       style="fill:none;stroke:#263238;stroke-linecap:round;stroke-linejoin:round"
       id="polygon71" />
    <polygon
       points="312.27,344.57 305.94,344.57 302.85,347.06 309.19,347.06 "
       style="fill:none;stroke:#263238;stroke-linecap:round;stroke-linejoin:round"
       id="polygon72" />
    <polygon
       points="305.94,344.57 299.6,344.57 296.52,347.06 302.85,347.06 "
       style="fill:none;stroke:#263238;stroke-linecap:round;stroke-linejoin:round"
       id="polygon73" />
    <polygon
       points="274.25,344.57 267.92,344.57 264.83,347.06 271.17,347.06 "
       style="fill:none;stroke:#263238;stroke-linecap:round;stroke-linejoin:round"
       id="polygon74" />
    <polygon
       points="233.32,352.04 230.23,354.53 236.57,354.53 239.65,352.04 "
       style="fill:none;stroke:#263238;stroke-linecap:round;stroke-linejoin:round"
       id="polygon75" />
    <polygon
       points="239.48,347.06 236.4,349.55 242.74,349.55 245.82,347.06 "
       style="fill:none;stroke:#263238;stroke-linecap:round;stroke-linejoin:round"
       id="polygon76" />
    <polygon
       points="318.61,344.57 312.27,344.57 309.19,347.06 315.53,347.06 "
       style="fill:none;stroke:#263238;stroke-linecap:round;stroke-linejoin:round"
       id="polygon77" />
    <polygon
       points="227.15,357.02 233.49,357.02 236.57,354.53 230.23,354.53 "
       style="fill:none;stroke:#263238;stroke-linecap:round;stroke-linejoin:round"
       id="polygon78" />
    <polygon
       points="242.57,344.57 239.48,347.06 245.82,347.06 248.91,344.57 "
       style="fill:none;stroke:#263238;stroke-linecap:round;stroke-linejoin:round"
       id="polygon79" />
    <polygon
       points="261.58,344.57 255.24,344.57 252.16,347.06 258.5,347.06 "
       style="fill:none;stroke:#263238;stroke-linecap:round;stroke-linejoin:round"
       id="polygon80" />
    <polygon
       points="255.24,344.57 248.91,344.57 245.82,347.06 252.16,347.06 "
       style="fill:none;stroke:#263238;stroke-linecap:round;stroke-linejoin:round"
       id="polygon81" />
    <polygon
       points="267.92,344.57 261.58,344.57 258.5,347.06 264.83,347.06 "
       style="fill:none;stroke:#263238;stroke-linecap:round;stroke-linejoin:round"
       id="polygon82" />
  </g>
  <g
     id="freepik--device-3--inject-3"
     transform="translate(-48.711457,-84.703904)">
    <path
       d="m 337.42,339 h -33.08 a 0.52,0.52 0 0 1 -0.23,-1 l 6.8,-3.28 a 0.59,0.59 0 0 1 0.23,0 h 30.54 a 0.53,0.53 0 0 1 0.32,0.94 l -4.26,3.27 a 0.54,0.54 0 0 1 -0.32,0.07 z"
       style="fill:#263238;stroke:#263238;stroke-linecap:round;stroke-linejoin:round"
       id="path82" />
    <rect
       x="321.63"
       y="314.07001"
       width="6.0799999"
       height="23.17"
       style="fill:#ffffff;stroke:#263238;stroke-linecap:round;stroke-linejoin:round"
       id="rect82" />
    <rect
       x="320.67999"
       y="314.07001"
       width="7.98"
       height="16.82"
       style="fill:#263238;stroke:#263238;stroke-linecap:round;stroke-linejoin:round"
       id="rect83" />
    <rect
       x="275.76999"
       y="236.99001"
       width="100.68"
       height="78.75"
       style="fill:#ffffff;stroke:#263238;stroke-linecap:round;stroke-linejoin:round"
       id="rect84" />
    <rect
       x="281.14999"
       y="241.2"
       width="89.910004"
       height="70.330002"
       style="fill:#263238;stroke:#263238;stroke-linecap:round;stroke-linejoin:round"
       id="rect85" />
    <path
       d="m 289.71,246 h -2.32 a 0.57,0.57 0 0 1 -0.57,-0.57 0.58,0.58 0 0 1 0.57,-0.57 h 2.32 a 0.58,0.58 0 0 1 0.57,0.57 0.57,0.57 0 0 1 -0.57,0.57 z m 0.57,2.08 a 0.57,0.57 0 0 0 -0.57,-0.57 h -2.32 a 0.57,0.57 0 0 0 0,1.14 h 2.32 a 0.57,0.57 0 0 0 0.57,-0.53 z m 0,2.65 a 0.57,0.57 0 0 0 -0.57,-0.57 h -2.32 a 0.57,0.57 0 0 0 -0.57,0.57 0.58,0.58 0 0 0 0.57,0.57 h 2.32 a 0.58,0.58 0 0 0 0.57,-0.53 z m 0,2.65 a 0.57,0.57 0 0 0 -0.57,-0.57 h -2.32 a 0.57,0.57 0 0 0 -0.57,0.57 0.58,0.58 0 0 0 0.57,0.57 h 2.32 a 0.58,0.58 0 0 0 0.57,-0.53 z m 0,2.65 a 0.58,0.58 0 0 0 -0.57,-0.58 h -2.32 a 0.58,0.58 0 0 0 0,1.15 h 2.32 a 0.58,0.58 0 0 0 0.57,-0.53 z m 0,2.64 a 0.58,0.58 0 0 0 -0.57,-0.57 h -2.32 a 0.58,0.58 0 0 0 0,1.15 h 2.32 a 0.58,0.58 0 0 0 0.57,-0.54 z m 0,2.65 a 0.58,0.58 0 0 0 -0.57,-0.57 h -2.32 a 0.58,0.58 0 0 0 -0.57,0.57 0.57,0.57 0 0 0 0.57,0.57 h 2.32 a 0.57,0.57 0 0 0 0.57,-0.53 z m 0,2.65 a 0.58,0.58 0 0 0 -0.57,-0.57 h -2.32 a 0.58,0.58 0 0 0 -0.57,0.57 0.57,0.57 0 0 0 0.57,0.57 h 2.32 a 0.57,0.57 0 0 0 0.57,-0.54 z m 8.72,-18.5 a 0.58,0.58 0 0 0 -0.57,-0.57 h -6.13 a 0.58,0.58 0 0 0 -0.58,0.57 0.57,0.57 0 0 0 0.58,0.57 h 6.08 a 0.57,0.57 0 0 0 0.62,-0.57 z m 0,2.65 a 0.57,0.57 0 0 0 -0.57,-0.57 h -6.13 a 0.57,0.57 0 1 0 0,1.14 h 6.08 a 0.57,0.57 0 0 0 0.62,-0.57 z m 0,2.65 a 0.57,0.57 0 0 0 -0.57,-0.57 h -6.13 a 0.57,0.57 0 0 0 -0.58,0.57 0.58,0.58 0 0 0 0.58,0.57 h 6.08 a 0.58,0.58 0 0 0 0.62,-0.57 z m 0,2.65 a 0.57,0.57 0 0 0 -0.57,-0.57 h -6.13 a 0.57,0.57 0 0 0 -0.58,0.57 0.58,0.58 0 0 0 0.58,0.57 h 6.08 a 0.58,0.58 0 0 0 0.62,-0.57 z m 0,2.65 a 0.58,0.58 0 0 0 -0.57,-0.58 h -6.13 a 0.58,0.58 0 1 0 0,1.15 h 6.08 a 0.58,0.58 0 0 0 0.62,-0.57 z m 7.28,2.64 a 0.57,0.57 0 0 0 -0.57,-0.57 h -6.08 a 0.58,0.58 0 0 0 0,1.15 h 6.08 a 0.57,0.57 0 0 0 0.52,-0.58 z m 0,2.65 a 0.57,0.57 0 0 0 -0.57,-0.57 h -6.08 a 0.57,0.57 0 0 0 -0.57,0.57 0.56,0.56 0 0 0 0.57,0.57 h 6.08 a 0.56,0.56 0 0 0 0.52,-0.57 z m 0,2.65 a 0.57,0.57 0 0 0 -0.57,-0.57 h -6.08 a 0.57,0.57 0 0 0 -0.57,0.57 0.56,0.56 0 0 0 0.57,0.57 h 6.08 a 0.56,0.56 0 0 0 0.52,-0.58 z m -4.6,-18.54 a 0.67,0.67 0 1 0 -0.66,0.66 0.67,0.67 0 0 0 0.61,-0.66 z m 2,0 a 0.66,0.66 0 1 0 -0.66,0.66 0.66,0.66 0 0 0 0.59,-0.66 z m 2,0 a 0.66,0.66 0 0 0 -1.32,0 0.66,0.66 0 1 0 1.32,0 z m 2,0 a 0.67,0.67 0 0 0 -1.33,0 0.67,0.67 0 0 0 1.33,0 z m 2,0 a 0.66,0.66 0 1 0 -0.66,0.66 0.66,0.66 0 0 0 0.55,-0.66 z m 2,0 a 0.66,0.66 0 0 0 -1.32,0 0.66,0.66 0 0 0 1.32,0 z m -9.93,5.3 a 0.67,0.67 0 0 0 -1.33,0 0.67,0.67 0 0 0 1.33,0 z m 2,0 a 0.66,0.66 0 0 0 -1.32,0 0.66,0.66 0 0 0 1.32,0 z m 2,0 a 0.66,0.66 0 1 0 -0.66,0.66 0.66,0.66 0 0 0 0.51,-0.66 z m 2,0 a 0.67,0.67 0 1 0 -0.67,0.66 0.66,0.66 0 0 0 0.51,-0.66 z m 2,0 a 0.66,0.66 0 1 0 -1.32,0 0.66,0.66 0 1 0 1.32,0 z m 2,0 a 0.66,0.66 0 1 0 -0.66,0.66 0.66,0.66 0 0 0 0.47,-0.66 z m -3.15,7.61 a 0.66,0.66 0 1 0 -1.32,0 0.66,0.66 0 1 0 1.32,0 z m 2,0 a 0.66,0.66 0 1 0 -0.66,0.67 0.67,0.67 0 0 0 0.46,-0.67 z m 2,0 a 0.67,0.67 0 1 0 -0.66,0.67 0.67,0.67 0 0 0 0.45,-0.67 z m 2,0 a 0.66,0.66 0 1 0 -1.32,0 0.66,0.66 0 1 0 1.32,0 z m 2,0 a 0.66,0.66 0 1 0 -0.66,0.67 0.67,0.67 0 0 0 0.42,-0.67 z m 2,0 a 0.67,0.67 0 1 0 -0.67,0.67 0.67,0.67 0 0 0 0.42,-0.67 z m -9.94,5.47 a 0.66,0.66 0 1 0 -0.66,0.66 0.66,0.66 0 0 0 0.41,-0.66 z m 2,0 a 0.66,0.66 0 1 0 -1.32,0 0.66,0.66 0 0 0 1.32,0 z m 2,0 a 0.67,0.67 0 1 0 -0.66,0.66 0.67,0.67 0 0 0 0.39,-0.66 z m 2,0 a 0.66,0.66 0 1 0 -0.66,0.66 0.66,0.66 0 0 0 0.37,-0.66 z m 2,0 a 0.66,0.66 0 1 0 -1.32,0 0.66,0.66 0 0 0 1.32,0 z m 2,0 a 0.67,0.67 0 1 0 -0.67,0.66 0.67,0.67 0 0 0 0.36,-0.66 z"
       style="fill:#92e3a9"
       id="path85" />
    <path
       d="m 289.71,267.24 h -2.32 a 0.58,0.58 0 0 1 0,-1.15 h 2.32 a 0.58,0.58 0 0 1 0,1.15 z m 0.57,2.07 a 0.58,0.58 0 0 0 -0.57,-0.57 h -2.32 a 0.58,0.58 0 0 0 0,1.15 h 2.32 a 0.58,0.58 0 0 0 0.57,-0.58 z m 0,2.65 a 0.58,0.58 0 0 0 -0.57,-0.57 h -2.32 a 0.58,0.58 0 0 0 -0.57,0.57 0.57,0.57 0 0 0 0.57,0.57 h 2.32 a 0.57,0.57 0 0 0 0.57,-0.53 z m 0,2.65 a 0.58,0.58 0 0 0 -0.57,-0.57 h -2.32 a 0.58,0.58 0 0 0 -0.57,0.57 0.57,0.57 0 0 0 0.57,0.57 h 2.32 a 0.57,0.57 0 0 0 0.57,-0.57 z m 0,2.65 a 0.57,0.57 0 0 0 -0.57,-0.57 h -2.32 a 0.57,0.57 0 0 0 0,1.14 h 2.32 a 0.57,0.57 0 0 0 0.57,-0.57 z m 0,2.65 a 0.57,0.57 0 0 0 -0.57,-0.57 h -2.32 a 0.57,0.57 0 0 0 0,1.14 h 2.32 a 0.57,0.57 0 0 0 0.57,-0.57 z m 0,2.65 a 0.57,0.57 0 0 0 -0.57,-0.57 h -2.32 a 0.57,0.57 0 0 0 -0.57,0.57 0.58,0.58 0 0 0 0.57,0.57 h 2.32 a 0.58,0.58 0 0 0 0.57,-0.57 z m 0,2.65 a 0.58,0.58 0 0 0 -0.57,-0.58 h -2.32 a 0.58,0.58 0 0 0 0,1.15 h 2.32 a 0.58,0.58 0 0 0 0.57,-0.57 z M 299,266.67 a 0.58,0.58 0 0 0 -0.57,-0.58 h -6.13 a 0.58,0.58 0 1 0 0,1.15 h 6.08 a 0.58,0.58 0 0 0 0.62,-0.57 z m 0,2.64 a 0.58,0.58 0 0 0 -0.57,-0.57 h -6.13 a 0.58,0.58 0 1 0 0,1.15 h 6.08 a 0.58,0.58 0 0 0 0.62,-0.58 z m 0,2.65 a 0.58,0.58 0 0 0 -0.57,-0.57 h -6.13 a 0.58,0.58 0 0 0 -0.58,0.57 0.57,0.57 0 0 0 0.58,0.57 h 6.08 A 0.57,0.57 0 0 0 299,272 Z m 0,2.65 a 0.58,0.58 0 0 0 -0.57,-0.57 h -6.13 a 0.58,0.58 0 0 0 -0.58,0.57 0.57,0.57 0 0 0 0.58,0.57 h 6.08 a 0.57,0.57 0 0 0 0.62,-0.57 z m 0,2.65 a 0.57,0.57 0 0 0 -0.57,-0.57 h -6.13 a 0.57,0.57 0 1 0 0,1.14 h 6.08 a 0.57,0.57 0 0 0 0.62,-0.57 z m 7.28,2.65 a 0.56,0.56 0 0 0 -0.57,-0.57 h -6.08 a 0.57,0.57 0 1 0 0,1.14 h 6.08 a 0.56,0.56 0 0 0 0.52,-0.57 z m 0,2.65 a 0.56,0.56 0 0 0 -0.57,-0.57 h -6.08 a 0.56,0.56 0 0 0 -0.57,0.57 0.57,0.57 0 0 0 0.57,0.57 h 6.08 a 0.57,0.57 0 0 0 0.52,-0.57 z m 0,2.65 a 0.57,0.57 0 0 0 -0.57,-0.58 h -6.08 a 0.58,0.58 0 0 0 0,1.15 h 6.08 a 0.57,0.57 0 0 0 0.52,-0.57 z m -4.6,-18.54 a 0.67,0.67 0 1 0 -0.66,0.66 0.67,0.67 0 0 0 0.61,-0.66 z m 2,0 a 0.66,0.66 0 1 0 -0.66,0.66 0.66,0.66 0 0 0 0.59,-0.66 z m 2,0 a 0.66,0.66 0 1 0 -1.32,0 0.66,0.66 0 0 0 1.32,0 z m 2,0 a 0.67,0.67 0 1 0 -0.67,0.66 0.67,0.67 0 0 0 0.58,-0.66 z m 2,0 a 0.66,0.66 0 1 0 -0.66,0.66 0.66,0.66 0 0 0 0.55,-0.66 z m 2,0 a 0.66,0.66 0 1 0 -1.32,0 0.66,0.66 0 0 0 1.32,0 z M 301.63,272 a 0.67,0.67 0 1 0 -0.66,0.67 0.67,0.67 0 0 0 0.66,-0.67 z m 2,0 a 0.66,0.66 0 1 0 -1.32,0 0.66,0.66 0 1 0 1.32,0 z m 2,0 a 0.66,0.66 0 1 0 -0.66,0.67 0.67,0.67 0 0 0 0.63,-0.67 z m 2,0 a 0.67,0.67 0 1 0 -0.67,0.67 0.67,0.67 0 0 0 0.63,-0.67 z m 2,0 a 0.66,0.66 0 1 0 -1.32,0 0.66,0.66 0 1 0 1.32,0 z m 2,0 a 0.66,0.66 0 1 0 -0.66,0.67 0.67,0.67 0 0 0 0.59,-0.67 z m -3.15,7.62 a 0.66,0.66 0 1 0 -1.32,0 0.66,0.66 0 0 0 1.32,0 z m 2,0 a 0.66,0.66 0 1 0 -0.66,0.66 0.66,0.66 0 0 0 0.58,-0.7 z m 2,0 a 0.67,0.67 0 0 0 -1.33,0 0.67,0.67 0 0 0 1.33,0 z m 2,0 a 0.66,0.66 0 1 0 -1.32,0 0.66,0.66 0 1 0 1.32,0 z m 2,0 a 0.66,0.66 0 1 0 -0.66,0.66 0.66,0.66 0 0 0 0.54,-0.7 z m 2,0 a 0.67,0.67 0 1 0 -0.67,0.66 0.66,0.66 0 0 0 0.54,-0.7 z M 308.41,285 a 0.66,0.66 0 1 0 -0.66,0.66 0.65,0.65 0 0 0 0.66,-0.66 z m 2,0 a 0.66,0.66 0 1 0 -0.66,0.66 0.66,0.66 0 0 0 0.65,-0.66 z m 2,0 a 0.67,0.67 0 1 0 -0.66,0.66 0.66,0.66 0 0 0 0.64,-0.66 z m 2,0 a 0.66,0.66 0 1 0 -0.66,0.66 0.65,0.65 0 0 0 0.62,-0.66 z m 2,0 a 0.66,0.66 0 1 0 -0.66,0.66 0.66,0.66 0 0 0 0.61,-0.66 z m 2,0 a 0.67,0.67 0 1 0 -0.67,0.66 0.66,0.66 0 0 0 0.61,-0.66 z"
       style="fill:#92e3a9"
       id="path86" />
    <path
       d="m 289.71,288.94 h -2.32 a 0.57,0.57 0 0 1 -0.57,-0.57 0.58,0.58 0 0 1 0.57,-0.57 h 2.32 a 0.58,0.58 0 0 1 0.57,0.57 0.57,0.57 0 0 1 -0.57,0.57 z m 0.57,2.08 a 0.57,0.57 0 0 0 -0.57,-0.57 h -2.32 a 0.57,0.57 0 0 0 0,1.14 h 2.32 a 0.57,0.57 0 0 0 0.57,-0.59 z m 0,2.65 a 0.57,0.57 0 0 0 -0.57,-0.57 h -2.32 a 0.57,0.57 0 0 0 -0.57,0.57 0.58,0.58 0 0 0 0.57,0.57 h 2.32 a 0.58,0.58 0 0 0 0.57,-0.57 z m 0,2.65 a 0.57,0.57 0 0 0 -0.57,-0.57 h -2.32 a 0.57,0.57 0 0 0 -0.57,0.57 0.58,0.58 0 0 0 0.57,0.57 h 2.32 a 0.58,0.58 0 0 0 0.57,-0.57 z m 0,2.65 a 0.58,0.58 0 0 0 -0.57,-0.58 h -2.32 a 0.58,0.58 0 0 0 0,1.15 h 2.32 a 0.58,0.58 0 0 0 0.57,-0.54 z m 0,2.65 a 0.58,0.58 0 0 0 -0.57,-0.58 h -2.32 a 0.58,0.58 0 0 0 0,1.15 h 2.32 a 0.58,0.58 0 0 0 0.57,-0.57 z m 0,2.64 a 0.58,0.58 0 0 0 -0.57,-0.57 h -2.32 a 0.58,0.58 0 0 0 0,1.15 h 2.32 a 0.58,0.58 0 0 0 0.57,-0.58 z m 0,2.65 a 0.58,0.58 0 0 0 -0.57,-0.57 h -2.32 a 0.58,0.58 0 0 0 -0.57,0.57 0.57,0.57 0 0 0 0.57,0.57 h 2.32 a 0.57,0.57 0 0 0 0.57,-0.57 z M 299,288.37 a 0.58,0.58 0 0 0 -0.57,-0.57 h -6.13 a 0.58,0.58 0 0 0 -0.58,0.57 0.57,0.57 0 0 0 0.58,0.57 h 6.08 a 0.57,0.57 0 0 0 0.62,-0.57 z m 0,2.65 a 0.57,0.57 0 0 0 -0.57,-0.57 h -6.13 a 0.57,0.57 0 1 0 0,1.14 h 6.08 A 0.57,0.57 0 0 0 299,291 Z m 0,2.65 a 0.57,0.57 0 0 0 -0.57,-0.57 h -6.13 a 0.57,0.57 0 0 0 -0.58,0.57 0.58,0.58 0 0 0 0.58,0.57 h 6.08 a 0.58,0.58 0 0 0 0.62,-0.57 z m 0,2.65 a 0.57,0.57 0 0 0 -0.57,-0.57 h -6.13 a 0.57,0.57 0 0 0 -0.58,0.57 0.58,0.58 0 0 0 0.58,0.57 h 6.08 a 0.58,0.58 0 0 0 0.62,-0.57 z m 0,2.65 a 0.58,0.58 0 0 0 -0.57,-0.58 h -6.13 a 0.58,0.58 0 1 0 0,1.15 h 6.08 A 0.58,0.58 0 0 0 299,299 Z m 7.28,2.65 a 0.57,0.57 0 0 0 -0.57,-0.58 h -6.08 a 0.58,0.58 0 0 0 0,1.15 h 6.08 a 0.57,0.57 0 0 0 0.52,-0.57 z m 0,2.64 a 0.57,0.57 0 0 0 -0.57,-0.57 h -6.08 a 0.58,0.58 0 0 0 0,1.15 h 6.08 a 0.57,0.57 0 0 0 0.52,-0.58 z m 0,2.65 a 0.57,0.57 0 0 0 -0.57,-0.57 h -6.08 a 0.57,0.57 0 0 0 -0.57,0.57 0.56,0.56 0 0 0 0.57,0.57 h 6.08 a 0.56,0.56 0 0 0 0.52,-0.57 z m -4.6,-18.54 a 0.67,0.67 0 1 0 -0.66,0.66 0.67,0.67 0 0 0 0.61,-0.66 z m 2,0 a 0.66,0.66 0 1 0 -0.66,0.66 0.66,0.66 0 0 0 0.59,-0.66 z m 2,0 a 0.66,0.66 0 1 0 -1.32,0 0.66,0.66 0 0 0 1.32,0 z m 2,0 a 0.67,0.67 0 0 0 -1.33,0 0.67,0.67 0 0 0 1.33,0 z m 2,0 a 0.66,0.66 0 1 0 -0.66,0.66 0.66,0.66 0 0 0 0.55,-0.66 z m 2,0 a 0.66,0.66 0 0 0 -1.32,0 0.66,0.66 0 0 0 1.32,0 z m -9.93,5.3 a 0.67,0.67 0 0 0 -1.33,0 0.67,0.67 0 0 0 1.33,0 z m 2,0 a 0.66,0.66 0 0 0 -1.32,0 0.66,0.66 0 0 0 1.32,0 z m 2,0 a 0.66,0.66 0 1 0 -0.66,0.66 0.66,0.66 0 0 0 0.51,-0.66 z m 2,0 a 0.67,0.67 0 1 0 -0.67,0.66 0.66,0.66 0 0 0 0.51,-0.66 z m 2,0 a 0.66,0.66 0 0 0 -1.32,0 0.66,0.66 0 0 0 1.32,0 z m 2,0 a 0.66,0.66 0 1 0 -0.66,0.66 0.66,0.66 0 0 0 0.47,-0.66 z m -3.15,7.61 a 0.66,0.66 0 1 0 -1.32,0 0.66,0.66 0 1 0 1.32,0 z m 2,0 a 0.66,0.66 0 1 0 -0.66,0.67 0.67,0.67 0 0 0 0.46,-0.67 z m 2,0 a 0.67,0.67 0 1 0 -0.66,0.67 0.67,0.67 0 0 0 0.45,-0.67 z m 2,0 a 0.66,0.66 0 1 0 -1.32,0 0.66,0.66 0 1 0 1.32,0 z m 2,0 a 0.66,0.66 0 1 0 -0.66,0.67 0.67,0.67 0 0 0 0.42,-0.67 z m 2,0 a 0.67,0.67 0 1 0 -0.67,0.67 0.67,0.67 0 0 0 0.42,-0.67 z m -9.94,5.47 a 0.66,0.66 0 1 0 -0.66,0.66 0.66,0.66 0 0 0 0.41,-0.66 z m 2,0 a 0.66,0.66 0 1 0 -1.32,0 0.66,0.66 0 0 0 1.32,0 z m 2,0 a 0.67,0.67 0 1 0 -0.66,0.66 0.67,0.67 0 0 0 0.39,-0.66 z m 2,0 a 0.66,0.66 0 1 0 -0.66,0.66 0.66,0.66 0 0 0 0.37,-0.66 z m 2,0 a 0.66,0.66 0 1 0 -1.32,0 0.66,0.66 0 1 0 1.32,0 z m 2,0 a 0.67,0.67 0 1 0 -0.67,0.66 0.67,0.67 0 0 0 0.36,-0.66 z"
       style="fill:#92e3a9"
       id="path87" />
    <path
       d="M 325.29,246 H 323 a 0.57,0.57 0 0 1 -0.57,-0.57 0.58,0.58 0 0 1 0.57,-0.57 h 2.32 a 0.57,0.57 0 0 1 0.57,0.57 0.56,0.56 0 0 1 -0.6,0.57 z m 0.57,2.08 a 0.56,0.56 0 0 0 -0.57,-0.57 H 323 a 0.57,0.57 0 1 0 0,1.14 h 2.32 a 0.56,0.56 0 0 0 0.54,-0.53 z m 0,2.65 a 0.56,0.56 0 0 0 -0.57,-0.57 H 323 a 0.57,0.57 0 0 0 -0.57,0.57 0.58,0.58 0 0 0 0.57,0.57 h 2.32 a 0.57,0.57 0 0 0 0.54,-0.53 z m 0,2.65 a 0.56,0.56 0 0 0 -0.57,-0.57 H 323 a 0.57,0.57 0 0 0 -0.57,0.57 0.58,0.58 0 0 0 0.57,0.57 h 2.32 a 0.57,0.57 0 0 0 0.54,-0.53 z m 0,2.65 a 0.57,0.57 0 0 0 -0.57,-0.58 H 323 a 0.58,0.58 0 0 0 0,1.15 h 2.32 a 0.57,0.57 0 0 0 0.54,-0.53 z m 0,2.64 a 0.57,0.57 0 0 0 -0.57,-0.57 H 323 a 0.58,0.58 0 0 0 0,1.15 h 2.32 a 0.57,0.57 0 0 0 0.54,-0.54 z m 0,2.65 a 0.57,0.57 0 0 0 -0.57,-0.57 H 323 a 0.58,0.58 0 0 0 -0.57,0.57 0.57,0.57 0 0 0 0.57,0.57 h 2.32 a 0.56,0.56 0 0 0 0.54,-0.53 z m 0,2.65 a 0.57,0.57 0 0 0 -0.57,-0.57 H 323 a 0.58,0.58 0 0 0 -0.57,0.57 0.57,0.57 0 0 0 0.57,0.57 h 2.32 a 0.56,0.56 0 0 0 0.54,-0.54 z m 8.67,-18.54 a 0.57,0.57 0 0 0 -0.57,-0.57 h -6.08 a 0.58,0.58 0 0 0 -0.58,0.57 0.57,0.57 0 0 0 0.58,0.57 H 334 a 0.56,0.56 0 0 0 0.53,-0.53 z m 0,2.65 a 0.56,0.56 0 0 0 -0.57,-0.57 h -6.08 a 0.57,0.57 0 1 0 0,1.14 H 334 a 0.56,0.56 0 0 0 0.53,-0.53 z m 0,2.65 a 0.56,0.56 0 0 0 -0.57,-0.57 h -6.08 a 0.57,0.57 0 0 0 -0.58,0.57 0.58,0.58 0 0 0 0.58,0.57 H 334 a 0.57,0.57 0 0 0 0.53,-0.53 z m 0,2.65 a 0.56,0.56 0 0 0 -0.57,-0.57 h -6.08 a 0.57,0.57 0 0 0 -0.58,0.57 0.58,0.58 0 0 0 0.58,0.57 H 334 a 0.57,0.57 0 0 0 0.53,-0.53 z m 0,2.65 a 0.57,0.57 0 0 0 -0.57,-0.58 h -6.08 a 0.58,0.58 0 1 0 0,1.15 H 334 a 0.57,0.57 0 0 0 0.53,-0.53 z m 7.29,2.64 a 0.58,0.58 0 0 0 -0.58,-0.57 h -6.08 a 0.58,0.58 0 0 0 0,1.15 h 6.08 a 0.58,0.58 0 0 0 0.58,-0.54 z m 0,2.65 a 0.58,0.58 0 0 0 -0.58,-0.57 h -6.08 a 0.57,0.57 0 0 0 -0.57,0.57 0.56,0.56 0 0 0 0.57,0.57 h 6.08 a 0.57,0.57 0 0 0 0.58,-0.53 z m 0,2.65 a 0.58,0.58 0 0 0 -0.58,-0.57 h -6.08 a 0.57,0.57 0 0 0 -0.57,0.57 0.56,0.56 0 0 0 0.57,0.57 h 6.08 a 0.57,0.57 0 0 0 0.58,-0.54 z m -4.61,-18.54 a 0.67,0.67 0 1 0 -0.66,0.66 0.67,0.67 0 0 0 0.66,-0.62 z m 2,0 a 0.67,0.67 0 0 0 -1.33,0 0.67,0.67 0 0 0 1.33,0 z m 2,0 a 0.66,0.66 0 1 0 -0.66,0.66 0.66,0.66 0 0 0 0.63,-0.62 z m 2,0 a 0.67,0.67 0 1 0 -0.66,0.66 0.67,0.67 0 0 0 0.62,-0.62 z m 2,0 a 0.66,0.66 0 1 0 -0.66,0.66 0.66,0.66 0 0 0 0.6,-0.62 z m 2,0 a 0.66,0.66 0 1 0 -1.32,0 0.66,0.66 0 1 0 1.32,0 z m -9.93,5.3 a 0.67,0.67 0 0 0 -1.33,0 0.67,0.67 0 0 0 1.33,0 z m 2,0 a 0.67,0.67 0 1 0 -0.67,0.66 0.66,0.66 0 0 0 0.59,-0.62 z m 2,0 a 0.66,0.66 0 1 0 -0.66,0.66 0.65,0.65 0 0 0 0.56,-0.62 z m 2,0 a 0.67,0.67 0 0 0 -1.33,0 0.67,0.67 0 0 0 1.33,0 z m 2,0 a 0.66,0.66 0 1 0 -1.32,0 0.66,0.66 0 1 0 1.32,0 z m 2,0 a 0.66,0.66 0 1 0 -0.66,0.66 0.66,0.66 0 0 0 0.52,-0.62 z m -3.28,7.65 a 0.67,0.67 0 1 0 -0.67,0.67 0.67,0.67 0 0 0 0.67,-0.67 z m 2,0 a 0.66,0.66 0 1 0 -0.66,0.67 0.66,0.66 0 0 0 0.66,-0.67 z m 2,0 a 0.67,0.67 0 1 0 -0.66,0.67 0.67,0.67 0 0 0 0.66,-0.67 z m 2,0 a 0.67,0.67 0 1 0 -0.67,0.67 0.67,0.67 0 0 0 0.67,-0.67 z m 2,0 a 0.66,0.66 0 1 0 -0.66,0.67 0.66,0.66 0 0 0 0.6,-0.67 z m 2,0 a 0.67,0.67 0 1 0 -0.66,0.67 0.67,0.67 0 0 0 0.59,-0.67 z m -10,5.47 a 0.67,0.67 0 1 0 -0.67,0.66 0.67,0.67 0 0 0 0.67,-0.66 z m 2,0 a 0.66,0.66 0 1 0 -0.66,0.66 0.66,0.66 0 0 0 0.66,-0.66 z m 2,0 a 0.67,0.67 0 1 0 -0.66,0.66 0.67,0.67 0 0 0 0.66,-0.66 z m 2,0 a 0.67,0.67 0 1 0 -0.67,0.66 0.67,0.67 0 0 0 0.67,-0.66 z m 2,0 a 0.66,0.66 0 1 0 -0.66,0.66 0.66,0.66 0 0 0 0.6,-0.66 z m 2,0 a 0.67,0.67 0 1 0 -0.66,0.66 0.67,0.67 0 0 0 0.59,-0.66 z"
       style="fill:#92e3a9"
       id="path88" />
    <path
       d="M 325.29,267.75 H 323 a 0.58,0.58 0 0 1 -0.57,-0.57 0.57,0.57 0 0 1 0.57,-0.57 h 2.32 a 0.56,0.56 0 0 1 0.57,0.57 0.57,0.57 0 0 1 -0.6,0.57 z m 0.57,2.08 a 0.57,0.57 0 0 0 -0.57,-0.58 H 323 a 0.58,0.58 0 0 0 0,1.15 h 2.32 a 0.57,0.57 0 0 0 0.54,-0.57 z m 0,2.64 a 0.57,0.57 0 0 0 -0.57,-0.57 H 323 a 0.58,0.58 0 0 0 0,1.15 h 2.32 a 0.57,0.57 0 0 0 0.54,-0.58 z m 0,2.65 a 0.57,0.57 0 0 0 -0.57,-0.57 H 323 a 0.58,0.58 0 0 0 -0.57,0.57 0.57,0.57 0 0 0 0.57,0.57 h 2.32 a 0.56,0.56 0 0 0 0.54,-0.57 z m 0,2.65 a 0.57,0.57 0 0 0 -0.57,-0.57 H 323 a 0.58,0.58 0 0 0 -0.57,0.57 0.57,0.57 0 0 0 0.57,0.57 h 2.32 a 0.56,0.56 0 0 0 0.54,-0.57 z m 0,2.65 a 0.56,0.56 0 0 0 -0.57,-0.57 H 323 a 0.57,0.57 0 1 0 0,1.14 h 2.32 a 0.56,0.56 0 0 0 0.54,-0.57 z m 0,2.65 a 0.56,0.56 0 0 0 -0.57,-0.57 H 323 a 0.57,0.57 0 1 0 0,1.14 h 2.32 a 0.56,0.56 0 0 0 0.54,-0.57 z m 0,2.65 a 0.56,0.56 0 0 0 -0.57,-0.57 H 323 a 0.57,0.57 0 0 0 -0.57,0.57 0.58,0.58 0 0 0 0.57,0.57 h 2.32 a 0.57,0.57 0 0 0 0.54,-0.57 z m 8.67,-18.54 a 0.56,0.56 0 0 0 -0.57,-0.57 h -6.08 a 0.57,0.57 0 0 0 -0.58,0.57 0.58,0.58 0 0 0 0.58,0.57 H 334 a 0.57,0.57 0 0 0 0.53,-0.57 z m 0,2.65 a 0.57,0.57 0 0 0 -0.57,-0.58 h -6.08 a 0.58,0.58 0 1 0 0,1.15 H 334 a 0.57,0.57 0 0 0 0.53,-0.57 z m 0,2.64 a 0.57,0.57 0 0 0 -0.57,-0.57 h -6.08 a 0.58,0.58 0 1 0 0,1.15 H 334 a 0.57,0.57 0 0 0 0.53,-0.58 z m 0,2.65 a 0.57,0.57 0 0 0 -0.57,-0.57 h -6.08 a 0.58,0.58 0 0 0 -0.58,0.57 0.57,0.57 0 0 0 0.58,0.57 H 334 a 0.56,0.56 0 0 0 0.53,-0.57 z m 0,2.65 a 0.57,0.57 0 0 0 -0.57,-0.57 h -6.08 a 0.58,0.58 0 0 0 -0.58,0.57 0.57,0.57 0 0 0 0.58,0.57 H 334 a 0.56,0.56 0 0 0 0.53,-0.57 z m 7.29,2.65 a 0.57,0.57 0 0 0 -0.58,-0.57 h -6.08 a 0.57,0.57 0 1 0 0,1.14 h 6.08 a 0.57,0.57 0 0 0 0.58,-0.57 z m 0,2.65 a 0.57,0.57 0 0 0 -0.58,-0.57 h -6.08 a 0.57,0.57 0 1 0 0,1.14 h 6.08 a 0.57,0.57 0 0 0 0.58,-0.57 z m 0,2.65 a 0.57,0.57 0 0 0 -0.58,-0.57 h -6.08 a 0.56,0.56 0 0 0 -0.57,0.57 0.57,0.57 0 0 0 0.57,0.57 h 6.08 a 0.58,0.58 0 0 0 0.58,-0.57 z m -4.61,-18.54 a 0.67,0.67 0 0 0 -1.33,0 0.67,0.67 0 0 0 1.33,0 z m 2,0 a 0.67,0.67 0 1 0 -0.67,0.66 0.66,0.66 0 0 0 0.66,-0.66 z m 2,0 a 0.66,0.66 0 1 0 -0.66,0.66 0.65,0.65 0 0 0 0.63,-0.66 z m 2,0 a 0.67,0.67 0 0 0 -1.33,0 0.67,0.67 0 0 0 1.33,0 z m 2,0 a 0.66,0.66 0 0 0 -1.32,0 0.66,0.66 0 0 0 1.32,0 z m 2,0 a 0.66,0.66 0 1 0 -0.66,0.66 0.66,0.66 0 0 0 0.59,-0.66 z m -9.93,5.29 a 0.67,0.67 0 1 0 -0.66,0.67 0.67,0.67 0 0 0 0.59,-0.67 z m 2,0 a 0.67,0.67 0 1 0 -0.67,0.67 0.67,0.67 0 0 0 0.59,-0.67 z m 2,0 a 0.66,0.66 0 1 0 -0.66,0.67 0.66,0.66 0 0 0 0.56,-0.67 z m 2,0 a 0.67,0.67 0 1 0 -0.66,0.67 0.67,0.67 0 0 0 0.55,-0.67 z m 2,0 a 0.66,0.66 0 0 0 -1.32,0 0.66,0.66 0 1 0 1.32,0 z m 2,0 a 0.66,0.66 0 1 0 -0.66,0.67 0.67,0.67 0 0 0 0.52,-0.67 z m -3.28,7.62 a 0.67,0.67 0 1 0 -0.67,0.66 0.66,0.66 0 0 0 0.67,-0.66 z m 2,0 a 0.66,0.66 0 1 0 -0.66,0.66 0.65,0.65 0 0 0 0.66,-0.66 z m 2,0 a 0.67,0.67 0 1 0 -0.66,0.66 0.66,0.66 0 0 0 0.66,-0.66 z m 2,0 a 0.67,0.67 0 1 0 -0.67,0.66 0.66,0.66 0 0 0 0.67,-0.66 z m 2,0 a 0.66,0.66 0 1 0 -0.66,0.66 0.65,0.65 0 0 0 0.6,-0.66 z m 2,0 a 0.67,0.67 0 1 0 -0.66,0.66 0.66,0.66 0 0 0 0.59,-0.66 z m -10,5.46 a 0.67,0.67 0 0 0 -1.33,0 0.67,0.67 0 0 0 1.33,0 z m 2,0 a 0.66,0.66 0 1 0 -0.66,0.66 0.66,0.66 0 0 0 0.66,-0.66 z m 2,0 a 0.67,0.67 0 1 0 -0.66,0.66 0.67,0.67 0 0 0 0.66,-0.66 z m 2,0 a 0.67,0.67 0 0 0 -1.33,0 0.67,0.67 0 0 0 1.33,0 z m 2,0 a 0.66,0.66 0 1 0 -0.66,0.66 0.66,0.66 0 0 0 0.6,-0.66 z m 2,0 a 0.67,0.67 0 1 0 -0.66,0.66 0.67,0.67 0 0 0 0.59,-0.66 z"
       style="fill:#92e3a9"
       id="path89" />
  </g>
  <g
     id="freepik--device-2--inject-3"
     transform="translate(-48.711457,-84.703904)">
    <path
       d="M 287.27,224.2 H 254.2 a 0.52,0.52 0 0 1 -0.23,-1 l 6.8,-3.27 a 0.43,0.43 0 0 1 0.22,-0.06 h 30.55 a 0.52,0.52 0 0 1 0.31,0.94 l -4.26,3.28 a 0.51,0.51 0 0 1 -0.32,0.11 z"
       style="fill:#263238;stroke:#263238;stroke-linecap:round;stroke-linejoin:round"
       id="path90" />
    <rect
       x="271.48999"
       y="199.23"
       width="6.0799999"
       height="23.17"
       style="fill:#ffffff;stroke:#263238;stroke-linecap:round;stroke-linejoin:round"
       id="rect90" />
    <rect
       x="270.54001"
       y="199.23"
       width="7.9899998"
       height="16.82"
       style="fill:#263238;stroke:#263238;stroke-linecap:round;stroke-linejoin:round"
       id="rect91" />
    <rect
       x="225.63"
       y="122.15"
       width="100.68"
       height="78.75"
       style="fill:#ffffff;stroke:#263238;stroke-linecap:round;stroke-linejoin:round"
       id="rect92" />
    <rect
       x="231.00999"
       y="126.37"
       width="89.910004"
       height="70.330002"
       style="fill:#263238;stroke:#263238;stroke-linecap:round;stroke-linejoin:round"
       id="rect93" />
    <rect
       x="238.03999"
       y="134.23"
       width="36.639999"
       height="16.280001"
       style="fill:none;stroke:#92e3a9;stroke-miterlimit:10"
       id="rect94" />
    <path
       d="m 242.81,161.81 h 8.54 a 26.37,26.37 0 0 1 11.15,2.48 l 4,1.87 a 15.64,15.64 0 0 0 14.19,-0.47 l 1.15,-0.62 a 26.24,26.24 0 0 1 12.67,-3.26 h 10.09"
       style="fill:none;stroke:#92e3a9;stroke-miterlimit:10"
       id="path94" />
    <path
       d="m 242.81,167.78 h 8.54 a 26.22,26.22 0 0 1 11.15,2.48 l 4,1.86 a 15.67,15.67 0 0 0 14.19,-0.46 l 1.15,-0.63 a 26.34,26.34 0 0 1 12.67,-3.25 h 10.09"
       style="fill:none;stroke:#92e3a9;stroke-miterlimit:10"
       id="path95" />
    <path
       d="m 242.81,186.94 h 8.54 a 26.37,26.37 0 0 0 11.15,-2.48 l 4,-1.87 a 15.67,15.67 0 0 1 14.19,0.46 l 1.15,0.63 a 26.24,26.24 0 0 0 12.67,3.26 h 10.09"
       style="fill:none;stroke:#92e3a9;stroke-miterlimit:10"
       id="path96" />
    <path
       d="m 242.81,181 h 8.54 a 26.37,26.37 0 0 0 11.15,-2.48 l 4,-1.87 a 15.64,15.64 0 0 1 14.19,0.47 l 1.15,0.62 a 26.24,26.24 0 0 0 12.65,3.26 h 10.09"
       style="fill:none;stroke:#92e3a9;stroke-miterlimit:10"
       id="path97" />
    <rect
       x="305.59"
       y="157.84"
       width="5.73"
       height="5.73"
       style="fill:#92e3a9"
       id="rect97" />
    <rect
       x="305.59"
       y="164.89999"
       width="5.73"
       height="5.73"
       style="fill:#92e3a9"
       id="rect98" />
    <rect
       x="305.59"
       y="177.02"
       width="5.73"
       height="5.73"
       style="fill:#92e3a9"
       id="rect99" />
    <rect
       x="305.59"
       y="184.07001"
       width="5.73"
       height="5.73"
       style="fill:#92e3a9"
       id="rect100" />
    <rect
       x="235.95"
       y="157.84"
       width="5.73"
       height="5.73"
       style="fill:#92e3a9"
       id="rect101" />
    <rect
       x="235.95"
       y="164.89999"
       width="5.73"
       height="5.73"
       style="fill:#92e3a9"
       id="rect102" />
    <rect
       x="235.95"
       y="177.02"
       width="5.73"
       height="5.73"
       style="fill:#92e3a9"
       id="rect103" />
    <rect
       x="235.95"
       y="184.07001"
       width="5.73"
       height="5.73"
       style="fill:#92e3a9"
       id="rect104" />
    <path
       d="m 282.8,134 h -2.31 a 0.57,0.57 0 1 1 0,-1.14 h 2.31 a 0.57,0.57 0 1 1 0,1.14 z m 0.57,2.08 a 0.56,0.56 0 0 0 -0.57,-0.57 h -2.31 a 0.57,0.57 0 0 0 -0.58,0.57 0.58,0.58 0 0 0 0.58,0.57 h 2.31 a 0.57,0.57 0 0 0 0.57,-0.65 z m 0,2.65 a 0.57,0.57 0 0 0 -0.57,-0.58 h -2.31 a 0.58,0.58 0 1 0 0,1.15 h 2.31 a 0.57,0.57 0 0 0 0.57,-0.62 z m 0,2.64 a 0.57,0.57 0 0 0 -0.57,-0.57 h -2.31 a 0.58,0.58 0 1 0 0,1.15 h 2.31 a 0.57,0.57 0 0 0 0.57,-0.63 z m 0,2.65 a 0.57,0.57 0 0 0 -0.57,-0.57 h -2.31 a 0.58,0.58 0 1 0 0,1.15 h 2.31 a 0.57,0.57 0 0 0 0.57,-0.6 z m 0,2.65 a 0.57,0.57 0 0 0 -0.57,-0.57 h -2.31 a 0.58,0.58 0 0 0 -0.58,0.57 0.57,0.57 0 0 0 0.58,0.57 h 2.31 a 0.56,0.56 0 0 0 0.57,-0.62 z m 0,2.65 a 0.57,0.57 0 0 0 -0.57,-0.57 h -2.31 a 0.58,0.58 0 0 0 -0.58,0.57 0.57,0.57 0 0 0 0.58,0.57 h 2.31 a 0.56,0.56 0 0 0 0.57,-0.62 z m 0,2.65 a 0.56,0.56 0 0 0 -0.57,-0.57 h -2.31 a 0.57,0.57 0 1 0 0,1.14 h 2.31 a 0.56,0.56 0 0 0 0.57,-0.62 z M 292,133.38 a 0.56,0.56 0 0 0 -0.57,-0.57 h -6.08 a 0.57,0.57 0 0 0 0,1.14 h 6.08 a 0.56,0.56 0 0 0 0.57,-0.57 z m 0,2.65 a 0.56,0.56 0 0 0 -0.57,-0.57 h -6.08 a 0.56,0.56 0 0 0 -0.57,0.57 0.57,0.57 0 0 0 0.57,0.57 h 6.08 A 0.57,0.57 0 0 0 292,136 Z m 0,2.65 a 0.57,0.57 0 0 0 -0.57,-0.58 h -6.08 a 0.58,0.58 0 0 0 0,1.15 h 6.08 a 0.57,0.57 0 0 0 0.57,-0.57 z m 0,2.64 a 0.57,0.57 0 0 0 -0.57,-0.57 h -6.08 a 0.58,0.58 0 0 0 0,1.15 h 6.08 a 0.57,0.57 0 0 0 0.57,-0.58 z m 0,2.65 a 0.57,0.57 0 0 0 -0.57,-0.57 h -6.08 a 0.58,0.58 0 0 0 0,1.15 h 6.08 A 0.57,0.57 0 0 0 292,144 Z m 7.29,2.65 a 0.58,0.58 0 0 0 -0.57,-0.57 h -6.09 a 0.58,0.58 0 0 0 -0.57,0.57 0.57,0.57 0 0 0 0.57,0.57 h 6.09 a 0.57,0.57 0 0 0 0.61,-0.57 z m 0,2.65 a 0.58,0.58 0 0 0 -0.57,-0.57 h -6.09 a 0.58,0.58 0 0 0 -0.57,0.57 0.57,0.57 0 0 0 0.57,0.57 h 6.09 a 0.57,0.57 0 0 0 0.61,-0.57 z m 0,2.65 a 0.57,0.57 0 0 0 -0.57,-0.57 h -6.09 a 0.57,0.57 0 0 0 0,1.14 h 6.09 a 0.57,0.57 0 0 0 0.61,-0.57 z m -4.61,-18.54 a 0.66,0.66 0 1 0 -0.66,0.66 0.65,0.65 0 0 0 0.7,-0.66 z m 2,0 a 0.67,0.67 0 0 0 -1.33,0 0.67,0.67 0 0 0 1.33,0 z m 2,0 a 0.66,0.66 0 1 0 -1.32,0 0.66,0.66 0 1 0 1.32,0 z m 2,0 a 0.66,0.66 0 1 0 -0.66,0.66 0.66,0.66 0 0 0 0.66,-0.66 z m 2,0 a 0.67,0.67 0 0 0 -1.33,0 0.67,0.67 0 0 0 1.33,0 z m 2,0 a 0.66,0.66 0 0 0 -1.32,0 0.66,0.66 0 0 0 1.32,0 z m -9.93,5.3 a 0.66,0.66 0 1 0 -0.66,0.66 0.66,0.66 0 0 0 0.63,-0.66 z m 2,0 a 0.67,0.67 0 1 0 -0.66,0.66 0.67,0.67 0 0 0 0.62,-0.66 z m 2,0 a 0.66,0.66 0 1 0 -0.66,0.66 0.66,0.66 0 0 0 0.6,-0.66 z m 2,0 a 0.66,0.66 0 1 0 -1.32,0 0.66,0.66 0 1 0 1.32,0 z m 2,0 a 0.67,0.67 0 1 0 -0.66,0.66 0.67,0.67 0 0 0 0.58,-0.66 z m 2,0 a 0.66,0.66 0 1 0 -0.66,0.66 0.66,0.66 0 0 0 0.56,-0.66 z m -3.14,7.61 a 0.67,0.67 0 1 0 -0.66,0.66 0.67,0.67 0 0 0 0.56,-0.66 z m 2,0 a 0.67,0.67 0 0 0 -1.33,0 0.67,0.67 0 0 0 1.33,0 z m 2,0 a 0.66,0.66 0 1 0 -0.66,0.66 0.66,0.66 0 0 0 0.53,-0.66 z m 2,0 a 0.67,0.67 0 1 0 -0.66,0.66 0.67,0.67 0 0 0 0.52,-0.66 z m 2,0 a 0.66,0.66 0 1 0 -0.66,0.66 0.66,0.66 0 0 0 0.5,-0.66 z m 2,0 a 0.66,0.66 0 1 0 -1.32,0 0.66,0.66 0 1 0 1.32,0 z m -9.93,5.46 a 0.67,0.67 0 1 0 -0.66,0.67 0.67,0.67 0 0 0 0.49,-0.67 z m 2,0 a 0.67,0.67 0 1 0 -0.67,0.67 0.67,0.67 0 0 0 0.49,-0.67 z m 2,0 a 0.66,0.66 0 1 0 -0.66,0.67 0.66,0.66 0 0 0 0.46,-0.67 z m 2,0 a 0.67,0.67 0 1 0 -0.66,0.67 0.67,0.67 0 0 0 0.45,-0.67 z m 2,0 a 0.66,0.66 0 0 0 -1.32,0 0.66,0.66 0 1 0 1.32,0 z m 2,0 a 0.66,0.66 0 1 0 -0.66,0.67 0.67,0.67 0 0 0 0.42,-0.67 z"
       style="fill:#92e3a9"
       id="path104" />
  </g>
  <g
     id="freepik--device-1--inject-3"
     transform="translate(-48.711457,-84.703904)">
    <path
       d="m 219.52,339 h -33.08 a 0.52,0.52 0 0 1 -0.22,-1 l 6.79,-3.28 a 0.64,0.64 0 0 1 0.23,0 h 30.54 a 0.52,0.52 0 0 1 0.32,0.94 l -4.26,3.27 a 0.52,0.52 0 0 1 -0.32,0.07 z"
       style="fill:#263238;stroke:#263238;stroke-linecap:round;stroke-linejoin:round"
       id="path105" />
    <rect
       x="203.74001"
       y="314.07001"
       width="6.0799999"
       height="23.17"
       style="fill:#ffffff;stroke:#263238;stroke-linecap:round;stroke-linejoin:round"
       id="rect105" />
    <rect
       x="202.78999"
       y="314.07001"
       width="7.9899998"
       height="16.82"
       style="fill:#263238;stroke:#263238;stroke-linecap:round;stroke-linejoin:round"
       id="rect106" />
    <rect
       x="157.87"
       y="236.99001"
       width="100.68"
       height="78.75"
       style="fill:#ffffff;stroke:#263238;stroke-linecap:round;stroke-linejoin:round"
       id="rect107" />
    <rect
       x="163.25999"
       y="241.2"
       width="89.910004"
       height="70.330002"
       style="fill:#263238;stroke:#263238;stroke-linecap:round;stroke-linejoin:round"
       id="rect108" />
    <path
       d="m 183.21,246 h -2.32 a 0.57,0.57 0 0 1 -0.57,-0.57 0.58,0.58 0 0 1 0.57,-0.57 h 2.32 a 0.57,0.57 0 0 1 0.57,0.57 0.56,0.56 0 0 1 -0.57,0.57 z m 0.57,2.08 a 0.56,0.56 0 0 0 -0.57,-0.57 h -2.32 a 0.57,0.57 0 0 0 0,1.14 h 2.32 a 0.56,0.56 0 0 0 0.57,-0.53 z m 0,2.65 a 0.56,0.56 0 0 0 -0.57,-0.57 h -2.32 a 0.57,0.57 0 0 0 -0.57,0.57 0.58,0.58 0 0 0 0.57,0.57 h 2.32 a 0.57,0.57 0 0 0 0.57,-0.53 z m 0,2.65 a 0.56,0.56 0 0 0 -0.57,-0.57 h -2.32 a 0.57,0.57 0 0 0 -0.57,0.57 0.58,0.58 0 0 0 0.57,0.57 h 2.32 a 0.57,0.57 0 0 0 0.57,-0.53 z m 0,2.65 a 0.57,0.57 0 0 0 -0.57,-0.58 h -2.32 a 0.58,0.58 0 0 0 0,1.15 h 2.32 a 0.57,0.57 0 0 0 0.57,-0.53 z m 0,2.64 a 0.57,0.57 0 0 0 -0.57,-0.57 h -2.32 a 0.58,0.58 0 0 0 0,1.15 h 2.32 a 0.57,0.57 0 0 0 0.57,-0.54 z m 0,2.65 a 0.57,0.57 0 0 0 -0.57,-0.57 h -2.32 a 0.58,0.58 0 0 0 -0.57,0.57 0.57,0.57 0 0 0 0.57,0.57 h 2.32 a 0.56,0.56 0 0 0 0.57,-0.53 z m 0,2.65 a 0.57,0.57 0 0 0 -0.57,-0.57 h -2.32 a 0.58,0.58 0 0 0 -0.57,0.57 0.57,0.57 0 0 0 0.57,0.57 h 2.32 a 0.56,0.56 0 0 0 0.57,-0.54 z m 8.67,-18.54 a 0.57,0.57 0 0 0 -0.57,-0.57 h -6.08 a 0.57,0.57 0 0 0 -0.57,0.57 0.56,0.56 0 0 0 0.57,0.57 h 6.08 a 0.56,0.56 0 0 0 0.57,-0.53 z m 0,2.65 a 0.56,0.56 0 0 0 -0.57,-0.57 h -6.08 a 0.57,0.57 0 1 0 0,1.14 h 6.08 a 0.56,0.56 0 0 0 0.57,-0.53 z m 0,2.65 a 0.56,0.56 0 0 0 -0.57,-0.57 h -6.08 a 0.56,0.56 0 0 0 -0.57,0.57 0.57,0.57 0 0 0 0.57,0.57 h 6.08 a 0.57,0.57 0 0 0 0.57,-0.53 z m 0,2.65 a 0.56,0.56 0 0 0 -0.57,-0.57 h -6.08 a 0.56,0.56 0 0 0 -0.57,0.57 0.57,0.57 0 0 0 0.57,0.57 h 6.08 a 0.57,0.57 0 0 0 0.57,-0.53 z m 0,2.65 a 0.57,0.57 0 0 0 -0.57,-0.58 h -6.08 a 0.58,0.58 0 0 0 0,1.15 h 6.08 a 0.57,0.57 0 0 0 0.57,-0.53 z m 7.29,2.64 a 0.58,0.58 0 0 0 -0.57,-0.57 h -6.09 a 0.58,0.58 0 0 0 0,1.15 h 6.09 a 0.58,0.58 0 0 0 0.57,-0.54 z m 0,2.65 a 0.58,0.58 0 0 0 -0.57,-0.57 h -6.09 a 0.58,0.58 0 0 0 -0.57,0.57 0.57,0.57 0 0 0 0.57,0.57 h 6.09 a 0.57,0.57 0 0 0 0.57,-0.53 z m 0,2.65 a 0.58,0.58 0 0 0 -0.57,-0.57 h -6.09 a 0.58,0.58 0 0 0 -0.57,0.57 0.57,0.57 0 0 0 0.57,0.57 h 6.09 a 0.57,0.57 0 0 0 0.57,-0.54 z m -4.61,-18.54 a 0.66,0.66 0 0 0 -1.32,0 0.66,0.66 0 0 0 1.32,0 z m 2,0 a 0.67,0.67 0 0 0 -1.33,0 0.67,0.67 0 0 0 1.33,0 z m 2,0 a 0.66,0.66 0 1 0 -0.66,0.66 0.66,0.66 0 0 0 0.63,-0.62 z m 2,0 a 0.66,0.66 0 1 0 -1.32,0 0.66,0.66 0 1 0 1.32,0 z m 2,0 a 0.67,0.67 0 0 0 -1.33,0 0.67,0.67 0 0 0 1.33,0 z m 2,0 a 0.66,0.66 0 1 0 -0.66,0.66 0.66,0.66 0 0 0 0.59,-0.62 z m -9.93,5.3 a 0.66,0.66 0 1 0 -0.66,0.66 0.66,0.66 0 0 0 0.59,-0.62 z m 2,0 a 0.67,0.67 0 1 0 -0.67,0.66 0.66,0.66 0 0 0 0.59,-0.62 z m 2,0 a 0.66,0.66 0 1 0 -1.32,0 0.66,0.66 0 1 0 1.32,0 z m 2,0 a 0.66,0.66 0 1 0 -0.66,0.66 0.66,0.66 0 0 0 0.55,-0.62 z m 2,0 a 0.67,0.67 0 1 0 -0.67,0.66 0.66,0.66 0 0 0 0.55,-0.62 z m 2,0 a 0.66,0.66 0 1 0 -0.66,0.66 0.65,0.65 0 0 0 0.52,-0.62 z m -3.14,7.61 a 0.67,0.67 0 1 0 -0.66,0.67 0.67,0.67 0 0 0 0.52,-0.63 z m 2,0 a 0.66,0.66 0 1 0 -1.32,0 0.66,0.66 0 1 0 1.32,0 z m 2,0 a 0.66,0.66 0 1 0 -0.66,0.67 0.67,0.67 0 0 0 0.49,-0.63 z m 2,0 a 0.67,0.67 0 1 0 -0.67,0.67 0.67,0.67 0 0 0 0.49,-0.63 z m 2,0 a 0.66,0.66 0 1 0 -1.32,0 0.66,0.66 0 1 0 1.32,0 z m 2,0 a 0.66,0.66 0 1 0 -0.66,0.67 0.67,0.67 0 0 0 0.45,-0.63 z m -9.93,5.47 a 0.67,0.67 0 1 0 -0.66,0.66 0.67,0.67 0 0 0 0.45,-0.62 z m 2,0 a 0.66,0.66 0 1 0 -0.66,0.66 0.66,0.66 0 0 0 0.43,-0.62 z m 2,0 a 0.66,0.66 0 1 0 -1.32,0 0.66,0.66 0 0 0 1.32,0 z m 2,0 a 0.67,0.67 0 1 0 -0.67,0.66 0.67,0.67 0 0 0 0.42,-0.62 z m 2,0 a 0.66,0.66 0 1 0 -0.66,0.66 0.66,0.66 0 0 0 0.39,-0.62 z m 2,0 a 0.66,0.66 0 1 0 -1.32,0 0.66,0.66 0 0 0 1.32,0 z"
       style="fill:#92e3a9"
       id="path108" />
    <path
       d="m 183.21,267.24 h -2.32 a 0.58,0.58 0 0 1 0,-1.15 h 2.32 a 0.58,0.58 0 0 1 0,1.15 z m 0.57,2.07 a 0.57,0.57 0 0 0 -0.57,-0.57 h -2.32 a 0.58,0.58 0 0 0 0,1.15 h 2.32 a 0.57,0.57 0 0 0 0.57,-0.58 z m 0,2.65 a 0.57,0.57 0 0 0 -0.57,-0.57 h -2.32 a 0.58,0.58 0 0 0 -0.57,0.57 0.57,0.57 0 0 0 0.57,0.57 h 2.32 a 0.56,0.56 0 0 0 0.57,-0.53 z m 0,2.65 a 0.57,0.57 0 0 0 -0.57,-0.57 h -2.32 a 0.58,0.58 0 0 0 -0.57,0.57 0.57,0.57 0 0 0 0.57,0.57 h 2.32 a 0.56,0.56 0 0 0 0.57,-0.57 z m 0,2.65 a 0.56,0.56 0 0 0 -0.57,-0.57 h -2.32 a 0.57,0.57 0 0 0 0,1.14 h 2.32 a 0.56,0.56 0 0 0 0.57,-0.57 z m 0,2.65 a 0.56,0.56 0 0 0 -0.57,-0.57 h -2.32 a 0.57,0.57 0 0 0 0,1.14 h 2.32 a 0.56,0.56 0 0 0 0.57,-0.57 z m 0,2.65 a 0.56,0.56 0 0 0 -0.57,-0.57 h -2.32 a 0.57,0.57 0 0 0 -0.57,0.57 0.58,0.58 0 0 0 0.57,0.57 h 2.32 a 0.57,0.57 0 0 0 0.57,-0.57 z m 0,2.65 a 0.57,0.57 0 0 0 -0.57,-0.58 h -2.32 a 0.58,0.58 0 0 0 0,1.15 h 2.32 a 0.57,0.57 0 0 0 0.57,-0.57 z m 8.67,-18.54 a 0.57,0.57 0 0 0 -0.57,-0.58 h -6.08 a 0.58,0.58 0 0 0 0,1.15 h 6.08 a 0.57,0.57 0 0 0 0.57,-0.57 z m 0,2.64 a 0.57,0.57 0 0 0 -0.57,-0.57 h -6.08 a 0.58,0.58 0 0 0 0,1.15 h 6.08 a 0.57,0.57 0 0 0 0.57,-0.58 z m 0,2.65 a 0.57,0.57 0 0 0 -0.57,-0.57 h -6.08 a 0.57,0.57 0 0 0 -0.57,0.57 0.56,0.56 0 0 0 0.57,0.57 h 6.08 a 0.56,0.56 0 0 0 0.57,-0.53 z m 0,2.65 a 0.57,0.57 0 0 0 -0.57,-0.57 h -6.08 a 0.57,0.57 0 0 0 -0.57,0.57 0.56,0.56 0 0 0 0.57,0.57 h 6.08 a 0.56,0.56 0 0 0 0.57,-0.57 z m 0,2.65 a 0.56,0.56 0 0 0 -0.57,-0.57 h -6.08 a 0.57,0.57 0 1 0 0,1.14 h 6.08 a 0.56,0.56 0 0 0 0.57,-0.57 z m 7.29,2.65 a 0.57,0.57 0 0 0 -0.57,-0.57 h -6.09 a 0.57,0.57 0 0 0 0,1.14 h 6.09 a 0.57,0.57 0 0 0 0.57,-0.57 z m 0,2.65 a 0.57,0.57 0 0 0 -0.57,-0.57 h -6.09 a 0.57,0.57 0 0 0 -0.57,0.57 0.58,0.58 0 0 0 0.57,0.57 h 6.09 a 0.58,0.58 0 0 0 0.57,-0.57 z m 0,2.65 a 0.58,0.58 0 0 0 -0.57,-0.58 h -6.09 a 0.58,0.58 0 0 0 0,1.15 h 6.09 a 0.58,0.58 0 0 0 0.57,-0.57 z m -4.61,-18.54 a 0.66,0.66 0 1 0 -1.32,0 0.66,0.66 0 0 0 1.32,0 z m 2,0 a 0.67,0.67 0 1 0 -0.67,0.66 0.67,0.67 0 0 0 0.66,-0.66 z m 2,0 a 0.66,0.66 0 1 0 -0.66,0.66 0.66,0.66 0 0 0 0.63,-0.66 z m 2,0 a 0.66,0.66 0 1 0 -1.32,0 0.66,0.66 0 0 0 1.32,0 z m 2,0 a 0.67,0.67 0 1 0 -0.67,0.66 0.67,0.67 0 0 0 0.62,-0.66 z m 2,0 a 0.66,0.66 0 1 0 -0.66,0.66 0.66,0.66 0 0 0 0.59,-0.66 z m -10,5.33 a 0.66,0.66 0 1 0 -0.66,0.67 0.67,0.67 0 0 0 0.66,-0.67 z m 2,0 a 0.67,0.67 0 1 0 -0.67,0.67 0.67,0.67 0 0 0 0.66,-0.67 z m 2,0 a 0.66,0.66 0 1 0 -1.32,0 0.66,0.66 0 1 0 1.32,0 z m 2,0 a 0.66,0.66 0 1 0 -0.66,0.67 0.67,0.67 0 0 0 0.62,-0.67 z m 2,0 a 0.67,0.67 0 1 0 -0.67,0.67 0.67,0.67 0 0 0 0.62,-0.67 z m 2,0 a 0.66,0.66 0 1 0 -0.66,0.67 0.66,0.66 0 0 0 0.59,-0.67 z m -3.14,7.62 a 0.67,0.67 0 0 0 -1.33,0 0.67,0.67 0 0 0 1.33,0 z m 2,0 a 0.66,0.66 0 1 0 -1.32,0 0.66,0.66 0 1 0 1.32,0 z m 2,0 a 0.66,0.66 0 1 0 -0.66,0.66 0.66,0.66 0 0 0 0.56,-0.7 z m 2,0 a 0.67,0.67 0 1 0 -0.67,0.66 0.66,0.66 0 0 0 0.56,-0.7 z m 2,0 a 0.66,0.66 0 1 0 -1.32,0 0.66,0.66 0 1 0 1.32,0 z m 2,0 a 0.66,0.66 0 1 0 -0.66,0.66 0.66,0.66 0 0 0 0.52,-0.7 z M 201.92,285 a 0.67,0.67 0 1 0 -0.66,0.66 0.66,0.66 0 0 0 0.66,-0.66 z m 2,0 a 0.66,0.66 0 1 0 -0.66,0.66 0.65,0.65 0 0 0 0.64,-0.66 z m 2,0 a 0.66,0.66 0 1 0 -0.66,0.66 0.66,0.66 0 0 0 0.63,-0.66 z m 2,0 a 0.67,0.67 0 1 0 -0.67,0.66 0.66,0.66 0 0 0 0.63,-0.66 z m 2,0 a 0.66,0.66 0 1 0 -0.66,0.66 0.65,0.65 0 0 0 0.6,-0.66 z m 2,0 a 0.66,0.66 0 1 0 -0.66,0.66 0.66,0.66 0 0 0 0.59,-0.66 z"
       style="fill:#92e3a9"
       id="path109" />
    <path
       d="m 183.21,288.94 h -2.32 a 0.57,0.57 0 0 1 -0.57,-0.57 0.58,0.58 0 0 1 0.57,-0.57 h 2.32 a 0.57,0.57 0 0 1 0.57,0.57 0.56,0.56 0 0 1 -0.57,0.57 z m 0.57,2.08 a 0.56,0.56 0 0 0 -0.57,-0.57 h -2.32 a 0.57,0.57 0 0 0 0,1.14 h 2.32 a 0.56,0.56 0 0 0 0.57,-0.59 z m 0,2.65 a 0.56,0.56 0 0 0 -0.57,-0.57 h -2.32 a 0.57,0.57 0 0 0 -0.57,0.57 0.58,0.58 0 0 0 0.57,0.57 h 2.32 a 0.57,0.57 0 0 0 0.57,-0.57 z m 0,2.65 a 0.56,0.56 0 0 0 -0.57,-0.57 h -2.32 a 0.57,0.57 0 0 0 -0.57,0.57 0.58,0.58 0 0 0 0.57,0.57 h 2.32 a 0.57,0.57 0 0 0 0.57,-0.57 z m 0,2.65 a 0.57,0.57 0 0 0 -0.57,-0.58 h -2.32 a 0.58,0.58 0 0 0 0,1.15 h 2.32 a 0.57,0.57 0 0 0 0.57,-0.54 z m 0,2.65 a 0.57,0.57 0 0 0 -0.57,-0.58 h -2.32 a 0.58,0.58 0 0 0 0,1.15 h 2.32 a 0.57,0.57 0 0 0 0.57,-0.57 z m 0,2.64 a 0.57,0.57 0 0 0 -0.57,-0.57 h -2.32 a 0.58,0.58 0 0 0 0,1.15 h 2.32 a 0.57,0.57 0 0 0 0.57,-0.58 z m 0,2.65 a 0.57,0.57 0 0 0 -0.57,-0.57 h -2.32 a 0.58,0.58 0 0 0 -0.57,0.57 0.57,0.57 0 0 0 0.57,0.57 h 2.32 a 0.56,0.56 0 0 0 0.57,-0.57 z m 8.67,-18.54 a 0.57,0.57 0 0 0 -0.57,-0.57 h -6.08 a 0.57,0.57 0 0 0 -0.57,0.57 0.56,0.56 0 0 0 0.57,0.57 h 6.08 a 0.56,0.56 0 0 0 0.57,-0.57 z m 0,2.65 a 0.56,0.56 0 0 0 -0.57,-0.57 h -6.08 a 0.57,0.57 0 1 0 0,1.14 h 6.08 a 0.56,0.56 0 0 0 0.57,-0.59 z m 0,2.65 a 0.56,0.56 0 0 0 -0.57,-0.57 h -6.08 a 0.56,0.56 0 0 0 -0.57,0.57 0.57,0.57 0 0 0 0.57,0.57 h 6.08 a 0.57,0.57 0 0 0 0.57,-0.57 z m 0,2.65 a 0.56,0.56 0 0 0 -0.57,-0.57 h -6.08 a 0.56,0.56 0 0 0 -0.57,0.57 0.57,0.57 0 0 0 0.57,0.57 h 6.08 a 0.57,0.57 0 0 0 0.57,-0.57 z m 0,2.65 a 0.57,0.57 0 0 0 -0.57,-0.58 h -6.08 a 0.58,0.58 0 0 0 0,1.15 h 6.08 a 0.57,0.57 0 0 0 0.57,-0.54 z m 7.29,2.65 a 0.58,0.58 0 0 0 -0.57,-0.58 h -6.09 a 0.58,0.58 0 0 0 0,1.15 h 6.09 a 0.58,0.58 0 0 0 0.57,-0.57 z m 0,2.64 a 0.58,0.58 0 0 0 -0.57,-0.57 h -6.09 a 0.58,0.58 0 0 0 0,1.15 h 6.09 a 0.58,0.58 0 0 0 0.57,-0.58 z m 0,2.65 a 0.58,0.58 0 0 0 -0.57,-0.57 h -6.09 a 0.58,0.58 0 0 0 -0.57,0.57 0.57,0.57 0 0 0 0.57,0.57 h 6.09 a 0.57,0.57 0 0 0 0.57,-0.57 z m -4.61,-18.54 a 0.66,0.66 0 0 0 -1.32,0 0.66,0.66 0 0 0 1.32,0 z m 2,0 a 0.67,0.67 0 0 0 -1.33,0 0.67,0.67 0 0 0 1.33,0 z m 2,0 a 0.66,0.66 0 1 0 -0.66,0.66 0.66,0.66 0 0 0 0.63,-0.66 z m 2,0 a 0.66,0.66 0 0 0 -1.32,0 0.66,0.66 0 0 0 1.32,0 z m 2,0 a 0.67,0.67 0 0 0 -1.33,0 0.67,0.67 0 0 0 1.33,0 z m 2,0 a 0.66,0.66 0 1 0 -0.66,0.66 0.66,0.66 0 0 0 0.59,-0.66 z m -9.93,5.3 a 0.66,0.66 0 1 0 -0.66,0.66 0.66,0.66 0 0 0 0.59,-0.66 z m 2,0 a 0.67,0.67 0 1 0 -0.67,0.66 0.66,0.66 0 0 0 0.59,-0.66 z m 2,0 a 0.66,0.66 0 0 0 -1.32,0 0.66,0.66 0 0 0 1.32,0 z m 2,0 a 0.66,0.66 0 1 0 -0.66,0.66 0.66,0.66 0 0 0 0.55,-0.66 z m 2,0 a 0.67,0.67 0 1 0 -0.67,0.66 0.66,0.66 0 0 0 0.55,-0.66 z m 2,0 a 0.66,0.66 0 1 0 -0.66,0.66 0.65,0.65 0 0 0 0.52,-0.66 z m -3.14,7.61 a 0.67,0.67 0 1 0 -0.66,0.67 0.67,0.67 0 0 0 0.52,-0.67 z m 2,0 a 0.66,0.66 0 1 0 -1.32,0 0.66,0.66 0 1 0 1.32,0 z m 2,0 a 0.66,0.66 0 1 0 -0.66,0.67 0.67,0.67 0 0 0 0.49,-0.67 z m 2,0 a 0.67,0.67 0 1 0 -0.67,0.67 0.67,0.67 0 0 0 0.49,-0.67 z m 2,0 a 0.66,0.66 0 1 0 -1.32,0 0.66,0.66 0 1 0 1.32,0 z m 2,0 a 0.66,0.66 0 1 0 -0.66,0.67 0.67,0.67 0 0 0 0.45,-0.67 z m -9.93,5.47 a 0.67,0.67 0 1 0 -0.66,0.66 0.67,0.67 0 0 0 0.45,-0.66 z m 2,0 a 0.66,0.66 0 1 0 -0.66,0.66 0.66,0.66 0 0 0 0.43,-0.66 z m 2,0 a 0.66,0.66 0 1 0 -1.32,0 0.66,0.66 0 1 0 1.32,0 z m 2,0 a 0.67,0.67 0 1 0 -0.67,0.66 0.67,0.67 0 0 0 0.42,-0.66 z m 2,0 a 0.66,0.66 0 1 0 -0.66,0.66 0.66,0.66 0 0 0 0.39,-0.66 z m 2,0 a 0.66,0.66 0 1 0 -1.32,0 0.66,0.66 0 0 0 1.32,0 z"
       style="fill:#92e3a9"
       id="path110" />
    <path
       d="m 218.79,246 h -2.31 a 0.57,0.57 0 0 1 -0.58,-0.57 0.58,0.58 0 0 1 0.58,-0.57 h 2.31 a 0.57,0.57 0 0 1 0.57,0.57 0.56,0.56 0 0 1 -0.57,0.57 z m 0.57,2.08 a 0.56,0.56 0 0 0 -0.57,-0.57 h -2.31 a 0.57,0.57 0 1 0 0,1.14 h 2.31 a 0.56,0.56 0 0 0 0.57,-0.53 z m 0,2.65 a 0.56,0.56 0 0 0 -0.57,-0.57 h -2.31 a 0.57,0.57 0 0 0 -0.58,0.57 0.58,0.58 0 0 0 0.58,0.57 h 2.31 a 0.57,0.57 0 0 0 0.57,-0.53 z m 0,2.65 a 0.56,0.56 0 0 0 -0.57,-0.57 h -2.31 a 0.57,0.57 0 0 0 -0.58,0.57 0.58,0.58 0 0 0 0.58,0.57 h 2.31 a 0.57,0.57 0 0 0 0.57,-0.53 z m 0,2.65 a 0.57,0.57 0 0 0 -0.57,-0.58 h -2.31 a 0.58,0.58 0 1 0 0,1.15 h 2.31 a 0.57,0.57 0 0 0 0.57,-0.53 z m 0,2.64 a 0.57,0.57 0 0 0 -0.57,-0.57 h -2.31 a 0.58,0.58 0 1 0 0,1.15 h 2.31 a 0.57,0.57 0 0 0 0.57,-0.54 z m 0,2.65 a 0.57,0.57 0 0 0 -0.57,-0.57 h -2.31 a 0.58,0.58 0 0 0 -0.58,0.57 0.57,0.57 0 0 0 0.58,0.57 h 2.31 a 0.56,0.56 0 0 0 0.57,-0.53 z m 0,2.65 a 0.57,0.57 0 0 0 -0.57,-0.57 h -2.31 a 0.58,0.58 0 0 0 -0.58,0.57 0.57,0.57 0 0 0 0.58,0.57 h 2.31 a 0.56,0.56 0 0 0 0.57,-0.54 z m 8.64,-18.5 a 0.57,0.57 0 0 0 -0.57,-0.57 h -6.08 a 0.57,0.57 0 0 0 -0.57,0.57 0.56,0.56 0 0 0 0.57,0.57 h 6.08 a 0.56,0.56 0 0 0 0.57,-0.57 z m 0,2.65 a 0.56,0.56 0 0 0 -0.57,-0.57 h -6.08 a 0.57,0.57 0 0 0 0,1.14 h 6.08 a 0.56,0.56 0 0 0 0.57,-0.57 z m 0,2.65 a 0.56,0.56 0 0 0 -0.57,-0.57 h -6.08 a 0.56,0.56 0 0 0 -0.57,0.57 0.57,0.57 0 0 0 0.57,0.57 h 6.08 a 0.57,0.57 0 0 0 0.57,-0.57 z m 0,2.65 a 0.56,0.56 0 0 0 -0.57,-0.57 h -6.08 a 0.56,0.56 0 0 0 -0.57,0.57 0.57,0.57 0 0 0 0.57,0.57 h 6.08 a 0.57,0.57 0 0 0 0.57,-0.57 z m 0,2.65 a 0.57,0.57 0 0 0 -0.57,-0.58 h -6.08 a 0.58,0.58 0 0 0 0,1.15 h 6.08 a 0.57,0.57 0 0 0 0.57,-0.57 z m 7.29,2.64 a 0.58,0.58 0 0 0 -0.57,-0.57 h -6.09 a 0.58,0.58 0 0 0 0,1.15 h 6.09 a 0.58,0.58 0 0 0 0.6,-0.58 z m 0,2.65 a 0.58,0.58 0 0 0 -0.57,-0.57 h -6.09 a 0.58,0.58 0 0 0 -0.57,0.57 0.57,0.57 0 0 0 0.57,0.57 h 6.09 a 0.57,0.57 0 0 0 0.6,-0.57 z m 0,2.65 a 0.58,0.58 0 0 0 -0.57,-0.57 h -6.09 a 0.58,0.58 0 0 0 -0.57,0.57 0.57,0.57 0 0 0 0.57,0.57 h 6.09 a 0.57,0.57 0 0 0 0.6,-0.58 z m -4.61,-18.54 a 0.66,0.66 0 1 0 -1.32,0 0.66,0.66 0 0 0 1.32,0 z m 2,0 a 0.67,0.67 0 1 0 -0.66,0.66 0.67,0.67 0 0 0 0.68,-0.66 z m 2,0 a 0.66,0.66 0 1 0 -0.66,0.66 0.66,0.66 0 0 0 0.66,-0.66 z m 2,0 a 0.66,0.66 0 1 0 -1.32,0 0.66,0.66 0 1 0 1.32,0 z m 2,0 a 0.67,0.67 0 0 0 -1.33,0 0.67,0.67 0 0 0 1.33,0 z m 2,0 a 0.66,0.66 0 1 0 -0.66,0.66 0.66,0.66 0 0 0 0.62,-0.66 z m -9.93,5.3 a 0.66,0.66 0 1 0 -0.66,0.66 0.66,0.66 0 0 0 0.62,-0.66 z m 2,0 a 0.67,0.67 0 0 0 -1.33,0 0.67,0.67 0 0 0 1.33,0 z m 2,0 a 0.66,0.66 0 0 0 -1.32,0 0.66,0.66 0 0 0 1.32,0 z m 2,0 a 0.66,0.66 0 1 0 -0.66,0.66 0.66,0.66 0 0 0 0.58,-0.66 z m 2,0 a 0.67,0.67 0 1 0 -0.67,0.66 0.66,0.66 0 0 0 0.58,-0.66 z m 2,0 a 0.66,0.66 0 0 0 -1.32,0 0.66,0.66 0 0 0 1.32,0 z m -3.14,7.61 a 0.67,0.67 0 1 0 -0.66,0.67 0.67,0.67 0 0 0 0.55,-0.67 z m 2,0 a 0.66,0.66 0 1 0 -1.32,0 0.66,0.66 0 1 0 1.32,0 z m 2,0 a 0.66,0.66 0 1 0 -0.66,0.67 0.67,0.67 0 0 0 0.52,-0.67 z m 2,0 a 0.67,0.67 0 1 0 -0.66,0.67 0.67,0.67 0 0 0 0.51,-0.67 z m 2,0 a 0.66,0.66 0 1 0 -1.32,0 0.66,0.66 0 1 0 1.32,0 z m 2,0 a 0.66,0.66 0 1 0 -0.66,0.67 0.67,0.67 0 0 0 0.48,-0.67 z m -9.93,5.47 a 0.67,0.67 0 1 0 -0.66,0.66 0.67,0.67 0 0 0 0.48,-0.66 z m 2,0 a 0.66,0.66 0 1 0 -0.66,0.66 0.66,0.66 0 0 0 0.46,-0.66 z m 2,0 a 0.66,0.66 0 1 0 -1.32,0 0.66,0.66 0 0 0 1.32,0 z m 2,0 a 0.67,0.67 0 1 0 -0.66,0.66 0.67,0.67 0 0 0 0.44,-0.66 z m 2,0 a 0.66,0.66 0 1 0 -0.66,0.66 0.66,0.66 0 0 0 0.42,-0.66 z m 2,0 a 0.66,0.66 0 1 0 -1.32,0 0.66,0.66 0 0 0 1.32,0 z"
       style="fill:#92e3a9"
       id="path111" />
    <path
       d="m 218.79,267.75 h -2.31 a 0.58,0.58 0 0 1 -0.58,-0.57 0.57,0.57 0 0 1 0.58,-0.57 h 2.31 a 0.56,0.56 0 0 1 0.57,0.57 0.57,0.57 0 0 1 -0.57,0.57 z m 0.57,2.08 a 0.57,0.57 0 0 0 -0.57,-0.58 h -2.31 a 0.58,0.58 0 1 0 0,1.15 h 2.31 a 0.57,0.57 0 0 0 0.57,-0.57 z m 0,2.64 a 0.57,0.57 0 0 0 -0.57,-0.57 h -2.31 a 0.58,0.58 0 1 0 0,1.15 h 2.31 a 0.57,0.57 0 0 0 0.57,-0.58 z m 0,2.65 a 0.57,0.57 0 0 0 -0.57,-0.57 h -2.31 a 0.58,0.58 0 0 0 -0.58,0.57 0.57,0.57 0 0 0 0.58,0.57 h 2.31 a 0.56,0.56 0 0 0 0.57,-0.57 z m 0,2.65 a 0.57,0.57 0 0 0 -0.57,-0.57 h -2.31 a 0.58,0.58 0 0 0 -0.58,0.57 0.57,0.57 0 0 0 0.58,0.57 h 2.31 a 0.56,0.56 0 0 0 0.57,-0.57 z m 0,2.65 a 0.56,0.56 0 0 0 -0.57,-0.57 h -2.31 a 0.57,0.57 0 1 0 0,1.14 h 2.31 a 0.56,0.56 0 0 0 0.57,-0.57 z m 0,2.65 a 0.56,0.56 0 0 0 -0.57,-0.57 h -2.31 a 0.57,0.57 0 1 0 0,1.14 h 2.31 a 0.56,0.56 0 0 0 0.57,-0.57 z m 0,2.65 a 0.56,0.56 0 0 0 -0.57,-0.57 h -2.31 a 0.57,0.57 0 0 0 -0.58,0.57 0.58,0.58 0 0 0 0.58,0.57 h 2.31 a 0.57,0.57 0 0 0 0.57,-0.57 z M 228,267.18 a 0.56,0.56 0 0 0 -0.57,-0.57 h -6.08 a 0.56,0.56 0 0 0 -0.57,0.57 0.57,0.57 0 0 0 0.57,0.57 h 6.08 a 0.57,0.57 0 0 0 0.57,-0.57 z m 0,2.65 a 0.57,0.57 0 0 0 -0.57,-0.58 h -6.08 a 0.58,0.58 0 0 0 0,1.15 h 6.08 a 0.57,0.57 0 0 0 0.57,-0.57 z m 0,2.64 a 0.57,0.57 0 0 0 -0.57,-0.57 h -6.08 a 0.58,0.58 0 0 0 0,1.15 h 6.08 a 0.57,0.57 0 0 0 0.57,-0.58 z m 0,2.65 a 0.57,0.57 0 0 0 -0.57,-0.57 h -6.08 a 0.57,0.57 0 0 0 -0.57,0.57 0.56,0.56 0 0 0 0.57,0.57 h 6.08 a 0.56,0.56 0 0 0 0.57,-0.57 z m 0,2.65 a 0.57,0.57 0 0 0 -0.57,-0.57 h -6.08 a 0.57,0.57 0 0 0 -0.57,0.57 0.56,0.56 0 0 0 0.57,0.57 h 6.08 a 0.56,0.56 0 0 0 0.57,-0.57 z m 7.29,2.65 a 0.57,0.57 0 0 0 -0.57,-0.57 h -6.09 a 0.57,0.57 0 0 0 0,1.14 h 6.09 a 0.57,0.57 0 0 0 0.6,-0.57 z m 0,2.65 a 0.57,0.57 0 0 0 -0.57,-0.57 h -6.09 a 0.57,0.57 0 0 0 0,1.14 h 6.09 a 0.57,0.57 0 0 0 0.6,-0.57 z m 0,2.65 a 0.57,0.57 0 0 0 -0.57,-0.57 h -6.09 a 0.57,0.57 0 0 0 -0.57,0.57 0.58,0.58 0 0 0 0.57,0.57 h 6.09 a 0.58,0.58 0 0 0 0.6,-0.57 z m -4.61,-18.54 a 0.66,0.66 0 1 0 -0.66,0.66 0.66,0.66 0 0 0 0.69,-0.66 z m 2,0 a 0.67,0.67 0 0 0 -1.33,0 0.67,0.67 0 0 0 1.33,0 z m 2,0 a 0.66,0.66 0 0 0 -1.32,0 0.66,0.66 0 0 0 1.32,0 z m 2,0 a 0.66,0.66 0 1 0 -0.66,0.66 0.66,0.66 0 0 0 0.65,-0.66 z m 2,0 a 0.67,0.67 0 1 0 -0.67,0.66 0.66,0.66 0 0 0 0.65,-0.66 z m 2,0 a 0.66,0.66 0 0 0 -1.32,0 0.66,0.66 0 0 0 1.32,0 z m -9.93,5.29 a 0.66,0.66 0 1 0 -0.66,0.67 0.67,0.67 0 0 0 0.62,-0.67 z m 2,0 a 0.67,0.67 0 1 0 -0.66,0.67 0.67,0.67 0 0 0 0.61,-0.67 z m 2,0 a 0.66,0.66 0 0 0 -1.32,0 0.66,0.66 0 1 0 1.32,0 z m 2,0 a 0.66,0.66 0 1 0 -0.66,0.67 0.67,0.67 0 0 0 0.58,-0.67 z m 2,0 a 0.67,0.67 0 1 0 -0.67,0.67 0.67,0.67 0 0 0 0.58,-0.67 z m 2,0 a 0.66,0.66 0 0 0 -1.32,0 0.66,0.66 0 1 0 1.32,0 z m -3.14,7.62 a 0.67,0.67 0 1 0 -0.66,0.66 0.66,0.66 0 0 0 0.55,-0.66 z m 2,0 a 0.66,0.66 0 1 0 -0.66,0.66 0.65,0.65 0 0 0 0.53,-0.66 z m 2,0 a 0.66,0.66 0 1 0 -0.66,0.66 0.66,0.66 0 0 0 0.52,-0.66 z m 2,0 a 0.67,0.67 0 1 0 -0.66,0.66 0.66,0.66 0 0 0 0.51,-0.66 z m 2,0 a 0.66,0.66 0 1 0 -0.66,0.66 0.65,0.65 0 0 0 0.49,-0.66 z m 2,0 a 0.66,0.66 0 1 0 -0.66,0.66 0.66,0.66 0 0 0 0.48,-0.66 z m -9.93,5.46 a 0.67,0.67 0 1 0 -0.66,0.66 0.67,0.67 0 0 0 0.48,-0.66 z m 2,0 a 0.66,0.66 0 1 0 -0.66,0.66 0.66,0.66 0 0 0 0.46,-0.66 z m 2,0 a 0.66,0.66 0 1 0 -1.32,0 0.66,0.66 0 1 0 1.32,0 z m 2,0 a 0.67,0.67 0 1 0 -0.66,0.66 0.67,0.67 0 0 0 0.44,-0.66 z m 2,0 a 0.66,0.66 0 1 0 -0.66,0.66 0.66,0.66 0 0 0 0.42,-0.66 z m 2,0 a 0.66,0.66 0 1 0 -1.32,0 0.66,0.66 0 1 0 1.32,0 z"
       style="fill:#92e3a9"
       id="path112" />
  </g>
  <g
     id="freepik--Character--inject-3"
     transform="translate(-48.711457,-84.703904)">
    <path
       d="m 215.64,215.34 c -0.29,3.78 -2.09,6.72 -4,6.57 -1.91,-0.15 -3.24,-3.33 -2.95,-7.11 0.29,-3.78 2.09,-6.73 4,-6.58 1.91,0.15 3.24,3.33 2.95,7.12 z"
       style="fill:none;stroke:#263238;stroke-linecap:round;stroke-linejoin:round"
       id="path113" />
    <path
       d="m 212.75,195.81 c 0,0 0.38,7 -0.78,10.26 -1.16,3.26 -2.71,5.42 -2.71,7 0,1.58 2.52,3.49 2.52,6.58 0,3.09 -5.61,18 -7.16,20.9 -1.55,2.9 -1,3.87 -2.9,4.06 -1.9,0.19 -6.77,-2.12 -6.77,-2.12 0,0 -2.91,0.38 -3.29,1.54 -0.38,1.16 -1.36,5.23 -1.36,5.23 l -28.25,-12.58 a 28.26,28.26 0 0 0 5.81,-9.87 c 1.74,-5.61 -1,-14.32 -1,-14.32 0,0 -2.71,-20.31 9.67,-26.12 12.38,-5.81 30.38,-2.13 33.29,0.78 2.91,2.91 2.93,8.66 2.93,8.66 z"
       style="fill:#ffffff"
       id="path114" />
    <g
       clip-path="url(#freepik--clip-path--inject-3)"
       id="g116">
      <path
         d="m 194.69,227.93 c 0.35,-9 -2.08,-20.49 -2.08,-20.49 0,0 0.34,-2.78 -4.87,-11.46 a 115.14,115.14 0 0 0 -7,-11.19 29.3,29.3 0 0 0 -4.14,1.54 c -12.38,5.81 -9.67,26.12 -9.67,26.12 0,0 2.71,8.71 1,14.32 a 28.26,28.26 0 0 1 -5.81,9.87 l 16.35,7.36 13.09,-1.79 c 0,0 0.68,0.3 1.66,0.7 a 9.44,9.44 0 0 1 1.73,-0.41 c 0,0 4.83,2.32 6.77,2.12 C 203,243 194.34,237 194.69,227.93 Z"
         style="opacity:0.4"
         id="path115" />
      <path
         d="m 197.12,198.07 6.94,-0.35 c 0,0 -4.16,4.51 0.7,4.51 4.86,0 8,-1.21 8,-3.82 0,-2.61 2.43,-6.59 -6.94,-6.59 -9.37,0 -11.48,3.82 -8.7,6.25 z"
         style="opacity:0.4"
         id="path116" />
    </g>
    <path
       d="m 212.75,195.81 c 0,0 0.38,7 -0.78,10.26 -1.16,3.26 -2.71,5.42 -2.71,7 0,1.58 2.52,3.49 2.52,6.58 0,3.09 -5.61,18 -7.16,20.9 -1.55,2.9 -1,3.87 -2.9,4.06 -1.9,0.19 -6.77,-2.12 -6.77,-2.12 0,0 -2.91,0.38 -3.29,1.54 -0.38,1.16 -1.36,5.23 -1.36,5.23 l -28.25,-12.58 a 28.26,28.26 0 0 0 5.81,-9.87 c 1.74,-5.61 -1,-14.32 -1,-14.32 0,0 -2.71,-20.31 9.67,-26.12 12.38,-5.81 30.38,-2.13 33.29,0.78 2.91,2.91 2.93,8.66 2.93,8.66 z"
       style="fill:none;stroke:#263238;stroke-linecap:round;stroke-linejoin:round"
       id="path117" />
    <path
       d="m 189.34,213.81 c 0,0 4.64,1.35 5.22,0 0.58,-1.35 -1.16,-1.74 1,-2.52 2.16,-0.78 7.16,-3.87 7.16,-7 0,-3.13 -5.81,-8.32 -2.91,-9.1 2.9,-0.78 11.81,-0.38 11.81,-0.38 0,0 -6.2,2.9 -3.1,4.25 3.1,1.35 10.64,-0.38 13.54,-4.64 2.9,-4.26 -1.16,-11 -6.77,-14.71 -5.61,-3.71 -16.83,-6.77 -27.86,-6.38 -11.03,0.39 -19.16,4.26 -21.48,10.64 -2.32,6.38 1.36,28.83 1.55,34.83 0.19,6 3.87,7.74 8.13,7.74 4.26,0 7.93,-3.68 8.9,-7 0.97,-3.32 1.35,-6.58 1.93,-7.35 0.58,-0.77 2.88,1.62 2.88,1.62 z"
       style="fill:#263238;stroke:#263238;stroke-linecap:round;stroke-linejoin:round"
       id="path118" />
    <path
       d="m 176.47,213 a 14.52,14.52 0 0 1 -2.36,2.1"
       style="fill:none;stroke:#707070;stroke-linecap:round;stroke-linejoin:round"
       id="path119" />
    <path
       d="m 220.92,188 c 0,0 -1.29,1.94 -6.46,3.23 -5.17,1.29 -16.14,-4.2 -28.09,1.29 -8.13,3.74 -6.08,9.43 -7.21,15"
       style="fill:none;stroke:#707070;stroke-linecap:round;stroke-linejoin:round"
       id="path120" />
    <path
       d="m 198.32,197.65 c 0,0 -4.2,0.64 -7.43,6.13 -3.23,5.49 -2.9,13.88 -12.59,16.47"
       style="fill:none;stroke:#707070;stroke-linecap:round;stroke-linejoin:round"
       id="path121" />
    <line
       x1="187.59"
       y1="210.52"
       x2="215.25999"
       y2="213.42"
       style="fill:none;stroke:#263238;stroke-linecap:round;stroke-linejoin:round"
       id="line121" />
    <path
       d="m 191.46,216.71 c 0,0 0.39,-6.77 -2.12,-10.06 -2.51,-3.29 -4.65,-1 -5.81,5.61 -1.16,6.61 -1.16,10.06 1.35,11 a 7.14,7.14 0 0 0 5,-0.19"
       style="fill:#ffffff;stroke:#263238;stroke-linecap:round;stroke-linejoin:round"
       id="path122" />
    <path
       d="m 262,392.51 c -2.33,-2.29 -8.48,-7.72 -16.21,-9.57 -9.9,-2.35 -53.28,-7.3 -53.28,-7.3 l -2.13,-8.73 c 0,0 -6.13,-1.89 -7.54,-1.89 -1.41,0 -7.78,2.13 -21.93,5.19 -14.15,3.06 -39.48,-4.44 -39.48,-4.44 a 19.25,19.25 0 0 0 -6.89,14.7 c 0,6 0.56,11 1.25,12 z"
       style="fill:#263238;stroke:#263238;stroke-linecap:round;stroke-linejoin:round"
       id="path123" />
    <path
       d="m 156.25,240.51 -0.71,0.49 c -2.72,1.87 -12.76,8.83 -20.38,14.8 -8.9,7 -9.48,19.93 -9.87,30 -0.39,10.07 -6.88,72.7 -8.43,80.44 -1.55,7.74 12.3,9.72 25.65,11.66 13.35,1.94 30.57,-0.19 38.89,-4.06 8.32,-3.87 10.26,-3.68 10.26,-7.94 0,-4.26 0.19,-13.93 0.19,-14.7 0,-0.77 6,-48.18 5.61,-62.11 -0.39,-13.93 0.78,-21.48 -2.51,-28.45 -3.29,-6.97 -11.61,-12.38 -22.64,-16.06 -11.03,-3.68 -16.06,-4.07 -16.06,-4.07 z"
       style="fill:#92e3a9"
       id="path124" />
    <g
       clip-path="url(#freepik--clip-path-2--inject-3)"
       id="g129">
      <path
         d="M 188.62,268.58 C 185.35,262 174.81,250 174.81,250 c 0,0 8,-2.37 -19.26,-9 v 0 c -2.72,1.87 -12.76,8.83 -20.38,14.8 -8.9,7 -9.48,19.93 -9.87,30 -0.39,10.07 -6.88,72.7 -8.43,80.44 -1.55,7.74 12.3,9.72 25.65,11.66 a 74.77,74.77 0 0 0 10.65,0.72 l 38.91,-31.93 0.25,0.33 c 1.05,-8.92 3.56,-30.22 4.64,-45.3 -2.81,-13.09 -6.09,-28.56 -8.35,-33.14 z"
         style="opacity:0.4"
         id="path125" />
      <path
         d="m 143.1,280.69 c 0,0 1.77,17.18 10.07,28.14"
         style="fill:none;stroke:#263238;stroke-linecap:round;stroke-linejoin:round"
         id="path126" />
      <path
         d="m 168,309.42 c 0,0 1.78,4.15 10.67,11"
         style="fill:none;stroke:#263238;stroke-linecap:round;stroke-linejoin:round"
         id="path127" />
      <path
         d="m 160.87,321.86 c 0,0 9.47,3.26 18.65,1.48"
         style="fill:none;stroke:#263238;stroke-linecap:round;stroke-linejoin:round"
         id="path128" />
      <path
         d="m 157.9,378.43 c 0,0 19.55,-10.07 27.25,-19.85"
         style="fill:none;stroke:#263238;stroke-linecap:round;stroke-linejoin:round"
         id="path129" />
    </g>
    <path
       d="m 156.25,240.51 -0.71,0.49 c -2.72,1.87 -12.76,8.83 -20.38,14.8 -8.9,7 -9.48,19.93 -9.87,30 -0.39,10.07 -6.88,72.7 -8.43,80.44 -1.55,7.74 12.3,9.72 25.65,11.66 13.35,1.94 30.57,-0.19 38.89,-4.06 8.32,-3.87 10.26,-3.68 10.26,-7.94 0,-4.26 0.19,-13.93 0.19,-14.7 0,-0.77 6,-48.18 5.61,-62.11 -0.39,-13.93 0.78,-21.48 -2.51,-28.45 -3.29,-6.97 -11.61,-12.38 -22.64,-16.06 -11.03,-3.68 -16.06,-4.07 -16.06,-4.07 z"
       style="fill:none;stroke:#263238;stroke-linecap:round;stroke-linejoin:round"
       id="path130" />
    <path
       d="m 158.18,233.93 -5.18,8.71 c 0,0 15.67,3.68 23.8,7 8.13,3.32 19,12 19,12 0,0 -1.74,-9.87 -3.29,-12.38 -1.55,-2.51 -17.61,-11 -24.19,-13.55 -6.58,-2.55 -10.14,-1.78 -10.14,-1.78 z"
       style="fill:#92e3a9"
       id="path131" />
    <g
       clip-path="url(#freepik--clip-path-3--inject-3)"
       id="g132">
      <path
         d="m 182.34,252.39 a 2.08,2.08 0 0 0 1.44,-1.62 c 0.56,-4.61 -7.24,-11.17 -7.64,-11.51 -3.06,-1.52 -5.91,-2.83 -7.9,-3.59 -6.57,-2.51 -10.06,-1.74 -10.06,-1.74 l -5.18,8.71 c 0,0 15.67,3.68 23.8,7 a 46.79,46.79 0 0 1 5.54,2.75 z"
         style="opacity:0.4"
         id="path132" />
    </g>
    <path
       d="m 158.18,233.93 -5.18,8.71 c 0,0 15.67,3.68 23.8,7 8.13,3.32 19,12 19,12 0,0 -1.74,-9.87 -3.29,-12.38 -1.55,-2.51 -17.61,-11 -24.19,-13.55 -6.58,-2.55 -10.14,-1.78 -10.14,-1.78 z"
       style="fill:none;stroke:#263238;stroke-linecap:round;stroke-linejoin:round"
       id="path133" />
    <path
       d="m 251.25,343.45 c 0,0 5,-4.26 7.35,-8.52 2.35,-4.26 3.87,-5.41 5.62,-5 a 15.68,15.68 0 0 0 3.09,0.39 c 0,0 6.19,-3.68 8.13,-4.06 1.94,-0.38 5.8,4.25 5.8,4.25 0,0 6.58,5 5.81,6.2 -0.77,1.2 -1.94,0.58 -2.71,0.58 -0.77,0 -2.52,-1.36 -3.48,-1 -0.96,0.36 -5.23,3.09 -5.23,3.09 0,0 5,0 6.39,0.58 1.39,0.58 6.38,5 5.42,5.62 -0.96,0.62 -1,0.77 -2.13,0.58 a 17.69,17.69 0 0 1 -3.87,-1.94 l -5.23,1 c 0,0 3.1,3.29 4.07,4.06 0.97,0.77 4.64,1.94 3.09,2.9 -1.55,0.96 -2.71,0.59 -4.64,-0.77 -1.93,-1.36 -6.19,-3.48 -7,-3.48 -0.81,0 -2.9,2.71 -6.38,3.87 a 34,34 0 0 1 -8.71,1.16 l -1,1 -5.8,-7 -1.16,-1 z"
       style="fill:#ffffff;stroke:#263238;stroke-linecap:round;stroke-linejoin:round"
       id="path134" />
    <path
       d="m 281.24,330.48 c 0,0 -1.74,-1 -2.9,-0.38 -1.16,0.62 -8.51,4.83 -8.51,4.83"
       style="fill:none;stroke:#263238;stroke-linecap:round;stroke-linejoin:round"
       id="path135" />
    <line
       x1="267.31"
       y1="330.29001"
       x2="263.82999"
       y2="332.60999"
       style="fill:none;stroke:#263238;stroke-linecap:round;stroke-linejoin:round"
       id="line135" />
    <path
       d="m 216.42,346.54 c 0,0 12.77,-0.19 14.71,-1.35 1.94,-1.16 6.58,-4.45 6.77,-5.81 0.19,-1.36 -1,-2.12 -2.9,-1.35 -1.9,0.77 -7,2.71 -7.74,2.71 a 27.65,27.65 0 0 1 -4.06,-1.16 c 0,0 5.61,-5 7.93,-6.39 a 6.35,6.35 0 0 1 6.19,0 c 1.36,0.78 3.48,-1.74 1.74,-3.09 a 9.55,9.55 0 0 0 -6.19,-2.13 8.62,8.62 0 0 0 -2.71,0.58 c 0,0 -2.13,-3.48 -3.67,-3.1 a 6.61,6.61 0 0 0 -2.71,1.55 3.52,3.52 0 0 0 -3.49,0.19 c -1.74,1.17 -3.48,1.55 -5.41,3.1 -1.93,1.55 -7.55,5.22 -8.32,6.58 -0.77,1.36 9.86,9.67 9.86,9.67 z"
       style="fill:#ffffff;stroke:#263238;stroke-linecap:round;stroke-linejoin:round"
       id="path136" />
    <line
       x1="230.16"
       y1="328.54999"
       x2="224.74001"
       y2="331.64001"
       style="fill:none;stroke:#263238;stroke-linecap:round;stroke-linejoin:round"
       id="line136" />
    <line
       x1="223.78"
       y1="327"
       x2="219.91"
       y2="329.70999"
       style="fill:none;stroke:#263238;stroke-linecap:round;stroke-linejoin:round"
       id="line137" />
    <path
       d="m 179.47,280.36 c 0,0 -5.42,7.36 -7.16,13.17 -1.74,5.81 0.38,14.12 1,16.06 0.62,1.94 31.53,62.88 34.82,68.88 3.29,6 7,6.38 9.68,5.42 2.68,-0.96 33.86,-23.22 35,-24.38 1.14,-1.16 6.39,-5.61 6.39,-5.61 0,0 1,-6.2 -3.29,-9.48 -4.29,-3.28 -6.39,-1.55 -6.39,-1.55 l -27.09,7.35 c 0,0 -15.28,-52.63 -17,-62.69 -1.72,-10.06 1,-9.48 -4.45,-14.9 a 75.81,75.81 0 0 0 -12,-9.5"
       style="fill:#92e3a9"
       id="path137" />
    <g
       clip-path="url(#freepik--clip-path-4--inject-3)"
       id="g138">
      <path
         d="m 252.8,359.51 c 1.16,-1.16 6.39,-5.61 6.39,-5.61 a 13.17,13.17 0 0 0 -0.25,-4.51 c -10.89,4.31 -33.21,13.24 -34.51,14.55 -1.73,1.72 -0.86,-1.3 -0.86,-4.75 0,-3.45 -5.18,6 -6,8.2 -0.82,2.2 -2.83,-6.14 -3.46,-9.49 -0.63,-3.35 -10.78,-29.35 -13.8,-41.43 -3.02,-12.08 -8.39,-41.29 -11.65,-47.89 a 32.93,32.93 0 0 0 -2,-3.34 l -8.17,14.55 c 0,0 -4.45,7.93 -6.19,13.74 -1.74,5.81 0.38,14.12 1,16.06 0.31,1.05 9.63,19.6 18.59,37.25 l 0.2,-0.16 c 0,0 16.4,41.52 24.46,37.49 7.89,-5.01 35.24,-23.65 36.25,-24.66 z"
         style="opacity:0.4"
         id="path138" />
    </g>
    <path
       d="m 179.47,280.36 c 0,0 -5.42,7.36 -7.16,13.17 -1.74,5.81 0.38,14.12 1,16.06 0.62,1.94 31.53,62.88 34.82,68.88 3.29,6 7,6.38 9.68,5.42 2.68,-0.96 33.86,-23.22 35,-24.38 1.14,-1.16 6.39,-5.61 6.39,-5.61 0,0 1,-6.2 -3.29,-9.48 -4.29,-3.28 -6.39,-1.55 -6.39,-1.55 l -27.09,7.35 c 0,0 -15.28,-52.63 -17,-62.69 -1.72,-10.06 1,-9.48 -4.45,-14.9 a 75.81,75.81 0 0 0 -12,-9.5"
       style="fill:none;stroke:#263238;stroke-linecap:round;stroke-linejoin:round"
       id="path139" />
    <path
       d="m 245.83,344.61 c 0,0 8.79,1.11 9.29,12.77"
       style="fill:none;stroke:#263238;stroke-linecap:round;stroke-linejoin:round"
       id="path140" />
  </g>
  <g
     id="freepik--Chair--inject-3"
     transform="translate(-48.711457,-84.703904)">
    <path
       d="M 151.51,392.51 H 156 c -6.88,-12.83 -44.81,-83.69 -46.1,-86.9 -1.41,-3.54 -3.53,-3.54 -4.24,-5 -0.71,-1.46 0.24,-7.54 0,-11.55 -0.24,-4.01 -13.2,-41.26 -16.74,-47.39 -3.54,-6.13 -9,-5.43 -9,-5.43 l -1.42,3.78 22.4,61.07 z"
       style="fill:#ffffff;stroke:#263238;stroke-linecap:round;stroke-linejoin:round"
       id="path141" />
    <path
       d="m 63.71,304.91 c 9.31,21.5 35.74,81.69 37.94,87.6 h 49.85 c -5.85,-10.53 -40.63,-73.42 -48,-93.27 -8,-21.69 -20.52,-60.36 -23.58,-63 -3.06,-2.64 -18.39,-2.59 -24.52,-0.7 -6.13,1.89 -6.37,2.59 -6.13,6.6 0.24,4.01 5.17,41.34 14.44,62.77 z"
       style="fill:#263238;stroke:#263238;stroke-linecap:round;stroke-linejoin:round"
       id="path142" />
    <line
       x1="81.559998"
       y1="392.51001"
       x2="442.17001"
       y2="392.51001"
       style="fill:#ffffff;stroke:#263238;stroke-linecap:round;stroke-linejoin:round"
       id="line142" />
  </g>
</svg>
