<?xml version="1.0" encoding="UTF-8"?>
<!-- Generated by Pixelmator Pro 3.5.7 -->
<svg width="32" height="32" viewBox="0 0 32 32" xmlns="http://www.w3.org/2000/svg">
    <g id="g2" transform="rotate(35 16 16)">
        <path id="path7" fill="#1ca838" stroke="none" d="M 15.914951 0.084677 C 16.357269 0.214851 16.885885 0.239733 17.228146 0.492018 C 19.804647 2.391161 21.909994 4.653267 22.897169 7.675903 C 23.544016 9.656446 23.417345 11.557304 21.913811 13.207411 C 21.078817 14.123833 19.990129 14.68335 18.808067 15.095995 C 18.699911 15.133749 18.593472 15.175924 18.44186 15.232645 C 19.01609 15.407789 19.549665 15.531773 20.050558 15.730021 C 22.205132 16.582771 23.297279 18.336525 22.922415 20.517822 C 22.377502 23.688643 20.613712 26.176357 17.928856 28.090292 C 17.57172 28.344875 17.12521 28.486708 16.683285 28.646088 C 16.578905 27.157148 16.496849 25.703321 16.447004 24.248505 C 16.364754 21.84803 16.302229 19.446926 16.233513 17.046032 C 16.19558 15.72117 16.155457 14.396315 16.127934 13.071236 C 16.084206 10.965881 16.052456 8.860304 16.0079 6.754965 C 16.004168 6.581474 15.941461 6.409111 15.903337 6.190199 C 15.905409 4.12435 15.910136 2.104513 15.914944 0.084677 Z"/>
        <path id="path8" fill="#81c123" stroke="none" d="M 15.873572 0.077318 C 15.910136 2.104513 15.905328 4.12435 15.903503 6.192478 C 15.906819 6.240784 15.904744 6.244642 15.878713 6.275059 C 15.849111 6.546997 15.845422 6.7885 15.835338 7.077393 C 15.792151 8.30386 15.75415 9.482903 15.718899 10.662022 C 15.647899 13.036818 15.575799 15.411594 15.508952 17.786495 C 15.429467 20.610455 15.358307 23.434624 15.276289 26.258507 C 15.253157 27.054953 15.20462 27.850721 15.167731 28.646803 C 14.728611 28.448704 14.244198 28.309649 13.85767 28.042982 C 11.239698 26.236851 9.521586 23.840473 8.973873 20.803816 C 8.453966 17.921282 10.060059 15.88221 13.102288 15.337097 C 13.182689 15.322685 13.26333 15.309414 13.484074 15.271585 C 13.049059 15.105625 12.731981 14.994011 12.422869 14.865194 C 10.545946 14.083 9.143395 12.889818 8.69984 10.903355 C 8.399462 9.558132 8.641246 8.252983 9.163408 6.996399 C 10.261505 4.353848 12.169207 2.296408 14.487006 0.564445 C 14.848134 0.294596 15.379456 0.229628 15.873464 0.077284 Z"/>
        <path id="path9" fill="#1c7258" stroke="none" d="M 15.17512 28.690329 C 15.204719 27.850752 15.253265 27.054976 15.276398 26.258537 C 15.358416 23.43465 15.429569 20.610481 15.509068 17.786533 C 15.575904 15.411621 15.648004 13.036852 15.719005 10.662041 C 15.754242 9.482931 15.79226 8.303886 15.858195 7.047764 C 15.893185 6.728685 15.898991 6.486668 15.904768 6.244642 C 15.904768 6.244642 15.906426 6.240696 15.906426 6.238512 C 15.941539 6.409119 16.00432 6.581495 16.007996 6.754984 C 16.052559 8.860317 16.084303 10.965895 16.128035 13.071249 C 16.155561 14.396328 16.195688 15.721178 16.233608 17.046043 C 16.302328 19.446943 16.364847 21.84804 16.4471 24.248518 C 16.496944 25.703335 16.579002 27.157162 16.647072 28.655605 C 16.659424 29.526527 16.668962 30.353319 16.684011 31.180016 C 16.694332 31.746181 16.460531 31.993134 15.902296 31.993296 C 15.348694 31.9935 15.126899 31.750759 15.138645 31.16489 C 15.154894 30.354576 15.167995 29.544203 15.175212 28.690346 Z"/>
    </g>
</svg>
