<?xml version="1.0" encoding="UTF-8"?> <svg xmlns="http://www.w3.org/2000/svg" xmlns:xlink="http://www.w3.org/1999/xlink" fill="none" height="208" viewBox="0 0 616 208" width="616"><clipPath id="a"><path d="m0 0h616v208h-616z"></path></clipPath><clipPath id="b"><path d="m0 0h114.682v82.5708h-114.682z" transform="matrix(-1 0 0 1 616.242 60.3042)"></path></clipPath><clipPath id="c"><path d="m0 0h114.682v82.5708h-114.682z" transform="matrix(1 0 0 -1 0 142.875)"></path></clipPath><g clip-path="url(#a)"><g fill="#222020"><path d="m161.64 112.486h16.316c.471 0 .628-.157.784-.627l10.355-48.6345 10.354 48.6345c.157.47.314.627.785.627h16.316c.47 0 .627-.157.784-.627l23.69-107.93689c0-.62754 0-1.25508-1.099-1.25508h-17.257c-.471 0-.784.15689-.941.94132l-9.413 49.57555-10.355-49.73245c-.157-.62754-.313-.78442-.941-.78442h-16.943c-.471 0-.628.15688-.785.78442l-9.57 49.73245-10.354-49.57555c-.157-.62754-.314-.94132-1.098-.94132h-24.004c-1.098 0-1.098.62754-1.098 1.25508l23.69 107.93689c.156.47.313.627.784.627z"></path><path d="m279.514 115.153c16.002 0 35.142-5.491 35.142-30.4353v-54.2821c0-24.94464-19.14-30.4356-35.142-30.4356s-35.142 5.49096-35.142 30.4356v54.2821c0 24.9443 19.14 30.4353 35.142 30.4353zm0-17.8846c-5.648 0-9.413-2.5101-9.413-12.5507v-54.2821c0-10.0406 3.765-12.5508 9.413-12.5508s9.413 2.5102 9.413 12.5508v54.2821c0 10.0406-3.765 12.5507-9.413 12.5507z"></path><path d="m327.783 112.486h23.847c.627 0 .941-.314.941-.941v-47.693h3.138l14.747 48.007c.157.47.47.627.784.627h24.474c.628 0 .942-.157.942-.627 0-.157 0-.471-.157-.942l-18.199-50.8302c7.687-4.3928 13.492-12.5508 13.492-26.8273 0-23.68954-15.218-30.59247-29.337-30.59247h-34.672c-.627 0-.941.31378-.941.94132v107.93665c0 .627.314.941.941.941zm24.788-66.5188v-25.4153h4.079c5.648 0 9.413 2.8239 9.413 12.7076s-3.765 12.7077-9.413 12.7077z"></path><path d="m402.861 112.486h18.983c.471 0 .784-.157.941-.627l14.434-34.6718 13.492 34.6718c.157.47.47.627 1.098.627h25.729c.471 0 .941-.157.941-.784 0-.157-.156-.471-.156-.471l-23.376-54.9094 23.846-52.39949s.157-.31376.157-.62754c0-.31376-.314-.62754-.941-.62754h-18.67c-.47 0-.784.15689-.941.62754l-13.492 32.00443-12.551-32.00443c-.157-.47065-.47-.62754-.941-.62754h-25.572c-.785 0-1.098.15688-1.098.78442 0 .15689.157.47066.157.47066l22.277 52.24259-25.101 55.0663c-.157.314-.157.471-.157.628 0 .47.314.627.941.627z"></path><path d="m144.552 205.997h14.675c.386 0 .579-.193.579-.579v-29.349h6.082c8.689 0 18.054-4.248 18.054-18.826s-9.365-18.826-18.054-18.826h-21.336c-.386 0-.579.193-.579.579v66.422c0 .386.193.579.579.579zm15.254-40.934v-15.64h2.51c3.476 0 5.793 1.738 5.793 7.82s-2.317 7.82-5.793 7.82z"></path><path d="m191.032 205.997h14.675c.386 0 .579-.193.579-.579v-29.349h1.931l9.075 29.542c.097.29.29.386.483.386h15.061c.386 0 .579-.096.579-.386 0-.097 0-.29-.097-.579l-11.199-31.28c4.731-2.704 8.303-7.724 8.303-16.509 0-14.578-9.365-18.826-18.054-18.826h-21.336c-.386 0-.579.193-.579.579v66.422c0 .386.193.579.579.579zm15.254-40.934v-15.64h2.51c3.476 0 5.793 1.738 5.793 7.82s-2.317 7.82-5.793 7.82z"></path><path d="m239.21 205.997h14.674c.386 0 .58-.193.58-.579v-66.422c0-.386-.194-.579-.58-.579h-14.674c-.386 0-.58.193-.58.579v66.422c0 .386.194.579.58.579z"></path><path d="m264.1 205.997h10.62c.386 0 .579-.193.579-.579v-30.025l14.481 30.121c.097.194.29.483.773.483h11.199c.386 0 .579-.193.579-.579v-66.422c0-.386-.193-.579-.579-.579h-10.62c-.386 0-.579.193-.579.579v30.025l-14.578-30.121c-.193-.387-.483-.483-.773-.483h-11.102c-.386 0-.579.193-.579.579v66.422c0 .386.193.579.579.579z"></path><path d="m323.773 205.997h14.674c.386 0 .579-.193.579-.579v-55.995h14.385c.387 0 .58-.193.58-.579v-9.848c0-.386-.193-.579-.58-.579h-44.603c-.386 0-.579.193-.579.579v9.848c0 .386.193.579.579.579h14.385v55.995c0 .386.193.579.58.579z"></path><path d="m360.549 205.997h14.674c.387 0 .58-.193.58-.579v-66.422c0-.386-.193-.579-.58-.579h-14.674c-.386 0-.579.193-.579.579v66.422c0 .386.193.579.579.579z"></path><path d="m385.439 205.997h10.62c.386 0 .579-.193.579-.579v-30.025l14.481 30.121c.097.194.29.483.773.483h11.199c.386 0 .579-.193.579-.579v-66.422c0-.386-.193-.579-.579-.579h-10.62c-.386 0-.579.193-.579.579v30.025l-14.578-30.121c-.193-.387-.483-.483-.773-.483h-11.102c-.386 0-.579.193-.579.579v66.422c0 .386.193.579.579.579z"></path><path d="m453.033 207.638c7.53 0 16.412-2.317 21.046-7.916.097-.193.193-.29.193-.773v-31.859c0-.386-.193-.579-.579-.579h-21.143c-.386 0-.579.193-.579.579v9.944c0 .29.193.483.579.483h5.889v17.571c-1.545 1.062-3.186 1.544-5.406 1.544-3.476 0-5.793-1.737-5.793-7.916v-33.018c0-6.179 2.317-7.916 5.889-7.916 3.862 0 6.372 2.317 6.372 8.013 0 .386.193.482.579.482l14.096-3.282c.386-.097.482-.386.482-.676-1.544-12.647-12.164-15.543-21.529-15.543-11.006 0-21.722 3.861-21.722 18.922v33.018c0 15.061 10.716 18.922 21.626 18.922z"></path></g><g clip-path="url(#b)"><path d="m600.271 89.5669c-2.065-8.6555-5.92-16.0745-14.043-20.6083-6.47-3.7095-13.354-6.3199-20.651-7.6938-12.39-2.1982-24.368-.2748-36.345 2.8852-5.232 1.3739-10.188 3.0225-15.282 4.946-3.855 1.5112-7.434 3.4347-10.739 5.7703-.688.4122-1.376.9617-1.514 1.9235-.138 1.2365-.138 2.473.826 3.2973 1.101.9617 2.478.9617 3.855.5495 3.304-1.0991 6.195-3.1599 9.362-4.6712 7.434-3.7095 14.731-7.6938 22.853-10.0294 4.406-1.2365 8.812-3.0225 13.355-3.1599 8.535-.2748 16.796.9617 24.781 4.1216 8.26 3.2974 15.282 7.8312 18.861 16.4867 1.928 4.5339 3.029 8.9303 1.377 13.8763-2.203 6.5943-11.289 14.0133-18.311 16.2123-10.05 3.16-20.788 2.335-26.158-6.732-2.891-4.946-3.441-10.0298-.826-15.1132 2.478-4.946 8.123-6.7321 13.079-3.9843 2.203 1.2365 2.341 1.9234.826 3.9843-1.652 2.473-1.514 5.2208.413 7.419.689.6869 1.377.9612 2.203.9612 1.928 0 5.92-3.1595 5.507-6.0446-.275-1.9235-.826-3.7095-2.203-5.3582-2.753-3.1599-6.057-4.6712-10.188-5.0834-7.159-.6869-12.252 4.8086-13.354 10.7164-1.239 7.0068 1.102 13.0518 5.507 18.4098 2.891 3.298 11.978 9.755 27.122 6.183 1.101-.275 1.652 0 1.789 1.236.276 2.748 1.24 5.221 2.066 7.831 2.753 9.48 14.593 17.311 24.505 14.152 2.203-.687 3.993-1.924 5.232-4.122 3.442-6.045 1.514-12.503-2.478-16.899-3.442-3.847-8.398-5.496-12.528-1.511-1.102 1.099-1.79 2.473-2.479 3.847-.55 1.099.551 3.434 1.653 4.259 1.514 1.099 2.34.961 4.13-.412.826-.687 1.652-1.512 2.616-2.061 2.34-1.649 6.195-.962 7.296 1.648 2.478 5.771.826 13.052-7.572 13.602-5.507.412-9.637-2.336-13.354-5.77-4.268-3.985-5.232-9.618-6.608-14.976-.413-1.374.137-2.473 1.376-3.16 2.616-1.374 4.544-3.572 6.471-5.908 5.507-5.083 8.673-15.9367 7.572-21.0201z" fill="#222020"></path></g><g clip-path="url(#c)"><path d="m15.9705 113.613c2.0651 8.655 5.9199 16.074 14.0426 20.608 6.4707 3.709 13.3543 6.32 20.651 7.694 12.3906 2.198 24.3681.274 36.3457-2.886 5.2316-1.373 10.1878-3.022 15.2822-4.946 3.854-1.511 7.434-3.434 10.738-5.77.688-.412 1.377-.962 1.514-1.923.138-1.237.138-2.473-.826-3.298-1.101-.961-2.478-.961-3.854-.549-3.305 1.099-6.196 3.16-9.362 4.671-7.4346 3.71-14.7313 7.694-22.854 10.029-4.4055 1.237-8.811 3.023-13.3543 3.16-8.5357.275-16.7961-.961-24.7811-4.121-8.2604-3.298-15.2817-7.831-18.8612-16.487-1.9274-4.534-3.0288-8.93-1.3768-13.876 2.2028-6.5949 11.2892-14.014 18.3106-16.2122 10.0501-3.1599 20.7886-2.3356 26.1578 6.7321 2.8912 4.9461 3.4419 10.0291.8261 15.1131-2.4781 4.946-8.1227 6.732-13.079 3.984-2.2027-1.237-2.3404-1.923-.826-3.984 1.6521-2.473 1.5144-5.221-.413-7.419-.6884-.687-1.3767-.962-2.2028-.962-1.9274 0-5.9199 3.16-5.5069 6.045.2753 1.924.826 3.71 2.2028 5.358 2.7534 3.16 6.0576 4.671 10.1878 5.084 7.159.687 12.2529-4.809 13.3543-10.717 1.239-7.007-1.1014-13.0517-5.507-18.4098-2.8911-3.2974-11.9775-9.7547-27.1216-6.1825-1.1013.2747-1.652-.0001-1.7897-1.2366-.2754-2.7477-1.2391-5.2207-2.0651-7.8311-2.7535-9.4799-14.5934-17.311-24.50581-14.1511-2.20277.6869-3.99252 1.9234-5.23158 4.1217-3.44183 6.0451-1.514405 12.5024 2.47811 16.8988 3.44183 3.8469 8.39808 5.4956 12.52828 1.5113 1.1014-1.0991 1.7897-2.473 2.4781-3.8469.5507-1.0991-.5507-3.4347-1.6521-4.2591-1.5144-1.0991-2.3404-.9617-4.1302.4122-.826.687-1.6521 1.5113-2.6158 2.0608-2.34041 1.6487-6.19526.9618-7.29664-1.6486-2.47812-5.7704-.82604-13.052 7.57204-13.6015 5.5069-.4122 9.6371 2.3356 13.3543 5.7703 4.2678 3.9843 5.2315 9.6172 6.6083 14.9754.413 1.3739-.1377 2.473-1.3768 3.16-2.6157 1.3738-4.5432 3.5721-6.4706 5.9077-5.5069 5.0834-8.6734 15.937-7.572 21.021z" fill="#222020"></path></g></g></svg> 