<?xml version="1.0" encoding="UTF-8" standalone="no"?>
<svg
   version="1.1"
   id="Layer_1"
   x="0px"
   y="0px"
   width="500.17899"
   height="129.007"
   viewBox="0 0 500.179 129.007"
   enable-background="new 0 0 500.179 129.007"
   class="logo-svg"
   xml:space="preserve"
   xmlns="http://www.w3.org/2000/svg"
   xmlns:svg="http://www.w3.org/2000/svg"><defs
   id="defs16" />
    <path
   fill="#a8a9ad"
   d="m 249.814,44.646 c -4.284,15.19 -17.625,25.414 -32.719,25.414 -18.307,0 -33.498,-15.385 -33.498,-33.981 0,-18.308 14.898,-33.498 32.815,-33.498 7.306,0 13.343,2.437 18.209,7.205 V 3.943 h 13.245 v 23.855 h -15.384 c -3.411,-5.842 -8.96,-9.148 -15.583,-9.148 -9.737,0 -17.042,7.398 -17.042,17.232 0,10.125 7.694,18.209 17.333,18.209 6.427,0 11.979,-3.406 15.189,-9.445 z"
   id="path1" />
    <path
   fill="#a8a9ad"
   d="m 286.345,70.06 c -18.793,0 -33.985,-14.994 -33.985,-33.689 0,-18.6 15.288,-33.79 34.082,-33.79 18.694,0 33.888,15.095 33.888,33.595 0,18.794 -15.289,33.884 -33.985,33.884 z m 0,-51.41 c -9.836,0 -17.725,7.887 -17.725,17.721 0,9.736 7.986,17.723 17.725,17.723 9.834,0 17.723,-7.986 17.723,-17.918 0,-9.639 -7.889,-17.526 -17.723,-17.526 z"
   id="path2" />
    <path
   fill="#a8a9ad"
   d="M 372.859,47.373 V 68.796 H 322.613 V 55.554 h 6.232 V 17.183 h -6.232 V 3.943 h 28.531 v 13.24 h -6.232 v 37.203 h 11.881 v -7.014 z"
   id="path3" />
    <path
   fill="#a8a9ad"
   d="M 414.515,68.796 V 57.208 h 6.234 L 418.7,51.27 h -18.109 l -1.752,5.938 h 6.135 V 68.796 H 376.345 V 55.554 h 6.232 l 15.871,-38.371 h -6.137 V 3.943 h 24.732 l 20.838,51.611 h 6.232 V 68.796 Z M 409.65,22.64 404.488,39.097 h 10.42 z"
   id="path4" />
    <path
   fill="#a8a9ad"
   d="m 447.597,55.554 h 6.229 V 17.183 h -6.229 V 3.943 h 31.256 c 11.879,0 18.893,6.037 18.893,16.361 0,6.521 -2.729,11.1 -8.182,13.729 6.916,2.922 10.615,8.57 10.615,16.068 0,11.392 -7.984,18.695 -20.252,18.695 h -32.33 z m 27.361,-26.779 c 5.938,0 8.082,-1.461 8.082,-5.551 -0.1,-4.09 -2.146,-5.646 -8.082,-5.646 h -5.064 v 11.197 z m 0,26 c 6.426,0 8.959,-1.852 8.959,-6.525 0,-4.479 -2.727,-6.621 -8.279,-6.621 h -5.744 v 13.146 z"
   id="path5" />
      
    <g
   id="g16">
      <path
   fill="#a8a9ad"
   d="m 216.72,100.414 h -3.041 c -2.17,-3.309 -5.479,-5.266 -9.17,-5.266 -5.75,0 -10.472,4.832 -10.472,10.746 0,5.965 4.722,10.688 10.582,10.688 4.066,0 7.376,-2.061 9.224,-5.807 h 3.744 c -2.117,5.537 -7.164,9.008 -12.968,9.008 -7.708,0 -14.001,-6.186 -14.001,-13.891 0,-7.65 6.24,-13.998 13.727,-13.998 3.638,0 6.568,1.354 9.389,4.283 v -3.578 h 2.986 z"
   id="path6" />
      <path
   fill="#a8a9ad"
   d="m 234.056,119.785 c -7.705,0 -13.944,-6.186 -13.944,-13.891 0,-7.707 6.239,-13.998 13.944,-13.998 7.707,0 13.943,6.238 13.943,13.891 0.001,7.757 -6.238,13.998 -13.943,13.998 z m 0,-24.637 c -5.805,0 -10.527,4.832 -10.527,10.746 0,5.914 4.723,10.688 10.527,10.688 5.807,0 10.527,-4.771 10.527,-10.744 0,-5.858 -4.721,-10.69 -10.527,-10.69 z"
   id="path7" />
      <path
   fill="#a8a9ad"
   d="m 264.47,119.785 c -7.707,0 -13.944,-6.186 -13.944,-13.891 0,-7.707 6.237,-13.998 13.944,-13.998 7.705,0 13.943,6.238 13.943,13.891 0.003,7.757 -6.238,13.998 -13.943,13.998 z m 0,-24.637 c -5.807,0 -10.526,4.832 -10.526,10.746 0,5.914 4.722,10.688 10.526,10.688 5.808,0 10.523,-4.771 10.523,-10.744 0.003,-5.858 -4.714,-10.69 -10.523,-10.69 z"
   id="path8" />
      <path
   fill="#a8a9ad"
   d="m 286.423,98.458 c 0.92,-1.572 1.354,-2.172 2.275,-3.09 2.279,-2.283 5.266,-3.477 8.573,-3.477 7.599,0 13.778,6.291 13.778,13.998 -0.053,7.705 -6.131,13.893 -13.562,13.893 -3.362,0 -6.674,-1.193 -8.896,-3.418 -0.869,-0.812 -1.303,-1.412 -2.17,-2.982 v 12.422 h 4.447 v 3.203 h -12.209 v -3.203 h 4.445 V 95.748 h -4.445 v -3.146 h 7.762 v 5.856 z m 10.578,-3.31 c -5.916,0 -10.688,4.832 -10.688,10.746 0,5.914 4.772,10.688 10.688,10.688 5.857,0 10.637,-4.771 10.637,-10.688 0,-5.917 -4.721,-10.746 -10.637,-10.746 z"
   id="path9" />
      <path
   fill="#a8a9ad"
   d="m 340.113,111.591 c -2.496,5.209 -7.105,8.191 -12.645,8.191 -7.705,0 -13.943,-6.131 -13.943,-13.893 0,-7.707 6.238,-13.998 13.836,-13.998 7.65,0 13.891,6.238 13.891,13.893 0,0.27 -0.055,0.648 -0.055,1.189 H 316.89 c 0.65,5.859 4.885,9.82 10.523,9.82 3.908,0 6.943,-1.732 9.17,-5.207 h 3.529 v 0.005 z m -12.75,-16.605 c -5.264,0 -9.605,3.855 -10.471,9.279 h 21.215 c -0.871,-5.424 -5.318,-9.279 -10.744,-9.279 z"
   id="path10" />
      <path
   fill="#a8a9ad"
   d="m 351.531,97.97 c 1.631,-3.637 4.068,-5.264 8.736,-5.588 v 3.363 c -5.531,0.434 -8.52,3.635 -8.52,9.008 v 11.232 h 4.449 v 3.146 H 343.99 v -3.146 h 4.447 V 95.748 h -4.447 v -3.146 h 7.541 z"
   id="path11" />
      <path
   fill="#a8a9ad"
   d="m 389.572,115.988 h 4.445 v 3.145 h -7.754 v -5.586 c -1.143,1.682 -1.629,2.332 -2.498,3.146 -2.17,2.008 -5.207,3.096 -8.41,3.096 -7.541,0 -13.781,-6.188 -13.781,-13.838 0,-7.705 6.293,-14.053 13.891,-14.053 3.256,0 6.188,1.188 8.355,3.252 0.92,0.871 1.354,1.467 2.389,3.096 v -5.643 h 7.812 v 3.146 h -4.447 z m -13.947,-20.84 c -5.857,0 -10.635,4.832 -10.635,10.746 0,5.914 4.777,10.688 10.635,10.688 5.861,0 10.689,-4.828 10.689,-10.795 0.002,-5.864 -4.773,-10.639 -10.689,-10.639 z"
   id="path12" />
      <path
   fill="#a8a9ad"
   d="m 407.833,115.988 h 6.287 v 3.145 h -9.604 V 95.748 h -5.152 v -3.146 h 5.104 v -9.604 h 3.365 v 9.604 h 5.854 v 3.146 h -5.854 z"
   id="path13" />
      <path
   fill="#a8a9ad"
   d="m 428.505,115.988 h 4.449 v 3.145 h -12.211 v -3.145 h 4.447 v -20.24 h -4.447 v -3.146 h 7.762 z m 0,-27.783 h -3.312 v -5.207 h 3.312 z"
   id="path14" />
      <path
   fill="#a8a9ad"
   d="m 451.671,119.132 h -3.688 l -9.496,-23.387 h -4.449 V 92.6 h 12.156 v 3.146 h -4.021 l 7.705,19.426 7.98,-19.426 h -4.289 V 92.6 h 12.102 v 3.146 h -4.234 z"
   id="path15" />
      <path
   fill="#a8a9ad"
   d="m 492.019,111.591 c -2.496,5.209 -7.107,8.191 -12.645,8.191 -7.703,0 -13.943,-6.131 -13.943,-13.893 0,-7.707 6.24,-13.998 13.838,-13.998 7.648,0 13.891,6.238 13.891,13.893 0,0.27 -0.055,0.648 -0.055,1.189 h -24.309 c 0.652,5.859 4.885,9.82 10.525,9.82 3.9,0 6.939,-1.732 9.17,-5.207 h 3.525 v 0.004 h 0.003 z m -12.75,-16.605 c -5.266,0 -9.604,3.855 -10.473,9.279 h 21.217 c -0.873,-5.424 -5.316,-9.279 -10.744,-9.279 z"
   id="path16" />
    </g>
    <polygon
   fill="#ed313d"
   points="126.846,108.16 126.846,90.146 144.861,90.146 144.861,72.132 162.873,72.132 162.873,18.088 144.861,18.088 144.861,0.074 108.829,0.074 108.829,18.088 90.815,18.088 90.815,36.102 72.803,36.102 72.803,18.088 54.791,18.088 54.791,0.074 18.76,0.074 18.76,18.088 0.747,18.088 0.747,72.132 18.76,72.132 18.76,90.146 36.773,90.146 36.773,108.16 54.791,108.16 54.791,126.173 108.829,126.173 108.829,108.16 "
   id="polygon16" />
    </svg>
