<?xml version="1.0" encoding="UTF-8"?>
<svg id="Layer_1" data-name="Layer 1" xmlns="http://www.w3.org/2000/svg" viewBox="22 98 390 208">
  <defs>
    <style>
      .cls-1 {
        fill: #e48e32;
        stroke-width: 0px;
      }
      .cls-pop {
        fill:#7f0361
      }
    </style>
  </defs>
  <path class="cls-pop" d="m74.61,240.56c-1.24-2.32-3.03-4.12-5.37-5.42-1.6-.89-3.42-1.46-5.46-1.74-.01,0-.02,0-.03,0-.42-.06-.86-.1-1.3-.13-.07,0-.15-.01-.22-.02-.47-.03-.94-.05-1.43-.05,0,0,0,0-.01,0s0,0-.01,0c-.49,0-.96.02-1.43.05-.08,0-.15.01-.23.02-.43.03-.86.08-1.27.13-.03,0-.05,0-.08.01-2.03.28-3.84.86-5.43,1.74-2.34,1.3-4.13,3.1-5.37,5.42-1.24,2.32-1.86,5.01-1.86,8.09s.62,5.77,1.86,8.09c1.24,2.32,3.03,4.12,5.37,5.42,1.6.88,3.42,1.46,5.45,1.74.01,0,.02,0,.03,0,.42.06.86.1,1.3.13.07,0,.15.01.22.02.47.03.94.05,1.43.05,0,0,0,0,.01,0s0,0,.01,0c.49,0,.96-.02,1.43-.05.08,0,.15-.01.23-.02.43-.03.86-.08,1.27-.13.03,0,.05,0,.08-.01,2.03-.28,3.84-.86,5.43-1.74,2.34-1.3,4.13-3.1,5.37-5.42,1.24-2.32,1.86-5.01,1.86-8.09s-.62-5.77-1.86-8.09Z"/>
  <g>
    <path class="cls-pop" d="m353.31,100.18c-.9-1.43-3.07-1.08-3.48.55l-7,27.64c-.34,1.34.8,2.58,2.16,2.37l22.23-3.53c1.36-.22,2.06-1.75,1.32-2.92l-15.23-24.11Z"/>
    <path class="cls-pop" d="m406.64,115.74l-25.54,11.24c-1.37.6-1.67,2.4-.58,3.42l16.11,15.02c1.09,1.02,2.87.59,3.37-.82l9.43-26.26c.62-1.72-1.12-3.34-2.79-2.6Z"/>
  </g>
  <path class="cls-1" d="m62.23,213.18c-8.09,0-15.02-1.59-20.77-4.79-5.76-3.19-10.16-7.63-13.2-13.33-3.04-5.7-4.57-12.33-4.57-19.9s1.52-14.2,4.57-19.9c3.05-5.7,7.45-10.14,13.2-13.33,5.75-3.19,12.68-4.79,20.77-4.79,5.16,0,9.82.66,14,1.98,4.18,1.32,7.81,3.2,10.9,5.64,3.09,2.44,5.54,5.39,7.37,8.85,1.82,3.45,2.96,7.32,3.4,11.59l-24.6,3.63c-.31-1.94-.77-3.64-1.37-5.12-.6-1.47-1.34-2.72-2.23-3.73s-1.92-1.77-3.1-2.28c-1.18-.5-2.5-.76-3.97-.76-2.36,0-4.4.66-6.13,1.98-1.73,1.32-3.08,3.32-4.03,6.01-.96,2.68-1.43,6.05-1.43,10.1s.48,7.37,1.43,10.1c.96,2.73,2.3,4.79,4.03,6.17,1.73,1.39,3.78,2.08,6.13,2.08,1.47,0,2.79-.26,3.97-.79,1.18-.53,2.22-1.31,3.14-2.34.91-1.03,1.67-2.32,2.27-3.86.6-1.54,1.04-3.3,1.3-5.28l24.6,3.57c-.45,4.4-1.58,8.35-3.4,11.85-1.82,3.5-4.27,6.49-7.33,8.98-3.07,2.49-6.7,4.39-10.9,5.71-4.2,1.32-8.88,1.98-14.03,1.98Z"/>
  <path class="cls-1" d="m141.91,213.18c-8.09,0-15.02-1.59-20.8-4.79-5.78-3.19-10.19-7.63-13.24-13.33-3.05-5.7-4.57-12.33-4.57-19.9s1.52-14.2,4.57-19.9c3.04-5.7,7.46-10.14,13.24-13.33,5.78-3.19,12.71-4.79,20.8-4.79s15,1.6,20.74,4.79c5.73,3.19,10.12,7.63,13.17,13.33,3.04,5.7,4.57,12.33,4.57,19.9s-1.52,14.2-4.57,19.9c-3.05,5.7-7.43,10.14-13.17,13.33-5.73,3.19-12.65,4.79-20.74,4.79Zm0-19.8c2.31,0,4.3-.72,5.97-2.18,1.67-1.45,2.94-3.55,3.83-6.31.89-2.75,1.33-6.04,1.33-9.87s-.44-7.15-1.33-9.83c-.89-2.69-2.17-4.73-3.83-6.14-1.67-1.41-3.66-2.11-5.97-2.11s-4.38.7-6.07,2.11c-1.69,1.41-2.98,3.45-3.87,6.14-.89,2.68-1.33,5.96-1.33,9.83s.44,7.12,1.33,9.87c.89,2.75,2.18,4.85,3.87,6.31,1.69,1.45,3.71,2.18,6.07,2.18Z"/>
  <path class="cls-1" d="m188.59,211.86v-73.8h24.47l1.73,19.93h-1.87c1.2-5.02,2.96-9.05,5.27-12.11,2.31-3.06,5.01-5.28,8.1-6.67,3.09-1.39,6.34-2.08,9.77-2.08,5.29,0,9.56,1.72,12.8,5.15,3.24,3.43,5.89,9.37,7.94,17.82h-2.94c1.29-5.63,3.27-10.13,5.93-13.5,2.67-3.37,5.74-5.79,9.24-7.26,3.49-1.47,7.08-2.21,10.77-2.21,4.76,0,8.93,1.04,12.53,3.1,3.6,2.07,6.41,4.96,8.44,8.68s3.03,8.11,3.03,13.17v49.77h-26.81v-43.04c0-3.21-.82-5.73-2.47-7.56-1.65-1.83-3.84-2.74-6.6-2.74-1.82,0-3.41.42-4.77,1.26-1.36.84-2.39,2.01-3.1,3.53-.71,1.52-1.07,3.36-1.07,5.51v43.04h-25.6v-43.04c0-3.21-.83-5.73-2.47-7.56-1.65-1.83-3.84-2.74-6.6-2.74-1.87,0-3.47.42-4.8,1.26-1.33.84-2.35,2.01-3.07,3.53-.71,1.52-1.07,3.36-1.07,5.51v43.04h-26.8Z"/>
  <path class="cls-1" d="m314.68,239.45v-95.99h26.54v7.54h.67c.97-2.51,2.4-4.82,4.26-6.93,1.87-2.11,4.19-3.8,6.97-5.05,2.78-1.26,6.01-1.88,9.71-1.88,4.93,0,9.61,1.3,14.03,3.89,4.42,2.6,8.04,6.68,10.83,12.25,2.8,5.57,4.21,12.82,4.21,21.75s-1.33,15.54-4,21.13c-2.67,5.59-6.23,9.76-10.67,12.51-4.45,2.75-9.33,4.13-14.67,4.13-3.47,0-6.57-.57-9.31-1.72-2.73-1.14-5.06-2.69-6.97-4.65-1.91-1.96-3.38-4.19-4.4-6.7h-.4v39.74h-26.81Zm38.01-47c2.49,0,4.59-.69,6.3-2.08,1.71-1.39,3.02-3.39,3.93-6.01.91-2.62,1.36-5.73,1.36-9.34s-.45-6.79-1.36-9.41c-.91-2.62-2.22-4.63-3.93-6.04-1.71-1.41-3.81-2.11-6.3-2.11s-4.56.7-6.34,2.11c-1.78,1.41-3.15,3.42-4.1,6.04-.96,2.62-1.43,5.75-1.43,9.41s.47,6.65,1.43,9.24c.95,2.6,2.32,4.61,4.1,6.04,1.77,1.43,3.89,2.14,6.34,2.14Z"/>
  <path class="cls-1" d="m112.46,273.64c-5.32,0-9.87-1.05-13.65-3.15-3.78-2.1-6.68-5.02-8.68-8.77-2-3.75-3-8.11-3-13.08s1-9.34,3-13.08c2-3.75,4.9-6.67,8.68-8.77,3.78-2.1,8.33-3.15,13.65-3.15,3.39,0,6.46.43,9.21,1.3,2.75.87,5.14,2.1,7.17,3.71,2.03,1.6,3.65,3.54,4.84,5.82,1.2,2.27,1.94,4.81,2.24,7.62l-16.18,2.39c-.2-1.27-.51-2.39-.9-3.36-.39-.97-.88-1.79-1.47-2.45s-1.26-1.16-2.04-1.5c-.77-.33-1.64-.5-2.61-.5-1.55,0-2.89.43-4.03,1.3-1.14.87-2.02,2.18-2.65,3.95-.63,1.76-.94,3.98-.94,6.64s.31,4.85.94,6.64c.63,1.79,1.51,3.15,2.65,4.06,1.14.91,2.48,1.37,4.03,1.37.96,0,1.83-.17,2.61-.52.77-.35,1.46-.86,2.06-1.54.6-.68,1.09-1.53,1.49-2.54.39-1.01.68-2.17.86-3.47l16.18,2.34c-.29,2.89-1.04,5.49-2.24,7.79s-2.81,4.27-4.82,5.9c-2.02,1.63-4.41,2.89-7.17,3.75-2.76.87-5.84,1.3-9.23,1.3Z"/>
  <path class="cls-1" d="m164.84,273.64c-5.32,0-9.88-1.05-13.68-3.15-3.8-2.1-6.7-5.02-8.7-8.77-2-3.75-3-8.11-3-13.08s1-9.34,3-13.08c2-3.75,4.9-6.67,8.7-8.77,3.8-2.1,8.36-3.15,13.68-3.15s9.86,1.05,13.63,3.15c3.77,2.1,6.66,5.02,8.66,8.77,2,3.75,3,8.11,3,13.08s-1,9.34-3,13.08c-2,3.75-4.89,6.67-8.66,8.77-3.77,2.1-8.31,3.15-13.63,3.15Zm0-13.02c1.52,0,2.83-.48,3.92-1.43,1.09-.96,1.93-2.34,2.52-4.15.58-1.81.88-3.97.88-6.49s-.29-4.7-.88-6.46c-.58-1.77-1.42-3.11-2.52-4.04-1.1-.93-2.4-1.39-3.92-1.39s-2.88.46-3.99,1.39c-1.11.93-1.96,2.27-2.54,4.04-.58,1.76-.88,3.92-.88,6.46s.29,4.68.88,6.49c.58,1.81,1.43,3.19,2.54,4.15,1.11.96,2.44,1.43,3.99,1.43Z"/>
  <path class="cls-1" d="m220.42,273.64c-5.32,0-9.88-1.05-13.68-3.15-3.8-2.1-6.7-5.02-8.7-8.77-2-3.75-3-8.11-3-13.08s1-9.34,3-13.08c2-3.75,4.9-6.67,8.7-8.77,3.8-2.1,8.36-3.15,13.68-3.15s9.86,1.05,13.63,3.15c3.77,2.1,6.66,5.02,8.66,8.77,2,3.75,3,8.11,3,13.08s-1,9.34-3,13.08c-2,3.75-4.89,6.67-8.66,8.77-3.77,2.1-8.31,3.15-13.63,3.15Zm0-13.02c1.52,0,2.83-.48,3.92-1.43,1.09-.96,1.93-2.34,2.52-4.15.58-1.81.88-3.97.88-6.49s-.29-4.7-.88-6.46c-.58-1.77-1.42-3.11-2.52-4.04-1.1-.93-2.4-1.39-3.92-1.39s-2.88.46-3.99,1.39c-1.11.93-1.96,2.27-2.54,4.04-.58,1.76-.88,3.92-.88,6.46s.29,4.68.88,6.49c.58,1.81,1.43,3.19,2.54,4.15,1.11.96,2.44,1.43,3.99,1.43Z"/>
  <path class="cls-1" d="m251.11,304.63v-77.19h17.45v5.33h.44c.64-1.65,1.58-3.17,2.81-4.56,1.23-1.39,2.75-2.5,4.58-3.32,1.83-.83,3.95-1.24,6.38-1.24,3.25,0,6.32.85,9.23,2.56,2.91,1.71,5.28,4.39,7.12,8.05,1.84,3.66,2.76,8.43,2.76,14.3s-.88,10.21-2.63,13.89c-1.75,3.67-4.09,6.41-7.01,8.22-2.92,1.81-6.14,2.71-9.65,2.71-2.28,0-4.32-.38-6.12-1.13-1.8-.75-3.32-1.77-4.58-3.06-1.26-1.29-2.22-2.76-2.89-4.41h-.26v39.84h-17.62Zm24.99-44.61c1.64,0,3.02-.45,4.14-1.37,1.13-.91,1.99-2.23,2.59-3.95.6-1.72.9-3.77.9-6.14s-.3-4.46-.9-6.18c-.6-1.72-1.46-3.04-2.59-3.97-1.13-.93-2.51-1.39-4.14-1.39s-3,.46-4.16,1.39c-1.17.93-2.07,2.25-2.69,3.97-.63,1.72-.94,3.78-.94,6.18s.32,4.37.94,6.08c.63,1.71,1.53,3.03,2.69,3.97,1.17.94,2.56,1.41,4.16,1.41Z"/>
</svg>
