<?xml version="1.0" encoding="UTF-8" standalone="no"?>
<svg
   version="1.1"
   id="Layer_1"
   x="0px"
   y="0px"
   width="200.00145"
   height="49.810001"
   viewBox="0 0 200.001 49.809888"
   enable-background="new 0 0 500.179 129.007"
   class="logo-svg"
   xml:space="preserve"
   xmlns="http://www.w3.org/2000/svg"
   xmlns:svg="http://www.w3.org/2000/svg"><defs
   id="defs16" />
    <path
   fill="#a8a9ad"
   d="m 96.219818,17.219101 c -1.655,5.868216 -6.808908,9.817962 -12.640038,9.817962 -7.072379,0 -12.940981,-5.943549 -12.940981,-13.127575 0,-7.0727649 5.75541,-12.9409812 12.677124,-12.9409812 2.822461,0 5.154681,0.9414643 7.034519,2.7834429 V 1.494676 h 5.116822 v 9.215688 H 89.524102 C 88.206361,8.4534766 86.062665,7.1762993 83.504061,7.1762993 c -3.761608,0 -6.583683,2.8580027 -6.583683,6.6570837 0,3.9115 2.972354,7.03452 6.696103,7.03452 2.482885,0 4.627739,-1.31581 5.86783,-3.648802 z"
   id="path1"
   style="stroke-width:0.386321" />
    <path
   fill="#a8a9ad"
   d="m 110.33251,27.037063 c -7.26013,0 -13.129119,-5.792497 -13.129119,-13.014769 0,-7.1855709 5.906079,-13.0537872 13.166589,-13.0537872 7.22189,0 13.09165,5.8315158 13.09165,12.9784542 0,7.260518 -5.90646,13.090102 -13.12912,13.090102 z m 0,-19.8607637 c -3.79985,0 -6.84754,3.0469137 -6.84754,6.8459947 0,3.761222 3.08516,6.846768 6.84754,6.846768 3.79908,0 6.84677,-3.08516 6.84677,-6.922101 0,-3.723748 -3.04769,-6.7706617 -6.84677,-6.7706617 z"
   id="path2"
   style="stroke-width:0.386321" />
    <path
   fill="#a8a9ad"
   d="m 143.75469,18.272598 v 8.276155 H 124.3436 V 21.43309 h 2.40755 V 6.6095663 H 124.3436 V 1.494676 h 11.02213 v 5.1148903 h -2.40756 V 20.981867 h 4.58988 v -2.709655 z"
   id="path3"
   style="stroke-width:0.386321" />
    <path
   fill="#a8a9ad"
   d="m 159.84728,26.548753 v -4.476688 h 2.40832 l -0.79157,-2.293974 h -6.99589 l -0.67683,2.293974 h 2.37008 v 4.476688 H 145.1014 V 21.43309 h 2.40756 l 6.1313,-14.8235237 H 151.2694 V 1.494676 h 9.5545 l 8.05015,19.938414 h 2.40756 v 5.115663 z m -1.87946,-17.8310329 -1.99418,6.3576849 h 4.02546 z"
   id="path4"
   style="stroke-width:0.386321" />
    <path
   fill="#a8a9ad"
   d="m 172.62755,21.43309 h 2.40639 V 6.6095663 h -2.40639 V 1.494676 h 12.07485 c 4.58911,0 7.29876,2.33222 7.29876,6.3205982 0,2.5191998 -1.05427,4.2881638 -3.16088,5.3038018 2.6718,1.12883 4.1008,3.310771 4.1008,6.207406 0,4.400969 -3.08439,7.222271 -7.82377,7.222271 H 172.62755 Z M 183.19768,11.0878 c 2.29397,0 3.12224,-0.564415 3.12224,-2.1444684 -0.0386,-1.580053 -0.82904,-2.1811685 -3.12224,-2.1811685 h -1.95633 V 11.0878 Z m 0,10.044346 c 2.4825,0 3.46105,-0.715466 3.46105,-2.520745 0,-1.730331 -1.0535,-2.557831 -3.19835,-2.557831 h -2.21903 v 5.078576 z"
   id="path5"
   style="stroke-width:0.386321" />
      <text
   y="9.6294384"
   x="192.87192"
   font-size="9.65803px"
   fill="#a8a9ad"
   id="text5"
   style="stroke-width:0.386321">℠</text>
    <g
   id="g16"
   transform="matrix(0.38632102,0,0,0.38632102,-0.2885818,-0.02858776)">
      <path
   fill="#a8a9ad"
   d="m 216.72,100.414 h -3.041 c -2.17,-3.309 -5.479,-5.266 -9.17,-5.266 -5.75,0 -10.472,4.832 -10.472,10.746 0,5.965 4.722,10.688 10.582,10.688 4.066,0 7.376,-2.061 9.224,-5.807 h 3.744 c -2.117,5.537 -7.164,9.008 -12.968,9.008 -7.708,0 -14.001,-6.186 -14.001,-13.891 0,-7.65 6.24,-13.998 13.727,-13.998 3.638,0 6.568,1.354 9.389,4.283 v -3.578 h 2.986 z"
   id="path6" />
      <path
   fill="#a8a9ad"
   d="m 234.056,119.785 c -7.705,0 -13.944,-6.186 -13.944,-13.891 0,-7.707 6.239,-13.998 13.944,-13.998 7.707,0 13.943,6.238 13.943,13.891 0.001,7.757 -6.238,13.998 -13.943,13.998 z m 0,-24.637 c -5.805,0 -10.527,4.832 -10.527,10.746 0,5.914 4.723,10.688 10.527,10.688 5.807,0 10.527,-4.771 10.527,-10.744 0,-5.858 -4.721,-10.69 -10.527,-10.69 z"
   id="path7" />
      <path
   fill="#a8a9ad"
   d="m 264.47,119.785 c -7.707,0 -13.944,-6.186 -13.944,-13.891 0,-7.707 6.237,-13.998 13.944,-13.998 7.705,0 13.943,6.238 13.943,13.891 0.003,7.757 -6.238,13.998 -13.943,13.998 z m 0,-24.637 c -5.807,0 -10.526,4.832 -10.526,10.746 0,5.914 4.722,10.688 10.526,10.688 5.808,0 10.523,-4.771 10.523,-10.744 0.003,-5.858 -4.714,-10.69 -10.523,-10.69 z"
   id="path8" />
      <path
   fill="#a8a9ad"
   d="m 286.423,98.458 c 0.92,-1.572 1.354,-2.172 2.275,-3.09 2.279,-2.283 5.266,-3.477 8.573,-3.477 7.599,0 13.778,6.291 13.778,13.998 -0.053,7.705 -6.131,13.893 -13.562,13.893 -3.362,0 -6.674,-1.193 -8.896,-3.418 -0.869,-0.812 -1.303,-1.412 -2.17,-2.982 v 12.422 h 4.447 v 3.203 h -12.209 v -3.203 h 4.445 V 95.748 h -4.445 v -3.146 h 7.762 v 5.856 z m 10.578,-3.31 c -5.916,0 -10.688,4.832 -10.688,10.746 0,5.914 4.772,10.688 10.688,10.688 5.857,0 10.637,-4.771 10.637,-10.688 0,-5.917 -4.721,-10.746 -10.637,-10.746 z"
   id="path9" />
      <path
   fill="#a8a9ad"
   d="m 340.113,111.591 c -2.496,5.209 -7.105,8.191 -12.645,8.191 -7.705,0 -13.943,-6.131 -13.943,-13.893 0,-7.707 6.238,-13.998 13.836,-13.998 7.65,0 13.891,6.238 13.891,13.893 0,0.27 -0.055,0.648 -0.055,1.189 H 316.89 c 0.65,5.859 4.885,9.82 10.523,9.82 3.908,0 6.943,-1.732 9.17,-5.207 h 3.529 v 0.005 z m -12.75,-16.605 c -5.264,0 -9.605,3.855 -10.471,9.279 h 21.215 c -0.871,-5.424 -5.318,-9.279 -10.744,-9.279 z"
   id="path10" />
      <path
   fill="#a8a9ad"
   d="m 351.531,97.97 c 1.631,-3.637 4.068,-5.264 8.736,-5.588 v 3.363 c -5.531,0.434 -8.52,3.635 -8.52,9.008 v 11.232 h 4.449 v 3.146 H 343.99 v -3.146 h 4.447 V 95.748 h -4.447 v -3.146 h 7.541 z"
   id="path11" />
      <path
   fill="#a8a9ad"
   d="m 389.572,115.988 h 4.445 v 3.145 h -7.754 v -5.586 c -1.143,1.682 -1.629,2.332 -2.498,3.146 -2.17,2.008 -5.207,3.096 -8.41,3.096 -7.541,0 -13.781,-6.188 -13.781,-13.838 0,-7.705 6.293,-14.053 13.891,-14.053 3.256,0 6.188,1.188 8.355,3.252 0.92,0.871 1.354,1.467 2.389,3.096 v -5.643 h 7.812 v 3.146 h -4.447 z m -13.947,-20.84 c -5.857,0 -10.635,4.832 -10.635,10.746 0,5.914 4.777,10.688 10.635,10.688 5.861,0 10.689,-4.828 10.689,-10.795 0.002,-5.864 -4.773,-10.639 -10.689,-10.639 z"
   id="path12" />
      <path
   fill="#a8a9ad"
   d="m 407.833,115.988 h 6.287 v 3.145 h -9.604 V 95.748 h -5.152 v -3.146 h 5.104 v -9.604 h 3.365 v 9.604 h 5.854 v 3.146 h -5.854 z"
   id="path13" />
      <path
   fill="#a8a9ad"
   d="m 428.505,115.988 h 4.449 v 3.145 h -12.211 v -3.145 h 4.447 v -20.24 h -4.447 v -3.146 h 7.762 z m 0,-27.783 h -3.312 v -5.207 h 3.312 z"
   id="path14" />
      <path
   fill="#a8a9ad"
   d="m 451.671,119.132 h -3.688 l -9.496,-23.387 h -4.449 V 92.6 h 12.156 v 3.146 h -4.021 l 7.705,19.426 7.98,-19.426 h -4.289 V 92.6 h 12.102 v 3.146 h -4.234 z"
   id="path15" />
      <path
   fill="#a8a9ad"
   d="m 492.019,111.591 c -2.496,5.209 -7.107,8.191 -12.645,8.191 -7.703,0 -13.943,-6.131 -13.943,-13.893 0,-7.707 6.24,-13.998 13.838,-13.998 7.648,0 13.891,6.238 13.891,13.893 0,0.27 -0.055,0.648 -0.055,1.189 h -24.309 c 0.652,5.859 4.885,9.82 10.525,9.82 3.9,0 6.939,-1.732 9.17,-5.207 h 3.525 v 0.004 h 0.003 z m -12.75,-16.605 c -5.266,0 -9.604,3.855 -10.473,9.279 h 21.217 c -0.873,-5.424 -5.316,-9.279 -10.744,-9.279 z"
   id="path16" />
    </g>
    <polygon
   fill="#ed313d"
   points="54.791,126.173 108.829,126.173 108.829,108.16 126.846,108.16 126.846,90.146 144.861,90.146 144.861,72.132 162.873,72.132 162.873,18.088 144.861,18.088 144.861,0.074 108.829,0.074 108.829,18.088 90.815,18.088 90.815,36.102 72.803,36.102 72.803,18.088 54.791,18.088 54.791,0.074 18.76,0.074 18.76,18.088 0.747,18.088 0.747,72.132 18.76,72.132 18.76,90.146 36.773,90.146 36.773,108.16 54.791,108.16 "
   id="polygon16"
   transform="matrix(0.38632102,0,0,0.38632102,-0.2885818,-0.02858776)" />
    </svg>
