<!-- created by svgstack.com | Attribution is required. --><svg width="120" height="120" viewBox="0 0 120 120" fill="none" xmlns="http://www.w3.org/2000/svg"><path fill-rule="evenodd" clip-rule="evenodd" d="M91.4062 0C108.75 0 120 11.25 120 28.5938V91.4062C120 108.75 108.75 120 91.4062 120H28.5938C11.25 120 0 108.75 0 91.4062V28.5938C0 11.25 11.25 0 28.5938 0H91.4062Z" fill="url(#paint0_linear_2_2869)"/><path fill-rule="evenodd" clip-rule="evenodd" d="M77.0001 43.6905V53.4413L85.0001 60.5001L77.0001 67.5589V82.3707C87.0612 77.5908 90.5906 66.8775 90.5906 66.8775C90.5906 72.7853 90.1097 77.323 90.1097 77.323C90.1097 77.323 87.9069 98.0837 61.3331 98.0837C36.3517 98.0837 30.4887 74.7825 30.4887 74.7825C30.4887 74.7825 26.738 63.6239 34.3202 53.2118C36.0072 50.8948 38.0476 48.9119 40.2006 47.2291C39.8587 47.1647 31.9552 45.5672 31.3859 35.3779C31.3859 35.3779 30.6712 24.1763 42.9658 22.3791C42.9658 22.3791 50.453 21.2303 63.6931 26.3355C76.9333 31.4411 79.5216 26.3355 79.5216 26.3355C79.5216 26.3355 81.2049 20.7584 76.1275 20.3753C76.1275 20.3753 72.9789 19.9831 70.6879 20.3753C70.6879 20.3753 71.0496 18.7996 76.7767 18.7996C82.5044 18.7996 87.3733 22.6477 89.0497 28.3204C91.1027 35.4643 84.5171 40.7871 84.5171 40.7871C84.5171 40.7871 82.2238 43.2213 77.0001 43.6905ZM76.0001 53.4413L68.0001 60.5001L76.0001 67.5589V82.8166C72.7276 84.1824 68.8098 84.918 64.1555 84.5177C44.0999 82.7924 43.889 64.6665 43.889 64.6665C43.889 64.6665 41.5204 47.9962 56.6198 39.1335C56.6198 39.1335 47.7287 41.3479 40.2077 47.2235C36.3321 40.401 40.5948 37.1159 40.5948 37.1159C44.1068 33.6998 56.6058 39.1264 56.6058 39.1264C56.6058 39.1264 66.8449 43.3722 74.1171 43.7399C74.7788 43.7733 75.4062 43.7762 76.0001 43.7539V53.4413Z" fill="black"/><path fill-rule="evenodd" clip-rule="evenodd" d="M50.9835 50.0041V50L53.6995 48.7381L64.9084 43.5133L64.9148 43.5271L66.0494 43V75L50.9835 81.5V51.1074L43.2204 54.7259L42.798 53.8195L50.9835 50.0041Z" fill="black"/><defs><linearGradient id="paint0_linear_2_2869" x1="0" y1="0" x2="0" y2="120" gradientUnits="userSpaceOnUse"><stop stop-color="#F7F7F7"/><stop offset="1" stop-color="#EBEBEB"/></linearGradient></defs></svg> 