<?xml version="1.0" encoding="UTF-8" standalone="no"?>
<!-- Created with Inkscape (http://www.inkscape.org/) -->

<svg
   width="97.469749mm"
   height="135.33437mm"
   viewBox="0 0 97.469749 135.33437"
   version="1.1"
   id="svg1"
   xml:space="preserve"
   xmlns="http://www.w3.org/2000/svg"
   xmlns:svg="http://www.w3.org/2000/svg"><defs
     id="defs1" /><g
     id="layer1"
     transform="translate(-65.394899,-49.06563)"><path
       style="fill:#000000"
       d="m 67.877314,183.53766 c -0.627105,-0.47831 -1.431605,-1.44725 -1.806506,-2.17575 l -0.675905,-1.31341 v -57.02477 c 0,-51.68723 0.03959,-57.111446 0.422926,-57.950809 0.623473,-1.365159 1.749152,-2.592305 2.983794,-3.252748 1.07859,-0.576967 1.262029,-0.585239 15.877806,-0.716002 l 14.786609,-0.132292 0.364257,-1.455208 c 0.999265,-3.992071 3.905175,-7.575927 7.639165,-9.421362 l 2.08341,-1.029679 h 4.64393 4.64393 l 1.85196,0.926041 c 3.64778,1.824023 6.82086,5.769844 7.8192,9.723437 l 0.35076,1.389063 h 14.27293 c 10.43286,0 14.56592,0.08657 15.36195,0.321764 0.68645,0.202815 1.59166,0.821327 2.44868,1.673116 1.11682,1.110013 1.41474,1.60776 1.6682,2.787089 0.23102,1.074979 0.28828,15.629676 0.22785,57.92428 -0.0779,54.52426 -0.0979,56.52074 -0.57392,57.41458 -0.63037,1.18353 -1.69135,2.32574 -2.60249,2.80174 -0.60682,0.31702 -7.49024,0.37326 -45.6862,0.37326 H 69.007915 Z m 89.770186,-3.80888 c 0.46528,-0.42107 0.48386,-2.23454 0.48386,-47.2289 V 85.708863 l -43.98698,0.06692 -43.986977,0.06692 -0.06688,46.632077 c -0.06647,46.34582 -0.06363,46.63532 0.463021,47.16197 0.525803,0.52581 0.862784,0.5299 43.570006,0.5299 39.67797,0 43.07789,-0.0342 43.52395,-0.43788 z M 84.617201,164.59745 c -0.385806,-0.4139 -1.326544,-1.6828 -2.090528,-2.81979 -1.5398,-2.29157 -1.749036,-3.34983 -0.852573,-4.31207 1.259667,-1.35209 2.882907,-0.96844 4.259582,1.00676 l 0.899075,1.28995 4.891489,-3.85107 c 2.690319,-2.11808 5.271787,-4.01483 5.736595,-4.21498 0.941309,-0.40534 1.514607,-0.28328 2.396039,0.51013 0.73773,0.66406 0.80716,2.25731 0.132292,3.03573 -0.254661,0.29374 -3.236328,2.68818 -6.625926,5.32098 -5.347133,4.15327 -6.287442,4.78691 -7.103742,4.78691 -0.693121,0 -1.125528,-0.19814 -1.642303,-0.75255 z m 17.013589,-1.2198 c -0.44838,-0.44838 -0.64943,-0.94356 -0.64943,-1.59953 0,-0.65596 0.20105,-1.15114 0.64943,-1.59952 l 0.64943,-0.64943 h 22.87497 22.87496 l 0.68498,0.81405 c 0.74822,0.8892 0.85094,1.55496 0.37718,2.44449 -0.6739,1.26529 0.16825,1.22206 -23.97975,1.23096 l -22.83234,0.008 z M 84.617201,145.28287 c -0.385806,-0.4139 -1.326544,-1.6828 -2.090528,-2.81979 -1.5398,-2.29157 -1.749036,-3.34983 -0.852573,-4.31207 1.258134,-1.35045 2.882275,-0.96861 4.256279,1.00065 l 0.895773,1.28384 3.439583,-2.69852 c 6.836427,-5.36353 6.977028,-5.4599 7.965948,-5.4599 1.800507,0 2.916947,2.31721 1.757489,3.6477 -0.388669,0.446 -6.883885,5.59309 -11.52964,9.13659 -1.634752,1.24689 -2.822707,1.31537 -3.842331,0.2215 z m 17.013589,-1.2198 c -0.44838,-0.44838 -0.64943,-0.94356 -0.64943,-1.59953 0,-0.65596 0.20105,-1.15114 0.64943,-1.59952 l 0.64943,-0.64944 h 22.78655 22.78654 l 0.7734,0.7734 c 0.42537,0.42537 0.7734,1.02659 0.7734,1.33606 0,0.76671 -0.67944,2.02339 -1.20248,2.22411 -0.23557,0.0904 -10.66335,0.16435 -23.17285,0.16435 H 102.28022 Z M 84.887548,126.5224 c -0.298111,-0.25466 -1.33437,-1.64311 -2.302798,-3.08544 -1.959683,-2.91865 -2.083445,-3.6973 -0.77121,-4.85206 1.30531,-1.14867 2.424182,-0.78892 3.913924,1.25842 l 1.101535,1.51383 5.157951,-4.05426 c 4.560202,-3.58441 5.274329,-4.0555 6.162165,-4.06503 1.311354,-0.0141 2.305555,0.92076 2.297195,2.16001 -0.008,1.11306 -0.39644,1.56316 -3.301409,3.82062 -1.309687,1.01777 -4.084547,3.18168 -6.166356,4.80871 -4.051495,3.16641 -4.898895,3.51355 -6.090997,2.4952 z m 16.743242,-1.77391 c -0.8964,-0.89641 -0.87609,-2.22675 0.0481,-3.15095 L 102.37644,120.9 h 22.73843 22.73844 l 0.7734,0.7734 c 0.42537,0.42537 0.7734,1.02659 0.7734,1.33605 0,0.76672 -0.67944,2.0234 -1.20248,2.22411 -0.23557,0.0904 -10.66335,0.16436 -23.17285,0.16436 H 102.28022 Z M 84.617201,107.18287 c -0.385806,-0.4139 -1.326544,-1.6828 -2.090528,-2.81979 -1.683219,-2.50501 -1.803425,-3.44029 -0.575012,-4.473933 1.388472,-1.168323 2.571326,-0.812595 3.932966,1.182783 0.572038,0.83828 0.994075,1.22486 1.180513,1.08132 0.159598,-0.12287 2.517384,-1.9642 5.239524,-4.091834 2.72214,-2.127636 5.239394,-3.941227 5.593899,-4.030202 1.523397,-0.382349 3.137297,1.437575 2.628487,2.964021 -0.17044,0.511297 -2.192597,2.25008 -6.785122,5.834275 -5.697805,4.44681 -6.663728,5.10591 -7.482794,5.10591 -0.692715,0 -1.125258,-0.19825 -1.641933,-0.75255 z m 17.013589,-1.74897 c -0.8964,-0.8964 -0.87609,-2.22675 0.0481,-3.15094 l 0.69754,-0.69754 h 22.73843 22.73844 l 0.7734,0.7734 c 0.42537,0.42536 0.7734,1.02659 0.7734,1.33605 0,0.76671 -0.67944,2.0234 -1.20248,2.22411 -0.23557,0.0904 -10.66335,0.16436 -23.17285,0.16436 h -22.74456 z m 56.50057,-31.410459 c 0,-6.318202 -0.0531,-7.247674 -0.43789,-7.672916 -0.4208,-0.464987 -2.12254,-0.483854 -43.64124,-0.483854 H 70.848867 l -0.411878,0.588038 c -0.347887,0.496678 -0.411878,1.688767 -0.411878,7.672916 v 7.084878 h 44.053119 44.05313 z m -71.87221,2.695278 c -1.526199,-0.621025 -1.852122,-2.520505 -0.640395,-3.732232 l 0.776978,-0.776978 27.953727,0.06973 27.95373,0.06973 0.50575,0.624624 c 0.75096,0.927463 0.66825,2.43775 -0.17697,3.231859 l -0.68273,0.641433 -27.56154,0.05128 c -15.205232,0.02829 -27.815745,-0.05215 -28.12855,-0.179439 z m 37.74096,-15.969163 c 0,-0.195039 -0.35935,-1.073736 -0.79856,-1.952662 -2.7645,-5.532262 -9.82392,-7.333825 -14.88432,-3.798476 -1.54245,1.077601 -3.13202,3.180521 -3.72944,4.933846 l -0.39931,1.171907 h 9.90581 c 8.10412,0 9.90582,-0.0645 9.90582,-0.354615 z"
       id="path1" /></g></svg>
