<svg width="125" height="119" viewBox="0 0 125 119" fill="none" xmlns="http://www.w3.org/2000/svg">
<path d="M100.4 20.79C100.69 21.19 100.94 21.62 101.13 22.08C102.71 25.87 102.19 30.49 99.8 33.83L99.17 34.71C96.84 37.96 93.4 40.25 89.59 41.21L95.74 49.7C96.57 50.86 96.65 52.33 95.98 53.63C95.22 55.1 93.67 56.06 92.04 56.06H37.12C35.85 56.06 34.84 55.46 34.03 54.34L22.86 38.89C22.86 38.89 22.8 38.81 22.78 38.76C22.19 37.55 22.3 36.13 23.08 35.03L45.46 3.92999C47.21 1.46999 50.05 0 53.07 0H79.45C83.26 0.02 86.78 1.91 88.95 4.94L100.4 20.79Z" fill="#FCFCFC"/>
<path d="M53.05 2.40002C50.8 2.40002 48.69 3.49004 47.38 5.32004L25.02 36.41C24.42 37.25 25.02 38.42 26.05 38.42H41.18C42.3 38.42 43.36 37.88 44.02 36.98L53.18 24.18L62.45 37C63.11 37.75 64.23 38.43 65.37 38.43H81.19C82.51 38.43 83.72 36.94 82.95 35.86L74.45 24.09H74.71C79.34 24.09 83.68 21.86 86.38 18.09L87.01 17.21C91.41 11.05 87.04 2.42003 79.48 2.41003H53.03L53.05 2.40002Z" fill="#F04F4F"/>
<path d="M88.0801 24.66L87.6901 26.22L86.1301 26.61L87.6901 27L88.0801 28.56L88.4701 27L90.0401 26.61L88.4701 26.22L88.0801 24.66Z" fill="#F04F4F"/>
<path d="M40.82 41.76L40.04 44.88L36.92 45.66L40.04 46.44L40.82 49.57L41.6 46.44L44.73 45.66L41.6 44.88L40.82 41.76Z" fill="#F04F4F"/>
<path d="M51.89 38.5C52.3705 38.5 52.76 38.1105 52.76 37.63C52.76 37.1495 52.3705 36.76 51.89 36.76C51.4095 36.76 51.02 37.1495 51.02 37.63C51.02 38.1105 51.4095 38.5 51.89 38.5Z" fill="#F04F4F"/>
<path d="M79.9501 50.51C80.4306 50.51 80.8201 50.1205 80.8201 49.64C80.8201 49.1595 80.4306 48.77 79.9501 48.77C79.4696 48.77 79.0801 49.1595 79.0801 49.64C79.0801 50.1205 79.4696 50.51 79.9501 50.51Z" fill="#F04F4F"/>
<path d="M57.31 42.19C57.5309 42.19 57.71 42.0109 57.71 41.79C57.71 41.5691 57.5309 41.39 57.31 41.39C57.0891 41.39 56.91 41.5691 56.91 41.79C56.91 42.0109 57.0891 42.19 57.31 42.19Z" fill="#F04F4F"/>
<path d="M59.92 49.29C60.1409 49.29 60.32 49.1109 60.32 48.89C60.32 48.6691 60.1409 48.49 59.92 48.49C59.6991 48.49 59.52 48.6691 59.52 48.89C59.52 49.1109 59.6991 49.29 59.92 49.29Z" fill="#F04F4F"/>
<path d="M61.6501 47.83C61.871 47.83 62.0501 47.6509 62.0501 47.43C62.0501 47.2091 61.871 47.03 61.6501 47.03C61.4291 47.03 61.2501 47.2091 61.2501 47.43C61.2501 47.6509 61.4291 47.83 61.6501 47.83Z" fill="#F04F4F"/>
<path d="M93.62 19.66C93.8409 19.66 94.02 19.4809 94.02 19.26C94.02 19.0391 93.8409 18.86 93.62 18.86C93.3991 18.86 93.22 19.0391 93.22 19.26C93.22 19.4809 93.3991 19.66 93.62 19.66Z" fill="#F04F4F"/>
<path d="M92.0301 30.8C92.251 30.8 92.4301 30.6209 92.4301 30.4C92.4301 30.1791 92.251 30 92.0301 30C91.8092 30 91.6301 30.1791 91.6301 30.4C91.6301 30.6209 91.8092 30.8 92.0301 30.8Z" fill="#F04F4F"/>
<path d="M82.31 43.35C82.5309 43.35 82.71 43.1709 82.71 42.95C82.71 42.7291 82.5309 42.55 82.31 42.55C82.0891 42.55 81.91 42.7291 81.91 42.95C81.91 43.1709 82.0891 43.35 82.31 43.35Z" fill="#F04F4F"/>
<path d="M94.49 32.17C94.7109 32.17 94.89 31.9909 94.89 31.77C94.89 31.5491 94.7109 31.37 94.49 31.37C94.2691 31.37 94.09 31.5491 94.09 31.77C94.09 31.9909 94.2691 32.17 94.49 32.17Z" fill="#F04F4F"/>
<path d="M70.12 44.57C70.3409 44.57 70.52 44.3909 70.52 44.17C70.52 43.9491 70.3409 43.77 70.12 43.77C69.8991 43.77 69.72 43.9491 69.72 44.17C69.72 44.3909 69.8991 44.57 70.12 44.57Z" fill="#F04F4F"/>
<path d="M16.98 89.11L11.75 83.81C11.64 83.7 11.48 83.63 11.32 83.63C10.99 83.63 10.72 83.9 10.72 84.23V88.69C10.72 89.02 10.45 89.29 10.12 89.29H5.1C4.77 89.29 4.5 89.02 4.5 88.69V68.41C4.5 68.08 4.77 67.81 5.1 67.81H19.22C20.21 67.81 21.01 68.61 21.01 69.6V81.84C21.01 82.83 20.21 83.63 19.22 83.63C18.69 83.63 18.42 84.27 18.79 84.65L22.36 88.27C22.73 88.65 22.47 89.29 21.93 89.29H17.4C17.24 89.29 17.09 89.23 16.97 89.11H16.98ZM10.72 72.78V78.66C10.72 78.99 10.99 79.26 11.32 79.26H14.19C14.52 79.26 14.79 78.99 14.79 78.66V72.78C14.79 72.45 14.52 72.18 14.19 72.18H11.32C10.99 72.18 10.72 72.45 10.72 72.78Z" fill="#FCFCFC"/>
<path d="M35.71 67.81H38.82C40.54 67.81 41.93 69.2 41.93 70.92V86.18C41.93 87.9 40.54 89.29 38.82 89.29H27.2C25.48 89.29 24.09 87.9 24.09 86.18V70.91C24.09 69.19 25.48 67.8 27.2 67.8H35.71V67.81ZM35.71 83.29V73.82C35.71 72.92 34.98 72.19 34.08 72.19H31.94C31.04 72.19 30.31 72.92 30.31 73.82V83.29C30.31 84.19 31.04 84.92 31.94 84.92H34.08C34.98 84.92 35.71 84.19 35.71 83.29Z" fill="#FCFCFC"/>
<path d="M60.93 67.81C61.99 67.81 62.85 68.67 62.85 69.73V74.13C62.85 74.82 62.29 75.38 61.6 75.38H57.88C57.19 75.38 56.63 74.82 56.63 74.13V73.43C56.63 72.74 56.07 72.18 55.38 72.18H52.48C51.79 72.18 51.23 72.74 51.23 73.43V83.67C51.23 84.36 51.79 84.92 52.48 84.92H55.38C56.07 84.92 56.63 84.36 56.63 83.67V82.38C56.63 81.69 57.19 81.13 57.88 81.13H61.6C62.29 81.13 62.85 81.69 62.85 82.38V87.37C62.85 88.43 61.99 89.29 60.93 89.29H46.94C45.88 89.29 45.02 88.43 45.02 87.37V69.73C45.02 68.67 45.88 67.81 46.94 67.81H60.93Z" fill="#FCFCFC"/>
<path d="M83.43 69.2L74.75 77.98C74.44 78.3 74.44 78.81 74.75 79.12L83.43 87.9C83.94 88.41 83.57 89.29 82.85 89.29H78.92C78.7 89.29 78.49 89.2 78.34 89.05L73.09 83.74C72.58 83.22 71.7 83.58 71.7 84.31V88.47C71.7 88.92 71.34 89.28 70.89 89.28H66.3C65.85 89.28 65.49 88.92 65.49 88.47V68.62C65.49 68.17 65.85 67.81 66.3 67.81H70.89C71.34 67.81 71.7 68.17 71.7 68.62V72.78C71.7 73.51 72.58 73.87 73.09 73.35L78.34 68.04C78.49 67.89 78.7 67.8 78.92 67.8H82.85C83.57 67.8 83.94 68.67 83.43 69.19V69.2Z" fill="#FCFCFC"/>
<path d="M99.29 72.18H92.7C92.17 72.18 91.74 72.61 91.74 73.14V75.4C91.74 75.93 92.17 76.36 92.7 76.36H97.37C97.9 76.36 98.33 76.79 98.33 77.32V79.77C98.33 80.3 97.9 80.73 97.37 80.73H92.7C92.17 80.73 91.74 81.16 91.74 81.69V83.95C91.74 84.48 92.17 84.91 92.7 84.91H99.29C99.82 84.91 100.25 85.34 100.25 85.87V88.32C100.25 88.85 99.82 89.28 99.29 89.28H86.48C85.95 89.28 85.52 88.85 85.52 88.32V68.76C85.52 68.23 85.95 67.8 86.48 67.8H99.29C99.82 67.8 100.25 68.23 100.25 68.76V71.21C100.25 71.74 99.82 72.17 99.29 72.17V72.18Z" fill="#FCFCFC"/>
<path d="M119.93 71.09C119.93 71.69 119.44 72.18 118.84 72.18H115.62C115.02 72.18 114.53 72.67 114.53 73.27V88.19C114.53 88.79 114.04 89.28 113.44 89.28H109.41C108.81 89.28 108.32 88.79 108.32 88.19V73.27C108.32 72.67 107.83 72.18 107.23 72.18H103.2C102.6 72.18 102.11 71.69 102.11 71.09V68.9C102.11 68.3 102.6 67.81 103.2 67.81H118.85C119.45 67.81 119.94 68.3 119.94 68.9V71.09H119.93Z" fill="#FCFCFC"/>
<path d="M14.56 97.14C15.8 97.14 16.81 98.15 16.81 99.39V102.55C16.81 103.36 16.15 104.02 15.34 104.02H11.48C10.99 104.02 10.6 103.63 10.6 103.14V102.09C10.6 101.78 10.35 101.52 10.03 101.52H7.09C6.78 101.52 6.52 101.77 6.52 102.09V105.14C6.52 105.45 6.77 105.71 7.09 105.71H14.57C15.81 105.71 16.82 106.72 16.82 107.96V116.39C16.82 117.63 15.81 118.64 14.57 118.64H2.25C1.01 118.64 0 117.63 0 116.39V112.56C0 112.12 0.36 111.77 0.79 111.77H5.42C5.86 111.77 6.21 112.13 6.21 112.56V113.7C6.21 114.01 6.46 114.27 6.78 114.27H10.02C10.33 114.27 10.59 114.02 10.59 113.7V110.65C10.59 110.34 10.34 110.08 10.02 110.08H2.55C1.31 110.08 0.3 109.07 0.3 107.83V98.5C0.3 97.75 0.91 97.15 1.65 97.15H14.56V97.14Z" fill="#FCFCFC"/>
<path d="M35.19 97.14C36.25 97.14 37.11 98 37.11 99.06V103.46C37.11 104.15 36.55 104.71 35.86 104.71H32.14C31.45 104.71 30.89 104.15 30.89 103.46V102.76C30.89 102.07 30.33 101.51 29.64 101.51H26.74C26.05 101.51 25.49 102.07 25.49 102.76V113C25.49 113.69 26.05 114.25 26.74 114.25H29.64C30.33 114.25 30.89 113.69 30.89 113V111.71C30.89 111.02 31.45 110.46 32.14 110.46H35.86C36.55 110.46 37.11 111.02 37.11 111.71V116.7C37.11 117.76 36.25 118.62 35.19 118.62H21.2C20.14 118.62 19.28 117.76 19.28 116.7V99.06C19.28 98 20.14 97.14 21.2 97.14H35.19Z" fill="#FCFCFC"/>
<path d="M41 97.14H45.02C45.63 97.14 46.12 97.63 46.12 98.24V117.52C46.12 118.13 45.63 118.62 45.02 118.62H41C40.39 118.62 39.9 118.13 39.9 117.52V98.24C39.9 97.63 40.39 97.14 41 97.14Z" fill="#FCFCFC"/>
<path d="M62.96 101.51H56.37C55.84 101.51 55.41 101.94 55.41 102.47V104.73C55.41 105.26 55.84 105.69 56.37 105.69H61.04C61.57 105.69 62 106.12 62 106.65V109.1C62 109.63 61.57 110.06 61.04 110.06H56.37C55.84 110.06 55.41 110.49 55.41 111.02V113.28C55.41 113.81 55.84 114.24 56.37 114.24H62.96C63.49 114.24 63.92 114.67 63.92 115.2V117.65C63.92 118.18 63.49 118.61 62.96 118.61H50.15C49.62 118.61 49.19 118.18 49.19 117.65V98.09C49.19 97.56 49.62 97.13 50.15 97.13H62.96C63.49 97.13 63.92 97.56 63.92 98.09V100.54C63.92 101.07 63.49 101.5 62.96 101.5V101.51Z" fill="#FCFCFC"/>
<path d="M80.51 97.14H85.27C85.67 97.14 86 97.46 86 97.87V117.9C86 118.3 85.67 118.63 85.27 118.63H80.2C79.94 118.63 79.7 118.49 79.57 118.27L74.26 109.04C73.89 108.4 72.9 108.66 72.9 109.4V117.9C72.9 118.3 72.57 118.63 72.17 118.63H67.41C67.01 118.63 66.68 118.3 66.68 117.9V97.87C66.68 97.47 67.01 97.14 67.41 97.14H73.21C73.47 97.14 73.71 97.28 73.84 97.5L78.43 105.47C78.8 106.11 79.79 105.85 79.79 105.11V97.87C79.79 97.47 80.12 97.14 80.52 97.14H80.51Z" fill="#FCFCFC"/>
<path d="M105 97.14C106.06 97.14 106.92 98 106.92 99.06V103.46C106.92 104.15 106.36 104.71 105.67 104.71H101.95C101.26 104.71 100.7 104.15 100.7 103.46V102.76C100.7 102.07 100.14 101.51 99.45 101.51H96.55C95.86 101.51 95.3 102.07 95.3 102.76V113C95.3 113.69 95.86 114.25 96.55 114.25H99.45C100.14 114.25 100.7 113.69 100.7 113V111.71C100.7 111.02 101.26 110.46 101.95 110.46H105.67C106.36 110.46 106.92 111.02 106.92 111.71V116.7C106.92 117.76 106.06 118.62 105 118.62H91.01C89.95 118.62 89.09 117.76 89.09 116.7V99.06C89.09 98 89.95 97.14 91.01 97.14H105Z" fill="#FCFCFC"/>
<path d="M123.48 101.51H116.89C116.36 101.51 115.93 101.94 115.93 102.47V104.73C115.93 105.26 116.36 105.69 116.89 105.69H121.56C122.09 105.69 122.52 106.12 122.52 106.65V109.1C122.52 109.63 122.09 110.06 121.56 110.06H116.89C116.36 110.06 115.93 110.49 115.93 111.02V113.28C115.93 113.81 116.36 114.24 116.89 114.24H123.48C124.01 114.24 124.44 114.67 124.44 115.2V117.65C124.44 118.18 124.01 118.61 123.48 118.61H110.67C110.14 118.61 109.71 118.18 109.71 117.65V98.09C109.71 97.56 110.14 97.13 110.67 97.13H123.48C124.01 97.13 124.44 97.56 124.44 98.09V100.54C124.44 101.07 124.01 101.5 123.48 101.5V101.51Z" fill="#FCFCFC"/>
</svg>
