<?xml version="1.0" encoding="UTF-8" standalone="no"?>
<!-- Created with Inkscape (http://www.inkscape.org/) -->

<svg
   width="131.22023mm"
   height="131.22803mm"
   viewBox="0 0 131.22023 131.22803"
   version="1.1"
   id="svg1"
   xml:space="preserve"
   xmlns="http://www.w3.org/2000/svg"
   xmlns:svg="http://www.w3.org/2000/svg"><defs
     id="defs1" /><g
     id="layer1"
     transform="translate(-61.488599,-24.03246)"><path
       style="fill:#000000"
       d="m 65.310345,154.63774 c -1.564471,-0.7285 -3.079758,-2.38077 -3.514681,-3.83242 -0.191817,-0.64022 -0.307064,-3.16444 -0.307064,-6.72547 v -5.70058 l 2.891962,-0.0896 c 3.124841,-0.0968 3.713824,-0.32665 4.896897,-1.91125 0.764912,-1.02451 0.764912,-3.53419 0,-4.5587 -1.183073,-1.5846 -1.772056,-1.81448 -4.896897,-1.91125 l -2.891962,-0.0896 v -5.70058 c 0,-6.77231 0.126361,-7.36148 1.975409,-9.21053 1.635268,-1.63526 2.678544,-1.97541 6.058933,-1.97541 2.385795,0 2.54899,-0.0344 2.54899,-0.53751 0,-0.29563 0.245179,-1.26531 0.544841,-2.15485 l 0.544841,-1.61733 -0.941988,-3.33526 C 68.392657,91.737513 69.543751,77.785031 75.53761,65.069994 c 0.713252,-1.513052 1.296822,-2.792974 1.296822,-2.844271 0,-0.0513 -3.452812,-0.09327 -7.672916,-0.09327 H 61.4886 V 51.549124 40.965791 h 6.349999 6.35 v 8.466667 8.466666 h 2.116666 2.116667 v -12.699999 -12.7 h 6.35 6.349999 v 12.7 12.699999 h 2.116667 2.116666 V 40.965791 24.032459 h 6.349996 6.35 v 5.820833 c 0,3.201458 0.1041,5.820833 0.23132,5.820833 0.12723,0 0.75231,-0.183942 1.38906,-0.40876 2.00168,-0.706723 6.14091,-1.683128 9.12877,-2.153388 4.07777,-0.641802 12.69613,-0.637826 16.63523,0.0077 5.43091,0.889965 10.8593,2.495963 15.31457,4.530844 1.14697,0.523863 2.14275,0.895123 2.21285,0.825022 0.0701,-0.0701 0.39619,-0.896519 0.72464,-1.836484 3.02125,-8.646292 12.30888,-13.964192 21.3628,-12.231891 10.32992,1.976439 17.13746,11.923306 15.17608,22.174559 -0.94875,4.958662 -3.99417,9.570121 -8.17297,12.375756 -1.61902,1.087005 -2.03568,2.296082 -2.03568,5.907205 0,2.9126 0.061,3.271279 1.03922,6.108171 1.63256,4.7346 2.34881,8.299561 3.07453,15.302852 0.10227,0.986852 0.27791,1.521354 0.49994,1.521354 0.18826,0 1.1866,0.42239 2.21853,0.938644 2.23216,1.116704 3.74002,2.696463 4.91254,5.146772 l 0.82294,1.719792 0.0596,22.754167 0.0596,22.75417 -3.10229,6.08212 c -2.67276,5.24 -3.25622,6.19811 -4.21403,6.9199 -1.96673,1.4821 -4.54104,1.4821 -6.50778,0 -0.9584,-0.72223 -1.53907,-1.67665 -4.21012,-6.9199 l -3.0984,-6.08212 -0.0105,-7.78669 -0.0105,-7.78669 -0.98635,1.17211 c -5.84736,6.94858 -13.80282,12.64646 -22.42927,16.06436 -13.48177,5.34163 -28.87869,5.3103 -42.20104,-0.0859 -1.82753,-0.74023 -2.74913,-1.24786 -2.69339,-1.48354 0.0466,-0.19705 0.39415,-1.05151 0.77233,-1.89879 0.49881,-1.11753 0.80245,-1.50584 1.10589,-1.41421 0.23006,0.0695 1.67682,0.6087 3.21501,1.19829 4.63527,1.77671 9.00635,2.75015 14.99651,3.33974 l 1.65365,0.16276 v -12.71313 -12.71314 h -2.86907 -2.86906 l -0.63667,-1.88591 c -0.83369,-2.46954 -1.18298,-2.62974 -3.4231,-1.57 -0.94131,0.44531 -1.83163,0.80975 -1.97848,0.80987 -0.14685,1.1e-4 -2.68993,-2.42489 -5.65129,-5.38889 -5.98138,-5.98672 -5.64033,-5.36257 -4.34172,-7.94572 0.90737,-1.804913 0.65029,-2.25028 -1.74407,-3.021437 L 99.588598,97.556106 V 94.660947 91.765789 H 86.865342 74.142086 l 0.142426,0.992187 c 0.07833,0.545703 0.218074,1.825625 0.310533,2.844271 0.210192,2.315738 0.727149,5.083163 1.449879,7.761633 l 0.557744,2.06703 1.504945,-0.51152 c 4.73413,-1.60909 10.020864,1.76556 10.788837,6.88677 l 0.168898,1.12629 h 2.518949 c 1.385422,0 2.980149,0.13818 3.543838,0.30707 1.451644,0.43492 3.103919,1.95021 3.832421,3.51468 0.59483,1.27741 0.622989,1.60161 0.625457,7.2012 l 0.0026,5.86357 -2.891963,0.0896 c -3.124841,0.0968 -3.713824,0.32665 -4.896897,1.91125 -0.764912,1.02451 -0.764912,3.53419 0,4.5587 1.183073,1.5846 1.772056,1.81448 4.896897,1.91125 l 2.891963,0.0896 -0.0026,5.86357 c -0.0025,5.61206 -0.02941,5.92032 -0.627994,7.18649 -0.751668,1.58998 -1.739266,2.56211 -3.338171,3.28588 -1.148997,0.52011 -1.676285,0.53907 -15.081249,0.54218 l -13.890625,0.003 z m 29.395488,-4.25472 c 0.625053,-0.62505 0.649431,-0.78283 0.649431,-4.20329 v -3.55386 l -1.126293,-0.1689 c -2.720077,-0.4079 -5.146905,-2.18164 -6.469773,-4.72867 -0.614937,-1.184 -0.716852,-1.69996 -0.716852,-3.62918 0,-1.92922 0.101915,-2.44518 0.716852,-3.62918 1.320715,-2.54289 3.708136,-4.31454 6.347509,-4.71034 l 1.248557,-0.18723 v -3.55386 c 0,-3.42046 -0.02438,-3.57824 -0.649431,-4.20329 -0.639918,-0.63992 -0.717097,-0.64943 -5.268257,-0.64943 H 84.81875 l -0.08955,-2.89196 c -0.09677,-3.12485 -0.326644,-3.71383 -1.911243,-4.8969 -1.024517,-0.76491 -3.53419,-0.76491 -4.558707,0 -1.584598,1.18307 -1.814476,1.77205 -1.911243,4.8969 l -0.08955,2.89196 h -4.618825 c -4.551161,0 -4.62834,0.01 -5.268258,0.64943 -0.625053,0.62505 -0.649431,0.78283 -0.649431,4.20329 v 3.55386 l 1.248557,0.18723 c 1.623839,0.24351 3.51589,1.21536 4.730168,2.42964 3.18033,3.18032 3.16635,8.65342 -0.03027,11.85003 -1.149496,1.1495 -3.191116,2.17311 -4.822163,2.4177 l -1.126293,0.1689 v 3.55386 c 0,3.42046 0.02438,3.57824 0.649431,4.20329 l 0.649432,0.64943 H 80.538608 94.05641 Z m 88.289427,0.18641 c 0.22524,-0.25466 1.25652,-2.15966 2.29174,-4.23333 l 1.88221,-3.77031 h -5.03062 -5.03061 l 1.88221,3.77031 c 2.02323,4.05278 2.45467,4.69635 3.1484,4.69635 0.24594,0 0.63144,-0.20836 0.85667,-0.46302 z m -46.92558,-8.83805 c 8.76779,-1.41744 17.24056,-5.24286 24.3984,-11.01576 2.79482,-2.25406 7.4603,-7.18158 9.43353,-9.96337 l 1.65365,-2.33124 0.003,-10.74792 c 0.003,-11.616045 0.08,-12.399343 1.44025,-14.720379 l 0.69558,-1.186922 h -9.53615 -9.53615 v 2.869063 2.869064 l -1.88591,0.636665 c -2.46954,0.833694 -2.62974,1.182986 -1.57,3.423099 0.44531,0.94132 0.80975,1.83163 0.80987,1.97849 1.1e-4,0.14685 -2.42489,2.68993 -5.38889,5.65129 -5.98672,5.98137 -5.36257,5.64032 -7.94572,4.34171 -1.7934,-0.90158 -2.23701,-0.64737 -3.04456,1.74471 l -0.63666,1.88591 h -2.86907 -2.86906 v 12.70737 12.70736 l 1.78594,-0.15977 c 0.98226,-0.0879 3.26008,-0.39809 5.06181,-0.68937 z m -2.45449,-4.96053 c -0.088,-0.59633 -0.22716,-1.54412 -0.30933,-2.10621 l -0.14941,-1.02197 1.34422,-0.17832 c 7.72372,-1.02459 16.87083,-5.59259 23.15835,-11.56512 l 1.99658,-1.89656 1.42337,1.29354 c 0.78286,0.71144 1.43622,1.43416 1.45192,1.60603 0.047,0.5151 -5.19694,5.02208 -8.14963,7.00426 -5.77784,3.87873 -13.29294,6.89265 -19.37701,7.77111 l -1.22914,0.17747 z m 31.07543,-19.59422 c -0.77218,-0.57613 -1.45379,-1.09733 -1.51468,-1.15822 -0.0609,-0.0609 0.46591,-1.01074 1.17068,-2.11076 l 1.28141,-2.00003 1.63127,0.9193 c 0.8972,0.50562 1.6938,1.02048 1.77023,1.14415 0.1621,0.26228 -2.38342,4.25305 -2.71281,4.25305 -0.12218,0 -0.85392,-0.47137 -1.6261,-1.04749 z m 15.33131,4.22249 v -16.93333 h -2.11667 -2.11667 v 16.93333 16.93333 h 2.11667 2.11667 z m 8.46666,0 v -16.93333 h -2.11666 -2.11667 v 16.93333 16.93333 h 2.11667 2.11666 z m -56.00651,-9.88271 0.44637,-1.41604 2.20722,-0.92046 2.20723,-0.92047 1.41889,0.6262 1.41889,0.62619 3.39365,-3.39364 3.39365,-3.39365 -0.62207,-1.40953 -0.62207,-1.409535 0.85965,-2.151614 0.85964,-2.151614 1.47273,-0.523811 1.47273,-0.523812 V 89.63665 84.718677 l -1.41604,-0.446369 -1.41604,-0.446368 -0.92046,-2.207227 -0.92047,-2.207226 0.6262,-1.41889 0.6262,-1.418889 -3.39365,-3.393649 -3.39365,-3.393649 -1.40953,0.622065 -1.40953,0.622065 -2.15162,-0.85964 -2.15161,-0.859641 -0.52381,-1.472734 -0.52382,-1.472735 h -4.91797 -4.91797 l -0.44637,1.416044 -0.44637,1.416044 -2.20723,0.920461 -2.20722,0.920462 -1.41889,-0.626196 -1.41889,-0.626195 -3.39365,3.393649 -3.39365,3.393649 0.62207,1.409531 0.62206,1.409531 -0.85964,2.151614 -0.85964,2.151614 -1.47273,0.523811 -1.47274,0.523811 v 4.905502 4.905502 l 1.47274,0.523812 1.47273,0.523811 0.85964,2.151614 0.85964,2.151614 -0.62206,1.409535 -0.62207,1.40953 3.39365,3.39365 3.39365,3.39364 1.40953,-0.62206 1.40953,-0.62207 2.15161,0.85964 2.15162,0.85965 0.52381,1.47273 0.52381,1.47273 h 4.91797 4.91798 z m -8.28723,-5.18298 c -3.4226,-0.64075 -6.44951,-2.25428 -8.98456,-4.78933 -1.99878,-1.998782 -3.19986,-3.905465 -4.18719,-6.647072 -0.61467,-1.7068 -0.69887,-2.339092 -0.69887,-5.247906 0,-2.908813 0.0842,-3.541106 0.69887,-5.247905 0.98733,-2.741608 2.18841,-4.64829 4.18719,-6.647068 1.99878,-1.998777 3.90546,-3.199855 6.64707,-4.187191 1.7068,-0.61467 2.33909,-0.698873 5.2479,-0.698873 2.90882,0 3.54111,0.0842 5.24791,0.698873 2.74161,0.987336 4.64829,2.188414 6.64707,4.187191 10.36247,10.362479 3.5053,28.088741 -11.10123,28.697441 -1.38245,0.0576 -3.04932,0.004 -3.70416,-0.11816 z m 5.94213,-4.38944 c 4.56332,-1.18859 8.07852,-4.71505 9.27361,-9.303303 1.71373,-6.579435 -2.49775,-13.521548 -9.27361,-15.286436 -6.62078,-1.724493 -13.55651,2.467358 -15.32659,9.263157 -2.3582,9.053734 6.27285,17.684782 15.32659,15.326582 z m 58.35161,-3.202192 c 0,-2.130366 -0.46628,-3.40925 -1.77285,-4.862475 -2.41947,-2.691026 -6.04365,-2.831115 -8.81361,-0.34068 -1.4929,1.342241 -2.11354,2.855551 -2.11354,5.153445 v 1.540372 h 6.35 6.35 z M 99.588598,84.663392 v -2.869063 l 1.885912,-0.636666 c 2.39207,-0.807544 2.64629,-1.251155 1.7447,-3.044562 -1.29861,-2.583146 -1.63966,-1.958998 4.34172,-7.945715 2.96136,-2.964003 5.5376,-5.389096 5.72498,-5.389096 0.18738,0 1.06979,0.368046 1.9609,0.817879 2.15709,1.088894 2.54398,0.906415 3.34387,-1.577171 l 0.6076,-1.886541 h 2.89516 2.89516 V 49.432458 c 0,-9.986056 -0.0707,-12.69902 -0.33073,-12.695415 -3.12414,0.04331 -9.64607,1.250964 -13.71633,2.539826 l -2.88628,0.913949 v 10.96835 10.968349 l -13.139151,0.06862 -13.139155,0.06862 -1.401294,2.641962 c -3.349136,6.314376 -5.338521,13.179965 -6.038576,20.839807 l -0.163222,1.785938 H 86.88123 99.588598 Z m 80.433332,2.594052 c 0,-2.16371 -1.00583,-8.317072 -1.90979,-11.683522 l -0.54688,-2.03666 -1.08677,0.57179 c -0.89965,0.473337 -1.64887,0.589638 -4.35126,0.675446 -4.24595,0.13482 -5.30129,-0.15232 -7.06323,-1.92177 -1.73906,-1.746484 -1.97541,-2.620357 -1.97541,-7.303995 0,-4.612385 -0.28062,-5.384287 -2.5442,-6.998151 -4.34005,-3.094324 -7.09759,-7.705814 -7.83188,-13.097451 l -0.32062,-2.354164 -2.63183,-1.237938 c -5.94569,-2.796688 -11.80083,-4.354781 -18.75219,-4.990086 l -1.78594,-0.163222 v 12.707368 12.707368 h 2.86906 2.86907 l 0.63666,1.885908 c 0.8337,2.46954 1.18299,2.629742 3.4231,1.570001 0.94132,-0.445312 1.83164,-0.809752 1.97849,-0.809867 0.14685,-1.15e-4 2.68993,2.424884 5.65129,5.388887 5.98137,5.986717 5.64032,5.362569 4.34171,7.945715 -0.90737,1.804912 -0.65029,2.25028 1.74408,3.021436 l 1.88654,0.607602 v 2.895158 2.895159 h 12.7 c 8.61132,0 12.7,-0.08854 12.7,-0.275012 z m -4.88277,-17.307753 c 0.53337,-0.533372 0.64943,-0.911639 0.64943,-2.116666 V 66.36579 h -4.23333 -4.23333 v 1.467235 c 0,1.205027 0.11606,1.583294 0.64943,2.116666 0.61145,0.611447 0.82107,0.649432 3.5839,0.649432 2.76283,0 2.97246,-0.03799 3.5839,-0.649432 z m -5.70057,-14.413987 c 0,-6.434324 -0.0135,-6.601025 -0.54655,-6.770222 -0.86743,-0.275314 -2.34844,-1.705133 -2.91356,-2.812856 -1.31528,-2.578159 -0.88725,-5.169852 1.19651,-7.244758 2.53221,-2.521457 5.83869,-2.658759 8.4601,-0.351307 2.2288,1.961867 2.83285,4.977496 1.51461,7.561457 -0.58033,1.13753 -2.05392,2.56902 -2.93122,2.847464 -0.5331,0.169197 -0.54655,0.335898 -0.54655,6.770222 v 6.596753 h 1.03957 1.03958 l 0.30155,-1.452572 c 0.41749,-2.011045 1.62648,-3.666153 4.05053,-5.545197 3.21002,-2.488308 5.05408,-5.213693 5.87042,-8.676076 2.16208,-9.170168 -4.98549,-18.184998 -14.41832,-18.184998 -9.43282,0 -16.5804,9.01483 -14.41832,18.184998 0.81969,3.476593 2.6711,6.22282 5.84082,8.663773 2.44892,1.885876 3.6605,3.536166 4.08013,5.5575 l 0.30155,1.452572 h 1.03958 1.03957 z m -99.483324,-3.98658 v -6.349999 h -2.116667 -2.116666 v 6.349999 6.35 h 2.116666 2.116667 z M 86.888598,47.315791 V 36.732458 h -2.116666 -2.116667 v 10.583333 10.583333 h 2.116667 2.116666 z M 103.82193,43.082458 V 28.265792 h -2.11667 -2.116662 v 14.816666 14.816666 h 2.116662 2.11667 z m 69.20057,1.467235 c 1.31238,-1.312384 0.38243,-3.583902 -1.46724,-3.583902 -1.08773,0 -2.11667,1.028939 -2.11667,2.116667 0,1.087728 1.02894,2.116667 2.11667,2.116667 0.51551,0 1.05786,-0.240059 1.46724,-0.649432 z"
       id="path1" /></g></svg>
