<svg xmlns="http://www.w3.org/2000/svg" xmlns:xlink="http://www.w3.org/1999/xlink" viewBox="0 0 500 500"><defs><clipPath id="freepik--clip-path--inject-187"><rect x="158.2" y="101.21" width="54" height="34.62" style="fill:#fff;stroke:#263238;stroke-linecap:round;stroke-linejoin:round"></rect></clipPath><clipPath id="freepik--clip-path-2--inject-187"><rect x="64.89" y="141.83" width="73.21" height="54.72" rx="3.87" style="fill:#fff;stroke:#263238;stroke-linecap:round;stroke-linejoin:round"></rect></clipPath><clipPath id="freepik--clip-path-3--inject-187"><path d="M151.09,359.41a59.74,59.74,0,0,0-29.2-5.77l-3.45-9.39L113,329.37c1-8.44,19.32-34.46,19.32-34.46l2.25,7.74Z" style="fill:#757575;stroke:#263238;stroke-linecap:round;stroke-linejoin:round"></path></clipPath><clipPath id="freepik--clip-path-4--inject-187"><path d="M127.19,359.41c-.63,1.35-11.31,23.11-11.31,23.11L81.46,324.36s4.73-.41,10.4-.79c7.25-.48,16-.91,18.48-.39,1.6.34,4.4,5.16,7.25,11.18h0c1.59,3.36,3.2,7.09,4.64,10.63C125.23,352.33,127.46,358.83,127.19,359.41Z" style="fill:#757575;stroke:#263238;stroke-linecap:round;stroke-linejoin:round"></path></clipPath><clipPath id="freepik--clip-path-5--inject-187"><path d="M129.73,406.67c-30.19-26-53.42-60.58-67.87-97.79-1.3-3.35-2.54-6.72-3.69-10.1q-2-5.86-3.71-11.79c7.46-3.21,18.13-7.05,27-7.26,3.14-.07,2.79,13.78,2,24.64-.12,1.69-.25,3.3-.37,4.78-.4,4.65-.78,8-.78,8s39.2,59.07,44.88,71.33C129.24,392.83,129.82,399.68,129.73,406.67Z" style="fill:#757575;stroke:#263238;stroke-linecap:round;stroke-linejoin:round"></path></clipPath><clipPath id="freepik--clip-path-6--inject-187"><path d="M267.79,434.34v20.4a226.3,226.3,0,0,1-24.6-.7c-22.95-1.91-45.14-7.31-64.78-16.12a188.45,188.45,0,0,1-18.26-9.42,202.68,202.68,0,0,1-25.09-17.37s18.8-3.29,27.7-2.11S267.79,434.34,267.79,434.34Z" style="fill:#92E3A9;stroke:#263238;stroke-linecap:round;stroke-linejoin:round"></path></clipPath><clipPath id="freepik--clip-path-7--inject-187"><path d="M427.85,365.59a193.38,193.38,0,0,1-14.71,22.85,145.16,145.16,0,0,1-29.28,28.93c-17.72,13.22-38.44,22.9-60.44,29.09l-.22.06a219.06,219.06,0,0,1-27.08,5.77l20.93-37.11,66.33-117.57s7.16-17.62,17-23.31a13.65,13.65,0,0,1,3-1.32,37,37,0,0,1,4.54-1h0c8.78-1.39,20.62-.86,26.83,0a12.35,12.35,0,0,1,4.12,1C440.22,274.12,445.85,306,427.85,365.59Z" style="fill:#757575;stroke:#263238;stroke-linecap:round;stroke-linejoin:round"></path></clipPath><clipPath id="freepik--clip-path-8--inject-187"><path d="M434.74,272c-12.14,10.83-26.84,0-26.84,0s-1.11-1.7-2.67-4.27c-3.59-5.94-9.53-16.5-9.53-21.29,0-6.86,12.56-58.25,21.05-58.67s18-3.28,20.36,0a7.24,7.24,0,0,1,.67,2.1C440.56,202.18,445.87,262.05,434.74,272Z" style="fill:#757575;stroke:#263238;stroke-linecap:round;stroke-linejoin:round"></path></clipPath><clipPath id="freepik--clip-path-9--inject-187"><path d="M148.74,414.7l-4.63,2.64-.54.31c-1.65-1.2-3.29-2.42-4.9-3.67l-14.79-34.62-5.22-12.23h11.47a169.52,169.52,0,0,1,12.34,24.76A95.75,95.75,0,0,1,148.74,414.7Z" style="fill:#999;stroke:#263238;stroke-linecap:round;stroke-linejoin:round"></path></clipPath><clipPath id="freepik--clip-path-10--inject-187"><path d="M144.36,418.22l-.79-.57c-1.65-1.2-3.29-2.42-4.9-3.67-3-2.35-6-4.78-8.94-7.31C108,387.93,89.86,364.76,76,339.37a261.3,261.3,0,0,1-14.15-30.49l21.26.27,3.89.05s18.81,27.15,35.35,57.93c2.22,4.12,4.39,8.32,6.48,12.52,6.48,13.05,12.08,26.18,15.27,37.69C144.2,417.63,144.28,417.93,144.36,418.22Z" style="fill:#999;stroke:#263238;stroke-linecap:round;stroke-linejoin:round"></path></clipPath><clipPath id="freepik--clip-path-11--inject-187"><path d="M323.2,446.52A223.93,223.93,0,0,1,285,453.69a230.6,230.6,0,0,1-41.78.35c-22.95-1.91-45.14-7.31-64.78-16.12a188.45,188.45,0,0,1-18.26-9.42,25.71,25.71,0,0,1,6.61-2.44c5.2-1,25.26,1,49.58,4.11,13.94,1.78,29.28,3.93,44,6.12C287.47,440.31,312.56,444.43,323.2,446.52Z" style="fill:#92E3A9;stroke:#263238;stroke-linecap:round;stroke-linejoin:round"></path></clipPath></defs><g id="freepik--background-simple--inject-187"><path d="M67.93,167.09s-27.88,72,11.3,144.5S199.11,422.39,263.7,455.14s131.66,16.8,163.53-36.84-11.84-91.93-11.9-168.42,11.45-96.74-30-161.36-143.06-78.93-219.9-31S67.93,167.09,67.93,167.09Z" style="fill:#fff;opacity:0.7000000000000001"></path><path d="M99.44,95.22l.56-.5c51.57-46.44,120.06-48.53,170,1.45,26,26.06,72.19,21.07,105.23,30.49,113.92,32.49,94.22,187.06,37.95,261.78-50.78,67.42-160.81,82.65-234.73,49.48-65-29.15-110.7-94.28-127-162.37q-2.45-10.24-4-20.67C38.87,196.91,55.31,135.35,99.44,95.22Z" style="fill:#92E3A9"></path><path d="M99.44,95.22l.56-.5c51.57-46.44,120.06-48.53,170,1.45,26,26.06,72.19,21.07,105.23,30.49,113.92,32.49,94.22,187.06,37.95,261.78-50.78,67.42-160.81,82.65-234.73,49.48-65-29.15-110.7-94.28-127-162.37q-2.45-10.24-4-20.67C38.87,196.91,55.31,135.35,99.44,95.22Z" style="fill:#fff;opacity:0.7000000000000001"></path></g><g id="freepik--Car--inject-187"><path d="M63.74,271s65.09-72.65,117.52-103.51S404.39,122.8,404.39,122.8L379.71,296.11s-201.15-4.58-316,5.7" style="fill:none;stroke:#263238;stroke-linecap:round;stroke-linejoin:round"></path><path d="M54.46,230.66s89-65.55,122.3-85.53c0,0-77.48-23.33-104.39-59.52" style="fill:none;stroke:#263238;stroke-linecap:round;stroke-linejoin:round"></path><path d="M427.6,98.23S305.18,95.62,181.26,141" style="fill:none;stroke:#263238;stroke-linecap:round;stroke-linejoin:round"></path><path d="M427.6,125.15s1.17,28-7.72,167.6" style="fill:none;stroke:#263238;stroke-linecap:round;stroke-linejoin:round"></path><path d="M118.66,367.13c11.47,0,78.61-31.65,214.35-36.62" style="fill:none;stroke:#263238;stroke-linecap:round;stroke-linejoin:round"></path><path d="M141.71,365.88s4.27,46.89,141.92,49.57" style="fill:none;stroke:#263238;stroke-linecap:round;stroke-linejoin:round"></path><path d="M77.11,292.75s194-9.85,296.38-2" style="fill:none;stroke:#263238;stroke-linecap:round;stroke-linejoin:round"></path><path d="M63.74,114.35s34.69,32.39,92.86,42" style="fill:none;stroke:#263238;stroke-linecap:round;stroke-linejoin:round"></path><path d="M72.37,263.49a50,50,0,0,0,19.73-5.94c10.33-5.58,71.46-70.6,103.79-81.13s204.38-33.95,204.38-33.95" style="fill:none;stroke:#263238;stroke-linecap:round;stroke-linejoin:round"></path></g><g id="freepik--screen-4--inject-187"><line x1="321.7" y1="149.51" x2="321.7" y2="143.18" style="fill:none;stroke:#263238;stroke-linecap:round;stroke-linejoin:round"></line><path d="M305.48,182.42h9.35a6.88,6.88,0,0,0,6.87-6.87V153.46" style="fill:none;stroke:#263238;stroke-linecap:round;stroke-linejoin:round"></path><line x1="281.75" y1="182.42" x2="285.7" y2="182.42" style="fill:none;stroke:#263238;stroke-linecap:round;stroke-linejoin:round"></line><path d="M233,164.14v11.41a6.88,6.88,0,0,0,6.87,6.87h35.57" style="fill:none;stroke:#263238;stroke-linecap:round;stroke-linejoin:round"></path><line x1="232.98" y1="149.9" x2="232.98" y2="160.19" style="fill:none;stroke:#263238;stroke-linecap:round;stroke-linejoin:round"></line><path d="M253.66,114.59H239.85a6.88,6.88,0,0,0-6.87,6.87V144" style="fill:none;stroke:#263238;stroke-linecap:round;stroke-linejoin:round"></path><line x1="275.02" y1="114.59" x2="267.9" y2="114.59" style="fill:none;stroke:#263238;stroke-linecap:round;stroke-linejoin:round"></line><path d="M321.7,136.85V121.46a6.88,6.88,0,0,0-6.87-6.87H278.19" style="fill:none;stroke:#263238;stroke-linecap:round;stroke-linejoin:round"></path><rect x="235.98" y="117.59" width="82.71" height="61.83" rx="3.87" style="fill:#fff;stroke:#263238;stroke-linecap:round;stroke-linejoin:round"></rect><rect x="244.41" y="126.19" width="65.87" height="44.62" style="fill:#92E3A9;stroke:#263238;stroke-linecap:round;stroke-linejoin:round"></rect><polygon points="310.27 148.64 301.52 150.36 305.52 170.81 299.71 170.81 295.93 151.45 263.96 157.7 265.46 165.4 281.89 162.2 285.53 161.48 286.17 164.74 287.36 170.81 283.57 170.81 282.52 165.46 266.1 168.66 266.52 170.81 261.35 170.81 258.98 158.68 254 159.64 256.18 170.81 251.54 170.81 249.53 160.52 244.41 161.52 244.41 155.57 257.86 152.95 255.29 139.76 244.41 141.89 244.41 137.98 246.1 137.65 244.41 129.02 244.41 126.19 247.47 126.19 249.57 136.97 254.56 135.99 252.63 126.19 257.8 126.19 262.83 151.97 270.06 150.56 268.6 143.12 267.68 138.37 269.49 135.67 275.87 126.19 281.26 126.19 272.29 139.53 274.28 149.74 310.27 142.7 310.27 148.64" style="fill:#fff;stroke:#263238;stroke-linecap:round;stroke-linejoin:round"></polygon><path d="M295.15,134.93h0a6.78,6.78,0,0,0-9.59,0h0a6.78,6.78,0,0,0,0,9.58l4.79,4.79,4.8-4.79A6.78,6.78,0,0,0,295.15,134.93Zm-2.82,6.76h0a2.79,2.79,0,1,1,0-3.94h0A2.78,2.78,0,0,1,292.33,141.69Z" style="fill:#263238"></path></g><g id="freepik--screen-3--inject-187"><path d="M204.4,146.65H215a6.88,6.88,0,0,0,6.87-6.87V120.23" style="fill:none;stroke:#263238;stroke-linecap:round;stroke-linejoin:round"></path><line x1="191.74" y1="146.65" x2="198.46" y2="146.65" style="fill:none;stroke:#263238;stroke-linecap:round;stroke-linejoin:round"></line><path d="M148.58,116.27v23.51a6.88,6.88,0,0,0,6.87,6.87h32.73" style="fill:none;stroke:#263238;stroke-linecap:round;stroke-linejoin:round"></path><path d="M164.44,90.39h-9a6.88,6.88,0,0,0-6.87,6.87v13.48" style="fill:none;stroke:#263238;stroke-linecap:round;stroke-linejoin:round"></path><line x1="176.31" y1="90.39" x2="171.96" y2="90.39" style="fill:none;stroke:#263238;stroke-linecap:round;stroke-linejoin:round"></line><path d="M221.82,106.38V97.26A6.88,6.88,0,0,0,215,90.39H179.47" style="fill:none;stroke:#263238;stroke-linecap:round;stroke-linejoin:round"></path><rect x="151.58" y="93.39" width="67.24" height="50.26" rx="3.87" style="fill:#fff;stroke:#263238;stroke-linecap:round;stroke-linejoin:round"></rect><rect x="158.2" y="101.21" width="54" height="34.62" style="fill:#fff"></rect><g style="clip-path:url(#freepik--clip-path--inject-187)"><rect x="158.2" y="101.21" width="54" height="34.62" style="fill:#92E3A9;opacity:0.30000000000000004"></rect></g><rect x="158.2" y="101.21" width="54" height="34.62" style="fill:none;stroke:#263238;stroke-linecap:round;stroke-linejoin:round"></rect><rect x="158.2" y="101.21" width="54" height="4.67" style="fill:#92E3A9;stroke:#263238;stroke-linecap:round;stroke-linejoin:round"></rect><rect x="175.93" y="109.35" width="5.63" height="3.8" style="fill:#263238"></rect><rect x="182.38" y="109.35" width="5.63" height="3.8" style="fill:#263238"></rect><rect x="188.84" y="109.35" width="5.63" height="3.8" style="fill:#263238"></rect><rect x="195.29" y="109.35" width="5.63" height="3.8" style="fill:#263238"></rect><rect x="201.75" y="109.35" width="5.63" height="3.8" style="fill:#263238"></rect><rect x="163.01" y="113.87" width="5.63" height="3.8" style="fill:#263238"></rect><rect x="169.47" y="113.87" width="5.63" height="3.8" style="fill:#263238"></rect><rect x="175.93" y="113.87" width="5.63" height="3.8" style="fill:#263238"></rect><rect x="182.38" y="113.87" width="5.63" height="3.8" style="fill:#263238"></rect><rect x="188.84" y="113.87" width="5.63" height="3.8" style="fill:#263238"></rect><rect x="195.29" y="113.87" width="5.63" height="3.8" style="fill:#263238"></rect><rect x="201.75" y="113.87" width="5.63" height="3.8" style="fill:#263238"></rect><rect x="163.01" y="118.38" width="5.63" height="3.8" style="fill:#263238"></rect><rect x="169.47" y="118.38" width="5.63" height="3.8" style="fill:#263238"></rect><rect x="175.93" y="118.38" width="5.63" height="3.8" style="fill:#263238"></rect><rect x="182.38" y="118.38" width="5.63" height="3.8" style="fill:#263238"></rect><rect x="188.84" y="118.38" width="5.63" height="3.8" style="fill:#fff;stroke:#263238;stroke-linecap:round;stroke-linejoin:round"></rect><rect x="195.29" y="118.38" width="5.63" height="3.8" style="fill:#263238"></rect><rect x="201.75" y="118.38" width="5.63" height="3.8" style="fill:#263238"></rect><rect x="163.01" y="122.9" width="5.63" height="3.8" style="fill:#263238"></rect><rect x="169.47" y="122.9" width="5.63" height="3.8" style="fill:#fff;stroke:#263238;stroke-linecap:round;stroke-linejoin:round"></rect><rect x="175.93" y="122.9" width="5.63" height="3.8" style="fill:#263238"></rect><rect x="182.38" y="122.9" width="5.63" height="3.8" style="fill:#263238"></rect><rect x="188.84" y="122.9" width="5.63" height="3.8" style="fill:#263238"></rect><rect x="195.29" y="122.9" width="5.63" height="3.8" style="fill:#263238"></rect><rect x="201.75" y="122.9" width="5.63" height="3.8" style="fill:#263238"></rect><rect x="163.01" y="127.41" width="5.63" height="3.8" style="fill:#263238"></rect><rect x="169.47" y="127.41" width="5.63" height="3.8" style="fill:#263238"></rect><rect x="175.93" y="127.41" width="5.63" height="3.8" style="fill:#263238"></rect><rect x="182.38" y="127.41" width="5.63" height="3.8" style="fill:#263238"></rect></g><g id="freepik--screen-1--inject-187"><rect x="64.89" y="141.83" width="73.21" height="54.72" rx="3.87" style="fill:#fff"></rect><g style="clip-path:url(#freepik--clip-path-2--inject-187)"><path d="M138.1,181.44v11.24a3.87,3.87,0,0,1-3.87,3.87H117.64V185.93a4.49,4.49,0,0,1,4.49-4.49Z" style="fill:#92E3A9;opacity:0.4"></path></g><rect x="64.89" y="141.83" width="73.21" height="54.72" rx="3.87" style="fill:none;stroke:#263238;stroke-linecap:round;stroke-linejoin:round"></rect><rect x="75.77" y="178.74" width="51.44" height="9.33" rx="4.11" style="fill:#92E3A9;stroke:#263238;stroke-linecap:round;stroke-linejoin:round"></rect><rect x="105.2" y="181.44" width="3.93" height="3.93" style="fill:#263238"></rect><rect x="96.4" y="181.44" width="1.23" height="3.93" style="fill:#263238"></rect><rect x="94.01" y="181.44" width="1.23" height="3.93" style="fill:#263238"></rect><polygon points="119.59 181.44 119.59 183.35 116.18 181.44 116.18 185.37 119.59 183.46 119.59 185.37 120.83 185.37 120.83 181.44 119.59 181.44" style="fill:#263238"></polygon><polygon points="83.39 185.37 83.39 183.46 86.81 185.37 86.81 181.44 83.39 183.35 83.39 181.44 82.16 181.44 82.16 185.37 83.39 185.37" style="fill:#263238"></polygon><rect x="75.72" y="150.31" width="21.16" height="21.16" rx="1.25" style="fill:#92E3A9;stroke:#263238;stroke-linecap:round;stroke-linejoin:round"></rect><path d="M81.15,166.43c0,1.34,1.66,2.42,3.7,2.42s3.7-1.08,3.7-2.42S86.9,164,84.85,164,81.15,165.09,81.15,166.43Z" style="fill:#263238"></path><path d="M85.3,153.52l2.54,12.91h.71L86.69,157l-.48-2.46a4.76,4.76,0,0,1-.91-1Z" style="fill:#263238"></path><path d="M85.3,153.52l.63,3.12a3.64,3.64,0,0,0,.76.35,6,6,0,0,0,2.46.3A3,3,0,0,1,92,158.78c0-.15-.76-2.9-3.33-3.18a4.5,4.5,0,0,1-2.42-1.07A4.76,4.76,0,0,1,85.3,153.52Z" style="fill:#263238"></path><rect x="102.22" y="160.89" width="1.91" height="10.58" style="fill:#263238"></rect><rect x="106.07" y="160.89" width="1.91" height="10.58" style="fill:#263238"></rect><rect x="109.93" y="157.49" width="1.91" height="13.98" style="fill:#263238"></rect><rect x="113.79" y="155.22" width="1.91" height="16.25" style="fill:#263238"></rect><rect x="117.64" y="157.49" width="1.91" height="13.98" style="fill:#263238"></rect><rect x="121.5" y="155.22" width="1.91" height="16.25" style="fill:#263238"></rect><rect x="125.36" y="160.89" width="1.91" height="10.58" style="fill:#263238"></rect><path d="M110,199.55h24.28a6.88,6.88,0,0,0,6.87-6.87v-23" style="fill:none;stroke:#263238;stroke-linecap:round;stroke-linejoin:round"></path><line x1="101.64" y1="199.55" x2="106.78" y2="199.55" style="fill:none;stroke:#263238;stroke-linecap:round;stroke-linejoin:round"></line><path d="M61.89,171.26v21.42a6.88,6.88,0,0,0,6.87,6.87h23" style="fill:none;stroke:#263238;stroke-linecap:round;stroke-linejoin:round"></path><path d="M79.09,138.83H68.76a6.88,6.88,0,0,0-6.87,6.87V163" style="fill:none;stroke:#263238;stroke-linecap:round;stroke-linejoin:round"></path><line x1="87.4" y1="138.83" x2="82.65" y2="138.83" style="fill:none;stroke:#263238;stroke-linecap:round;stroke-linejoin:round"></line><path d="M141.1,152.27V145.7a6.88,6.88,0,0,0-6.87-6.87H93.73" style="fill:none;stroke:#263238;stroke-linecap:round;stroke-linejoin:round"></path><line x1="141.1" y1="168.1" x2="141.1" y2="163.75" style="fill:none;stroke:#263238;stroke-linecap:round;stroke-linejoin:round"></line></g><g id="freepik--screen-2--inject-187"><path d="M139.62,181.4h-11a6.88,6.88,0,0,0-6.87,6.87v11.48" style="fill:none;stroke:#263238;stroke-miterlimit:10"></path><line x1="159" y1="181.4" x2="151.48" y2="181.4" style="fill:none;stroke:#263238;stroke-miterlimit:10"></line><path d="M228.87,199.75V188.27A6.88,6.88,0,0,0,222,181.4H162.16" style="fill:none;stroke:#263238;stroke-miterlimit:10"></path><path d="M193.42,263H222a6.88,6.88,0,0,0,6.87-6.87v-26.3" style="fill:none;stroke:#263238;stroke-miterlimit:10"></path><line x1="168.49" y1="262.98" x2="177.99" y2="262.98" style="fill:none;stroke:#263238;stroke-miterlimit:10"></line><path d="M121.76,215.18v40.93a6.88,6.88,0,0,0,6.87,6.87h34.72" style="fill:none;stroke:#263238;stroke-miterlimit:10"></path><line x1="228.87" y1="222.69" x2="228.87" y2="215.18" style="fill:none;stroke:#263238;stroke-miterlimit:10"></line><rect x="124.76" y="184.4" width="101.11" height="75.58" rx="3.87" style="fill:#fff;stroke:#263238;stroke-linecap:round;stroke-linejoin:round"></rect><circle cx="199.6" cy="214.2" r="13.32" transform="translate(-54.53 359.59) rotate(-76.79)" style="fill:#92E3A9;stroke:#263238;stroke-linecap:round;stroke-linejoin:round"></circle><path d="M206.11,207l-.36-.36a1,1,0,0,0-1.36,0l-2.87,2.87a1,1,0,0,0,0,1.36l1,1a1.08,1.08,0,0,1,0,1.54l-3.72,3.72a1.09,1.09,0,0,1-1.53,0l-1-1a1,1,0,0,0-1.36,0L192,219a1,1,0,0,0,0,1.37l.37.36a4.61,4.61,0,0,0,6.52,0l7.2-7.21A4.61,4.61,0,0,0,206.11,207Z" style="fill:#263238"></path><rect x="135.79" y="197.65" width="37.11" height="37.11" rx="1.64" style="fill:#92E3A9;stroke:#263238;stroke-linecap:round;stroke-linejoin:round"></rect><path d="M166.19,204.77s1.91-1.69,3.39,3.86.49,11.75-2.29,17.86,3.32,5.69,3.42,8.27H139.78s-4.08-4.88,0-8.27,3.77-2.27,2.84-6.29-2.37-14.62,7.07-19.42C164.08,193.48,166.19,204.77,166.19,204.77Z" style="fill:#263238"></path><path d="M160.23,227.22s-1.5,4.13-.67,7.13H147.68a11.66,11.66,0,0,0,1.1-8.4C147.68,220.92,160.23,227.22,160.23,227.22Z" style="fill:#fff;stroke:#263238;stroke-linecap:round;stroke-linejoin:round;stroke-width:0.5px"></path><path d="M146.61,214.3s-.84-1.3-1.6-1-.76,3.79-.7,4.71,1.91,3,2.69,2.41" style="fill:#fff;stroke:#263238;stroke-linecap:round;stroke-linejoin:round;stroke-width:0.5px"></path><path d="M165.24,217s1.19-1,1.84-.53-.37,3.85-.69,4.71-2.69,2.3-3.26,1.54" style="fill:#fff;stroke:#263238;stroke-linecap:round;stroke-linejoin:round;stroke-width:0.5px"></path><path d="M153.74,230.56c-3.12-.45-6.22-5.74-6.59-7.23-.42-1.66-1.33-9.83.45-14.31,2-5,6.19-7.15,10.27-6.55s7.49,3.84,7.95,9.24c.42,4.8-2.81,12.36-3.69,13.83C161.35,226.85,157,231.05,153.74,230.56Z" style="fill:#fff;stroke:#263238;stroke-linecap:round;stroke-linejoin:round;stroke-width:0.5px"></path><path d="M160.8,217.46c-.08.58-.41,1-.73,1s-.5-.55-.42-1.13.41-1,.73-1S160.89,216.88,160.8,217.46Z" style="fill:#263238"></path><path d="M150.62,216c-.08.58.11,1.08.43,1.13s.64-.38.73-1-.11-1.09-.43-1.13S150.71,215.38,150.62,216Z" style="fill:#263238"></path><path d="M154.9,217.18c.09,2-1.62,2.33-1.3,3a1.91,1.91,0,0,0,1.1.91" style="fill:#fff;stroke:#263238;stroke-linecap:round;stroke-linejoin:round;stroke-width:0.5px"></path><path d="M151.41,222.74a12.45,12.45,0,0,0,6.6,1" style="fill:none;stroke:#263238;stroke-linecap:round;stroke-linejoin:round;stroke-width:0.5px"></path><path d="M151.87,222.93s0,3,2,3.5,3.67-2.65,3.67-2.65" style="fill:none;stroke:#263238;stroke-linecap:round;stroke-linejoin:round;stroke-width:0.5px"></path><path d="M148.78,213.33a4.82,4.82,0,0,1,4.74-1.6" style="fill:none;stroke:#263238;stroke-linecap:round;stroke-linejoin:round;stroke-width:0.5px"></path><path d="M163.05,215.44a4.81,4.81,0,0,0-4.08-2.91" style="fill:none;stroke:#263238;stroke-linecap:round;stroke-linejoin:round;stroke-width:0.5px"></path><path d="M160.93,206.78a10.29,10.29,0,0,1-6.21,3.31c-5.33.93-8.27,5.53-8.2,7.46a16.38,16.38,0,0,1-.91-8.48c1.06-7.07,7.66-9.1,12.45-8.6s7.11,5.3,7.11,5.3,3.61,2.8,3.08,6.34c-.5,3.38-1.32,3.48-1.75,4.24-.6,1.06.18,1.5-1.92,3.25,0,0,.83-4.73-.2-8.25A7.08,7.08,0,0,0,160.93,206.78Z" style="fill:#263238"></path><path d="M162.25,205.58s-1.88,7.17-12.56,8.3c0,0,7.2-1.31,10.52-7.88Z" style="fill:#263238"></path><rect x="135.79" y="242.51" width="37.11" height="3.41" style="fill:#263238"></rect><rect x="184.36" y="240.81" width="8.68" height="5.41" style="fill:#92E3A9;stroke:#263238;stroke-linecap:round;stroke-linejoin:round"></rect><polygon points="193.03 242.62 195.82 241.54 195.82 245.49 193.03 244.33 193.03 242.62" style="fill:#92E3A9;stroke:#263238;stroke-linecap:round;stroke-linejoin:round"></polygon><polygon points="214.85 245.16 211.45 245.16 210.13 246.73 209.05 245.16 205.41 245.16 205.41 240.3 214.85 240.3 214.85 245.16" style="fill:#92E3A9;stroke:#263238;stroke-linecap:round;stroke-linejoin:round"></polygon></g><g id="freepik--Character--inject-187"><path d="M151.09,359.41a59.74,59.74,0,0,0-29.2-5.77l-3.45-9.39L113,329.37c1-8.44,19.32-34.46,19.32-34.46l2.25,7.74Z" style="fill:#757575"></path><g style="clip-path:url(#freepik--clip-path-3--inject-187)"><path d="M151.09,359.41a59.74,59.74,0,0,0-29.2-5.77l-3.45-9.39,3.8.74-4.65-10.63,10.9-6.56s-1.14-16.25,6.06-25.15Z" style="fill-opacity:0.7000000000000001;opacity:0.30000000000000004"></path></g><path d="M151.09,359.41a59.74,59.74,0,0,0-29.2-5.77l-3.45-9.39L113,329.37c1-8.44,19.32-34.46,19.32-34.46l2.25,7.74Z" style="fill:none;stroke:#263238;stroke-linecap:round;stroke-linejoin:round"></path><path d="M127.19,359.41c-.63,1.35-11.31,23.11-11.31,23.11L81.46,324.36s4.73-.41,10.4-.79c7.25-.48,16-.91,18.48-.39,1.6.34,4.4,5.16,7.25,11.18h0c1.59,3.36,3.2,7.09,4.64,10.63C125.23,352.33,127.46,358.83,127.19,359.41Z" style="fill:#757575"></path><g style="clip-path:url(#freepik--clip-path-4--inject-187)"><path d="M127.19,359.41c-.63,1.35-11.31,23.11-11.31,23.11L81.46,324.36s4.73-.41,10.4-.79l17.3,18.86L122.24,345C125.23,352.33,127.46,358.83,127.19,359.41Z" style="fill-opacity:0.7000000000000001;opacity:0.30000000000000004"></path></g><path d="M127.19,359.41c-.63,1.35-11.31,23.11-11.31,23.11L81.46,324.36s4.73-.41,10.4-.79c7.25-.48,16-.91,18.48-.39,1.6.34,4.4,5.16,7.25,11.18h0c1.59,3.36,3.2,7.09,4.64,10.63C125.23,352.33,127.46,358.83,127.19,359.41Z" style="fill:none;stroke:#263238;stroke-linecap:round;stroke-linejoin:round"></path><path d="M129.73,406.67c-30.19-26-53.42-60.58-67.87-97.79-1.3-3.35-2.54-6.72-3.69-10.1q-2-5.86-3.71-11.79c7.46-3.21,18.13-7.05,27-7.26,3.14-.07,2.79,13.78,2,24.64-.12,1.69-.25,3.3-.37,4.78-.4,4.65-.78,8-.78,8s39.2,59.07,44.88,71.33C129.24,392.83,129.82,399.68,129.73,406.67Z" style="fill:#757575"></path><g style="clip-path:url(#freepik--clip-path-5--inject-187)"><path d="M129.73,406.67c-30.19-26-53.42-60.58-67.87-97.79-1.3-3.35-2.54-6.72-3.69-10.1,6.65-2,15.13-4,18.94-2.67,2.49.86,4.65,4.28,6.38,8.26-.12,1.69-.25,3.3-.37,4.78-.4,4.65-.78,8-.78,8s39.2,59.07,44.88,71.33C129.24,392.83,129.82,399.68,129.73,406.67Z" style="fill-opacity:0.7000000000000001;opacity:0.30000000000000004"></path></g><path d="M129.73,406.67c-30.19-26-53.42-60.58-67.87-97.79-1.3-3.35-2.54-6.72-3.69-10.1q-2-5.86-3.71-11.79c7.46-3.21,18.13-7.05,27-7.26,3.14-.07,2.79,13.78,2,24.64-.12,1.69-.25,3.3-.37,4.78-.4,4.65-.78,8-.78,8s39.2,59.07,44.88,71.33C129.24,392.83,129.82,399.68,129.73,406.67Z" style="fill:none;stroke:#263238;stroke-linecap:round;stroke-linejoin:round"></path><path d="M117.6,334.36c1.59,3.36,3.2,7.09,4.64,10.63l-4.65-10.63Z" style="fill-opacity:0.7000000000000001;opacity:0.30000000000000004"></path><path d="M267.79,434.34v20.4a226.3,226.3,0,0,1-24.6-.7c-22.95-1.91-45.14-7.31-64.78-16.12a188.45,188.45,0,0,1-18.26-9.42,202.68,202.68,0,0,1-25.09-17.37s18.8-3.29,27.7-2.11S267.79,434.34,267.79,434.34Z" style="fill:#92E3A9"></path><g style="clip-path:url(#freepik--clip-path-6--inject-187)"><path d="M267.79,434.34v20.4a226.3,226.3,0,0,1-24.6-.7c-22.95-1.91-45.14-7.31-64.78-16.12a188.45,188.45,0,0,1-18.26-9.42,202.68,202.68,0,0,1-25.09-17.37s18.8-3.29,27.7-2.11S267.79,434.34,267.79,434.34Z" style="fill-opacity:0.7000000000000001;opacity:0.30000000000000004"></path></g><path d="M267.79,434.34v20.4a226.3,226.3,0,0,1-24.6-.7c-22.95-1.91-45.14-7.31-64.78-16.12a188.45,188.45,0,0,1-18.26-9.42,202.68,202.68,0,0,1-25.09-17.37s18.8-3.29,27.7-2.11S267.79,434.34,267.79,434.34Z" style="fill:none;stroke:#263238;stroke-linecap:round;stroke-linejoin:round"></path><path d="M427.85,365.59a193.38,193.38,0,0,1-14.71,22.85,145.16,145.16,0,0,1-29.28,28.93c-17.72,13.22-38.44,22.9-60.44,29.09l-.22.06a219.06,219.06,0,0,1-27.08,5.77l20.93-37.11,66.33-117.57s7.16-17.62,17-23.31a13.65,13.65,0,0,1,3-1.32,37,37,0,0,1,4.54-1h0c8.78-1.39,20.62-.86,26.83,0a12.35,12.35,0,0,1,4.12,1C440.22,274.12,445.85,306,427.85,365.59Z" style="fill:#757575"></path><g style="clip-path:url(#freepik--clip-path-7--inject-187)"><path d="M427.85,365.59a193.38,193.38,0,0,1-14.71,22.85,145.16,145.16,0,0,1-29.28,28.93c-17.72,13.22-38.44,22.9-60.44,29.09-3.29-3-5.5-5.38-5.39-6.15.16-1.14-.33-12.3-1-25.13l66.33-117.57s7.16-17.62,17-23.31c6.83,7.71,11.22,21.86,8.27,41-4,25.66.93,33.5.93,33.5s8.34-8.59,9-33.93,2.29-31.47,11.78-34.8c0,0-23.21,1.24-22.48-8.1h0c8.78-1.39,20.62-.86,26.83,0a12.35,12.35,0,0,1,4.12,1C440.22,274.12,445.85,306,427.85,365.59Z" style="fill-opacity:0.7000000000000001;opacity:0.30000000000000004"></path></g><path d="M427.85,365.59a193.38,193.38,0,0,1-14.71,22.85,145.16,145.16,0,0,1-29.28,28.93c-17.72,13.22-38.44,22.9-60.44,29.09l-.22.06a219.06,219.06,0,0,1-27.08,5.77l20.93-37.11,66.33-117.57s7.16-17.62,17-23.31a13.65,13.65,0,0,1,3-1.32,37,37,0,0,1,4.54-1h0c8.78-1.39,20.62-.86,26.83,0a12.35,12.35,0,0,1,4.12,1C440.22,274.12,445.85,306,427.85,365.59Z" style="fill:none;stroke:#263238;stroke-linecap:round;stroke-linejoin:round"></path><path d="M434.74,272c-12.14,10.83-26.84,0-26.84,0s-1.11-1.7-2.67-4.27c-3.59-5.94-9.53-16.5-9.53-21.29,0-6.86,12.56-58.25,21.05-58.67s18-3.28,20.36,0a7.24,7.24,0,0,1,.67,2.1C440.56,202.18,445.87,262.05,434.74,272Z" style="fill:#757575"></path><g style="clip-path:url(#freepik--clip-path-8--inject-187)"><path d="M434.74,272c-12.14,10.83-26.84,0-26.84,0s-1.11-1.7-2.67-4.27c12.37,0,7.35-7.26,7.35-7.26-2.77-4.95,3.17-45.28,11.19-57.48a42.21,42.21,0,0,1,14-13.12C440.56,202.18,445.87,262.05,434.74,272Z" style="fill-opacity:0.7000000000000001;opacity:0.30000000000000004"></path></g><path d="M434.74,272c-12.14,10.83-26.84,0-26.84,0s-1.11-1.7-2.67-4.27c-3.59-5.94-9.53-16.5-9.53-21.29,0-6.86,12.56-58.25,21.05-58.67s18-3.28,20.36,0a7.24,7.24,0,0,1,.67,2.1C440.56,202.18,445.87,262.05,434.74,272Z" style="fill:none;stroke:#263238;stroke-linecap:round;stroke-linejoin:round"></path><path d="M176,294.91l-25-7.72s-22.21-19.57-23.77-21.2S113,269,113,272.47s4.81,12.78,4.81,12.78l9.4-5.52s3.2,17.84,6.89,21.64,15.82,2.83,15.82,2.83l28.48,12.92Z" style="fill:#fff;stroke:#263238;stroke-linecap:round;stroke-linejoin:round"></path><path d="M143.24,304.2c-6.25-1.13-10.05-2.3-10.94-9.29s-14.64-20.59-9.1-26.13a2.18,2.18,0,0,1,2.37,1.19,57,57,0,0,0,7,7.83c2.11,1.86,2.9,5.82,5.47,7.6" style="fill:none;stroke:#263238;stroke-linecap:round;stroke-linejoin:round"></path><path d="M368.27,279.73s-59.6,4.91-72.79,7.43-51.69,13.09-51.69,13.09S190.52,293.47,182.6,290a14.24,14.24,0,0,0-13.71.79l-10-2.77s-3.17,16.18,0,24.49l8.44,2.82s-.53,9.91,24.26,19,61.72,12.82,78.59,12.82c6.55,0,33.6-2.65,33.6-2.65l3.71,14.88Z" style="fill:#263238"></path><path d="M300,290.78s-4.49,24.48-2.11,48.22" style="fill:none;stroke:#fff;stroke-linecap:round;stroke-linejoin:round"></path><path d="M282.56,313.45s2.9,16.32,10.55,21.59" style="fill:none;stroke:#fff;stroke-linecap:round;stroke-linejoin:round"></path><path d="M243.53,301.81s-2.9,4.23,0,10.69,9.23,10.68,9.23,10.68" style="fill:none;stroke:#fff;stroke-linecap:round;stroke-linejoin:round"></path><path d="M168.36,292.75A36.33,36.33,0,0,0,167.31,310" style="fill:none;stroke:#fff;stroke-linecap:round;stroke-linejoin:round"></path><path d="M310.36,306.3s-9.93,18.19-13.2,36.13" style="fill:none;stroke:#fff;stroke-linecap:round;stroke-linejoin:round"></path><path d="M348.2,280.09s-7.68,2.85-12.85,8.43S328,304.2,328,304.2l24.33-16Z" style="fill:#263238"></path><path d="M340.43,301.73c.19-.48,7.58-18.44,5.19-20.12-1.38-1-1.45-2.69-2.7-4.77s-3.91-4.73-10.62-7.22l-1.22-.44,10.75-36.05,32.74,5.1S371,263,379.71,276.94Z" style="fill:#fff;stroke:#263238;stroke-linecap:round;stroke-linejoin:round"></path><path d="M383.86,417.37c-17.78,13.26-38.58,23-60.66,29.15-25.84,7.26-53.83-6.21-53.83-6.21l-6.5-8.52c7.4-6,11.51-5.73,11.51-5.73s21.1-138.9,105.33-149.12c0,0,19.56,20.11,21.55,59.73C402.8,367.33,390.54,401.34,383.86,417.37Z" style="fill:#263238"></path><path d="M340.11,290.22s-6.73,3.44-7.72,14c0,0-29.74,42-38.59,76.17v5.9L300,378.9s19.91-55,35.15-74.7l10.52-8.83Z" style="fill:#92E3A9;stroke:#263238;stroke-linecap:round;stroke-linejoin:round"></path><path d="M379.71,272.27c-10.29-1.78-39.21,14.46-39.21,14.46l-2.44,21.82,47.62-25.33S382.21,272.71,379.71,272.27Z" style="fill:#263238"></path><path d="M338.64,303.4l-.58,5.15s19.38-22.18,45.32-27.29" style="fill:none;stroke:#fff;stroke-linecap:round;stroke-linejoin:round"></path><path d="M332.32,292.79s-3.61,6.52-4.35,11.41c0,0,5.54-9.33,10.09-14" style="fill:none;stroke:#fff;stroke-linecap:round;stroke-linejoin:round"></path><path d="M165.34,380l-38.5-104.46a4.67,4.67,0,1,0-8.76,3.23l38.51,104.46a4.66,4.66,0,0,0,8.75-3.23Z" style="fill:#999;stroke:#263238;stroke-linecap:round;stroke-linejoin:round"></path><path d="M368.35,307c-13.84-.42-79.83,64.34-79.83,64.34s-64.68-2.74-72.63-2.41a31.62,31.62,0,0,0-12.85,3l-10.81-.63s-.87,18.34,3.11,24.91l7.11.41s11.8,12.07,21.3,14.62c14.7,3.94,64.49,4.9,76.93,3.77s82.7-39.11,90.8-61.15" style="fill:#263238"></path><path d="M198,393.14l-7.83-.95c-4,4.94-15,3-15,3,.07,4.25-12.77,2.85-14.71,1.11s-5.36-9.39-5.92-10.79,1.67-11.2,1.67-11.2-16.62,2.75-22,2.62c-4.72-.12-4.33-3.92-4.33-3.92s15.26-2.06,30.85-6c2.2-.55,22.77,6,22.77,6l11.21,1.45S198.4,381.25,198,393.14Z" style="fill:#fff;stroke:#263238;stroke-linecap:round;stroke-linejoin:round"></path><path d="M156.46,389.88s.51-4.77,4.81-14" style="fill:none;stroke:#263238;stroke-linecap:round;stroke-linejoin:round"></path><path d="M156.13,374.3s1.39-2.83.78-4" style="fill:none;stroke:#263238;stroke-linecap:round;stroke-linejoin:round"></path><path d="M160.38,396.29c-.95-2.55,4.1-13.08,4.87-14.39" style="fill:none;stroke:#263238;stroke-linecap:round;stroke-linejoin:round"></path><path d="M175.09,395.18s-4.88-2.79-5.61-8" style="fill:none;stroke:#263238;stroke-linecap:round;stroke-linejoin:round"></path><path d="M170.76,390.8a9,9,0,0,1-4.37,3.59" style="fill:none;stroke:#263238;stroke-linecap:round;stroke-linejoin:round"></path><path d="M204.89,375.9s3.33,12.18,2,17.91" style="fill:none;stroke:#fff;stroke-linecap:round;stroke-linejoin:round"></path><path d="M291.82,372.6s22.62-6.59,31.54-3.68" style="fill:none;stroke:#fff;stroke-linecap:round;stroke-linejoin:round"></path><path d="M333.73,351.82s39,7.36,49.65-5.3" style="fill:none;stroke:#fff;stroke-linecap:round;stroke-linejoin:round"></path><path d="M314.87,346.52s8.6-7.84,18.14-8.27c0,0,27.78-35.19,46.7-28.26" style="fill:none;stroke:#fff;stroke-linecap:round;stroke-linejoin:round"></path><path d="M355.4,310S338,324.32,337.3,333.24" style="fill:none;stroke:#fff;stroke-linecap:round;stroke-linejoin:round"></path><path d="M385.68,367.13s-16.86,19.44-34.14,22.75c0,0-36.07,27.84-57.74,25.47" style="fill:none;stroke:#fff;stroke-linecap:round;stroke-linejoin:round"></path><path d="M345.57,394.19S362,399,372.23,390.74" style="fill:none;stroke:#fff;stroke-linecap:round;stroke-linejoin:round"></path><path d="M337.3,402.69c.91,2.38,13.1,14,23.42,16.49" style="fill:none;stroke:#fff;stroke-linecap:round;stroke-linejoin:round"></path><path d="M148.74,414.7l-4.63,2.64-.54.31c-1.65-1.2-3.29-2.42-4.9-3.67l-14.79-34.62-5.22-12.23h11.47a169.52,169.52,0,0,1,12.34,24.76A95.75,95.75,0,0,1,148.74,414.7Z" style="fill:#999"></path><g style="clip-path:url(#freepik--clip-path-9--inject-187)"><path d="M144.11,417.34c.09.29.17.59.25.88l-.79-.57c-1.65-1.2-3.29-2.42-4.9-3.67l-14.79-34.62h4.61l.35.29c1.49,1.21,7.58,6.24,13.63,12.24a95.75,95.75,0,0,1,6.27,22.81Z" style="fill-opacity:0.7000000000000001;opacity:0.30000000000000004"></path></g><path d="M148.74,414.7l-4.63,2.64-.54.31c-1.65-1.2-3.29-2.42-4.9-3.67l-14.79-34.62-5.22-12.23h11.47a169.52,169.52,0,0,1,12.34,24.76A95.75,95.75,0,0,1,148.74,414.7Z" style="fill:none;stroke:#263238;stroke-linecap:round;stroke-linejoin:round"></path><path d="M144.36,418.22l-.79-.57c-1.65-1.2-3.29-2.42-4.9-3.67-3-2.35-6-4.78-8.94-7.31C108,387.93,89.86,364.76,76,339.37a261.3,261.3,0,0,1-14.15-30.49l21.26.27,3.89.05s18.81,27.15,35.35,57.93c2.22,4.12,4.39,8.32,6.48,12.52,6.48,13.05,12.08,26.18,15.27,37.69C144.2,417.63,144.28,417.93,144.36,418.22Z" style="fill:#999"></path><g style="clip-path:url(#freepik--clip-path-10--inject-187)"><path d="M144.36,418.22q-7.56-5.43-14.63-11.55C108,387.93,89.86,364.76,76,339.37c8.47.23,18.71.46,21.61.3,5.2-.27,26.26,39.69,26.26,39.69h4.61l.35.29C135.49,393,141.21,406.5,144.36,418.22Z" style="fill-opacity:0.7000000000000001;opacity:0.30000000000000004"></path></g><path d="M144.36,418.22l-.79-.57c-1.65-1.2-3.29-2.42-4.9-3.67-3-2.35-6-4.78-8.94-7.31C108,387.93,89.86,364.76,76,339.37a261.3,261.3,0,0,1-14.15-30.49l21.26.27,3.89.05s18.81,27.15,35.35,57.93c2.22,4.12,4.39,8.32,6.48,12.52,6.48,13.05,12.08,26.18,15.27,37.69C144.2,417.63,144.28,417.93,144.36,418.22Z" style="fill:none;stroke:#263238;stroke-linecap:round;stroke-linejoin:round"></path><path d="M437.11,346.89c-2.86,6.47-5.95,12.73-9.26,18.7a193.38,193.38,0,0,1-14.71,22.85,145.16,145.16,0,0,1-29.28,28.93c-17.78,13.26-38.58,23-60.66,29.15a219.06,219.06,0,0,1-27.08,5.77A231.34,231.34,0,0,1,243.19,454c-22.95-1.91-45.14-7.31-64.78-16.12a188.45,188.45,0,0,1-18.26-9.42,202.68,202.68,0,0,1-25.09-17.37C93.18,377.3,63.8,327.28,51.43,275.55q-2.45-10.24-4-20.67a202.78,202.78,0,0,1-2.1-35.57" style="fill:none;stroke:#263238;stroke-linecap:round;stroke-linejoin:round"></path><path d="M323.2,446.52A223.93,223.93,0,0,1,285,453.69a230.6,230.6,0,0,1-41.78.35c-22.95-1.91-45.14-7.31-64.78-16.12a188.45,188.45,0,0,1-18.26-9.42,25.71,25.71,0,0,1,6.61-2.44c5.2-1,25.26,1,49.58,4.11,13.94,1.78,29.28,3.93,44,6.12C287.47,440.31,312.56,444.43,323.2,446.52Z" style="fill:#92E3A9"></path><g style="clip-path:url(#freepik--clip-path-11--inject-187)"><path d="M323.2,446.52A223.93,223.93,0,0,1,285,453.69a36.2,36.2,0,0,0-11.24-8.27c-11.48-5.15-57.39-15.25-57.39-15.25,13.94,1.78,29.28,3.93,44,6.12C287.47,440.31,312.56,444.43,323.2,446.52Z" style="fill-opacity:0.7000000000000001;opacity:0.30000000000000004"></path></g><path d="M323.2,446.52A223.93,223.93,0,0,1,285,453.69a230.6,230.6,0,0,1-41.78.35c-22.95-1.91-45.14-7.31-64.78-16.12a188.45,188.45,0,0,1-18.26-9.42,25.71,25.71,0,0,1,6.61-2.44c5.2-1,25.26,1,49.58,4.11,13.94,1.78,29.28,3.93,44,6.12C287.47,440.31,312.56,444.43,323.2,446.52Z" style="fill:none;stroke:#263238;stroke-linecap:round;stroke-linejoin:round"></path><path d="M347.29,265.42s-.12,7.16-4.37,11.42c-1.31-2.17-3.91-4.73-10.62-7.22.36-1.3.71-2.18.71-2.18Z" style="fill:#263238"></path><path d="M377.64,246.92a32.22,32.22,0,0,0,2-14c-2.41-33.83-10.41-41.71-23.59-39.51-49.21,8.2-34.62,33.2-36.51,41.48s-8.86,8.92-7.91,12.7c.38,1.49,6.18,1.64,6.18,1.64l.35,7.81,2.21.53s1.78,17.77,6.31,19.83c5.73,2.61,22.86-7.73,22.83-14.15" style="fill:#fff;stroke:#263238;stroke-linecap:round;stroke-linejoin:round"></path><path d="M323.36,222.73s6.91-1.41,10.37,4.12" style="fill:none;stroke:#263238;stroke-linecap:round;stroke-linejoin:round"></path><path d="M326.24,233c.25,1.64,1.15,2.86,2,2.73s1.34-1.57,1.08-3.2-1.15-2.86-2-2.73S326,231.33,326.24,233Z" style="fill:#263238"></path><path d="M320.35,257.55s6.76,0,10.73-1.55" style="fill:none;stroke:#263238;stroke-linecap:round;stroke-linejoin:round"></path><path d="M352.3,241l-3.76,2.14s-.16-9.3-4-13.7-6.18-14.91-4-18.09c0,0-11.07-4.19-20,1.35,0,0-11-5.29-7.81-22a14.39,14.39,0,0,0,15.06,1.17c14.19-7,31.51-6.5,38.1.41,0,0,17.49-3.59,21.14,24.35,2.27,17.35-6.53,33.18-12,38.76,0,0-3.28-1.34-4.53-7.79-1.2-6.11.24-15.91-7.87-17.65C346.85,226.53,352.3,241,352.3,241Z" style="fill:#263238"></path><path d="M354.06,230.08s5.12-7.88,9.67-8.07,7.61,15.69,3.44,21.74-8.28,8.19-10.17,6.37a5.38,5.38,0,0,1-1.35-4.56" style="fill:#fff;stroke:#263238;stroke-linecap:round;stroke-linejoin:round"></path><path d="M329.59,256.48s-2.85,4-5.43,4-2.71-2-2.71-2" style="fill:none;stroke:#263238;stroke-linecap:round;stroke-linejoin:round"></path><path d="M316.25,195.59s2.95,6.93,14.83,3.37,22.09-8.11,29.64-5" style="fill:none;stroke:#fff;stroke-linecap:round;stroke-linejoin:round;opacity:0.4"></path><path d="M356.8,196.46s-6.92,1.53-10.57,6.95-.31,16,4.44,19.16" style="fill:none;stroke:#fff;stroke-linecap:round;stroke-linejoin:round;opacity:0.4"></path><path d="M361.6,199s-2.62,11.13,3.71,16.27,11.67,10.06,11.87,16.28" style="fill:none;stroke:#fff;stroke-linecap:round;stroke-linejoin:round;opacity:0.4"></path><path d="M367.09,196.46s14.64.94,18.59,21.29" style="fill:none;stroke:#fff;stroke-linecap:round;stroke-linejoin:round;opacity:0.4"></path></g></svg>