<svg xmlns="http://www.w3.org/2000/svg" xmlns:xlink="http://www.w3.org/1999/xlink" viewBox="0 0 500 500"><defs><clipPath id="freepik--clip-path--inject-215"><rect x="105.01" y="118.71" width="137.67" height="299.38" style="fill:#263238;stroke:#263238;stroke-linecap:round;stroke-linejoin:round"></rect></clipPath><clipPath id="freepik--clip-path-2--inject-215"><rect x="285.09" y="133.36" width="140.74" height="141.47" style="fill:#fff;stroke:#263238;stroke-linecap:round;stroke-linejoin:round"></rect></clipPath><clipPath id="freepik--clip-path-3--inject-215"><rect x="314.08" y="267.05" width="140.74" height="95.57" style="fill:#fff;stroke:#263238;stroke-linecap:round;stroke-linejoin:round"></rect></clipPath><clipPath id="freepik--clip-path-4--inject-215"><path d="M216.11,255.14s-1.86,25.73-.31,47.7,1.85,44,5.26,58.19,6.81,54.53,6.81,57-3.1,3.09-2.17,5.57a23.79,23.79,0,0,0,2.17,4.33,69.4,69.4,0,0,0,7.74,1.86,51.37,51.37,0,0,0,7.42.62l-.31,2.47a44.57,44.57,0,0,1,10.53,1.86,36,36,0,0,0,8.35,1.86s5-5.89,5-9.29-.62-9.28,0-13.93,1.54-47.41,1.54-59.17,1.24-58.49,1.55-64.68,1.24-21.41.93-27.91-15.17,1.55-33.12-3.71S216.11,255.14,216.11,255.14Z" style="fill:#263238;stroke:#263238;stroke-linecap:round;stroke-linejoin:round"></path></clipPath></defs><g id="freepik--background-simple--inject-215"><path d="M78.69,204.2s-16,68.58,28.66,128.34S230,415.51,292.62,436s121.31-3.17,143.31-55.8-22.44-81-32.24-149.76-2-88.55-47.7-140.9-139.55-51.1-203,2.64S78.69,204.2,78.69,204.2Z" style="fill:#92E3A9"></path><path d="M78.69,204.2s-16,68.58,28.66,128.34S230,415.51,292.62,436s121.31-3.17,143.31-55.8-22.44-81-32.24-149.76-2-88.55-47.7-140.9-139.55-51.1-203,2.64S78.69,204.2,78.69,204.2Z" style="fill:#fff;opacity:0.7000000000000001"></path></g><g id="freepik--Plants--inject-215"><path d="M312,309.06c4.54,6.72,10.85,15.47,14.23,22.49-1.29-4.63-2.54-9-3.69-12.95-1.72-3.39-6.34-12-11.67-17.66-6.78-7.25-9.67-11.91-6-12.31,2.53-.28,9.93,9.57,14.56,19.35-1-3.34-1.8-5.9-2.29-7.39-.21-.68-.43-1.42-.64-2.21a195.09,195.09,0,0,1-13.08-21c-6.84-12.79-9.05-24.86-4.49-19.67,4.21,4.78,11.52,28.54,17.33,39.72-.49-1.92-1-4-1.37-6.15-.82-2-1.9-4.1-2.52-6-.94-2.88-1.78-5.8-2.45-8.76a60.57,60.57,0,0,1-1.67-14.12c.07-5.64,1.24-11.07,4.37-15.78.79-1.19,5.6-8.37,7.08-4.67a3.85,3.85,0,0,1,.1,1.88c-.7,6.12-2.92,11.74-4.29,17.7-2.05,8.91-.69,23.87,0,30.23l1,3.7c-.95-11.08,3.85-24.22,8.3-26.52,5.51-2.84.11,8.32-4.14,18.05-2.75,6.3-2.95,11.08-2.76,13.67.87,3.2,1.87,6.79,2.9,10.44.2.5.4,1,.58,1.48a30.8,30.8,0,0,1-.57-7.21c.4-6.37,7.61-19.11,12.4-17.31s-3.32,8.52-7.66,16.33a23.62,23.62,0,0,0-2.5,14c.05.29.1.58.13.86.5,1.65,1,3.26,1.47,4.78,1.13,3.55,2.17,6.9,3.17,10.16a50.9,50.9,0,0,1-1.6-14.5c.6-9.33,6.07-18.14,10.61-19.34s-4.09,14-7,22.56a30.45,30.45,0,0,0-.77,15.42c1.39,4.63,2.71,9.19,4.06,14a117.47,117.47,0,0,1,.4-19c.88-10.38,7.06-17,11.3-16.73s-.18,6.16-6.32,18.76a42.2,42.2,0,0,0-4.17,21.34q.83,3,1.69,6.31c.65,2.49,1.19,5.19,1.64,8,.61-2.47,1.53-6.09,2.6-10.08A89.84,89.84,0,0,0,343,347.56c.58-5.29,2-11.89,7.16-14.65,1.76-.93,3.43-.58,4.36,1.18a5.79,5.79,0,0,1,.31,3.59A39.08,39.08,0,0,1,351.29,348a12,12,0,0,1,1.35,6.36c0,.83-.08,1.65-.13,2.46.45-.84.89-1.61,1.3-2.3a14.93,14.93,0,0,1,2.73-3.36,42,42,0,0,1-.4-5.92c0-2.58,3-9.14,5.73-4.27,1.09,1.94.88,5.76,1,8.3.75.7,1,2.13.34,4.39.43,5.86.5,11.87-.91,17.57l.93-1.64A128.5,128.5,0,0,0,365.57,349c.34-11.41-1.48-20.79,1.63-24.31s4.85,8.87,3.54,22.36a56,56,0,0,1-4.86,17.81c3.05-5.49,6.07-11.08,8.92-16.47,1.22-2.89,4.09-10.66,3.37-18.55-.9-10-1.56-18.09,2.22-23.69s4.57-2,2.71,9.7c-1.27,8-2.62,18.72-5,26.15,2.22-4.26,4.29-8.31,6.15-12,1.05-3.66,3.52-13.07,3.52-20.88,0-9.92,1.06-15.3,4-13.11,2,1.52.72,13.77-2.57,24.08,1.54-3.13,2.7-5.54,3.37-7,.3-.65.65-1.34,1-2.06a194.58,194.58,0,0,1,4.75-24.25c3.73-14,10.35-24.35,10.14-17.44-.19,6.37-11.05,28.72-14.44,40.86.95-1.74,2.07-3.62,3.2-5.44.79-2.05,1.41-4.29,2.24-6.08,1.27-2.75,2.66-5.46,4.19-8.08a60.67,60.67,0,0,1,8.41-11.46c3.9-4.07,8.46-7.24,14-8.55,1.38-.33,9.79-2.3,8.36,1.41a4,4,0,0,1-1.22,1.46c-4.68,4-10.14,6.58-15.21,10-7.58,5.11-16.79,17-20.6,22.13-.49.91-1.11,2.05-1.81,3.37C402.51,300.3,415,294,419.8,295.34c6,1.68-5.59,6.15-15.34,10.37-6.31,2.72-9.72,6.08-11.34,8.1-1.55,2.93-3.28,6.24-5,9.61-.19.5-.39,1-.59,1.49a30.08,30.08,0,0,1,4.51-5.67c4.64-4.38,18.6-8.77,20.87-4.19s-8.24,4-16.74,6.72a23.56,23.56,0,0,0-11.4,8.54c-.16.25-.32.49-.49.72-.76,1.55-1.5,3.06-2.19,4.49-1.6,3.37-3.12,6.53-4.62,9.6a51,51,0,0,1,8.73-11.7c6.8-6.41,16.81-9.12,20.95-6.89s-12.55,7.45-20.5,11.72A30.47,30.47,0,0,0,375.56,349c-2.15,4.33-4.29,8.57-6.61,13a117,117,0,0,1,13.24-13.59c7.73-7,16.77-7.61,19.68-4.52s-4.34,4.38-17.42,9.4a42.24,42.24,0,0,0-17.62,12.75c-1,1.87-2,3.78-3.07,5.77-1.22,2.26-2.67,4.61-4.24,6.94,2.14-1.38,5.28-3.4,8.78-5.59a89.82,89.82,0,0,0,11.17-8c4-3.47,9.56-7.35,15.23-5.82,1.92.52,2.9,1.91,2.38,3.83a5.8,5.8,0,0,1-2.23,2.84c-5.35,4.15-12.55,6.14-18.78,8.6a141.64,141.64,0,0,1-17.53,5.59c-1.47,2.12-3,4.22-4.56,6.22l2.79.08c3.31.1,18.25-6.67,25.83-8.84s14.67,1.94,6.73,6.21-29.57,3.32-29.57,3.32l-6.24-.18c-1.46,1.88-2.9,3.66-4.25,5.28h29.62v8.22H373l-4.76,29.22H328.92l-4.76-29.22h-5.85V392.3H338a75.1,75.1,0,0,0-.29-10.64,24.88,24.88,0,0,0-4.32-3.5c-8.62-6-23.23-6.45-27.11-17.91-.94-2.77.12-6.31,3.43-6.16,2.37.11,4.89,2.2,6.37,3.91,4.93,5.69,8.64,11.59,15.05,15.91.29.19,4.33,3.41,6.34,5.4-.22-1.86-.5-3.86-.86-6a58.79,58.79,0,0,0-5.3-7.83C326,359,318,355.15,312.37,348.94c-1.74-1.9-4-8.73,1.27-7,2.37.75,5.15,4.32,7,6,5.22,4.66,10.53,9.7,14,15.88-.14-.61-.29-1.22-.44-1.84a128.41,128.41,0,0,0-12.33-16.65c-7.54-8.58-15.27-14.19-15.4-18.88s9.6,3.17,17.85,13.92a56.35,56.35,0,0,1,8.6,16.33c-1.52-6.09-3.13-12.23-4.72-18.12-1.08-2.94-4.29-10.59-10.2-15.86-7.45-6.66-13.48-12.16-14.55-18.83S305.41,299.26,312,309.06Zm41.7,75.51c1.11-1.51,2.27-3.16,3.47-5a59.13,59.13,0,0,0,1.47-9.34,38.19,38.19,0,0,0-.37-8.06,92.07,92.07,0,0,1-6.37,7.12,35.5,35.5,0,0,0,.86,7C352.86,376.64,353.62,381.75,353.72,384.57Zm-6.39,7.73c1.51-1.6,3.17-3.52,5-5.84a25.27,25.27,0,0,0-.77-5.52,39.56,39.56,0,0,0-3.08-8.22c-2.77,2.64-4.82,4.4-4.82,4.4l-4.69,4.12c.37,4.1.59,7.94.71,11.06Zm-8.46-11.8,2.1-1.85c1.2-1.06,3.3-5.14,5.59-9.84a63.17,63.17,0,0,1-2.61-6.1c-2.47,4.61-4.72,8.19-6,10.13C338.33,375.4,338.63,378,338.87,380.5Z" style="fill:#92E3A9"></path><path d="M312,309.06c4.54,6.72,10.85,15.47,14.23,22.49-1.29-4.63-2.54-9-3.69-12.95-1.72-3.39-6.34-12-11.67-17.66-6.78-7.25-9.67-11.91-6-12.31,2.53-.28,9.93,9.57,14.56,19.35-1-3.34-1.8-5.9-2.29-7.39-.21-.68-.43-1.42-.64-2.21a195.09,195.09,0,0,1-13.08-21c-6.84-12.79-9.05-24.86-4.49-19.67,4.21,4.78,11.52,28.54,17.33,39.72-.49-1.92-1-4-1.37-6.15-.82-2-1.9-4.1-2.52-6-.94-2.88-1.78-5.8-2.45-8.76a60.57,60.57,0,0,1-1.67-14.12c.07-5.64,1.24-11.07,4.37-15.78.79-1.19,5.6-8.37,7.08-4.67a3.85,3.85,0,0,1,.1,1.88c-.7,6.12-2.92,11.74-4.29,17.7-2.05,8.91-.69,23.87,0,30.23l1,3.7c-.95-11.08,3.85-24.22,8.3-26.52,5.51-2.84.11,8.32-4.14,18.05-2.75,6.3-2.95,11.08-2.76,13.67.87,3.2,1.87,6.79,2.9,10.44.2.5.4,1,.58,1.48a30.8,30.8,0,0,1-.57-7.21c.4-6.37,7.61-19.11,12.4-17.31s-3.32,8.52-7.66,16.33a23.62,23.62,0,0,0-2.5,14c.05.29.1.58.13.86.5,1.65,1,3.26,1.47,4.78,1.13,3.55,2.17,6.9,3.17,10.16a50.9,50.9,0,0,1-1.6-14.5c.6-9.33,6.07-18.14,10.61-19.34s-4.09,14-7,22.56a30.45,30.45,0,0,0-.77,15.42c1.39,4.63,2.71,9.19,4.06,14a117.47,117.47,0,0,1,.4-19c.88-10.38,7.06-17,11.3-16.73s-.18,6.16-6.32,18.76a42.2,42.2,0,0,0-4.17,21.34q.83,3,1.69,6.31c.65,2.49,1.19,5.19,1.64,8,.61-2.47,1.53-6.09,2.6-10.08A89.84,89.84,0,0,0,343,347.56c.58-5.29,2-11.89,7.16-14.65,1.76-.93,3.43-.58,4.36,1.18a5.79,5.79,0,0,1,.31,3.59A39.08,39.08,0,0,1,351.29,348a12,12,0,0,1,1.35,6.36c0,.83-.08,1.65-.13,2.46.45-.84.89-1.61,1.3-2.3a14.93,14.93,0,0,1,2.73-3.36,42,42,0,0,1-.4-5.92c0-2.58,3-9.14,5.73-4.27,1.09,1.94.88,5.76,1,8.3.75.7,1,2.13.34,4.39.43,5.86.5,11.87-.91,17.57l.93-1.64A128.5,128.5,0,0,0,365.57,349c.34-11.41-1.48-20.79,1.63-24.31s4.85,8.87,3.54,22.36a56,56,0,0,1-4.86,17.81c3.05-5.49,6.07-11.08,8.92-16.47,1.22-2.89,4.09-10.66,3.37-18.55-.9-10-1.56-18.09,2.22-23.69s4.57-2,2.71,9.7c-1.27,8-2.62,18.72-5,26.15,2.22-4.26,4.29-8.31,6.15-12,1.05-3.66,3.52-13.07,3.52-20.88,0-9.92,1.06-15.3,4-13.11,2,1.52.72,13.77-2.57,24.08,1.54-3.13,2.7-5.54,3.37-7,.3-.65.65-1.34,1-2.06a194.58,194.58,0,0,1,4.75-24.25c3.73-14,10.35-24.35,10.14-17.44-.19,6.37-11.05,28.72-14.44,40.86.95-1.74,2.07-3.62,3.2-5.44.79-2.05,1.41-4.29,2.24-6.08,1.27-2.75,2.66-5.46,4.19-8.08a60.67,60.67,0,0,1,8.41-11.46c3.9-4.07,8.46-7.24,14-8.55,1.38-.33,9.79-2.3,8.36,1.41a4,4,0,0,1-1.22,1.46c-4.68,4-10.14,6.58-15.21,10-7.58,5.11-16.79,17-20.6,22.13-.49.91-1.11,2.05-1.81,3.37C402.51,300.3,415,294,419.8,295.34c6,1.68-5.59,6.15-15.34,10.37-6.31,2.72-9.72,6.08-11.34,8.1-1.55,2.93-3.28,6.24-5,9.61-.19.5-.39,1-.59,1.49a30.08,30.08,0,0,1,4.51-5.67c4.64-4.38,18.6-8.77,20.87-4.19s-8.24,4-16.74,6.72a23.56,23.56,0,0,0-11.4,8.54c-.16.25-.32.49-.49.72-.76,1.55-1.5,3.06-2.19,4.49-1.6,3.37-3.12,6.53-4.62,9.6a51,51,0,0,1,8.73-11.7c6.8-6.41,16.81-9.12,20.95-6.89s-12.55,7.45-20.5,11.72A30.47,30.47,0,0,0,375.56,349c-2.15,4.33-4.29,8.57-6.61,13a117,117,0,0,1,13.24-13.59c7.73-7,16.77-7.61,19.68-4.52s-4.34,4.38-17.42,9.4a42.24,42.24,0,0,0-17.62,12.75c-1,1.87-2,3.78-3.07,5.77-1.22,2.26-2.67,4.61-4.24,6.94,2.14-1.38,5.28-3.4,8.78-5.59a89.82,89.82,0,0,0,11.17-8c4-3.47,9.56-7.35,15.23-5.82,1.92.52,2.9,1.91,2.38,3.83a5.8,5.8,0,0,1-2.23,2.84c-5.35,4.15-12.55,6.14-18.78,8.6a141.64,141.64,0,0,1-17.53,5.59c-1.47,2.12-3,4.22-4.56,6.22l2.79.08c3.31.1,18.25-6.67,25.83-8.84s14.67,1.94,6.73,6.21-29.57,3.32-29.57,3.32l-6.24-.18c-1.46,1.88-2.9,3.66-4.25,5.28h29.62v8.22H373l-4.76,29.22H328.92l-4.76-29.22h-5.85V392.3H338a75.1,75.1,0,0,0-.29-10.64,24.88,24.88,0,0,0-4.32-3.5c-8.62-6-23.23-6.45-27.11-17.91-.94-2.77.12-6.31,3.43-6.16,2.37.11,4.89,2.2,6.37,3.91,4.93,5.69,8.64,11.59,15.05,15.91.29.19,4.33,3.41,6.34,5.4-.22-1.86-.5-3.86-.86-6a58.79,58.79,0,0,0-5.3-7.83C326,359,318,355.15,312.37,348.94c-1.74-1.9-4-8.73,1.27-7,2.37.75,5.15,4.32,7,6,5.22,4.66,10.53,9.7,14,15.88-.14-.61-.29-1.22-.44-1.84a128.41,128.41,0,0,0-12.33-16.65c-7.54-8.58-15.27-14.19-15.4-18.88s9.6,3.17,17.85,13.92a56.35,56.35,0,0,1,8.6,16.33c-1.52-6.09-3.13-12.23-4.72-18.12-1.08-2.94-4.29-10.59-10.2-15.86-7.45-6.66-13.48-12.16-14.55-18.83S305.41,299.26,312,309.06Zm41.7,75.51c1.11-1.51,2.27-3.16,3.47-5a59.13,59.13,0,0,0,1.47-9.34,38.19,38.19,0,0,0-.37-8.06,92.07,92.07,0,0,1-6.37,7.12,35.5,35.5,0,0,0,.86,7C352.86,376.64,353.62,381.75,353.72,384.57Zm-6.39,7.73c1.51-1.6,3.17-3.52,5-5.84a25.27,25.27,0,0,0-.77-5.52,39.56,39.56,0,0,0-3.08-8.22c-2.77,2.64-4.82,4.4-4.82,4.4l-4.69,4.12c.37,4.1.59,7.94.71,11.06Zm-8.46-11.8,2.1-1.85c1.2-1.06,3.3-5.14,5.59-9.84a63.17,63.17,0,0,1-2.61-6.1c-2.47,4.61-4.72,8.19-6,10.13C338.33,375.4,338.63,378,338.87,380.5Z" style="fill:#fff;opacity:0.5"></path><path d="M63.88,309.06c4.54,6.72,10.85,15.47,14.22,22.49-1.28-4.63-2.53-9-3.68-12.95-1.72-3.39-6.34-12-11.68-17.66-6.77-7.25-9.67-11.91-6-12.31,2.53-.28,9.92,9.57,14.56,19.35-1-3.34-1.81-5.9-2.29-7.39-.22-.68-.43-1.42-.65-2.21a195.46,195.46,0,0,1-13.07-21c-6.85-12.79-9.05-24.86-4.49-19.67,4.2,4.78,11.52,28.54,17.32,39.72-.49-1.92-.95-4-1.37-6.15-.82-2-1.89-4.1-2.51-6-.95-2.88-1.78-5.8-2.45-8.76a60.57,60.57,0,0,1-1.67-14.12c.07-5.64,1.24-11.07,4.37-15.78.79-1.19,5.59-8.37,7.07-4.67a3.85,3.85,0,0,1,.11,1.88c-.7,6.12-2.92,11.74-4.29,17.7-2,8.91-.69,23.87,0,30.23.26,1,.59,2.26,1,3.7-1-11.08,3.85-24.22,8.3-26.52,5.51-2.84.1,8.32-4.14,18.05-2.75,6.3-3,11.08-2.76,13.67.87,3.2,1.86,6.79,2.9,10.44.2.5.4,1,.58,1.48a31.36,31.36,0,0,1-.58-7.21c.41-6.37,7.62-19.11,12.4-17.31s-3.31,8.52-7.65,16.33a23.62,23.62,0,0,0-2.5,14c0,.29.09.58.13.86.5,1.65,1,3.26,1.47,4.78,1.12,3.55,2.17,6.9,3.17,10.16a50.54,50.54,0,0,1-1.6-14.5c.6-9.33,6.06-18.14,10.61-19.34s-4.09,14-7,22.56A30.69,30.69,0,0,0,81,338.41c1.4,4.63,2.72,9.19,4.06,14a117.57,117.57,0,0,1,.41-19c.88-10.38,7.06-17,11.3-16.73s-.18,6.16-6.32,18.76a42.24,42.24,0,0,0-4.18,21.34q.84,3,1.69,6.31a80.58,80.58,0,0,1,1.64,8c.62-2.47,1.54-6.09,2.6-10.08a88.63,88.63,0,0,0,2.7-13.48c.58-5.29,2-11.89,7.16-14.65,1.76-.93,3.42-.58,4.35,1.18a5.65,5.65,0,0,1,.31,3.59A39.41,39.41,0,0,1,103.15,348a12,12,0,0,1,1.34,6.36q0,1.25-.12,2.46c.45-.84.88-1.61,1.3-2.3a15.18,15.18,0,0,1,2.72-3.36,43.51,43.51,0,0,1-.4-5.92c0-2.58,3-9.14,5.74-4.27,1.09,1.94.88,5.76,1,8.3.75.7,1,2.13.35,4.39.43,5.86.5,11.87-.92,17.57l.94-1.64A129.75,129.75,0,0,0,117.43,349c.34-11.41-1.48-20.79,1.63-24.31s4.85,8.87,3.54,22.36a56.26,56.26,0,0,1-4.86,17.81c3.05-5.49,6.06-11.08,8.92-16.47,1.22-2.89,4.09-10.66,3.37-18.55-.9-10-1.56-18.09,2.21-23.69s4.57-2,2.72,9.7c-1.27,8-2.62,18.72-5,26.15,2.22-4.26,4.29-8.31,6.15-12,1.05-3.66,3.52-13.07,3.51-20.88,0-9.92,1.06-15.3,4-13.11,2,1.52.73,13.77-2.56,24.08,1.54-3.13,2.7-5.54,3.37-7,.3-.65.65-1.34,1-2.06a198.47,198.47,0,0,1,4.75-24.25c3.73-14,10.36-24.35,10.15-17.44-.19,6.37-11.06,28.72-14.45,40.86,1-1.74,2.08-3.62,3.21-5.44.78-2.05,1.41-4.29,2.24-6.08,1.27-2.75,2.65-5.46,4.18-8.08A60.29,60.29,0,0,1,164,279.24c3.9-4.07,8.46-7.24,14-8.55,1.39-.33,9.8-2.3,8.36,1.41a3.86,3.86,0,0,1-1.21,1.46c-4.69,4-10.14,6.58-15.21,10-7.58,5.11-16.8,17-20.6,22.13-.5.91-1.11,2.05-1.81,3.37,6.86-8.76,19.34-15.08,24.16-13.72,6,1.68-5.6,6.15-15.35,10.37a29.08,29.08,0,0,0-11.34,8.1c-1.54,2.93-3.27,6.24-5,9.61-.19.5-.39,1-.59,1.49a30.44,30.44,0,0,1,4.5-5.67c4.64-4.38,18.61-8.77,20.88-4.19s-8.24,4-16.74,6.72a23.59,23.59,0,0,0-11.41,8.54l-.48.72c-.77,1.55-1.5,3.06-2.19,4.49-1.6,3.37-3.13,6.53-4.62,9.6a50.93,50.93,0,0,1,8.72-11.7c6.81-6.41,16.82-9.12,21-6.89s-12.55,7.45-20.5,11.72A30.51,30.51,0,0,0,127.41,349c-2.14,4.33-4.28,8.57-6.6,13a116.21,116.21,0,0,1,13.24-13.59c7.72-7,16.76-7.61,19.68-4.52s-4.34,4.38-17.42,9.4a42.24,42.24,0,0,0-17.62,12.75c-1,1.87-2,3.78-3.08,5.77-1.21,2.26-2.67,4.61-4.23,6.94,2.13-1.38,5.27-3.4,8.78-5.59a89,89,0,0,0,11.16-8c4-3.47,9.56-7.35,15.23-5.82,1.92.52,2.91,1.91,2.38,3.83a5.78,5.78,0,0,1-2.22,2.84c-5.35,4.15-12.55,6.14-18.78,8.6a142.18,142.18,0,0,1-17.54,5.59c-1.47,2.12-3,4.22-4.56,6.22l2.8.08c3.3.1,18.24-6.67,25.82-8.84s14.68,1.94,6.73,6.21-29.56,3.32-29.56,3.32l-6.24-.18c-1.46,1.88-2.9,3.66-4.25,5.28h29.61v8.22h-5.85l-4.75,29.22H80.77L76,400.52H70.17V392.3H89.81a75.1,75.1,0,0,0-.29-10.64,24.71,24.71,0,0,0-4.33-3.5c-8.61-6-23.23-6.45-27.11-17.91-.93-2.77.13-6.31,3.43-6.16,2.38.11,4.9,2.2,6.38,3.91,4.93,5.69,8.64,11.59,15,15.91.29.19,4.33,3.41,6.33,5.4q-.31-2.79-.86-6a57.78,57.78,0,0,0-5.29-7.83c-5.24-6.51-13.22-10.33-18.9-16.54-1.74-1.9-4-8.73,1.28-7,2.36.75,5.15,4.32,7,6,5.23,4.66,10.54,9.7,14,15.88-.15-.61-.29-1.22-.44-1.84a128.41,128.41,0,0,0-12.33-16.65c-7.54-8.58-15.27-14.19-15.4-18.88s9.59,3.17,17.85,13.92a56.28,56.28,0,0,1,8.59,16.33c-1.51-6.09-3.12-12.23-4.72-18.12-1.07-2.94-4.28-10.59-10.19-15.86-7.45-6.66-13.49-12.16-14.55-18.83S57.27,299.26,63.88,309.06Zm41.7,75.51c1.11-1.51,2.27-3.16,3.46-5a58,58,0,0,0,1.48-9.34,38.86,38.86,0,0,0-.37-8.06,92.19,92.19,0,0,1-6.38,7.12,35.53,35.53,0,0,0,.87,7C104.71,376.64,105.47,381.75,105.58,384.57Zm-6.39,7.73c1.51-1.6,3.17-3.52,5-5.84a24.6,24.6,0,0,0-.77-5.52,39.51,39.51,0,0,0-3.07-8.22c-2.78,2.64-4.83,4.4-4.83,4.4l-4.68,4.12c.37,4.1.58,7.94.71,11.06Zm-8.46-11.8,2.1-1.85c1.2-1.06,3.29-5.14,5.59-9.84a60.77,60.77,0,0,1-2.61-6.1c-2.48,4.61-4.72,8.19-6,10.13C90.19,375.4,90.49,378,90.73,380.5Z" style="fill:#92E3A9"></path><path d="M63.88,309.06c4.54,6.72,10.85,15.47,14.22,22.49-1.28-4.63-2.53-9-3.68-12.95-1.72-3.39-6.34-12-11.68-17.66-6.77-7.25-9.67-11.91-6-12.31,2.53-.28,9.92,9.57,14.56,19.35-1-3.34-1.81-5.9-2.29-7.39-.22-.68-.43-1.42-.65-2.21a195.46,195.46,0,0,1-13.07-21c-6.85-12.79-9.05-24.86-4.49-19.67,4.2,4.78,11.52,28.54,17.32,39.72-.49-1.92-.95-4-1.37-6.15-.82-2-1.89-4.1-2.51-6-.95-2.88-1.78-5.8-2.45-8.76a60.57,60.57,0,0,1-1.67-14.12c.07-5.64,1.24-11.07,4.37-15.78.79-1.19,5.59-8.37,7.07-4.67a3.85,3.85,0,0,1,.11,1.88c-.7,6.12-2.92,11.74-4.29,17.7-2,8.91-.69,23.87,0,30.23.26,1,.59,2.26,1,3.7-1-11.08,3.85-24.22,8.3-26.52,5.51-2.84.1,8.32-4.14,18.05-2.75,6.3-3,11.08-2.76,13.67.87,3.2,1.86,6.79,2.9,10.44.2.5.4,1,.58,1.48a31.36,31.36,0,0,1-.58-7.21c.41-6.37,7.62-19.11,12.4-17.31s-3.31,8.52-7.65,16.33a23.62,23.62,0,0,0-2.5,14c0,.29.09.58.13.86.5,1.65,1,3.26,1.47,4.78,1.12,3.55,2.17,6.9,3.17,10.16a50.54,50.54,0,0,1-1.6-14.5c.6-9.33,6.06-18.14,10.61-19.34s-4.09,14-7,22.56A30.69,30.69,0,0,0,81,338.41c1.4,4.63,2.72,9.19,4.06,14a117.57,117.57,0,0,1,.41-19c.88-10.38,7.06-17,11.3-16.73s-.18,6.16-6.32,18.76a42.24,42.24,0,0,0-4.18,21.34q.84,3,1.69,6.31a80.58,80.58,0,0,1,1.64,8c.62-2.47,1.54-6.09,2.6-10.08a88.63,88.63,0,0,0,2.7-13.48c.58-5.29,2-11.89,7.16-14.65,1.76-.93,3.42-.58,4.35,1.18a5.65,5.65,0,0,1,.31,3.59A39.41,39.41,0,0,1,103.15,348a12,12,0,0,1,1.34,6.36q0,1.25-.12,2.46c.45-.84.88-1.61,1.3-2.3a15.18,15.18,0,0,1,2.72-3.36,43.51,43.51,0,0,1-.4-5.92c0-2.58,3-9.14,5.74-4.27,1.09,1.94.88,5.76,1,8.3.75.7,1,2.13.35,4.39.43,5.86.5,11.87-.92,17.57l.94-1.64A129.75,129.75,0,0,0,117.43,349c.34-11.41-1.48-20.79,1.63-24.31s4.85,8.87,3.54,22.36a56.26,56.26,0,0,1-4.86,17.81c3.05-5.49,6.06-11.08,8.92-16.47,1.22-2.89,4.09-10.66,3.37-18.55-.9-10-1.56-18.09,2.21-23.69s4.57-2,2.72,9.7c-1.27,8-2.62,18.72-5,26.15,2.22-4.26,4.29-8.31,6.15-12,1.05-3.66,3.52-13.07,3.51-20.88,0-9.92,1.06-15.3,4-13.11,2,1.52.73,13.77-2.56,24.08,1.54-3.13,2.7-5.54,3.37-7,.3-.65.65-1.34,1-2.06a198.47,198.47,0,0,1,4.75-24.25c3.73-14,10.36-24.35,10.15-17.44-.19,6.37-11.06,28.72-14.45,40.86,1-1.74,2.08-3.62,3.21-5.44.78-2.05,1.41-4.29,2.24-6.08,1.27-2.75,2.65-5.46,4.18-8.08A60.29,60.29,0,0,1,164,279.24c3.9-4.07,8.46-7.24,14-8.55,1.39-.33,9.8-2.3,8.36,1.41a3.86,3.86,0,0,1-1.21,1.46c-4.69,4-10.14,6.58-15.21,10-7.58,5.11-16.8,17-20.6,22.13-.5.91-1.11,2.05-1.81,3.37,6.86-8.76,19.34-15.08,24.16-13.72,6,1.68-5.6,6.15-15.35,10.37a29.08,29.08,0,0,0-11.34,8.1c-1.54,2.93-3.27,6.24-5,9.61-.19.5-.39,1-.59,1.49a30.44,30.44,0,0,1,4.5-5.67c4.64-4.38,18.61-8.77,20.88-4.19s-8.24,4-16.74,6.72a23.59,23.59,0,0,0-11.41,8.54l-.48.72c-.77,1.55-1.5,3.06-2.19,4.49-1.6,3.37-3.13,6.53-4.62,9.6a50.93,50.93,0,0,1,8.72-11.7c6.81-6.41,16.82-9.12,21-6.89s-12.55,7.45-20.5,11.72A30.51,30.51,0,0,0,127.41,349c-2.14,4.33-4.28,8.57-6.6,13a116.21,116.21,0,0,1,13.24-13.59c7.72-7,16.76-7.61,19.68-4.52s-4.34,4.38-17.42,9.4a42.24,42.24,0,0,0-17.62,12.75c-1,1.87-2,3.78-3.08,5.77-1.21,2.26-2.67,4.61-4.23,6.94,2.13-1.38,5.27-3.4,8.78-5.59a89,89,0,0,0,11.16-8c4-3.47,9.56-7.35,15.23-5.82,1.92.52,2.91,1.91,2.38,3.83a5.78,5.78,0,0,1-2.22,2.84c-5.35,4.15-12.55,6.14-18.78,8.6a142.18,142.18,0,0,1-17.54,5.59c-1.47,2.12-3,4.22-4.56,6.22l2.8.08c3.3.1,18.24-6.67,25.82-8.84s14.68,1.94,6.73,6.21-29.56,3.32-29.56,3.32l-6.24-.18c-1.46,1.88-2.9,3.66-4.25,5.28h29.61v8.22h-5.85l-4.75,29.22H80.77L76,400.52H70.17V392.3H89.81a75.1,75.1,0,0,0-.29-10.64,24.71,24.71,0,0,0-4.33-3.5c-8.61-6-23.23-6.45-27.11-17.91-.93-2.77.13-6.31,3.43-6.16,2.38.11,4.9,2.2,6.38,3.91,4.93,5.69,8.64,11.59,15,15.91.29.19,4.33,3.41,6.33,5.4q-.31-2.79-.86-6a57.78,57.78,0,0,0-5.29-7.83c-5.24-6.51-13.22-10.33-18.9-16.54-1.74-1.9-4-8.73,1.28-7,2.36.75,5.15,4.32,7,6,5.23,4.66,10.54,9.7,14,15.88-.15-.61-.29-1.22-.44-1.84a128.41,128.41,0,0,0-12.33-16.65c-7.54-8.58-15.27-14.19-15.4-18.88s9.59,3.17,17.85,13.92a56.28,56.28,0,0,1,8.59,16.33c-1.51-6.09-3.12-12.23-4.72-18.12-1.07-2.94-4.28-10.59-10.19-15.86-7.45-6.66-13.49-12.16-14.55-18.83S57.27,299.26,63.88,309.06Zm41.7,75.51c1.11-1.51,2.27-3.16,3.46-5a58,58,0,0,0,1.48-9.34,38.86,38.86,0,0,0-.37-8.06,92.19,92.19,0,0,1-6.38,7.12,35.53,35.53,0,0,0,.87,7C104.71,376.64,105.47,381.75,105.58,384.57Zm-6.39,7.73c1.51-1.6,3.17-3.52,5-5.84a24.6,24.6,0,0,0-.77-5.52,39.51,39.51,0,0,0-3.07-8.22c-2.78,2.64-4.83,4.4-4.83,4.4l-4.68,4.12c.37,4.1.58,7.94.71,11.06Zm-8.46-11.8,2.1-1.85c1.2-1.06,3.29-5.14,5.59-9.84a60.77,60.77,0,0,1-2.61-6.1c-2.48,4.61-4.72,8.19-6,10.13C90.19,375.4,90.49,378,90.73,380.5Z" style="fill:#fff;opacity:0.5"></path></g><g id="freepik--Device--inject-215"><rect x="96.24" y="107.19" width="155.2" height="322.41" style="fill:#92E3A9;stroke:#263238;stroke-linecap:round;stroke-linejoin:round"></rect><rect x="105.01" y="118.71" width="137.67" height="299.38" style="fill:#263238"></rect><g style="clip-path:url(#freepik--clip-path--inject-215)"><path d="M101.51,419.27s4.79-2.4,17.8-12.67,25.32-15.74,33.19-15.74,13,6.16,39.36,18.14,35.25,19.51,58.52-4.45,26.69-26.69,26.69-26.69" style="fill:none;stroke:#92E3A9;stroke-linecap:round;stroke-linejoin:round"></path><path d="M103.22,423.71s4.79-2.39,17.8-12.66,25.32-15.74,33.19-15.74,13,6.16,39.36,18.14S228.82,433,252.09,409s26.69-26.69,26.69-26.69" style="fill:none;stroke:#92E3A9;stroke-linecap:round;stroke-linejoin:round"></path><path d="M100.83,422.35s4.79-2.4,17.79-12.67,25.33-15.74,33.2-15.74,13,6.16,39.35,18.14,35.25,19.51,58.52-4.45,26.69-26.69,26.69-26.69" style="fill:none;stroke:#fff;stroke-linecap:round;stroke-linejoin:round"></path><path d="M98.09,408s5.47-7.53,21.22-1.37,23.61,19.17,41.75,11.64,18.13-17.11,42.77-16.77,46.89,19.85,46.89,19.85" style="fill:none;stroke:#92E3A9;stroke-linecap:round;stroke-linejoin:round"></path><path d="M98.09,405.23s5.47-7.52,21.22-1.36S142.92,423,161.06,415.5s18.13-17.11,42.77-16.77,46.89,19.85,46.89,19.85" style="fill:none;stroke:#92E3A9;stroke-linecap:round;stroke-linejoin:round"></path><path d="M98.09,401.47s5.47-7.53,21.22-1.37,23.61,19.17,41.75,11.64,18.13-17.11,42.77-16.77,46.89,19.85,46.89,19.85" style="fill:none;stroke:#fff;stroke-linecap:round;stroke-linejoin:round"></path><path d="M98.09,411.05s5.47-7.53,21.22-1.37,23.61,19.17,41.75,11.64,18.13-17.11,42.77-16.77,46.89,19.85,46.89,19.85" style="fill:none;stroke:#fff;stroke-linecap:round;stroke-linejoin:round"></path><path d="M121.7,390.18s19.85,13.69,33.88,23.95,34.22,9.24,52.7-1.37,39-15.4,39-15.4a40.47,40.47,0,0,1,16.08,2.4" style="fill:none;stroke:#fff;stroke-linecap:round;stroke-linejoin:round"></path><path d="M130.6,390.52s19.85,13.69,33.88,24,34.22,9.24,52.7-1.36,39-15.4,39-15.4a40.4,40.4,0,0,1,16.09,2.39" style="fill:none;stroke:#92E3A9;stroke-linecap:round;stroke-linejoin:round"></path></g><rect x="105.01" y="118.71" width="137.67" height="299.38" style="fill:none;stroke:#263238;stroke-linecap:round;stroke-linejoin:round"></rect><rect x="105.01" y="296.34" width="137.67" height="23.2" style="fill:#92E3A9;stroke:#263238;stroke-linecap:round;stroke-linejoin:round"></rect><rect x="105.01" y="350.26" width="137.67" height="9.55" style="fill:#92E3A9;stroke:#263238;stroke-linecap:round;stroke-linejoin:round"></rect><rect x="105.01" y="383.02" width="137.67" height="9.55" style="fill:#92E3A9;stroke:#263238;stroke-linecap:round;stroke-linejoin:round"></rect><path d="M234.68,138.74H112.61a6.6,6.6,0,0,1-6.6-6.6h0a6.59,6.59,0,0,1,6.6-6.6H234.68a6.59,6.59,0,0,1,6.6,6.6h0A6.6,6.6,0,0,1,234.68,138.74Z" style="fill:none;stroke:#fff;stroke-linecap:round;stroke-linejoin:round"></path><rect x="113.11" y="128.72" width="42.66" height="6.18" style="fill:none;stroke:#fff;stroke-linecap:round;stroke-linejoin:round"></rect><path d="M164.73,129.8a1.39,1.39,0,1,1-1.39-1.39A1.39,1.39,0,0,1,164.73,129.8Z" style="fill:none;stroke:#fff;stroke-linecap:round;stroke-linejoin:round"></path><path d="M169.82,129.8a1.39,1.39,0,1,1-1.39-1.39A1.39,1.39,0,0,1,169.82,129.8Z" style="fill:none;stroke:#fff;stroke-linecap:round;stroke-linejoin:round"></path><path d="M174.92,129.8a1.39,1.39,0,1,1-1.39-1.39A1.39,1.39,0,0,1,174.92,129.8Z" style="fill:none;stroke:#fff;stroke-linecap:round;stroke-linejoin:round"></path><path d="M180,129.8a1.4,1.4,0,1,1-1.4-1.39A1.4,1.4,0,0,1,180,129.8Z" style="fill:none;stroke:#fff;stroke-linecap:round;stroke-linejoin:round"></path><path d="M185.11,129.8a1.39,1.39,0,1,1-1.39-1.39A1.39,1.39,0,0,1,185.11,129.8Z" style="fill:none;stroke:#fff;stroke-linecap:round;stroke-linejoin:round"></path><path d="M190.21,129.8a1.4,1.4,0,1,1-1.4-1.39A1.4,1.4,0,0,1,190.21,129.8Z" style="fill:none;stroke:#fff;stroke-linecap:round;stroke-linejoin:round"></path><circle cx="163.34" cy="134.32" r="1.39" style="fill:none;stroke:#fff;stroke-linecap:round;stroke-linejoin:round"></circle><circle cx="168.43" cy="134.32" r="1.39" style="fill:none;stroke:#fff;stroke-linecap:round;stroke-linejoin:round"></circle><circle cx="173.53" cy="134.32" r="1.39" style="fill:none;stroke:#fff;stroke-linecap:round;stroke-linejoin:round"></circle><circle cx="178.62" cy="134.32" r="1.39" style="fill:none;stroke:#fff;stroke-linecap:round;stroke-linejoin:round"></circle><path d="M185.11,134.32a1.39,1.39,0,1,1-1.39-1.39A1.39,1.39,0,0,1,185.11,134.32Z" style="fill:none;stroke:#fff;stroke-linecap:round;stroke-linejoin:round"></path><path d="M190.21,134.32a1.4,1.4,0,1,1-1.4-1.39A1.4,1.4,0,0,1,190.21,134.32Z" style="fill:none;stroke:#fff;stroke-linecap:round;stroke-linejoin:round"></path><rect x="115.04" y="130.27" width="38.8" height="3.08" style="fill:#92E3A9"></rect><rect x="193.24" y="123.99" width="4" height="15.91" style="fill:#fff;stroke:#fff;stroke-linecap:round;stroke-linejoin:round"></rect><rect x="199.59" y="129.76" width="34.25" height="4.4" style="fill:#fff"></rect><path d="M234.68,157.68H112.61a6.6,6.6,0,0,1-6.6-6.6h0a6.59,6.59,0,0,1,6.6-6.6H234.68a6.59,6.59,0,0,1,6.6,6.6h0A6.6,6.6,0,0,1,234.68,157.68Z" style="fill:none;stroke:#fff;stroke-linecap:round;stroke-linejoin:round"></path><rect x="113.11" y="147.66" width="42.66" height="6.18" style="fill:none;stroke:#fff;stroke-linecap:round;stroke-linejoin:round"></rect><path d="M164.73,148.74a1.39,1.39,0,1,1-1.39-1.39A1.39,1.39,0,0,1,164.73,148.74Z" style="fill:none;stroke:#fff;stroke-linecap:round;stroke-linejoin:round"></path><path d="M169.82,148.74a1.39,1.39,0,1,1-1.39-1.39A1.39,1.39,0,0,1,169.82,148.74Z" style="fill:none;stroke:#fff;stroke-linecap:round;stroke-linejoin:round"></path><path d="M174.92,148.74a1.39,1.39,0,1,1-1.39-1.39A1.39,1.39,0,0,1,174.92,148.74Z" style="fill:none;stroke:#fff;stroke-linecap:round;stroke-linejoin:round"></path><path d="M180,148.74a1.4,1.4,0,1,1-1.4-1.39A1.4,1.4,0,0,1,180,148.74Z" style="fill:none;stroke:#fff;stroke-linecap:round;stroke-linejoin:round"></path><path d="M185.11,148.74a1.39,1.39,0,1,1-1.39-1.39A1.39,1.39,0,0,1,185.11,148.74Z" style="fill:none;stroke:#fff;stroke-linecap:round;stroke-linejoin:round"></path><path d="M190.21,148.74a1.4,1.4,0,1,1-1.4-1.39A1.4,1.4,0,0,1,190.21,148.74Z" style="fill:none;stroke:#fff;stroke-linecap:round;stroke-linejoin:round"></path><path d="M164.73,153.26a1.39,1.39,0,1,1-1.39-1.39A1.39,1.39,0,0,1,164.73,153.26Z" style="fill:none;stroke:#fff;stroke-linecap:round;stroke-linejoin:round"></path><path d="M169.82,153.26a1.39,1.39,0,1,1-1.39-1.39A1.39,1.39,0,0,1,169.82,153.26Z" style="fill:none;stroke:#fff;stroke-linecap:round;stroke-linejoin:round"></path><path d="M174.92,153.26a1.39,1.39,0,1,1-1.39-1.39A1.39,1.39,0,0,1,174.92,153.26Z" style="fill:none;stroke:#fff;stroke-linecap:round;stroke-linejoin:round"></path><path d="M180,153.26a1.4,1.4,0,1,1-1.4-1.39A1.4,1.4,0,0,1,180,153.26Z" style="fill:none;stroke:#fff;stroke-linecap:round;stroke-linejoin:round"></path><path d="M185.11,153.26a1.39,1.39,0,1,1-1.39-1.39A1.39,1.39,0,0,1,185.11,153.26Z" style="fill:none;stroke:#fff;stroke-linecap:round;stroke-linejoin:round"></path><path d="M190.21,153.26a1.4,1.4,0,1,1-1.4-1.39A1.4,1.4,0,0,1,190.21,153.26Z" style="fill:none;stroke:#fff;stroke-linecap:round;stroke-linejoin:round"></path><rect x="115.04" y="149.21" width="38.8" height="3.08" style="fill:#92E3A9"></rect><rect x="193.24" y="142.93" width="4" height="15.91" style="fill:#fff;stroke:#fff;stroke-linecap:round;stroke-linejoin:round"></rect><path d="M234.68,144.48H193.24v13.2h41.44a6.6,6.6,0,0,0,0-13.2Z" style="fill:none;stroke:#fff;stroke-linecap:round;stroke-linejoin:round"></path><rect x="199.59" y="148.7" width="34.25" height="4.4" style="fill:#fff"></rect><path d="M234.68,176.61H112.61A6.59,6.59,0,0,1,106,170h0a6.59,6.59,0,0,1,6.6-6.59H234.68a6.59,6.59,0,0,1,6.6,6.59h0A6.59,6.59,0,0,1,234.68,176.61Z" style="fill:none;stroke:#fff;stroke-linecap:round;stroke-linejoin:round"></path><rect x="113.11" y="166.59" width="42.66" height="6.18" style="fill:none;stroke:#fff;stroke-linecap:round;stroke-linejoin:round"></rect><circle cx="163.34" cy="167.68" r="1.39" style="fill:none;stroke:#fff;stroke-linecap:round;stroke-linejoin:round"></circle><circle cx="168.43" cy="167.68" r="1.39" style="fill:none;stroke:#fff;stroke-linecap:round;stroke-linejoin:round"></circle><circle cx="173.53" cy="167.68" r="1.39" style="fill:none;stroke:#fff;stroke-linecap:round;stroke-linejoin:round"></circle><circle cx="178.62" cy="167.68" r="1.39" style="fill:none;stroke:#fff;stroke-linecap:round;stroke-linejoin:round"></circle><path d="M185.11,167.68a1.39,1.39,0,1,1-1.39-1.39A1.39,1.39,0,0,1,185.11,167.68Z" style="fill:none;stroke:#fff;stroke-linecap:round;stroke-linejoin:round"></path><path d="M190.21,167.68a1.4,1.4,0,1,1-1.4-1.39A1.4,1.4,0,0,1,190.21,167.68Z" style="fill:none;stroke:#fff;stroke-linecap:round;stroke-linejoin:round"></path><circle cx="163.34" cy="172.2" r="1.39" style="fill:none;stroke:#fff;stroke-linecap:round;stroke-linejoin:round"></circle><circle cx="168.43" cy="172.2" r="1.39" style="fill:none;stroke:#fff;stroke-linecap:round;stroke-linejoin:round"></circle><circle cx="173.53" cy="172.2" r="1.39" style="fill:none;stroke:#fff;stroke-linecap:round;stroke-linejoin:round"></circle><circle cx="178.62" cy="172.2" r="1.39" style="fill:none;stroke:#fff;stroke-linecap:round;stroke-linejoin:round"></circle><path d="M185.11,172.2a1.39,1.39,0,1,1-1.39-1.4A1.39,1.39,0,0,1,185.11,172.2Z" style="fill:none;stroke:#fff;stroke-linecap:round;stroke-linejoin:round"></path><path d="M190.21,172.2a1.4,1.4,0,1,1-1.4-1.4A1.4,1.4,0,0,1,190.21,172.2Z" style="fill:none;stroke:#fff;stroke-linecap:round;stroke-linejoin:round"></path><rect x="115.04" y="168.15" width="38.8" height="3.08" style="fill:#92E3A9"></rect><rect x="193.24" y="161.87" width="4" height="15.91" style="fill:#fff;stroke:#fff;stroke-linecap:round;stroke-linejoin:round"></rect><rect x="199.59" y="167.64" width="34.25" height="4.4" style="fill:#92E3A9"></rect><rect x="106.01" y="182.35" width="135.27" height="13.2" rx="6.6" style="fill:none;stroke:#fff;stroke-linecap:round;stroke-linejoin:round"></rect><rect x="113.11" y="185.53" width="42.66" height="6.18" style="fill:none;stroke:#fff;stroke-linecap:round;stroke-linejoin:round"></rect><path d="M164.73,186.61a1.39,1.39,0,1,1-1.39-1.39A1.4,1.4,0,0,1,164.73,186.61Z" style="fill:none;stroke:#fff;stroke-linecap:round;stroke-linejoin:round"></path><path d="M169.82,186.61a1.39,1.39,0,1,1-1.39-1.39A1.4,1.4,0,0,1,169.82,186.61Z" style="fill:none;stroke:#fff;stroke-linecap:round;stroke-linejoin:round"></path><path d="M174.92,186.61a1.39,1.39,0,1,1-1.39-1.39A1.4,1.4,0,0,1,174.92,186.61Z" style="fill:none;stroke:#fff;stroke-linecap:round;stroke-linejoin:round"></path><path d="M180,186.61a1.4,1.4,0,1,1-1.4-1.39A1.4,1.4,0,0,1,180,186.61Z" style="fill:none;stroke:#fff;stroke-linecap:round;stroke-linejoin:round"></path><path d="M185.11,186.61a1.39,1.39,0,1,1-1.39-1.39A1.4,1.4,0,0,1,185.11,186.61Z" style="fill:none;stroke:#fff;stroke-linecap:round;stroke-linejoin:round"></path><path d="M190.21,186.61a1.4,1.4,0,1,1-1.4-1.39A1.4,1.4,0,0,1,190.21,186.61Z" style="fill:none;stroke:#fff;stroke-linecap:round;stroke-linejoin:round"></path><path d="M164.73,191.13a1.39,1.39,0,1,1-1.39-1.39A1.39,1.39,0,0,1,164.73,191.13Z" style="fill:none;stroke:#fff;stroke-linecap:round;stroke-linejoin:round"></path><path d="M169.82,191.13a1.39,1.39,0,1,1-1.39-1.39A1.39,1.39,0,0,1,169.82,191.13Z" style="fill:none;stroke:#fff;stroke-linecap:round;stroke-linejoin:round"></path><path d="M174.92,191.13a1.39,1.39,0,1,1-1.39-1.39A1.39,1.39,0,0,1,174.92,191.13Z" style="fill:none;stroke:#fff;stroke-linecap:round;stroke-linejoin:round"></path><path d="M180,191.13a1.4,1.4,0,1,1-1.4-1.39A1.4,1.4,0,0,1,180,191.13Z" style="fill:none;stroke:#fff;stroke-linecap:round;stroke-linejoin:round"></path><path d="M185.11,191.13a1.39,1.39,0,1,1-1.39-1.39A1.39,1.39,0,0,1,185.11,191.13Z" style="fill:none;stroke:#fff;stroke-linecap:round;stroke-linejoin:round"></path><path d="M190.21,191.13a1.4,1.4,0,1,1-1.4-1.39A1.4,1.4,0,0,1,190.21,191.13Z" style="fill:none;stroke:#fff;stroke-linecap:round;stroke-linejoin:round"></path><rect x="115.04" y="187.08" width="38.8" height="3.08" style="fill:#92E3A9"></rect><rect x="193.24" y="180.81" width="4" height="15.91" style="fill:#fff;stroke:#fff;stroke-linecap:round;stroke-linejoin:round"></rect><rect x="199.59" y="186.57" width="34.25" height="4.4" style="fill:#92E3A9"></rect><path d="M234.68,214.49H112.61a6.59,6.59,0,0,1-6.6-6.6h0a6.6,6.6,0,0,1,6.6-6.6H234.68a6.6,6.6,0,0,1,6.6,6.6h0A6.59,6.59,0,0,1,234.68,214.49Z" style="fill:none;stroke:#fff;stroke-linecap:round;stroke-linejoin:round"></path><rect x="113.11" y="204.47" width="42.66" height="6.18" style="fill:none;stroke:#fff;stroke-linecap:round;stroke-linejoin:round"></rect><circle cx="163.34" cy="205.55" r="1.39" style="fill:none;stroke:#fff;stroke-linecap:round;stroke-linejoin:round"></circle><circle cx="168.43" cy="205.55" r="1.39" style="fill:none;stroke:#fff;stroke-linecap:round;stroke-linejoin:round"></circle><circle cx="173.53" cy="205.55" r="1.39" style="fill:none;stroke:#fff;stroke-linecap:round;stroke-linejoin:round"></circle><circle cx="178.62" cy="205.55" r="1.39" style="fill:none;stroke:#fff;stroke-linecap:round;stroke-linejoin:round"></circle><path d="M185.11,205.55a1.39,1.39,0,1,1-1.39-1.39A1.39,1.39,0,0,1,185.11,205.55Z" style="fill:none;stroke:#fff;stroke-linecap:round;stroke-linejoin:round"></path><path d="M190.21,205.55a1.4,1.4,0,1,1-1.4-1.39A1.4,1.4,0,0,1,190.21,205.55Z" style="fill:none;stroke:#fff;stroke-linecap:round;stroke-linejoin:round"></path><circle cx="163.34" cy="210.07" r="1.39" style="fill:none;stroke:#fff;stroke-linecap:round;stroke-linejoin:round"></circle><circle cx="168.43" cy="210.07" r="1.39" style="fill:none;stroke:#fff;stroke-linecap:round;stroke-linejoin:round"></circle><circle cx="173.53" cy="210.07" r="1.39" style="fill:none;stroke:#fff;stroke-linecap:round;stroke-linejoin:round"></circle><circle cx="178.62" cy="210.07" r="1.39" style="fill:none;stroke:#fff;stroke-linecap:round;stroke-linejoin:round"></circle><path d="M185.11,210.07a1.39,1.39,0,1,1-1.39-1.39A1.39,1.39,0,0,1,185.11,210.07Z" style="fill:none;stroke:#fff;stroke-linecap:round;stroke-linejoin:round"></path><path d="M190.21,210.07a1.4,1.4,0,1,1-1.4-1.39A1.4,1.4,0,0,1,190.21,210.07Z" style="fill:none;stroke:#fff;stroke-linecap:round;stroke-linejoin:round"></path><rect x="115.04" y="206.02" width="38.8" height="3.08" style="fill:#92E3A9"></rect><rect x="193.24" y="199.74" width="4" height="15.91" style="fill:#fff;stroke:#fff;stroke-linecap:round;stroke-linejoin:round"></rect><rect x="199.59" y="205.51" width="34.25" height="4.4" style="fill:#fff"></rect><path d="M234.68,378.29H112.61a6.6,6.6,0,0,1-6.6-6.6h0a6.6,6.6,0,0,1,6.6-6.6H234.68a6.6,6.6,0,0,1,6.6,6.6h0A6.6,6.6,0,0,1,234.68,378.29Z" style="fill:none;stroke:#fff;stroke-linecap:round;stroke-linejoin:round"></path><rect x="113.11" y="368.27" width="42.66" height="6.18" style="fill:none;stroke:#fff;stroke-linecap:round;stroke-linejoin:round"></rect><path d="M164.73,369.35a1.39,1.39,0,1,1-1.39-1.39A1.39,1.39,0,0,1,164.73,369.35Z" style="fill:none;stroke:#fff;stroke-linecap:round;stroke-linejoin:round"></path><path d="M169.82,369.35a1.39,1.39,0,1,1-1.39-1.39A1.39,1.39,0,0,1,169.82,369.35Z" style="fill:none;stroke:#fff;stroke-linecap:round;stroke-linejoin:round"></path><path d="M174.92,369.35a1.39,1.39,0,1,1-1.39-1.39A1.39,1.39,0,0,1,174.92,369.35Z" style="fill:none;stroke:#fff;stroke-linecap:round;stroke-linejoin:round"></path><path d="M180,369.35a1.4,1.4,0,1,1-1.4-1.39A1.4,1.4,0,0,1,180,369.35Z" style="fill:none;stroke:#fff;stroke-linecap:round;stroke-linejoin:round"></path><path d="M185.11,369.35a1.39,1.39,0,1,1-1.39-1.39A1.39,1.39,0,0,1,185.11,369.35Z" style="fill:none;stroke:#fff;stroke-linecap:round;stroke-linejoin:round"></path><path d="M190.21,369.35a1.4,1.4,0,1,1-1.4-1.39A1.4,1.4,0,0,1,190.21,369.35Z" style="fill:none;stroke:#fff;stroke-linecap:round;stroke-linejoin:round"></path><path d="M164.73,373.87a1.39,1.39,0,1,1-1.39-1.39A1.39,1.39,0,0,1,164.73,373.87Z" style="fill:none;stroke:#fff;stroke-linecap:round;stroke-linejoin:round"></path><path d="M169.82,373.87a1.39,1.39,0,1,1-1.39-1.39A1.39,1.39,0,0,1,169.82,373.87Z" style="fill:none;stroke:#fff;stroke-linecap:round;stroke-linejoin:round"></path><path d="M174.92,373.87a1.39,1.39,0,1,1-1.39-1.39A1.39,1.39,0,0,1,174.92,373.87Z" style="fill:none;stroke:#fff;stroke-linecap:round;stroke-linejoin:round"></path><path d="M180,373.87a1.4,1.4,0,1,1-1.4-1.39A1.4,1.4,0,0,1,180,373.87Z" style="fill:none;stroke:#fff;stroke-linecap:round;stroke-linejoin:round"></path><path d="M185.11,373.87a1.39,1.39,0,1,1-1.39-1.39A1.39,1.39,0,0,1,185.11,373.87Z" style="fill:none;stroke:#fff;stroke-linecap:round;stroke-linejoin:round"></path><path d="M190.21,373.87a1.4,1.4,0,1,1-1.4-1.39A1.4,1.4,0,0,1,190.21,373.87Z" style="fill:none;stroke:#fff;stroke-linecap:round;stroke-linejoin:round"></path><rect x="115.04" y="369.82" width="38.8" height="3.08" style="fill:#92E3A9"></rect><rect x="193.24" y="363.54" width="4" height="15.91" style="fill:#fff;stroke:#fff;stroke-linecap:round;stroke-linejoin:round"></rect><path d="M234.68,365.09H193.24v13.2h41.44a6.6,6.6,0,0,0,0-13.2Z" style="fill:none;stroke:#fff;stroke-linecap:round;stroke-linejoin:round"></path><rect x="199.59" y="369.31" width="34.25" height="4.4" style="fill:#fff"></rect><path d="M234.68,233.43H112.61a6.6,6.6,0,0,1-6.6-6.6h0a6.6,6.6,0,0,1,6.6-6.6H234.68a6.6,6.6,0,0,1,6.6,6.6h0A6.6,6.6,0,0,1,234.68,233.43Z" style="fill:none;stroke:#fff;stroke-linecap:round;stroke-linejoin:round"></path><rect x="113.11" y="223.41" width="42.66" height="6.18" style="fill:none;stroke:#fff;stroke-linecap:round;stroke-linejoin:round"></rect><path d="M164.73,224.49a1.39,1.39,0,1,1-1.39-1.39A1.39,1.39,0,0,1,164.73,224.49Z" style="fill:none;stroke:#fff;stroke-linecap:round;stroke-linejoin:round"></path><path d="M169.82,224.49a1.39,1.39,0,1,1-1.39-1.39A1.39,1.39,0,0,1,169.82,224.49Z" style="fill:none;stroke:#fff;stroke-linecap:round;stroke-linejoin:round"></path><path d="M174.92,224.49a1.39,1.39,0,1,1-1.39-1.39A1.39,1.39,0,0,1,174.92,224.49Z" style="fill:none;stroke:#fff;stroke-linecap:round;stroke-linejoin:round"></path><path d="M180,224.49a1.4,1.4,0,1,1-1.4-1.39A1.4,1.4,0,0,1,180,224.49Z" style="fill:none;stroke:#fff;stroke-linecap:round;stroke-linejoin:round"></path><path d="M185.11,224.49a1.39,1.39,0,1,1-1.39-1.39A1.39,1.39,0,0,1,185.11,224.49Z" style="fill:none;stroke:#fff;stroke-linecap:round;stroke-linejoin:round"></path><path d="M190.21,224.49a1.4,1.4,0,1,1-1.4-1.39A1.4,1.4,0,0,1,190.21,224.49Z" style="fill:none;stroke:#fff;stroke-linecap:round;stroke-linejoin:round"></path><path d="M164.73,229a1.39,1.39,0,1,1-1.39-1.39A1.39,1.39,0,0,1,164.73,229Z" style="fill:none;stroke:#fff;stroke-linecap:round;stroke-linejoin:round"></path><path d="M169.82,229a1.39,1.39,0,1,1-1.39-1.39A1.39,1.39,0,0,1,169.82,229Z" style="fill:none;stroke:#fff;stroke-linecap:round;stroke-linejoin:round"></path><path d="M174.92,229a1.39,1.39,0,1,1-1.39-1.39A1.39,1.39,0,0,1,174.92,229Z" style="fill:none;stroke:#fff;stroke-linecap:round;stroke-linejoin:round"></path><path d="M180,229a1.4,1.4,0,1,1-1.4-1.39A1.4,1.4,0,0,1,180,229Z" style="fill:none;stroke:#fff;stroke-linecap:round;stroke-linejoin:round"></path><path d="M185.11,229a1.39,1.39,0,1,1-1.39-1.39A1.39,1.39,0,0,1,185.11,229Z" style="fill:none;stroke:#fff;stroke-linecap:round;stroke-linejoin:round"></path><path d="M190.21,229a1.4,1.4,0,1,1-1.4-1.39A1.4,1.4,0,0,1,190.21,229Z" style="fill:none;stroke:#fff;stroke-linecap:round;stroke-linejoin:round"></path><rect x="115.04" y="224.96" width="38.8" height="3.08" style="fill:#92E3A9"></rect><rect x="193.24" y="218.68" width="4" height="15.91" style="fill:#fff;stroke:#fff;stroke-linecap:round;stroke-linejoin:round"></rect><rect x="199.59" y="224.45" width="34.25" height="4.4" style="fill:#fff"></rect><path d="M234.68,252.37H112.61a6.6,6.6,0,0,1-6.6-6.6h0a6.59,6.59,0,0,1,6.6-6.6H234.68a6.59,6.59,0,0,1,6.6,6.6h0A6.6,6.6,0,0,1,234.68,252.37Z" style="fill:none;stroke:#fff;stroke-linecap:round;stroke-linejoin:round"></path><rect x="113.11" y="242.35" width="42.66" height="6.18" style="fill:none;stroke:#fff;stroke-linecap:round;stroke-linejoin:round"></rect><circle cx="163.34" cy="243.43" r="1.39" style="fill:none;stroke:#fff;stroke-linecap:round;stroke-linejoin:round"></circle><circle cx="168.43" cy="243.43" r="1.39" style="fill:none;stroke:#fff;stroke-linecap:round;stroke-linejoin:round"></circle><circle cx="173.53" cy="243.43" r="1.39" style="fill:none;stroke:#fff;stroke-linecap:round;stroke-linejoin:round"></circle><circle cx="178.62" cy="243.43" r="1.39" style="fill:none;stroke:#fff;stroke-linecap:round;stroke-linejoin:round"></circle><path d="M185.11,243.43a1.39,1.39,0,1,1-1.39-1.39A1.39,1.39,0,0,1,185.11,243.43Z" style="fill:none;stroke:#fff;stroke-linecap:round;stroke-linejoin:round"></path><path d="M190.21,243.43a1.4,1.4,0,1,1-1.4-1.39A1.4,1.4,0,0,1,190.21,243.43Z" style="fill:none;stroke:#fff;stroke-linecap:round;stroke-linejoin:round"></path><circle cx="163.34" cy="247.95" r="1.39" style="fill:none;stroke:#fff;stroke-linecap:round;stroke-linejoin:round"></circle><circle cx="168.43" cy="247.95" r="1.39" style="fill:none;stroke:#fff;stroke-linecap:round;stroke-linejoin:round"></circle><circle cx="173.53" cy="247.95" r="1.39" style="fill:none;stroke:#fff;stroke-linecap:round;stroke-linejoin:round"></circle><circle cx="178.62" cy="247.95" r="1.39" style="fill:none;stroke:#fff;stroke-linecap:round;stroke-linejoin:round"></circle><path d="M185.11,248a1.39,1.39,0,1,1-1.39-1.39A1.39,1.39,0,0,1,185.11,248Z" style="fill:none;stroke:#fff;stroke-linecap:round;stroke-linejoin:round"></path><path d="M190.21,248a1.4,1.4,0,1,1-1.4-1.39A1.4,1.4,0,0,1,190.21,248Z" style="fill:none;stroke:#fff;stroke-linecap:round;stroke-linejoin:round"></path><rect x="115.04" y="243.9" width="38.8" height="3.08" style="fill:#92E3A9"></rect><rect x="193.24" y="237.62" width="4" height="15.91" style="fill:#fff;stroke:#fff;stroke-linecap:round;stroke-linejoin:round"></rect><path d="M234.68,239.17H193.24v13.2h41.44a6.6,6.6,0,0,0,0-13.2Z" style="fill:none;stroke:#fff;stroke-linecap:round;stroke-linejoin:round"></path><rect x="199.59" y="243.39" width="34.25" height="4.4" style="fill:#fff"></rect><rect x="106.01" y="259.64" width="135.27" height="13.2" rx="6.6" style="fill:none;stroke:#fff;stroke-linecap:round;stroke-linejoin:round"></rect><rect x="113.11" y="262.82" width="42.66" height="6.18" style="fill:none;stroke:#fff;stroke-linecap:round;stroke-linejoin:round"></rect><path d="M164.73,263.9a1.39,1.39,0,1,1-1.39-1.39A1.4,1.4,0,0,1,164.73,263.9Z" style="fill:none;stroke:#fff;stroke-linecap:round;stroke-linejoin:round"></path><path d="M169.82,263.9a1.39,1.39,0,1,1-1.39-1.39A1.4,1.4,0,0,1,169.82,263.9Z" style="fill:none;stroke:#fff;stroke-linecap:round;stroke-linejoin:round"></path><path d="M174.92,263.9a1.39,1.39,0,1,1-1.39-1.39A1.4,1.4,0,0,1,174.92,263.9Z" style="fill:none;stroke:#fff;stroke-linecap:round;stroke-linejoin:round"></path><path d="M180,263.9a1.4,1.4,0,1,1-1.4-1.39A1.4,1.4,0,0,1,180,263.9Z" style="fill:none;stroke:#fff;stroke-linecap:round;stroke-linejoin:round"></path><path d="M185.11,263.9a1.39,1.39,0,1,1-1.39-1.39A1.4,1.4,0,0,1,185.11,263.9Z" style="fill:none;stroke:#fff;stroke-linecap:round;stroke-linejoin:round"></path><path d="M190.21,263.9a1.4,1.4,0,1,1-1.4-1.39A1.4,1.4,0,0,1,190.21,263.9Z" style="fill:none;stroke:#fff;stroke-linecap:round;stroke-linejoin:round"></path><path d="M164.73,268.42a1.39,1.39,0,1,1-1.39-1.39A1.39,1.39,0,0,1,164.73,268.42Z" style="fill:none;stroke:#fff;stroke-linecap:round;stroke-linejoin:round"></path><path d="M169.82,268.42a1.39,1.39,0,1,1-1.39-1.39A1.39,1.39,0,0,1,169.82,268.42Z" style="fill:none;stroke:#fff;stroke-linecap:round;stroke-linejoin:round"></path><path d="M174.92,268.42a1.39,1.39,0,1,1-1.39-1.39A1.39,1.39,0,0,1,174.92,268.42Z" style="fill:none;stroke:#fff;stroke-linecap:round;stroke-linejoin:round"></path><path d="M180,268.42a1.4,1.4,0,1,1-1.4-1.39A1.4,1.4,0,0,1,180,268.42Z" style="fill:none;stroke:#fff;stroke-linecap:round;stroke-linejoin:round"></path><path d="M185.11,268.42a1.39,1.39,0,1,1-1.39-1.39A1.39,1.39,0,0,1,185.11,268.42Z" style="fill:none;stroke:#fff;stroke-linecap:round;stroke-linejoin:round"></path><path d="M190.21,268.42a1.4,1.4,0,1,1-1.4-1.39A1.4,1.4,0,0,1,190.21,268.42Z" style="fill:none;stroke:#fff;stroke-linecap:round;stroke-linejoin:round"></path><rect x="115.04" y="264.37" width="38.8" height="3.08" style="fill:#92E3A9"></rect><rect x="193.24" y="258.1" width="4" height="15.91" style="fill:#fff;stroke:#fff;stroke-linecap:round;stroke-linejoin:round"></rect><path d="M234.68,259.64H193.24v13.2h41.44a6.6,6.6,0,0,0,0-13.2Z" style="fill:#fff;stroke:#fff;stroke-linecap:round;stroke-linejoin:round"></path><rect x="199.59" y="263.86" width="34.25" height="4.4" style="fill:#263238;stroke:#263238;stroke-linecap:round;stroke-linejoin:round"></rect><rect x="106.01" y="278.07" width="135.27" height="13.2" rx="6.6" style="fill:none;stroke:#fff;stroke-linecap:round;stroke-linejoin:round"></rect><rect x="113.11" y="281.25" width="42.66" height="6.18" style="fill:none;stroke:#fff;stroke-linecap:round;stroke-linejoin:round"></rect><path d="M164.73,282.33a1.39,1.39,0,1,1-1.39-1.39A1.39,1.39,0,0,1,164.73,282.33Z" style="fill:none;stroke:#fff;stroke-linecap:round;stroke-linejoin:round"></path><path d="M169.82,282.33a1.39,1.39,0,1,1-1.39-1.39A1.39,1.39,0,0,1,169.82,282.33Z" style="fill:none;stroke:#fff;stroke-linecap:round;stroke-linejoin:round"></path><path d="M174.92,282.33a1.39,1.39,0,1,1-1.39-1.39A1.39,1.39,0,0,1,174.92,282.33Z" style="fill:none;stroke:#fff;stroke-linecap:round;stroke-linejoin:round"></path><path d="M180,282.33a1.4,1.4,0,1,1-1.4-1.39A1.4,1.4,0,0,1,180,282.33Z" style="fill:none;stroke:#fff;stroke-linecap:round;stroke-linejoin:round"></path><path d="M185.11,282.33a1.39,1.39,0,1,1-1.39-1.39A1.39,1.39,0,0,1,185.11,282.33Z" style="fill:none;stroke:#fff;stroke-linecap:round;stroke-linejoin:round"></path><path d="M190.21,282.33a1.4,1.4,0,1,1-1.4-1.39A1.4,1.4,0,0,1,190.21,282.33Z" style="fill:none;stroke:#fff;stroke-linecap:round;stroke-linejoin:round"></path><path d="M164.73,286.85a1.39,1.39,0,1,1-1.39-1.39A1.39,1.39,0,0,1,164.73,286.85Z" style="fill:none;stroke:#fff;stroke-linecap:round;stroke-linejoin:round"></path><path d="M169.82,286.85a1.39,1.39,0,1,1-1.39-1.39A1.39,1.39,0,0,1,169.82,286.85Z" style="fill:none;stroke:#fff;stroke-linecap:round;stroke-linejoin:round"></path><path d="M174.92,286.85a1.39,1.39,0,1,1-1.39-1.39A1.39,1.39,0,0,1,174.92,286.85Z" style="fill:none;stroke:#fff;stroke-linecap:round;stroke-linejoin:round"></path><path d="M180,286.85a1.4,1.4,0,1,1-1.4-1.39A1.4,1.4,0,0,1,180,286.85Z" style="fill:none;stroke:#fff;stroke-linecap:round;stroke-linejoin:round"></path><path d="M185.11,286.85a1.39,1.39,0,1,1-1.39-1.39A1.39,1.39,0,0,1,185.11,286.85Z" style="fill:none;stroke:#fff;stroke-linecap:round;stroke-linejoin:round"></path><path d="M190.21,286.85a1.4,1.4,0,1,1-1.4-1.39A1.4,1.4,0,0,1,190.21,286.85Z" style="fill:none;stroke:#fff;stroke-linecap:round;stroke-linejoin:round"></path><rect x="115.04" y="282.8" width="38.8" height="3.08" style="fill:#92E3A9"></rect><rect x="193.24" y="276.52" width="4" height="15.91" style="fill:#fff;stroke:#fff;stroke-linecap:round;stroke-linejoin:round"></rect><path d="M234.68,278.07H193.24v13.2h41.44a6.6,6.6,0,0,0,0-13.2Z" style="fill:#fff;stroke:#fff;stroke-linecap:round;stroke-linejoin:round"></path><rect x="199.59" y="282.29" width="34.25" height="4.4" style="fill:#263238;stroke:#263238;stroke-linecap:round;stroke-linejoin:round"></rect><line x1="45.24" y1="429.74" x2="451.02" y2="429.74" style="fill:none;stroke:#263238;stroke-miterlimit:10"></line></g><g id="freepik--Windows--inject-215"><polygon points="337.56 129.34 332.05 120.56 283.61 120.56 283.61 129.34 283.61 132.5 283.61 278.01 427.14 278.01 427.14 129.34 337.56 129.34" style="fill:#263238"></polygon><rect x="285.09" y="133.36" width="140.74" height="141.47" style="fill:#fff"></rect><g style="clip-path:url(#freepik--clip-path-2--inject-215)"><rect x="422.23" y="132.15" width="4.56" height="143.76" style="opacity:0.17"></rect><rect x="422.23" y="219.38" width="4.56" height="55.36" style="opacity:0.17"></rect><rect x="284.31" y="131.44" width="141.78" height="7.72" style="fill:#92E3A9;stroke:#263238;stroke-miterlimit:10"></rect></g><rect x="285.09" y="133.36" width="140.74" height="141.47" style="fill:none;stroke:#263238;stroke-linecap:round;stroke-linejoin:round"></rect><g style="opacity:0.17"><path d="M387.52,146.61H373.77a1.21,1.21,0,0,1-1.21-1.21h0a1.21,1.21,0,0,1,1.21-1.21h13.75a1.22,1.22,0,0,1,1.22,1.21h0A1.22,1.22,0,0,1,387.52,146.61Z"></path><path d="M415,146.61H401.28a1.21,1.21,0,0,1-1.21-1.21h0a1.21,1.21,0,0,1,1.21-1.21H415a1.22,1.22,0,0,1,1.22,1.21h0A1.22,1.22,0,0,1,415,146.61Z"></path></g><path d="M321.11,172.73a.18.18,0,0,1-.06-.13.38.38,0,0,1,.15-.27.42.42,0,0,1,.29-.13.17.17,0,0,1,.13.05,3.23,3.23,0,0,0,.9.52,3.07,3.07,0,0,0,1.19.22,2.46,2.46,0,0,0,1.35-.35,1.12,1.12,0,0,0,.53-1,1.73,1.73,0,0,0-.08-.55,1,1,0,0,0-.28-.39,1.73,1.73,0,0,0-.43-.27,4,4,0,0,0-.64-.24l-1.41-.48a3.19,3.19,0,0,1-1.26-.71,1.62,1.62,0,0,1-.44-1.19,1.73,1.73,0,0,1,.35-1.06,2.34,2.34,0,0,1,1-.7,4,4,0,0,1,2.76,0,3,3,0,0,1,1,.58.33.33,0,0,1,.11.23.31.31,0,0,1-.11.23.33.33,0,0,1-.24.1.31.31,0,0,1-.21-.07,3.74,3.74,0,0,0-.81-.43,2.88,2.88,0,0,0-1.11-.2,2.38,2.38,0,0,0-1.36.34,1.1,1.1,0,0,0-.5.93,1,1,0,0,0,.3.75,2.71,2.71,0,0,0,1,.49l1.42.47a7.29,7.29,0,0,1,.75.3,2.63,2.63,0,0,1,.57.39,1.56,1.56,0,0,1,.4.55,2.2,2.2,0,0,1,.13.76,1.88,1.88,0,0,1-.75,1.61,3.34,3.34,0,0,1-2.06.57A3.46,3.46,0,0,1,321.11,172.73Z" style="fill:#263238"></path><path d="M330.22,173.68a2.49,2.49,0,0,1-1.85-.76,2.79,2.79,0,0,1-.74-2,3.18,3.18,0,0,1,.3-1.39,2.4,2.4,0,0,1,.89-1,2.49,2.49,0,0,1,1.39-.4,2.91,2.91,0,0,1,.92.14,2,2,0,0,1,.68.39,2,2,0,0,1,.45.58,2.42,2.42,0,0,1,.27.72,4.09,4.09,0,0,1,.1.82.25.25,0,0,1-.09.2.35.35,0,0,1-.26.08h-3.85a2.07,2.07,0,0,0,.52,1.54,1.82,1.82,0,0,0,1.32.56,2.19,2.19,0,0,0,1-.19,3.57,3.57,0,0,0,.8-.51.34.34,0,0,1,.21-.08.25.25,0,0,1,.17.08.25.25,0,0,1,.08.18.39.39,0,0,1-.13.27,3.09,3.09,0,0,1-.88.59,2.88,2.88,0,0,1-1.25.23Zm1.7-3.17a2.31,2.31,0,0,0-.46-1.36,1.41,1.41,0,0,0-1.19-.52,1.58,1.58,0,0,0-1.28.55,2.21,2.21,0,0,0-.54,1.33Z" style="fill:#263238"></path><path d="M334.28,173.47a.34.34,0,0,1-.11-.27v-4.61a.34.34,0,0,1,.12-.27.44.44,0,0,1,.27-.09.4.4,0,0,1,.28.1.32.32,0,0,1,.12.27v.64a1.66,1.66,0,0,1,.54-.84,1.53,1.53,0,0,1,1-.33.24.24,0,0,1,.22.11.38.38,0,0,1,.09.25.29.29,0,0,1-.09.22.31.31,0,0,1-.24.09,1.76,1.76,0,0,0-.71.14,1.27,1.27,0,0,0-.48.36,1.53,1.53,0,0,0-.25.47,1.35,1.35,0,0,0-.09.47v3a.32.32,0,0,1-.12.27.48.48,0,0,1-.29.1A.39.39,0,0,1,334.28,173.47Z" style="fill:#263238"></path><path d="M339.49,173.43a1.69,1.69,0,0,1-.28-.47l-1.81-4.24a.36.36,0,0,1,0-.11.38.38,0,0,1,.13-.28.4.4,0,0,1,.29-.12.33.33,0,0,1,.31.26l1.77,4.26,1.77-4.26c.07-.17.17-.26.32-.26a.44.44,0,0,1,.29.12.43.43,0,0,1,.13.28.2.2,0,0,1,0,.11l-1.8,4.24a1.67,1.67,0,0,1-.29.47.65.65,0,0,1-.78,0Z" style="fill:#263238"></path><path d="M345.73,173.68a2.47,2.47,0,0,1-1.85-.76,2.79,2.79,0,0,1-.74-2,3.18,3.18,0,0,1,.3-1.39,2.34,2.34,0,0,1,.89-1,2.48,2.48,0,0,1,1.38-.4,2.93,2.93,0,0,1,.93.14,2.13,2.13,0,0,1,.68.39,2,2,0,0,1,.45.58,3.13,3.13,0,0,1,.27.72,3.49,3.49,0,0,1,.09.82.25.25,0,0,1-.09.2.32.32,0,0,1-.25.08h-3.86a2.07,2.07,0,0,0,.53,1.54,1.82,1.82,0,0,0,1.32.56,2.19,2.19,0,0,0,1-.19,3.81,3.81,0,0,0,.8-.51.32.32,0,0,1,.2-.08.25.25,0,0,1,.18.08.24.24,0,0,1,.07.18.35.35,0,0,1-.13.27,2.91,2.91,0,0,1-.87.59,2.88,2.88,0,0,1-1.25.23Zm1.7-3.17a2.31,2.31,0,0,0-.46-1.36,1.41,1.41,0,0,0-1.19-.52,1.62,1.62,0,0,0-1.29.55,2.26,2.26,0,0,0-.53,1.33Z" style="fill:#263238"></path><path d="M349.79,173.47a.31.31,0,0,1-.11-.27v-4.61a.34.34,0,0,1,.12-.27.44.44,0,0,1,.27-.09.4.4,0,0,1,.28.1.32.32,0,0,1,.12.27v.64a1.66,1.66,0,0,1,.54-.84,1.52,1.52,0,0,1,1-.33.25.25,0,0,1,.22.11.38.38,0,0,1,.09.25.29.29,0,0,1-.09.22.33.33,0,0,1-.25.09,1.75,1.75,0,0,0-.7.14,1.13,1.13,0,0,0-.48.36,1.53,1.53,0,0,0-.25.47,1.35,1.35,0,0,0-.09.47v3a.32.32,0,0,1-.12.27.48.48,0,0,1-.29.1A.39.39,0,0,1,349.79,173.47Z" style="fill:#263238"></path><path d="M359,173.46a.35.35,0,0,1-.13-.3v-6.34l-1.22.79a.38.38,0,0,1-.18.06.37.37,0,0,1-.24-.1.31.31,0,0,1,.05-.49l1.79-1.15a.46.46,0,0,1,.26-.07.44.44,0,0,1,.29.11.39.39,0,0,1,.12.31v6.88a.38.38,0,0,1-.13.3.47.47,0,0,1-.31.11A.44.44,0,0,1,359,173.46Z" style="fill:#263238"></path><rect x="292.82" y="165.05" width="17.52" height="4.48" style="fill:#92E3A9"></rect><rect x="292.82" y="170.14" width="17.52" height="4.48" style="fill:#92E3A9"></rect><rect x="311.09" y="165.09" width="3.1" height="9.52" style="fill:#92E3A9"></rect><path d="M321.11,192.9a.18.18,0,0,1-.06-.13.38.38,0,0,1,.15-.27.42.42,0,0,1,.29-.13.2.2,0,0,1,.13,0,3.24,3.24,0,0,0,2.09.75,2.46,2.46,0,0,0,1.35-.35,1.14,1.14,0,0,0,.53-1,1.73,1.73,0,0,0-.08-.55,1,1,0,0,0-.28-.39,2.12,2.12,0,0,0-.43-.28c-.16-.07-.37-.15-.64-.24l-1.41-.47a3.19,3.19,0,0,1-1.26-.71,1.62,1.62,0,0,1-.44-1.19,1.71,1.71,0,0,1,.35-1.06,2.25,2.25,0,0,1,1-.7,3.59,3.59,0,0,1,1.34-.24,4,4,0,0,1,1.42.26,3.19,3.19,0,0,1,1,.59.31.31,0,0,1,.11.23.33.33,0,0,1-.11.23.33.33,0,0,1-.24.1.31.31,0,0,1-.21-.07,3.74,3.74,0,0,0-.81-.43,2.89,2.89,0,0,0-1.11-.21,2.38,2.38,0,0,0-1.36.35,1.08,1.08,0,0,0-.5.92,1,1,0,0,0,.3.76,2.89,2.89,0,0,0,1,.49l1.42.46a5.5,5.5,0,0,1,.75.31,3,3,0,0,1,.57.38,1.6,1.6,0,0,1,.4.56,2.18,2.18,0,0,1,.13.75,1.89,1.89,0,0,1-.75,1.62,3.34,3.34,0,0,1-2.06.56A3.49,3.49,0,0,1,321.11,192.9Z" style="fill:#263238"></path><path d="M330.22,193.85a2.53,2.53,0,0,1-1.85-.76,2.79,2.79,0,0,1-.74-2,3.23,3.23,0,0,1,.3-1.4,2.48,2.48,0,0,1,2.28-1.42,2.91,2.91,0,0,1,.92.14,2,2,0,0,1,.68.38,2.05,2.05,0,0,1,.45.59,2.42,2.42,0,0,1,.27.72,4.08,4.08,0,0,1,.1.81.27.27,0,0,1-.09.21.4.4,0,0,1-.26.08h-3.85a2.09,2.09,0,0,0,.52,1.54,1.81,1.81,0,0,0,1.32.55,2.35,2.35,0,0,0,1-.18,3.57,3.57,0,0,0,.8-.51.34.34,0,0,1,.21-.08.25.25,0,0,1,.17.08.25.25,0,0,1,.08.18.39.39,0,0,1-.13.27,3.31,3.31,0,0,1-.88.59,3,3,0,0,1-1.25.23Zm1.7-3.17a2.28,2.28,0,0,0-.46-1.36,1.41,1.41,0,0,0-1.19-.52,1.6,1.6,0,0,0-1.28.54,2.24,2.24,0,0,0-.54,1.34Z" style="fill:#263238"></path><path d="M334.28,193.64a.34.34,0,0,1-.11-.27v-4.61a.33.33,0,0,1,.12-.27.44.44,0,0,1,.27-.09.45.45,0,0,1,.28.09.35.35,0,0,1,.12.28v.64a1.58,1.58,0,0,1,.54-.84,1.54,1.54,0,0,1,1-.34.25.25,0,0,1,.22.12.37.37,0,0,1,.09.25.31.31,0,0,1-.33.31,1.76,1.76,0,0,0-.71.14,1.27,1.27,0,0,0-.48.36,1.6,1.6,0,0,0-.25.46,1.36,1.36,0,0,0-.09.48v3a.34.34,0,0,1-.12.27.48.48,0,0,1-.29.09A.44.44,0,0,1,334.28,193.64Z" style="fill:#263238"></path><path d="M339.49,193.6a1.63,1.63,0,0,1-.28-.48l-1.81-4.24a.25.25,0,0,1,0-.1.37.37,0,0,1,.13-.28.4.4,0,0,1,.29-.12.32.32,0,0,1,.31.26l1.77,4.26,1.77-4.26c.07-.18.17-.26.32-.26a.44.44,0,0,1,.29.12.41.41,0,0,1,.13.28.15.15,0,0,1,0,.1l-1.8,4.24a1.61,1.61,0,0,1-.29.48.65.65,0,0,1-.78,0Z" style="fill:#263238"></path><path d="M345.73,193.85a2.51,2.51,0,0,1-1.85-.76,2.79,2.79,0,0,1-.74-2,3.23,3.23,0,0,1,.3-1.4,2.37,2.37,0,0,1,.89-1,2.4,2.4,0,0,1,1.38-.4,2.93,2.93,0,0,1,.93.14,2.11,2.11,0,0,1,.68.38,2.05,2.05,0,0,1,.45.59,3.13,3.13,0,0,1,.27.72,3.47,3.47,0,0,1,.09.81.27.27,0,0,1-.09.21.36.36,0,0,1-.25.08h-3.86a2.09,2.09,0,0,0,.53,1.54,1.81,1.81,0,0,0,1.32.55,2.35,2.35,0,0,0,1-.18,3.81,3.81,0,0,0,.8-.51.32.32,0,0,1,.2-.08.25.25,0,0,1,.18.08.24.24,0,0,1,.07.18.35.35,0,0,1-.13.27,3.11,3.11,0,0,1-.87.59,3,3,0,0,1-1.25.23Zm1.7-3.17a2.28,2.28,0,0,0-.46-1.36,1.41,1.41,0,0,0-1.19-.52,1.64,1.64,0,0,0-1.29.54,2.29,2.29,0,0,0-.53,1.34Z" style="fill:#263238"></path><path d="M349.79,193.64a.31.31,0,0,1-.11-.27v-4.61a.33.33,0,0,1,.12-.27.44.44,0,0,1,.27-.09.45.45,0,0,1,.28.09.35.35,0,0,1,.12.28v.64a1.58,1.58,0,0,1,.54-.84,1.52,1.52,0,0,1,1-.34.26.26,0,0,1,.22.12.37.37,0,0,1,.09.25.31.31,0,0,1-.09.22.33.33,0,0,1-.25.09,1.75,1.75,0,0,0-.7.14,1.13,1.13,0,0,0-.48.36,1.6,1.6,0,0,0-.25.46,1.36,1.36,0,0,0-.09.48v3a.34.34,0,0,1-.12.27.48.48,0,0,1-.29.09A.44.44,0,0,1,349.79,193.64Z" style="fill:#263238"></path><path d="M356.71,193.6a.37.37,0,0,1-.19-.33.67.67,0,0,1,.24-.46l2.82-2.88a4.52,4.52,0,0,0,.71-.9,1.77,1.77,0,0,0,.22-.82,1.52,1.52,0,0,0-.44-1.13,1.54,1.54,0,0,0-1.09-.43,3.88,3.88,0,0,0-.71.07,3,3,0,0,0-.45.13,2,2,0,0,0-.38.2l-.29.17a.34.34,0,0,1-.15,0,.34.34,0,0,1-.25-.11.37.37,0,0,1-.1-.24.33.33,0,0,1,.18-.29l.58-.34a4,4,0,0,1,.67-.22,4.1,4.1,0,0,1,1-.1,2.26,2.26,0,0,1,1.62.63,2,2,0,0,1,.65,1.52,2.49,2.49,0,0,1-.28,1.17,5.38,5.38,0,0,1-1,1.21l-2.57,2.58h3.39a.4.4,0,0,1,.3.1.31.31,0,0,1,.11.23.34.34,0,0,1-.11.24.45.45,0,0,1-.3.09H357.2A.83.83,0,0,1,356.71,193.6Z" style="fill:#263238"></path><rect x="292.82" y="185.22" width="17.52" height="4.48" style="fill:#92E3A9"></rect><rect x="292.82" y="190.31" width="17.52" height="4.48" style="fill:#92E3A9"></rect><rect x="311.09" y="185.26" width="3.1" height="9.52" style="fill:#92E3A9"></rect><path d="M321.11,213.06a.16.16,0,0,1-.06-.13.38.38,0,0,1,.15-.27.47.47,0,0,1,.29-.13.21.21,0,0,1,.13.05,3.17,3.17,0,0,0,2.09.74,2.38,2.38,0,0,0,1.35-.35,1.11,1.11,0,0,0,.53-1,1.73,1.73,0,0,0-.08-.55,1,1,0,0,0-.28-.39,1.77,1.77,0,0,0-.43-.28c-.16-.07-.37-.15-.64-.24l-1.41-.48a3.07,3.07,0,0,1-1.26-.71,1.58,1.58,0,0,1-.44-1.19,1.73,1.73,0,0,1,.35-1.06,2.32,2.32,0,0,1,1-.69,3.59,3.59,0,0,1,1.34-.24,4,4,0,0,1,1.42.26,3,3,0,0,1,1,.59.29.29,0,0,1,.11.22.34.34,0,0,1-.11.24.37.37,0,0,1-.24.1.32.32,0,0,1-.21-.08,3.36,3.36,0,0,0-.81-.42,2.89,2.89,0,0,0-1.11-.21,2.38,2.38,0,0,0-1.36.35,1.08,1.08,0,0,0-.5.92,1,1,0,0,0,.3.75,2.71,2.71,0,0,0,1,.5l1.42.46a7.29,7.29,0,0,1,.75.3,3,3,0,0,1,.57.39,1.51,1.51,0,0,1,.4.56,2.1,2.1,0,0,1,.13.75,1.91,1.91,0,0,1-.75,1.62,3.4,3.4,0,0,1-2.06.56A3.46,3.46,0,0,1,321.11,213.06Z" style="fill:#263238"></path><path d="M330.22,214a2.5,2.5,0,0,1-1.85-.77,2.77,2.77,0,0,1-.74-2,3.18,3.18,0,0,1,.3-1.39,2.52,2.52,0,0,1,.89-1,2.49,2.49,0,0,1,1.39-.39,2.91,2.91,0,0,1,.92.14,1.86,1.86,0,0,1,.68.38,2.05,2.05,0,0,1,.45.59,2.23,2.23,0,0,1,.27.72,4.08,4.08,0,0,1,.1.81.29.29,0,0,1-.09.21.4.4,0,0,1-.26.08h-3.85a2.06,2.06,0,0,0,.52,1.53,1.82,1.82,0,0,0,1.32.56,2.35,2.35,0,0,0,1-.18,4,4,0,0,0,.8-.51.29.29,0,0,1,.21-.08.23.23,0,0,1,.17.07.27.27,0,0,1,.08.19.4.4,0,0,1-.13.27,3.31,3.31,0,0,1-.88.59,3,3,0,0,1-1.25.23Zm1.7-3.18a2.31,2.31,0,0,0-.46-1.36,1.43,1.43,0,0,0-1.19-.51,1.6,1.6,0,0,0-1.28.54,2.23,2.23,0,0,0-.54,1.33Z" style="fill:#263238"></path><path d="M334.28,213.81a.37.37,0,0,1-.11-.27v-4.61a.32.32,0,0,1,.12-.27.45.45,0,0,1,.27-.1.45.45,0,0,1,.28.1.35.35,0,0,1,.12.28v.64a1.58,1.58,0,0,1,.54-.84,1.49,1.49,0,0,1,1-.34.27.27,0,0,1,.22.11.4.4,0,0,1,.09.25.32.32,0,0,1-.09.23.31.31,0,0,1-.24.09,1.61,1.61,0,0,0-.71.14,1.27,1.27,0,0,0-.48.36,1.48,1.48,0,0,0-.25.46,1.36,1.36,0,0,0-.09.48v3a.31.31,0,0,1-.12.26.43.43,0,0,1-.29.1A.44.44,0,0,1,334.28,213.81Z" style="fill:#263238"></path><path d="M339.49,213.76a1.43,1.43,0,0,1-.28-.47l-1.81-4.24a.31.31,0,0,1,0-.11.35.35,0,0,1,.13-.27.37.37,0,0,1,.29-.13.33.33,0,0,1,.31.26l1.77,4.27,1.77-4.27c.07-.17.17-.26.32-.26a.41.41,0,0,1,.29.13.39.39,0,0,1,.13.27.18.18,0,0,1,0,.11l-1.8,4.24a1.41,1.41,0,0,1-.29.47.61.61,0,0,1-.78,0Z" style="fill:#263238"></path><path d="M345.73,214a2.48,2.48,0,0,1-1.85-.77,2.77,2.77,0,0,1-.74-2,3.18,3.18,0,0,1,.3-1.39,2.43,2.43,0,0,1,2.27-1.42,2.93,2.93,0,0,1,.93.14,1.94,1.94,0,0,1,.68.38,2.05,2.05,0,0,1,.45.59,2.82,2.82,0,0,1,.27.72,3.47,3.47,0,0,1,.09.81.29.29,0,0,1-.09.21.36.36,0,0,1-.25.08h-3.86a2.07,2.07,0,0,0,.53,1.53,1.82,1.82,0,0,0,1.32.56,2.35,2.35,0,0,0,1-.18,4.26,4.26,0,0,0,.8-.51.27.27,0,0,1,.2-.08.24.24,0,0,1,.18.07.26.26,0,0,1,.07.19.36.36,0,0,1-.13.27,3.11,3.11,0,0,1-.87.59,3,3,0,0,1-1.25.23Zm1.7-3.18a2.31,2.31,0,0,0-.46-1.36,1.43,1.43,0,0,0-1.19-.51,1.64,1.64,0,0,0-1.29.54,2.29,2.29,0,0,0-.53,1.33Z" style="fill:#263238"></path><path d="M349.79,213.81a.33.33,0,0,1-.11-.27v-4.61a.32.32,0,0,1,.12-.27.45.45,0,0,1,.27-.1.45.45,0,0,1,.28.1.35.35,0,0,1,.12.28v.64a1.58,1.58,0,0,1,.54-.84,1.47,1.47,0,0,1,1-.34.28.28,0,0,1,.22.11.4.4,0,0,1,.09.25.32.32,0,0,1-.09.23.33.33,0,0,1-.25.09,1.59,1.59,0,0,0-.7.14,1.13,1.13,0,0,0-.48.36,1.48,1.48,0,0,0-.25.46,1.36,1.36,0,0,0-.09.48v3a.31.31,0,0,1-.12.26.43.43,0,0,1-.29.1A.44.44,0,0,1,349.79,213.81Z" style="fill:#263238"></path><path d="M357.83,213.92a2.68,2.68,0,0,1-.8-.28c-.19-.1-.29-.22-.29-.38a.3.3,0,0,1,.1-.23.33.33,0,0,1,.23-.1l.14,0a3.42,3.42,0,0,0,1.51.37A2,2,0,0,0,360,213a1.18,1.18,0,0,0,.49-1,1.49,1.49,0,0,0-.54-1.21,2.13,2.13,0,0,0-1.38-.44h-.35a.36.36,0,0,1-.26-.09.3.3,0,0,1-.09-.23.33.33,0,0,1,.35-.34h.3a2,2,0,0,0,1.28-.37,1.25,1.25,0,0,0,.47-1.07,1.18,1.18,0,0,0-.44-1,1.65,1.65,0,0,0-1.09-.36,3.49,3.49,0,0,0-.65.06,2.47,2.47,0,0,0-.48.11l-.33.14-.19.09-.11,0a.27.27,0,0,1-.23-.13.39.39,0,0,1-.1-.27.3.3,0,0,1,.17-.29l.39-.15a4.33,4.33,0,0,1,.67-.18,3.59,3.59,0,0,1,.82-.1,3.71,3.71,0,0,1,1,.12,2.39,2.39,0,0,1,.77.37,1.69,1.69,0,0,1,.53.65,2.12,2.12,0,0,1,.19.93,1.64,1.64,0,0,1-.39,1.11,1.93,1.93,0,0,1-1,.59,2,2,0,0,1,1.14.68,2.17,2.17,0,0,1,.22,2.26,1.74,1.74,0,0,1-.6.66,3.21,3.21,0,0,1-.82.37,3.69,3.69,0,0,1-.95.12A4,4,0,0,1,357.83,213.92Z" style="fill:#263238"></path><rect x="292.82" y="205.38" width="17.52" height="4.48" style="fill:#263238"></rect><rect x="292.82" y="210.47" width="17.52" height="4.48" style="fill:#263238"></rect><rect x="311.09" y="205.43" width="3.1" height="9.52" style="fill:#263238"></rect><path d="M321.11,233.23a.18.18,0,0,1-.06-.13.38.38,0,0,1,.15-.27.42.42,0,0,1,.29-.13.21.21,0,0,1,.13.05,3.23,3.23,0,0,0,.9.52,3.07,3.07,0,0,0,1.19.22,2.46,2.46,0,0,0,1.35-.35,1.12,1.12,0,0,0,.53-1,1.77,1.77,0,0,0-.08-.55,1,1,0,0,0-.28-.39,1.73,1.73,0,0,0-.43-.27,4,4,0,0,0-.64-.24l-1.41-.48a3.07,3.07,0,0,1-1.26-.71,1.6,1.6,0,0,1-.44-1.19,1.73,1.73,0,0,1,.35-1.06,2.32,2.32,0,0,1,1-.69,3.59,3.59,0,0,1,1.34-.24,3.77,3.77,0,0,1,1.42.26,3.19,3.19,0,0,1,1,.58.33.33,0,0,1,.11.23.31.31,0,0,1-.11.23.34.34,0,0,1-.24.11.32.32,0,0,1-.21-.08,3.74,3.74,0,0,0-.81-.43,2.88,2.88,0,0,0-1.11-.2,2.31,2.31,0,0,0-1.36.35,1.08,1.08,0,0,0-.5.92,1,1,0,0,0,.3.75,2.71,2.71,0,0,0,1,.49l1.42.47a7.29,7.29,0,0,1,.75.3,2.63,2.63,0,0,1,.57.39,1.56,1.56,0,0,1,.4.55,2.2,2.2,0,0,1,.13.76,1.88,1.88,0,0,1-.75,1.61,3.34,3.34,0,0,1-2.06.57A3.46,3.46,0,0,1,321.11,233.23Z" style="fill:#263238"></path><path d="M330.22,234.18a2.49,2.49,0,0,1-1.85-.76,2.79,2.79,0,0,1-.74-2,3.18,3.18,0,0,1,.3-1.39,2.43,2.43,0,0,1,2.28-1.42,2.65,2.65,0,0,1,.92.14,1.86,1.86,0,0,1,.68.38,2,2,0,0,1,.45.58,2.42,2.42,0,0,1,.27.72,4.09,4.09,0,0,1,.1.82.25.25,0,0,1-.09.2.35.35,0,0,1-.26.08h-3.85a2.07,2.07,0,0,0,.52,1.54,1.82,1.82,0,0,0,1.32.56,2.19,2.19,0,0,0,1-.19,3.9,3.9,0,0,0,.8-.5.3.3,0,0,1,.21-.09.25.25,0,0,1,.17.08.25.25,0,0,1,.08.18.39.39,0,0,1-.13.27,3.09,3.09,0,0,1-.88.59,2.88,2.88,0,0,1-1.25.23Zm1.7-3.17a2.31,2.31,0,0,0-.46-1.36,1.44,1.44,0,0,0-1.19-.52,1.58,1.58,0,0,0-1.28.55,2.21,2.21,0,0,0-.54,1.33Z" style="fill:#263238"></path><path d="M334.28,234a.33.33,0,0,1-.11-.26v-4.62a.31.31,0,0,1,.12-.26.39.39,0,0,1,.27-.1.4.4,0,0,1,.28.1.33.33,0,0,1,.12.27v.64a1.66,1.66,0,0,1,.54-.84,1.53,1.53,0,0,1,1-.33.27.27,0,0,1,.22.11.38.38,0,0,1,.09.25.29.29,0,0,1-.09.22.28.28,0,0,1-.24.1,1.76,1.76,0,0,0-.71.13,1.51,1.51,0,0,0-.48.36,1.65,1.65,0,0,0-.25.47,1.36,1.36,0,0,0-.09.48v3a.31.31,0,0,1-.12.26.43.43,0,0,1-.29.1A.39.39,0,0,1,334.28,234Z" style="fill:#263238"></path><path d="M339.49,233.93a1.69,1.69,0,0,1-.28-.47l-1.81-4.24a.36.36,0,0,1,0-.11.38.38,0,0,1,.13-.28.4.4,0,0,1,.29-.12.33.33,0,0,1,.31.26l1.77,4.26,1.77-4.26c.07-.17.17-.26.32-.26a.44.44,0,0,1,.29.12.43.43,0,0,1,.13.28.2.2,0,0,1,0,.11l-1.8,4.24a1.67,1.67,0,0,1-.29.47.65.65,0,0,1-.78,0Z" style="fill:#263238"></path><path d="M345.73,234.18a2.47,2.47,0,0,1-1.85-.76,2.79,2.79,0,0,1-.74-2,3.18,3.18,0,0,1,.3-1.39,2.39,2.39,0,0,1,.89-1,2.48,2.48,0,0,1,1.38-.39,2.67,2.67,0,0,1,.93.14,1.94,1.94,0,0,1,.68.38,2,2,0,0,1,.45.58,3.13,3.13,0,0,1,.27.72,3.49,3.49,0,0,1,.09.82.25.25,0,0,1-.09.2.32.32,0,0,1-.25.08h-3.86a2.07,2.07,0,0,0,.53,1.54,1.82,1.82,0,0,0,1.32.56,2.19,2.19,0,0,0,1-.19,4.18,4.18,0,0,0,.8-.5.28.28,0,0,1,.2-.09.25.25,0,0,1,.18.08.24.24,0,0,1,.07.18.35.35,0,0,1-.13.27,2.91,2.91,0,0,1-.87.59,2.88,2.88,0,0,1-1.25.23Zm1.7-3.17a2.31,2.31,0,0,0-.46-1.36,1.44,1.44,0,0,0-1.19-.52,1.62,1.62,0,0,0-1.29.55A2.26,2.26,0,0,0,344,231Z" style="fill:#263238"></path><path d="M349.79,234a.3.3,0,0,1-.11-.26v-4.62a.31.31,0,0,1,.12-.26.39.39,0,0,1,.27-.1.4.4,0,0,1,.28.1.33.33,0,0,1,.12.27v.64a1.66,1.66,0,0,1,.54-.84,1.52,1.52,0,0,1,1-.33.28.28,0,0,1,.22.11.38.38,0,0,1,.09.25.29.29,0,0,1-.09.22.3.3,0,0,1-.25.1,1.75,1.75,0,0,0-.7.13,1.32,1.32,0,0,0-.48.36,1.65,1.65,0,0,0-.25.47,1.36,1.36,0,0,0-.09.48v3a.31.31,0,0,1-.12.26.43.43,0,0,1-.29.1A.39.39,0,0,1,349.79,234Z" style="fill:#263238"></path><path d="M360,234a.38.38,0,0,1-.13-.29v-1.33H356.7a.53.53,0,0,1-.37-.14.48.48,0,0,1-.14-.34.68.68,0,0,1,.11-.35l3.09-4.76a.79.79,0,0,1,.7-.39.67.67,0,0,1,.44.15.62.62,0,0,1,.17.46v4.7h.87a.3.3,0,0,1,.24.1.36.36,0,0,1,.09.24.32.32,0,0,1-.33.33h-.87v1.33a.35.35,0,0,1-.13.29.43.43,0,0,1-.29.1A.48.48,0,0,1,360,234Zm-.13-2.29v-4.41L357,231.67Z" style="fill:#263238"></path><rect x="292.82" y="225.55" width="17.52" height="4.48" style="fill:#263238"></rect><rect x="292.82" y="230.64" width="17.52" height="4.48" style="fill:#263238"></rect><rect x="311.09" y="225.59" width="3.1" height="9.52" style="fill:#263238"></rect><line x1="292.9" y1="179.35" x2="416.56" y2="179.35" style="fill:none;stroke:#263238;stroke-miterlimit:10;stroke-width:0.5px"></line><line x1="292.9" y1="199.92" x2="416.56" y2="199.92" style="fill:none;stroke:#263238;stroke-miterlimit:10;stroke-width:0.5px"></line><line x1="292.9" y1="218.47" x2="416.56" y2="218.47" style="fill:none;stroke:#263238;stroke-miterlimit:10;stroke-width:0.5px"></line><line x1="292.9" y1="240.26" x2="416.56" y2="240.26" style="fill:none;stroke:#263238;stroke-miterlimit:10;stroke-width:0.5px"></line><polygon points="366.55 263.02 361.05 254.25 312.6 254.25 312.6 263.02 312.6 266.19 312.6 365.8 456.13 365.8 456.13 263.02 366.55 263.02" style="fill:#263238"></polygon><rect x="314.08" y="267.05" width="140.74" height="95.57" style="fill:#fff"></rect><g style="clip-path:url(#freepik--clip-path-3--inject-215)"><rect x="451.22" y="265.83" width="4.56" height="97.86" style="opacity:0.17"></rect><rect x="451.22" y="307.17" width="4.56" height="55.36" style="opacity:0.17"></rect><rect x="313.3" y="265.13" width="141.78" height="7.72" style="fill:#92E3A9;stroke:#263238;stroke-miterlimit:10"></rect></g><rect x="314.08" y="267.05" width="140.74" height="95.57" style="fill:none;stroke:#263238;stroke-linecap:round;stroke-linejoin:round"></rect><g style="opacity:0.17"><path d="M416.52,280.3H402.76a1.21,1.21,0,0,1-1.21-1.21h0a1.22,1.22,0,0,1,1.21-1.22h13.76a1.22,1.22,0,0,1,1.21,1.22h0A1.21,1.21,0,0,1,416.52,280.3Z"></path><path d="M444,280.3H430.27a1.21,1.21,0,0,1-1.21-1.21h0a1.22,1.22,0,0,1,1.21-1.22H444a1.22,1.22,0,0,1,1.21,1.22h0A1.21,1.21,0,0,1,444,280.3Z"></path></g><polyline points="335.74 292.65 361.07 292.65 361.07 316.9 333.57 316.9" style="fill:none;stroke:#263238;stroke-miterlimit:10;stroke-width:0.5px"></polyline><polyline points="365.77 342.4 384.95 342.4 384.95 303.51 366.86 303.51" style="fill:none;stroke:#263238;stroke-miterlimit:10;stroke-width:0.5px"></polyline><line x1="401.59" y1="316.17" x2="416.42" y2="316.17" style="fill:none;stroke:#263238;stroke-miterlimit:10;stroke-width:0.5px"></line><line x1="401.59" y1="320.51" x2="416.42" y2="320.51" style="fill:none;stroke:#263238;stroke-miterlimit:10;stroke-width:0.5px"></line><line x1="401.59" y1="324.86" x2="416.42" y2="324.86" style="fill:none;stroke:#263238;stroke-miterlimit:10;stroke-width:0.5px"></line><line x1="401.59" y1="329.2" x2="416.42" y2="329.2" style="fill:none;stroke:#263238;stroke-miterlimit:10;stroke-width:0.5px"></line><rect x="323.44" y="288.68" width="15.92" height="9.05" style="fill:#92E3A9"></rect><rect x="353.11" y="299.53" width="15.92" height="9.05" style="fill:#92E3A9"></rect><rect x="357.81" y="337.88" width="15.92" height="9.05" style="fill:#92E3A9"></rect><rect x="323.44" y="310.38" width="15.92" height="9.05" style="fill:#92E3A9"></rect></g><g id="freepik--Character--inject-215"><ellipse cx="246.16" cy="438.4" rx="46.07" ry="9.08" style="fill:#263238;stroke:#263238;stroke-linecap:round;stroke-linejoin:round"></ellipse><path d="M182.68,228.21s-9.28-8.05-10.52-8.36-9,.93-9.91,1.24.93,7.74.93,7.74a2.63,2.63,0,0,0-.93,3.09c.62,2.17,5,.31,5,.31s3.09,3.1,6.19,3.41a50.75,50.75,0,0,0,8.35-.31Z" style="fill:#fff;stroke:#263238;stroke-linecap:round;stroke-linejoin:round"></path><path d="M163.18,228.83s2.79,1.24,7.43-3.72" style="fill:none;stroke:#263238;stroke-linecap:round;stroke-linejoin:round"></path><path d="M164.11,223.57s.48,3.82,3.88,3.82" style="fill:none;stroke:#263238;stroke-linecap:round;stroke-linejoin:round"></path><path d="M189.49,227.59l-8.36-2.48s-.93-.62-.93,2.48-1.54,5.26,0,9l9,2.16Z" style="fill:#fff;stroke:#263238;stroke-linecap:round;stroke-linejoin:round"></path><path d="M219.56,228.44s-29.45-2.71-30.07-.85-4.64,8.67-3.1,12.07S218.58,249,218.58,249Z" style="fill:#fff;stroke:#263238;stroke-linecap:round;stroke-linejoin:round"></path><path d="M230.34,426.39s-22.9,8.67-22.9,10.53,4.95,2.16,15.48,1.23,17.33-.62,20.11-1.85,1.24-8.05,1.24-9.6S230.34,426.39,230.34,426.39Z" style="fill:#92E3A9;stroke:#263238;stroke-linecap:round;stroke-linejoin:round"></path><path d="M207.44,436.92a127.59,127.59,0,0,1,13.38-.66,143.74,143.74,0,0,0,17.59-1.47" style="fill:none;stroke:#263238;stroke-linecap:round;stroke-linejoin:round"></path><path d="M245.2,431s-17,9.91-15.17,12.69,30.34-3.09,31-11.76S245.2,431,245.2,431Z" style="fill:#92E3A9;stroke:#263238;stroke-linecap:round;stroke-linejoin:round"></path><path d="M230.46,442.54s5,1.47,13.19-1.46a111.36,111.36,0,0,0,12.56-5.24" style="fill:none;stroke:#263238;stroke-linecap:round;stroke-linejoin:round"></path><path d="M216.11,255.14s-1.86,25.73-.31,47.7,1.85,44,5.26,58.19,6.81,54.53,6.81,57-3.1,3.09-2.17,5.57a23.79,23.79,0,0,0,2.17,4.33,69.4,69.4,0,0,0,7.74,1.86,51.37,51.37,0,0,0,7.42.62l-.31,2.47a44.57,44.57,0,0,1,10.53,1.86,36,36,0,0,0,8.35,1.86s5-5.89,5-9.29-.62-9.28,0-13.93,1.54-47.41,1.54-59.17,1.24-58.49,1.55-64.68,1.24-21.41.93-27.91-15.17,1.55-33.12-3.71S216.11,255.14,216.11,255.14Z" style="fill:#263238"></path><g style="clip-path:url(#freepik--clip-path-4--inject-215)"><path d="M216.11,255.14s-1.86,25.73-.31,47.7,1.85,44,5.26,58.19,6.81,54.53,6.81,57-3.1,3.09-2.17,5.57a23.79,23.79,0,0,0,2.17,4.33,69.4,69.4,0,0,0,7.74,1.86,51.37,51.37,0,0,0,7.42.62l-.31,2.47a44.57,44.57,0,0,1,10.53,1.86,36,36,0,0,0,8.35,1.86s5-5.89,5-9.29-.62-9.28,0-13.93,1.54-47.41,1.54-59.17,1.24-58.49,1.55-64.68,1.24-21.41.93-27.91-15.17,1.55-33.12-3.71S216.11,255.14,216.11,255.14Z" style="fill:#fff;stroke:#263238;stroke-linecap:round;stroke-linejoin:round;opacity:0.30000000000000004"></path><path d="M265.23,291.06c.37,10.94.83,26.91.61,33.27-.33,10.08-3.36,68.9-2.35,79s-1.34,18.49-1,21.85.34,6.72-.33,8.4" style="fill:none;stroke:#263238;stroke-linecap:round;stroke-linejoin:round"></path><path d="M264.83,280s.08,1.8.18,4.69" style="fill:none;stroke:#263238;stroke-linecap:round;stroke-linejoin:round"></path></g><path d="M216.11,255.14s-1.86,25.73-.31,47.7,1.85,44,5.26,58.19,6.81,54.53,6.81,57-3.1,3.09-2.17,5.57a23.79,23.79,0,0,0,2.17,4.33,69.4,69.4,0,0,0,7.74,1.86,51.37,51.37,0,0,0,7.42.62l-.31,2.47a44.57,44.57,0,0,1,10.53,1.86,36,36,0,0,0,8.35,1.86s5-5.89,5-9.29-.62-9.28,0-13.93,1.54-47.41,1.54-59.17,1.24-58.49,1.55-64.68,1.24-21.41.93-27.91-15.17,1.55-33.12-3.71S216.11,255.14,216.11,255.14Z" style="fill:none;stroke:#263238;stroke-linecap:round;stroke-linejoin:round"></path><polyline points="227.56 283.96 227.6 298.95 230.3 302.48" style="fill:none;stroke:#263238;stroke-linecap:round;stroke-linejoin:round"></polyline><polyline points="232.35 284.43 232.4 299.42 232.59 299.67" style="fill:none;stroke:#263238;stroke-linecap:round;stroke-linejoin:round"></polyline><path d="M236.16,319.52c1.3,8.36,3.23,22.51,4.71,41.2,2.47,31.26,4.95,55.77,4.95,58.24s-3.41,9-2.79,11.46" style="fill:none;stroke:#263238;stroke-linecap:round;stroke-linejoin:round"></path><path d="M233.41,303.52s1.55,8.78,2,11.48" style="fill:none;stroke:#263238;stroke-linecap:round;stroke-linejoin:round"></path><path d="M270.58,271.28c-.31-6.5-15.17,1.54-33.12-3.72s-21.35-2.78-21.35-2.78-.32,2.79-.59,7.62c2.26,2,7.09,4.66,17.3,6.3,16.12,2.59,25.82,4.91,37.8-5.74C270.61,272.4,270.61,271.85,270.58,271.28Z" style="fill:#fff;stroke:#263238;stroke-linecap:round;stroke-linejoin:round"></path><path d="M241.93,187s-13.13,2.49-16.85,7.75-9,62.57-10.21,68.14,6.81,7.74,11.45,9.9,18.88,5.57,28.78,4.65,17-2.79,18.26-7.12,3.72-64.43,3.1-70.31-18.55-20.75-22-21.68S241.93,187,241.93,187Z" style="fill:#fff;stroke:#263238;stroke-linecap:round;stroke-linejoin:round"></path><path d="M239.21,194.58a104.54,104.54,0,0,0-4.48,19.4c-1.68,11.82-7.23,58.12-7.23,58.12l1.45,1.69" style="fill:none;stroke:#263238;stroke-linecap:round;stroke-linejoin:round"></path><polygon points="233.75 185.56 232.5 194.16 238.16 189.33 233.75 185.56" style="fill:#fff;stroke:#263238;stroke-linecap:round;stroke-linejoin:round"></polygon><polygon points="238.58 182.62 237.78 183.11 233.75 185.56 239.21 194.58 247.8 181.99 238.58 182.62" style="fill:#fff;stroke:#263238;stroke-linecap:round;stroke-linejoin:round"></polygon><path d="M221.11,146.56s-3.32,2-2.89,4.65,1.58,13.34,1,14.52-2.93,3.29-1.34,4.57a12.68,12.68,0,0,0,3.36,1.92s2.33,8.76,3.92,10,4.92,1.83,6,2.09,6.45,2.93,6.45,2.93l2.12,7.45,16.59-14.9-6-10.73a27.28,27.28,0,0,0,4.18-21.46c-2.85-12.35-12.36-14.33-24.37-13.56S215.73,141.32,221.11,146.56Z" style="fill:#fff;stroke:#263238;stroke-linecap:round;stroke-linejoin:round"></path><polyline points="221.02 162.45 224.09 163.2 221.76 163.93" style="fill:none;stroke:#263238;stroke-linecap:round;stroke-linejoin:round"></polyline><path d="M220.29,160.12s1.17-2.63,5.07-.15" style="fill:none;stroke:#263238;stroke-linecap:round;stroke-linejoin:round"></path><path d="M241.49,159.77s-2.29-1-3.09.11a15.85,15.85,0,0,0-1.52,3.32s3.53-.53,2.2,1.59l-1.33,2.12" style="fill:none;stroke:#263238;stroke-linecap:round;stroke-linejoin:round"></path><path d="M230.08,134.08c-12,.78-16.82,9.74-11.43,15,0,0,8.62-5.94,7.86-.76s-2.89,5.76,1.8,6.87,3.93-.81,4.3,1.64-2.14,5.21.61,5.14,2-5.57,4.36-6.29,7.39.86,6.36,7.7-4.75,7.61-4.75,7.61,1,1.55,11.36-1.34l-.28-.53a27.28,27.28,0,0,0,4.18-21.46C251.6,135.29,242.09,133.31,230.08,134.08Z" style="fill:#263238;stroke:#263238;stroke-linecap:round;stroke-linejoin:round"></path><polygon points="240.79 190.81 246.8 200.01 259.96 177.85 255.31 172.4 240.79 190.81" style="fill:#fff;stroke:#263238;stroke-linecap:round;stroke-linejoin:round"></polygon><path d="M194.62,217.26l17.29,36.24a1.89,1.89,0,0,0,1.61,1.08l30.23,1.63a1.89,1.89,0,0,0,1.85-2.61l-14.5-35.15a1.91,1.91,0,0,0-1.6-1.17l-33-2.73A1.9,1.9,0,0,0,194.62,217.26Z" style="fill:#263238;stroke:#263238;stroke-linecap:round;stroke-linejoin:round"></path><polygon points="225.08 272.82 224.15 276.23 232.82 278.7 232.51 274.99 225.08 272.82" style="fill:none;stroke:#263238;stroke-linecap:round;stroke-linejoin:round"></polygon><path d="M167.21,232.23V302.8s-.12,16.09,19.28,16.09,17.44-18.57,17.44-18.57V247.5c0-4.95-1.35-6.28,1.65-6.19" style="fill:none;stroke:#fff;stroke-linecap:round;stroke-linejoin:round"></path><path d="M231.4,246.14s-3.25-5.36-5.24-8.35-5.36-7-6.6-9.35-2.75-.25-2.25,1.74,3,6,3,6.73-.25.75-2,0-9.47-3.36-11-4.23-3.36-1.25-3.61,0,1.24,1.62,2.37,2.49a30.45,30.45,0,0,1,2.74,2.62s-2.74-1.25-3.24-1-.25,1.49,1.12,2.37a5,5,0,0,1,1.87,2.24,40.2,40.2,0,0,0,5.11,4.11,37.64,37.64,0,0,0,12.59,5.61l6,1.37.37-4.48Z" style="fill:#fff;stroke:#263238;stroke-linecap:round;stroke-linejoin:round"></path><line x1="208.84" y1="237.79" x2="216.19" y2="242.27" style="fill:none;stroke:#263238;stroke-linecap:round;stroke-linejoin:round"></line><line x1="208.34" y1="240.9" x2="214.82" y2="244.14" style="fill:none;stroke:#263238;stroke-linecap:round;stroke-linejoin:round"></line><polygon points="241.49 245.23 231.58 244.3 231.15 254.61 241.99 254.36 241.49 245.23" style="fill:#fff;stroke:#263238;stroke-linecap:round;stroke-linejoin:round"></polygon><path d="M268.1,198.5a37.46,37.46,0,0,0-5,12.07c-1.86,7.73-4.64,30.33-4.64,30.33L240.87,244l-.47,12.4s34.51,4.32,37,2.15,6.5-31.88,4.64-44.88-8.67-16.09-8.67-16.09" style="fill:#fff;stroke:#263238;stroke-linecap:round;stroke-linejoin:round"></path><path d="M258.51,240.9s4-1.24,11.76,4.64" style="fill:none;stroke:#263238;stroke-linecap:round;stroke-linejoin:round"></path><path d="M258.82,239.66s7.43-3.71,15.16-1.55" style="fill:none;stroke:#263238;stroke-linecap:round;stroke-linejoin:round"></path></g></svg>