<?xml version="1.0" encoding="UTF-8" standalone="no"?>
<svg
   viewBox="0 0 389.11203 397.70929"
   version="1.1"
   id="svg253"
   sodipodi:docname="services.svg"
   width="389.11203"
   height="397.70929"
   inkscape:version="1.3.2 (091e20e, 2023-11-25)"
   xmlns:inkscape="http://www.inkscape.org/namespaces/inkscape"
   xmlns:sodipodi="http://sodipodi.sourceforge.net/DTD/sodipodi-0.dtd"
   xmlns="http://www.w3.org/2000/svg"
   xmlns:svg="http://www.w3.org/2000/svg">
  <sodipodi:namedview
     id="namedview253"
     pagecolor="#ffffff"
     bordercolor="#000000"
     borderopacity="0.25"
     inkscape:showpageshadow="2"
     inkscape:pageopacity="0.0"
     inkscape:pagecheckerboard="0"
     inkscape:deskcolor="#d1d1d1"
     inkscape:zoom="1.166"
     inkscape:cx="192.53859"
     inkscape:cy="186.53516"
     inkscape:window-width="1392"
     inkscape:window-height="1212"
     inkscape:window-x="0"
     inkscape:window-y="25"
     inkscape:window-maximized="0"
     inkscape:current-layer="svg253" />
  <defs
     id="defs30">
    <clipPath
       id="freepik--clip-path--inject-121">
      <rect
         x="164.86"
         y="73.470001"
         width="188"
         height="242.07001"
         rx="8.2600002"
         style="fill:#92e3a9;stroke:#263238;stroke-linecap:round;stroke-linejoin:round"
         id="rect1" />
    </clipPath>
    <clipPath
       id="freepik--clip-path-2--inject-121">
      <rect
         x="172.86"
         y="188.73"
         width="86"
         height="67.080002"
         style="fill:#92e3a9;stroke:#263238;stroke-linecap:round;stroke-linejoin:round"
         id="rect2" />
    </clipPath>
    <clipPath
       id="freepik--clip-path-3--inject-121">
      <path
         d="m 380.93,284.11 18,68 c 0,0 0.25,7.5 3.75,13.25 l 4.91,57.28 c 0,0 3.75,5.75 17.25,0 0,0 0.59,-41 -4.41,-66.53 l -4.25,-48.58 a 73.07,73.07 0 0 0 -0.75,-22.92 z"
         style="fill:#263238;stroke:#263238;stroke-width:0.75px;stroke-linecap:round;stroke-linejoin:round"
         id="path2" />
    </clipPath>
    <clipPath
       id="freepik--clip-path-4--inject-121">
      <path
         d="m 384.63,192.13 v -3.79 c 0,0 -6.49,1 -7.38,-0.67 -0.89,-1.67 0.56,-8.61 0.56,-8.61 0,0 -3.12,0.11 -3.12,-1.34 0,-1.45 3.68,-7.59 3.68,-7.59 0,0 -0.44,-4.92 0,-6.48 0.44,-1.56 5,-10.39 5,-10.39 0,0 6.7,3.68 6.48,5.69 -0.22,2.01 -2.12,3.91 -0.56,5.59 1.56,1.68 3.69,6.2 3,8.35 l 1,0.7 c 0,0 0.56,-4 2.8,-4.69 2.24,-0.69 4,3.79 2.45,6.92 -1.55,3.13 -3.35,2.57 -3.35,2.57 0,0 0.9,5.37 3.24,7.15 l 0.71,5.59 z"
         style="fill:#ffffff;stroke:#263238;stroke-linecap:round;stroke-linejoin:round"
         id="path3" />
    </clipPath>
    <clipPath
       id="freepik--clip-path-5--inject-121">
      <path
         d="m 421.81,213.93 c 0,0 18.88,38.87 14.88,44.89 -4,6.02 -21.25,25.76 -21.25,25.76 l -7,-8 14,-23.76 -7.25,-14.74 c 0,0 -3.25,-11.56 6.62,-24.15 z"
         style="fill:#92e3a9;stroke:#263238;stroke-linecap:round;stroke-linejoin:round"
         id="path4" />
    </clipPath>
    <clipPath
       id="freepik--clip-path-6--inject-121">
      <path
         d="m 362.19,283.67 3.73,-30.67 -1.51,-46 a 9,9 0 0 1 6.52,-9 c 12.7,-3.68 39.89,-8.2 50.88,15.94 a 11,11 0 0 1 0.85,6.45 l -7.47,42.95 2,23.43 c 0,0 -24.34,17.9 -55,-3.1 z"
         style="fill:#92e3a9;stroke:#263238;stroke-linecap:round;stroke-linejoin:round"
         id="path5" />
    </clipPath>
    <clipPath
       id="freepik--clip-path-7--inject-121">
      <rect
         x="141.24001"
         y="293.51001"
         width="45.549999"
         height="34.889999"
         rx="8.3199997"
         style="fill:#263238;stroke:#263238;stroke-linecap:round;stroke-linejoin:round"
         id="rect5" />
    </clipPath>
    <clipPath
       id="freepik--clip-path-8--inject-121">
      <path
         d="m 189.36,330.15 c 0,0 62.09,-4.16 64.92,4.61 2.83,8.77 4.16,36.84 4.3,48 0.14,11.16 -0.74,25.25 -0.74,25.25 a 19.72,19.72 0 0 1 -11.44,0 c 0,0 -2.73,-16.19 -4.7,-24.06 -1.97,-7.87 -4.06,-18.37 -2.87,-35 0,0 -59.5,9 -59.83,-1.44 -0.33,-10.44 10.36,-17.36 10.36,-17.36 z"
         style="fill:#ffffff;stroke:#263238;stroke-linecap:round;stroke-linejoin:round"
         id="path6" />
    </clipPath>
    <clipPath
       id="freepik--clip-path-9--inject-121">
      <path
         d="m 259.28,404.44 -0.43,4.2 c 0,0 -7.1,3.81 -13.35,0.29 l -1.3,-4.13 c 0,0 4.23,2.9 15.08,-0.36 z"
         style="fill:#92e3a9;stroke:#263238;stroke-width:0.75px;stroke-linecap:round;stroke-linejoin:round"
         id="path7" />
    </clipPath>
    <clipPath
       id="freepik--clip-path-10--inject-121">
      <path
         d="m 168,332.49 c 0,0 -8.81,17.6 2.45,19.16 11.26,1.56 45.68,-0.44 45.68,-0.44 a 174.54,174.54 0 0 0 -11.44,21.58 c -4.46,10.54 -8.91,21.39 -8.91,21.39 0,0 1.93,5.2 9.8,6.24 0,0 6.39,-10 20.35,-25.55 13.96,-15.55 17.83,-31.2 14.86,-36.55 -2.97,-5.35 -18.42,-8.24 -43.38,-9.39 z"
         style="fill:#ffffff;stroke:#263238;stroke-linecap:round;stroke-linejoin:round"
         id="path8" />
    </clipPath>
    <clipPath
       id="freepik--clip-path-11--inject-121">
      <path
         d="m 208.22,398.93 -2.67,3.27 c 0,0 -8,-0.74 -11.29,-7.13 l 1.19,-4.16 c 0,0 1.93,4.75 12.77,8.02 z"
         style="fill:#92e3a9;stroke:#263238;stroke-width:0.75px;stroke-linecap:round;stroke-linejoin:round"
         id="path9" />
    </clipPath>
    <clipPath
       id="freepik--clip-path-12--inject-121">
      <polygon
         points="194.87,250.65 184.81,241.98 181.97,255.04 193.54,258.45 "
         style="fill:#ffffff;stroke:#263238;stroke-linecap:round;stroke-linejoin:round"
         id="polygon9" />
    </clipPath>
    <clipPath
       id="freepik--clip-path-13--inject-121">
      <path
         d="m 201.65,261.24 20.14,0.42 7.56,-21 6.65,2.34 c 0,0 -3.41,26.59 -6.82,28.17 C 225.77,272.75 205,275 205,275 c 0,0 -6.46,-7.13 -3.35,-13.76 z"
         style="fill:#92e3a9;stroke:#263238;stroke-linecap:round;stroke-linejoin:round"
         id="path10" />
    </clipPath>
    <clipPath
       id="freepik--clip-path-14--inject-121">
      <rect
         x="227.41"
         y="194.89999"
         width="7.2399998"
         height="5.1599998"
         transform="rotate(-12.89,231.01043,197.46922)"
         style="fill:#92e3a9"
         id="rect10" />
    </clipPath>
    <clipPath
       id="freepik--clip-path-15--inject-121">
      <rect
         x="228.84"
         y="201.13"
         width="7.2399998"
         height="5.1599998"
         transform="rotate(-12.89,232.41576,203.67961)"
         style="fill:#92e3a9"
         id="rect11" />
    </clipPath>
    <clipPath
       id="freepik--clip-path-16--inject-121">
      <rect
         x="231.69"
         y="213.58"
         width="7.2399998"
         height="5.1599998"
         transform="rotate(-12.89,235.26566,216.14965)"
         style="fill:#92e3a9"
         id="rect12" />
    </clipPath>
    <clipPath
       id="freepik--clip-path-17--inject-121">
      <rect
         x="233.11"
         y="219.81"
         width="7.2399998"
         height="5.1599998"
         transform="rotate(-12.89,236.71524,222.36504)"
         style="fill:#92e3a9"
         id="rect13" />
    </clipPath>
    <clipPath
       id="freepik--clip-path-18--inject-121">
      <path
         d="m 164.16,261.68 6.29,56.24 -4,16.91 c 0,0 4.21,0.95 15.88,-2.72 11.67,-3.67 24.16,-2.57 24.16,-2.57 0,0 5.17,-37.44 3.1,-49.14 a 46.85,46.85 0 0 0 -7.92,-19.16 c 0,0 -22.41,-9.8 -36.1,-2.31 a 2.77,2.77 0 0 0 -1.41,2.75 z"
         style="fill:#92e3a9;stroke:#263238;stroke-linecap:round;stroke-linejoin:round"
         id="path13" />
    </clipPath>
    <clipPath
       id="freepik--clip-path-19--inject-121">
      <rect
         x="221.67999"
         y="319.07999"
         width="5.8000002"
         height="4.1300001"
         transform="rotate(79.11,224.58283,321.13944)"
         style="fill:#92e3a9"
         id="rect14" />
    </clipPath>
    <clipPath
       id="freepik--clip-path-20--inject-121">
      <rect
         x="216.66"
         y="320.04001"
         width="5.8000002"
         height="4.1300001"
         transform="rotate(79.11,219.55515,322.10465)"
         style="fill:#92e3a9"
         id="rect15" />
    </clipPath>
    <clipPath
       id="freepik--clip-path-21--inject-121">
      <rect
         x="206.62"
         y="321.98001"
         width="5.79"
         height="4.1300001"
         transform="rotate(79.11,209.5219,324.03719)"
         style="fill:#92e3a9"
         id="rect16" />
    </clipPath>
    <clipPath
       id="freepik--clip-path-22--inject-121">
      <rect
         x="201.60001"
         y="322.94"
         width="5.79"
         height="4.1300001"
         transform="rotate(79.11,204.50027,324.9974)"
         style="fill:#92e3a9"
         id="rect17" />
    </clipPath>
    <clipPath
       id="freepik--clip-path-23--inject-121">
      <rect
         x="216.2"
         y="306.79001"
         width="5.79"
         height="4.1300001"
         transform="rotate(49.11,219.09875,308.84286)"
         style="fill:#92e3a9"
         id="rect18" />
    </clipPath>
    <clipPath
       id="freepik--clip-path-24--inject-121">
      <rect
         x="212.33"
         y="310.13"
         width="5.8000002"
         height="4.1300001"
         transform="rotate(49.11,215.23374,312.1961)"
         style="fill:#92e3a9"
         id="rect19" />
    </clipPath>
    <clipPath
       id="freepik--clip-path-25--inject-121">
      <rect
         x="204.61"
         y="316.82999"
         width="5.79"
         height="4.1300001"
         transform="rotate(49.11,207.49872,318.89163)"
         style="fill:#92e3a9"
         id="rect20" />
    </clipPath>
    <clipPath
       id="freepik--clip-path-26--inject-121">
      <rect
         x="200.74001"
         y="320.17001"
         width="5.8000002"
         height="4.1300001"
         transform="rotate(49.11,203.63966,322.22893)"
         style="fill:#92e3a9"
         id="rect21" />
    </clipPath>
    <clipPath
       id="freepik--clip-path-27--inject-121">
      <rect
         x="204.64"
         y="298.57001"
         width="5.8000002"
         height="4.1300001"
         transform="rotate(19.11,207.51256,300.6094)"
         style="fill:#92e3a9"
         id="rect22" />
    </clipPath>
    <clipPath
       id="freepik--clip-path-28--inject-121">
      <rect
         x="202.96001"
         y="303.39999"
         width="5.79"
         height="4.1300001"
         transform="rotate(19.11,205.85157,305.44024)"
         style="fill:#92e3a9"
         id="rect23" />
    </clipPath>
    <clipPath
       id="freepik--clip-path-29--inject-121">
      <rect
         x="199.62"
         y="313.06"
         width="5.8000002"
         height="4.1300001"
         transform="rotate(19.11,202.49987,315.10693)"
         style="fill:#92e3a9"
         id="rect24" />
    </clipPath>
    <clipPath
       id="freepik--clip-path-30--inject-121">
      <rect
         x="197.94"
         y="317.89001"
         width="5.79"
         height="4.1300001"
         transform="rotate(19.11,200.83888,319.93777)"
         style="fill:#92e3a9"
         id="rect25" />
    </clipPath>
    <clipPath
       id="freepik--clip-path-31--inject-121">
      <path
         d="m 97.94,179.18 c 0.09,2.68 0.37,10.72 0.37,10.72 l 15.94,9.56 1,-18.22 0.55,-25 2.62,-3.64 c 0,0 3.92,-6 -2.62,-8.33 -6.54,-2.33 -4.72,2 -11.22,2.73 -6.5,0.73 -21.74,11 -14.84,19.93 6.9,8.93 8.04,7.77 8.2,12.25 z"
         style="fill:#999999;stroke:#263238;stroke-linecap:round;stroke-linejoin:round"
         id="path25" />
    </clipPath>
    <clipPath
       id="freepik--clip-path-32--inject-121">
      <path
         d="m 104.18,165.89 c 0,0 -6.42,0.17 -3,5 3.42,4.83 7,3.91 7,3.91 l 3.91,7.45 c 0,0 13.61,1.92 16.82,1 3.21,-0.92 -2.34,-12.14 -2.34,-12.14 l 2.13,-2.44 a 1.31,1.31 0 0 0 -0.17,-1.9 l -5.08,-4.08 c 0.43,-2.51 -5.12,-10.06 -5.12,-10.06 0,0 -8.24,-0.09 -9,2.69 a 47.55,47.55 0 0 0 -1.13,5 l -4.68,1.91 z"
         style="fill:#999999;stroke:#263238;stroke-linecap:round;stroke-linejoin:round"
         id="path26" />
    </clipPath>
    <clipPath
       id="freepik--clip-path-33--inject-121">
      <polygon
         points="195.6,155.13 210.3,170.77 187.14,174.86 "
         style="fill:#92e3a9;stroke:#263238;stroke-width:0.75px;stroke-linecap:round;stroke-linejoin:round"
         id="polygon26" />
    </clipPath>
    <clipPath
       id="freepik--clip-path-34--inject-121">
      <path
         d="m 207.11,153.1 a 3,3 0 1 1 -3.47,-2.43 3,3 0 0 1 3.47,2.43 z"
         style="fill:#92e3a9;stroke:#263238;stroke-width:0.75px;stroke-linecap:round;stroke-linejoin:round"
         id="path27" />
    </clipPath>
    <clipPath
       id="freepik--clip-path-35--inject-121">
      <path
         d="m 127.15,290.94 c 0,0 -10.68,29.67 -24.35,58.06 0,0 -2.65,12.48 -8.62,21 l -15,47.89 c 0,0 -6.58,2.71 -14.38,-2 0,0 3.72,-30.64 13.23,-52.87 l 5.61,-17.61 7,-35.46 c 0,0 -5.93,-10.26 -4.35,-25.32 l 26.33,-0.36 z"
         style="fill:#92e3a9;stroke:#263238;stroke-linecap:round;stroke-linejoin:round"
         id="path28" />
    </clipPath>
    <clipPath
       id="freepik--clip-path-36--inject-121">
      <polygon
         points="122.22,274.95 134,292.89 110.48,292.93 "
         style="fill:#92e3a9;stroke:#263238;stroke-width:0.75px;stroke-linecap:round;stroke-linejoin:round"
         id="polygon28" />
    </clipPath>
    <clipPath
       id="freepik--clip-path-37--inject-121">
      <path
         d="m 133.91,274.93 a 3,3 0 1 1 -3,-3 3,3 0 0 1 3,3 z"
         style="fill:#92e3a9;stroke:#263238;stroke-width:0.75px;stroke-linecap:round;stroke-linejoin:round"
         id="path29" />
    </clipPath>
    <clipPath
       id="freepik--clip-path-38--inject-121">
      <polygon
         points="121.29,275.66 135.29,291.93 111.96,295 "
         style="fill:#92e3a9;stroke:#263238;stroke-width:0.75px;stroke-linecap:round;stroke-linejoin:round"
         id="polygon29" />
    </clipPath>
    <clipPath
       id="freepik--clip-path-39--inject-121">
      <path
         d="m 132.88,274.13 a 3,3 0 1 1 -3.37,-2.58 3,3 0 0 1 3.37,2.58 z"
         style="fill:#92e3a9;stroke:#263238;stroke-width:0.75px;stroke-linecap:round;stroke-linejoin:round"
         id="path30" />
    </clipPath>
  </defs>
  <g
     id="freepik--background-simple--inject-121"
     transform="translate(-57.378546,-63.150002)">
    <path
       d="m 362.46,140.51 c -33.6,-59 -86.46,-91.92 -150.16,-87 -63.7,4.92 -66.65,52.49 -66.65,105.83 0,52.72 -75.28,28.13 -99.28,91.72 -18.7,49.55 29.94,140.08 52.34,177.66 H 416.47 C 428.8,386.13 451.2,302.31 453.63,248.06 458,150.52 389.27,187.61 362.46,140.51 Z"
       style="fill:#92e3a9"
       id="path31" />
    <path
       d="m 362.46,140.51 c -33.6,-59 -86.46,-91.92 -150.16,-87 -63.7,4.92 -66.65,52.49 -66.65,105.83 0,52.72 -75.28,28.13 -99.28,91.72 -18.7,49.55 29.94,140.08 52.34,177.66 H 416.47 C 428.8,386.13 451.2,302.31 453.63,248.06 458,150.52 389.27,187.61 362.46,140.51 Z"
       style="opacity:0.7;fill:#ffffff"
       id="path32" />
  </g>
  <g
     id="freepik--Plant--inject-121"
     transform="translate(-57.378546,-63.150002)">
    <path
       d="m 336.18,360.48 c 0,0 20.5,-61.65 -5.24,-4.71 0,0 -9.08,-49.56 -6.71,4.52 0,0 -26.54,-41.5 -4.16,9 0,0 -34.44,-36.73 1.12,11.13 0,0 69.46,-3.49 15.49,-5.86 0,0 62.83,-26.62 2.94,-7.48 0,0.02 53.55,-53.01 -3.44,-6.6 z"
       style="fill:#92e3a9"
       id="path33" />
    <path
       d="m 331.81,361.85 c 0,0 -13.81,19.47 -18.81,39.65"
       style="fill:none;stroke:#263238;stroke-width:0.75px;stroke-linecap:round;stroke-linejoin:round"
       id="path34" />
    <path
       d="m 294,362.46 c 0,0 -48.34,-38.08 -5.89,3.15 0,0 -47.06,-7.83 1.87,7.43 0,0 -45.5,10.31 6.7,6.6 0,0 -43.79,18.88 10.28,2.58 0,0 19.21,-63 -0.25,-15.68 0,0 -3.52,-64.53 -5.71,-5 0,-0.02 -30.08,-64.76 -7,0.92 z"
       style="fill:#92e3a9"
       id="path35" />
    <path
       d="m 294,362.46 c 0,0 -48.34,-38.08 -5.89,3.15 0,0 -47.06,-7.83 1.87,7.43 0,0 -45.5,10.31 6.7,6.6 0,0 -43.79,18.88 10.28,2.58 0,0 19.21,-63 -0.25,-15.68 0,0 -3.52,-64.53 -5.71,-5 0,-0.02 -30.08,-64.76 -7,0.92 z"
       style="opacity:0.3;fill:#ffffff"
       id="path36" />
    <path
       d="m 316.76,403.35 c -8.69,-29 -24,-36.08 -24,-36.08"
       style="fill:none;stroke:#263238;stroke-width:0.75px;stroke-linecap:round;stroke-linejoin:round"
       id="path37" />
    <path
       d="m 313.56,365.83 c 0,0 6.2,5.82 7.85,13.73 a 48,48 0 0 1 18.51,-2.49"
       style="fill:none;stroke:#263238;stroke-width:0.5px;stroke-linecap:round;stroke-linejoin:round"
       id="path38" />
    <path
       d="m 320.11,359.56 c 0,0 4.26,5.17 1.3,20 l 16.3,-11.43"
       style="fill:none;stroke:#263238;stroke-width:0.5px;stroke-linecap:round;stroke-linejoin:round"
       id="path39" />
    <path
       d="m 308.77,366.56 a 35.38,35.38 0 0 0 -2.54,13.88 c 0,0 -7,0.78 -11.74,3"
       style="fill:none;stroke:#263238;stroke-width:0.5px;stroke-linecap:round;stroke-linejoin:round"
       id="path40" />
    <path
       d="m 301.22,364.72 a 47.42,47.42 0 0 0 5,15.72 c 0,0 -4.46,-4 -16.26,-4.66"
       style="fill:none;stroke:#263238;stroke-width:0.5px;stroke-linecap:round;stroke-linejoin:round"
       id="path41" />
    <path
       d="m 300.24,399.29 h 28.84 l -4.43,27 h -1.4 v 1.08 a 1.4,1.4 0 0 1 -1.4,1.41 h -1.34 a 1.4,1.4 0 0 1 -1.4,-1.41 v -1.08 h -8.9 v 1.08 a 1.41,1.41 0 0 1 -1.41,1.41 h -1.34 a 1.41,1.41 0 0 1 -1.4,-1.41 v -1.08 h -1.4 z"
       style="fill:#263238;stroke:#263238;stroke-width:0.75px;stroke-linecap:round;stroke-linejoin:round"
       id="path42" />
  </g>
  <g
     id="freepik--Shadow--inject-121"
     transform="translate(-57.378546,-63.150002)">
    <path
       d="M 427.41,428.72 H 89.91 c -20.37,3.12 -36.71,7.16 -31.58,11.76 12,10.77 98.42,-1.81 95.88,10.66 -2.54,12.47 62.27,9.38 97.53,9.38 35.26,0 73.75,-3.31 61.36,-12.88 -12.39,-9.57 69.86,-2.58 105.21,-2.58 25.8,0 43.48,-7.2 9.1,-16.34 z"
       style="fill:#92e3a9"
       id="path43" />
  </g>
  <g
     id="freepik--Floor--inject-121"
     transform="translate(-57.378546,-63.150002)">
    <line
       x1="27.57"
       y1="428.72"
       x2="472.42999"
       y2="428.72"
       style="fill:none;stroke:#263238;stroke-width:0.75px;stroke-linecap:round;stroke-linejoin:round"
       id="line43" />
  </g>
  <g
     id="freepik--Layout--inject-121"
     transform="translate(-57.378546,-63.150002)">
    <rect
       x="167.86"
       y="77.019997"
       width="188"
       height="242.07001"
       rx="8.2600002"
       style="fill:#263238;stroke:#263238;stroke-linecap:round;stroke-linejoin:round"
       id="rect43" />
    <rect
       x="164.86"
       y="73.470001"
       width="188"
       height="242.07001"
       rx="8.2600002"
       style="fill:#92e3a9"
       id="rect44" />
    <g
       clip-path="url(#freepik--clip-path--inject-121)"
       id="g45">
      <rect
         x="164.86"
         y="73.470001"
         width="188"
         height="242.07001"
         rx="8.2600002"
         style="opacity:0.8;fill:#ffffff"
         id="rect45" />
    </g>
    <rect
       x="164.86"
       y="73.470001"
       width="188"
       height="242.07001"
       rx="8.2600002"
       style="fill:none;stroke:#263238;stroke-linecap:round;stroke-linejoin:round"
       id="rect46" />
    <rect
       x="172.86"
       y="108.06"
       width="172"
       height="67.080002"
       style="fill:#ffffff;stroke:#263238;stroke-linecap:round;stroke-linejoin:round"
       id="rect47" />
    <line
       x1="344.85999"
       y1="175.14"
       x2="172.86"
       y2="108.06"
       style="fill:none;stroke:#263238;stroke-width:0.75px;stroke-linecap:round;stroke-linejoin:round"
       id="line47" />
    <line
       x1="172.86"
       y1="175.14"
       x2="344.85999"
       y2="108.06"
       style="fill:none;stroke:#263238;stroke-width:0.75px;stroke-linecap:round;stroke-linejoin:round"
       id="line48" />
    <rect
       x="172.86"
       y="188.73"
       width="86"
       height="67.080002"
       style="fill:#92e3a9"
       id="rect48" />
    <g
       clip-path="url(#freepik--clip-path-2--inject-121)"
       id="g49">
      <rect
         x="172.86"
         y="188.73"
         width="86"
         height="67.080002"
         style="opacity:0.5;fill:#ffffff"
         id="rect49" />
    </g>
    <rect
       x="172.86"
       y="188.73"
       width="86"
       height="67.080002"
       style="fill:none;stroke:#263238;stroke-linecap:round;stroke-linejoin:round"
       id="rect50" />
    <rect
       x="220.11"
       y="85.040001"
       width="77.5"
       height="3"
       rx="1.5"
       style="fill:#263238;stroke:#263238;stroke-width:0.75px;stroke-linecap:round;stroke-linejoin:round"
       id="rect51" />
    <path
       d="m 343.36,191.73 h -74.5 a 1.5,1.5 0 0 1 -1.5,-1.5 v 0 a 1.5,1.5 0 0 1 1.5,-1.5 h 74.5 a 1.5,1.5 0 0 1 1.5,1.5 v 0 a 1.5,1.5 0 0 1 -1.5,1.5 z"
       style="fill:#263238;stroke:#263238;stroke-width:0.75px;stroke-linecap:round;stroke-linejoin:round"
       id="path51" />
    <path
       d="m 327.36,208.31 h -58.5 a 1.5,1.5 0 0 1 -1.5,-1.5 v 0 a 1.5,1.5 0 0 1 1.5,-1.5 h 58.5 a 1.5,1.5 0 0 1 1.5,1.5 v 0 a 1.5,1.5 0 0 1 -1.5,1.5 z"
       style="fill:#263238;stroke:#263238;stroke-width:0.75px;stroke-linecap:round;stroke-linejoin:round"
       id="path52" />
    <rect
       x="267.35999"
       y="217.03999"
       width="53.75"
       height="3"
       rx="1.5"
       style="fill:#263238;stroke:#263238;stroke-width:0.75px;stroke-linecap:round;stroke-linejoin:round"
       id="rect52" />
    <path
       d="m 334.36,231.76 h -65.5 a 1.5,1.5 0 0 1 -1.5,-1.5 v 0 a 1.5,1.5 0 0 1 1.5,-1.5 h 65.5 a 1.5,1.5 0 0 1 1.5,1.5 v 0 a 1.5,1.5 0 0 1 -1.5,1.5 z"
       style="fill:#263238;stroke:#263238;stroke-width:0.75px;stroke-linecap:round;stroke-linejoin:round"
       id="path53" />
    <path
       d="m 328.11,243.48 h -59.25 a 1.5,1.5 0 0 1 -1.5,-1.5 v 0 a 1.5,1.5 0 0 1 1.5,-1.5 h 59.25 a 1.5,1.5 0 0 1 1.5,1.5 v 0 a 1.5,1.5 0 0 1 -1.5,1.5 z"
       style="fill:#263238;stroke:#263238;stroke-width:0.75px;stroke-linecap:round;stroke-linejoin:round"
       id="path54" />
    <path
       d="m 319.61,255.21 h -50.75 a 1.5,1.5 0 0 1 -1.5,-1.5 v 0 a 1.5,1.5 0 0 1 1.5,-1.5 h 50.75 a 1.5,1.5 0 0 1 1.5,1.5 v 0 a 1.5,1.5 0 0 1 -1.5,1.5 z"
       style="fill:#263238;stroke:#263238;stroke-width:0.75px;stroke-linecap:round;stroke-linejoin:round"
       id="path55" />
    <path
       d="m 307.36,98.2 h -97 a 1.5,1.5 0 0 1 -1.5,-1.5 v 0 a 1.5,1.5 0 0 1 1.5,-1.5 h 97 a 1.5,1.5 0 0 1 1.5,1.5 v 0 a 1.5,1.5 0 0 1 -1.5,1.5 z"
       style="fill:#263238;stroke:#263238;stroke-width:0.75px;stroke-linecap:round;stroke-linejoin:round"
       id="path56" />
    <circle
       cx="258.85999"
       cy="289.20001"
       r="16"
       style="fill:#92e3a9;stroke:#263238;stroke-width:0.75px;stroke-linecap:round;stroke-linejoin:round"
       id="circle56" />
    <circle
       cx="210.86"
       cy="289.20001"
       r="16"
       style="fill:#92e3a9;stroke:#263238;stroke-linecap:round;stroke-linejoin:round"
       id="circle57" />
    <circle
       cx="306.85999"
       cy="289.20001"
       r="16"
       style="fill:#92e3a9;stroke:#263238;stroke-linecap:round;stroke-linejoin:round"
       id="circle58" />
  </g>
  <g
     id="freepik--character-3--inject-121"
     transform="translate(-57.378546,-63.150002)">
    <polygon
       points="274.14,180.69 293.69,180.69 300.98,187.97 300.98,217.64 274.14,217.64 "
       style="fill:#ffffff;stroke:#263238;stroke-linecap:round;stroke-linejoin:round"
       id="polygon58" />
    <polygon
       points="293.69,181.69 293.69,188.98 300.98,188.98 300.98,187.97 293.69,180.69 "
       style="fill:#263238;stroke:#263238;stroke-width:0.75px;stroke-linecap:round;stroke-linejoin:round"
       id="polygon59" />
    <polygon
       points="293.69,180.69 293.69,187.98 300.98,187.98 "
       style="fill:#ffffff;stroke:#263238;stroke-linecap:round;stroke-linejoin:round"
       id="polygon60" />
    <path
       d="m 286.48,190 h 4.34 l 3.32,20.38 h -3.21 l -0.58,-4.05 v 0.06 h -3.64 l -0.58,4 h -3 z m 3.52,13.6 -1.42,-10.07 h -0.06 l -1.4,10.07 z"
       style="fill:#92e3a9;stroke:#92e3a9;stroke-width:0.5px;stroke-linecap:round;stroke-linejoin:round"
       id="path60" />
    <path
       d="m 284.48,189 h 4.34 l 3.32,20.38 h -3.21 l -0.58,-4.05 v 0.06 h -3.64 l -0.58,4 h -3 z m 3.52,13.6 -1.42,-10.07 h -0.06 l -1.4,10.07 z"
       style="fill:#ffffff;stroke:#263238;stroke-width:0.75px;stroke-linecap:round;stroke-linejoin:round"
       id="path61" />
    <path
       d="m 380.93,284.11 18,68 c 0,0 0.25,7.5 3.75,13.25 l 4.91,57.28 c 0,0 3.75,5.75 17.25,0 0,0 0.59,-41 -4.41,-66.53 l -4.25,-48.58 a 73.07,73.07 0 0 0 -0.75,-22.92 z"
       style="fill:#263238"
       id="path62" />
    <g
       clip-path="url(#freepik--clip-path-3--inject-121)"
       id="g63">
      <path
         d="m 410.42,290.66 c -2.45,0.86 -5.14,1.38 -7.53,2 a 3.63,3.63 0 0 1 -0.45,0.1 c -2.06,5 -4.12,10 -6.43,14.94 -2.72,5.8 -6.2,13.1 -6.32,20 a 4.25,4.25 0 0 1 3.7,3.53 47,47 0 0 0 1,4.8 c 0.6,1.85 1.33,3.58 1.79,5.5 0.12,0.5 0.24,1 0.35,1.49 -0.26,-10.84 -0.92,-21.39 6.35,-30.88 5.29,-6.84 7.02,-15.41 7.54,-21.48 z"
         style="opacity:0.5"
         id="path63" />
    </g>
    <path
       d="m 380.93,284.11 18,68 c 0,0 0.25,7.5 3.75,13.25 l 4.91,57.28 c 0,0 3.75,5.75 17.25,0 0,0 0.59,-41 -4.41,-66.53 l -4.25,-48.58 a 73.07,73.07 0 0 0 -0.75,-22.92 z"
       style="fill:none;stroke:#263238;stroke-width:0.75px;stroke-linecap:round;stroke-linejoin:round"
       id="path64" />
    <path
       d="m 408.63,422.61 c 0,0 -8.67,4 -11.78,4 -2.13,0 -6.11,-2.15 -8,2.84 0,0 -2.26,4.41 11.44,6 a 143.86,143.86 0 0 0 26.2,0.19 1.9,1.9 0 0 0 1.72,-2.25 l -0.17,-0.89 c 0,0 -0.34,-6.56 -4.42,-9.85 z"
       style="fill:#92e3a9;stroke:#263238;stroke-linecap:round;stroke-linejoin:round"
       id="path65" />
    <path
       d="m 397.8,432.92 c -8.91,-1.74 -8.68,-4.19 -8.68,-4.19 v 0 c -0.11,0.22 -0.21,0.44 -0.31,0.69 0,0 -2.26,4.41 11.44,6 a 143.86,143.86 0 0 0 26.2,0.19 1.9,1.9 0 0 0 1.72,-2.25 l -0.07,-0.33 -8.13,0.73 c 0,0 -13.27,0.89 -22.17,-0.84 z"
       style="fill:#ffffff;stroke:#263238;stroke-width:0.75px;stroke-linecap:round;stroke-linejoin:round"
       id="path66" />
    <path
       d="m 408.44,354 a 11.56,11.56 0 0 0 9.87,3.59"
       style="fill:none;stroke:#7f7f7f;stroke-width:0.75px;stroke-linecap:round;stroke-linejoin:round"
       id="path67" />
    <path
       d="m 363.69,281.33 c 0,0 -4.5,11.75 3.75,62 0,0 -1.5,4.75 1.5,14.25 l 4,32.25 v 32 c 0,0 2.75,6.75 19,0 0,0 0.5,-56.75 -1.25,-68.75 l 3.83,-36.62 a 12.3,12.3 0 0 1 5,-8.61 c 3.57,-2.63 8.15,-8.14 8.9,-19.31 z"
       style="fill:#263238;stroke:#263238;stroke-width:0.75px;stroke-linecap:round;stroke-linejoin:round"
       id="path68" />
    <path
       d="m 374.06,421.21 c 0,0 -9.57,4.4 -13,4.37 -2.35,0 -6.75,-2.37 -8.87,3.13 0,0 -2.5,4.87 12.62,6.62 a 159.6,159.6 0 0 0 28.93,0.22 2.09,2.09 0 0 0 1.88,-2.49 l -0.18,-1 c 0,0 -0.38,-7.25 -4.88,-10.87 z"
       style="fill:#92e3a9;stroke:#263238;stroke-linecap:round;stroke-linejoin:round"
       id="path69" />
    <path
       d="m 362.1,432.58 c -9.83,-1.91 -9.57,-4.61 -9.57,-4.61 v 0 a 6.68,6.68 0 0 0 -0.34,0.76 c 0,0 -2.5,4.87 12.62,6.62 a 159.6,159.6 0 0 0 28.93,0.22 2.09,2.09 0 0 0 1.88,-2.49 l -0.07,-0.36 -9,0.8 c 0,0 -14.61,0.98 -24.45,-0.94 z"
       style="fill:#ffffff;stroke:#263238;stroke-width:0.75px;stroke-linecap:round;stroke-linejoin:round"
       id="path70" />
    <path
       d="m 376.19,350.58 c 0,0 3.92,4.7 11.75,4.06"
       style="fill:none;stroke:#7f7f7f;stroke-width:0.75px;stroke-linecap:round;stroke-linejoin:round"
       id="path71" />
    <path
       d="m 383.4,154.83 c 0,0 -8.09,3.63 -8.71,0 a 11.07,11.07 0 0 0 4.91,-3.75 c 2,-2.75 12,-2 12,-2 0,0 17.63,-1.65 15.38,7.37 0,0 7,6.61 1,16.24 -6,9.63 -9.46,12.85 -9.46,12.85 l -6,-1 -8.34,-25.37 z"
       style="fill:#263238;stroke:#263238;stroke-width:0.75px;stroke-linecap:round;stroke-linejoin:round"
       id="path72" />
    <path
       d="m 384.63,192.13 v -3.79 c 0,0 -6.49,1 -7.38,-0.67 -0.89,-1.67 0.56,-8.61 0.56,-8.61 0,0 -3.12,0.11 -3.12,-1.34 0,-1.45 3.68,-7.59 3.68,-7.59 0,0 -0.44,-4.92 0,-6.48 0.44,-1.56 5,-10.39 5,-10.39 0,0 6.7,3.68 6.48,5.69 -0.22,2.01 -2.12,3.91 -0.56,5.59 1.56,1.68 3.69,6.2 3,8.35 l 1,0.7 c 0,0 0.56,-4 2.8,-4.69 2.24,-0.69 4,3.79 2.45,6.92 -1.55,3.13 -3.35,2.57 -3.35,2.57 0,0 0.9,5.37 3.24,7.15 l 0.71,5.59 z"
       style="fill:#ffffff"
       id="path73" />
    <g
       clip-path="url(#freepik--clip-path-4--inject-121)"
       id="g74">
      <path
         d="m 377.25,187.67 c 0,0 3.31,0.83 10.56,-2.13 7.25,-2.96 7.43,-7.15 7.43,-7.15 l 0.32,0.57 c 0,0 -0.62,6.58 -10.93,9.38 -8.32,2.25 -8.32,0.62 -8.32,0.62 z"
         style="fill:#263238;stroke:#263238;stroke-width:0.5px;stroke-linecap:round;stroke-linejoin:round"
         id="path74" />
    </g>
    <path
       d="m 384.63,192.13 v -3.79 c 0,0 -6.49,1 -7.38,-0.67 -0.89,-1.67 0.56,-8.61 0.56,-8.61 0,0 -3.12,0.11 -3.12,-1.34 0,-1.45 3.68,-7.59 3.68,-7.59 0,0 -0.44,-4.92 0,-6.48 0.44,-1.56 5,-10.39 5,-10.39 0,0 6.7,3.68 6.48,5.69 -0.22,2.01 -2.12,3.91 -0.56,5.59 1.56,1.68 3.69,6.2 3,8.35 l 1,0.7 c 0,0 0.56,-4 2.8,-4.69 2.24,-0.69 4,3.79 2.45,6.92 -1.55,3.13 -3.35,2.57 -3.35,2.57 0,0 0.9,5.37 3.24,7.15 l 0.71,5.59 z"
       style="fill:none;stroke:#263238;stroke-linecap:round;stroke-linejoin:round"
       id="path75" />
    <path
       d="m 384.3,179.06 c 0,0 -1.13,3.61 -4.73,1.67"
       style="fill:none;stroke:#263238;stroke-width:0.75px;stroke-linecap:round;stroke-linejoin:round"
       id="path76" />
    <path
       d="m 380.33,165.1 a 2.84,2.84 0 0 1 3.07,2"
       style="fill:none;stroke:#263238;stroke-width:0.75px;stroke-linecap:round;stroke-linejoin:round"
       id="path77" />
    <path
       d="m 379.6,168.9 c 0,0.74 0.33,1.34 0.73,1.34 0.4,0 0.72,-0.6 0.72,-1.34 0,-0.74 -0.32,-1.34 -0.72,-1.34 -0.4,0 -0.73,0.6 -0.73,1.34 z"
       style="fill:#2e353a"
       id="path78" />
    <path
       d="m 421.81,213.93 c 0,0 18.88,38.87 14.88,44.89 -4,6.02 -21.25,25.76 -21.25,25.76 l -7,-8 14,-23.76 -7.25,-14.74 c 0,0 -3.25,-11.56 6.62,-24.15 z"
       style="fill:#92e3a9"
       id="path79" />
    <g
       clip-path="url(#freepik--clip-path-5--inject-121)"
       id="g80">
      <path
         d="m 422.66,240.33 c 1.08,-6 0.24,-17 0,-19.44 a 192.2,192.2 0 0 1 -4.45,22 5.37,5.37 0 0 1 -0.35,1 c 1.8,2.82 3.93,5.49 3.62,9.06 -0.31,3.57 -3.79,8.22 -5.82,11.22 a 5.66,5.66 0 0 1 -0.8,0.94 5.08,5.08 0 0 1 0.39,0.93 c 0.84,2.85 0.71,5.78 0.73,8.71 2.44,-14.86 11.32,-19.5 12.09,-22.86 0.93,-4.08 -6.63,-4.81 -5.41,-11.56 z"
         style="opacity:0.2"
         id="path80" />
    </g>
    <path
       d="m 421.81,213.93 c 0,0 18.88,38.87 14.88,44.89 -4,6.02 -21.25,25.76 -21.25,25.76 l -7,-8 14,-23.76 -7.25,-14.74 c 0,0 -3.25,-11.56 6.62,-24.15 z"
       style="fill:none;stroke:#263238;stroke-linecap:round;stroke-linejoin:round"
       id="path81" />
    <path
       d="m 424.87,252.27 a 12.26,12.26 0 0 1 6.48,0"
       style="fill:none;stroke:#263238;stroke-width:0.75px;stroke-linecap:round;stroke-linejoin:round"
       id="path82" />
    <path
       d="m 380.19,197.83 4.5,-7.36 c 0,0 12.5,-5.11 18.75,0 l 3.5,9.86 z"
       style="fill:#92e3a9;stroke:#263238;stroke-linecap:round;stroke-linejoin:round"
       id="path83" />
    <path
       d="m 362.19,283.67 3.73,-30.67 -1.51,-46 a 9,9 0 0 1 6.52,-9 c 12.7,-3.68 39.89,-8.2 50.88,15.94 a 11,11 0 0 1 0.85,6.45 l -7.47,42.95 2,23.43 c 0,0 -24.34,17.9 -55,-3.1 z"
       style="fill:#92e3a9"
       id="path84" />
    <g
       clip-path="url(#freepik--clip-path-6--inject-121)"
       id="g85">
      <path
         d="m 393.56,281.33 c -0.62,-9 15.63,-12.5 14.88,-16.21 -0.75,-3.71 -12.25,-1.79 -12.25,-5.45 0,-3.66 -30.43,-11.56 -23.47,-28.59 a 37.5,37.5 0 0 0 3.09,-14.23 78.36,78.36 0 0 1 -11,11.51 5.15,5.15 0 0 1 0.25,2.28 c 0,0.11 0.09,0.22 0.12,0.33 a 19,19 0 0 1 0.16,7.79 5.78,5.78 0 0 1 -0.09,1.55 55.49,55.49 0 0 1 0.44,8.88 c 0,0.24 0.06,0.48 0.11,0.72 a 5.46,5.46 0 0 1 -0.08,2.29 4.67,4.67 0 0 1 0.08,3.13 c -0.18,0.57 -0.37,1.14 -0.56,1.71 a 4.05,4.05 0 0 1 0.12,0.85 c 0.18,4.53 -0.79,9 -1.56,13.41 -0.72,4.11 -0.86,8.32 -1.62,12.42 a 4.89,4.89 0 0 1 1.41,1 c 2.62,2.64 7.39,4.36 10.83,5.68 a 64.55,64.55 0 0 0 12.39,3.24 38.17,38.17 0 0 0 25.1,-4.2 c -3.09,0.09 -17.79,-0.04 -18.35,-8.11 z"
         style="opacity:0.2"
         id="path85" />
    </g>
    <path
       d="m 362.19,283.67 3.73,-30.67 -1.51,-46 a 9,9 0 0 1 6.52,-9 c 12.7,-3.68 39.89,-8.2 50.88,15.94 a 11,11 0 0 1 0.85,6.45 l -7.47,42.95 2,23.43 c 0,0 -24.34,17.9 -55,-3.1 z"
       style="fill:none;stroke:#263238;stroke-linecap:round;stroke-linejoin:round"
       id="path86" />
    <path
       d="m 412.44,264.33 c 0,0 -37.5,8 -39.5,0 -2,-8 10.5,-3 20.62,-4.25"
       style="fill:none;stroke:#263238;stroke-width:0.75px;stroke-linecap:round;stroke-linejoin:round"
       id="path87" />
    <path
       d="m 319.6,217 -12,-4.35 c 0,0 -3.15,-8.22 -5.41,-9.92 -2.26,-1.7 -5,-5 -5.74,-3.74 -0.53,0.89 0.85,3.26 2.77,4.91 2.08,1.79 1.18,4.06 0.75,5 -0.43,0.94 -3.77,2.48 -6.47,3.43 -2.7,0.95 -9,-1.4 -10.61,0.23 -1.61,1.63 2.53,2.18 2.53,2.18 0,0 -3.08,0.22 -3.36,2 -0.16,1.07 2.91,0.4 4.44,0.24 1.53,-0.16 4.67,-0.36 4.67,-0.36 0,0 -5.32,1.85 -4.93,3.33 0.39,1.48 4.11,-0.77 7.2,-1.3 0,0 -4.15,2.06 -3.6,3.44 0.55,1.38 2.54,-0.61 6.1,-2 l 7.46,-1.71 12.13,6.62 z"
       style="fill:#ffffff;stroke:#263238;stroke-linecap:round;stroke-linejoin:round"
       id="path88" />
    <path
       d="m 286.56,214.72 a 19.24,19.24 0 0 0 5.16,0.46"
       style="fill:none;stroke:#263238;stroke-width:0.75px;stroke-linecap:round;stroke-linejoin:round"
       id="path89" />
    <path
       d="m 369.65,199 a 2.11,2.11 0 0 0 -2.31,0.52 l -21.45,22.84 -35.17,-9.71 -3.89,9.8 c 0,0 26.68,14.93 40.24,14.11 10.29,-0.63 22.87,-11.7 28.34,-17 a 7.77,7.77 0 0 0 2.22,-6.91"
       style="fill:#92e3a9;stroke:#263238;stroke-linecap:round;stroke-linejoin:round"
       id="path90" />
    <path
       d="m 314.27,221.41 a 1.19,1.19 0 1 1 -1.37,-1 1.18,1.18 0 0 1 1.37,1 z"
       style="fill:#ffffff;stroke:#263238;stroke-width:0.75px;stroke-linecap:round;stroke-linejoin:round"
       id="path91" />
    <path
       d="m 345.54,229.13 c 1.14,-2.95 -0.42,-5.38 1.18,-5.66 1.6,-0.28 1.72,4.78 4.37,4.71"
       style="fill:none;stroke:#263238;stroke-width:0.75px;stroke-linecap:round;stroke-linejoin:round"
       id="path92" />
  </g>
  <g
     id="freepik--character-2--inject-121"
     transform="translate(-57.378546,-63.150002)">
    <path
       d="m 222,429.57 -25.24,-2.84 v -57.1 l 12.95,-7.78 V 359 H 175 v 2.83 l 13,7.76 v 57.14 l -25.24,2.84 a 4.64,4.64 0 0 0 -4.12,4.61 v 2.34 h 67.55 v -2.34 A 4.64,4.64 0 0 0 222,429.57 Z"
       style="fill:#ffffff;stroke:#263238;stroke-width:0.75px;stroke-linecap:round;stroke-linejoin:round"
       id="path93" />
    <rect
       x="160.56"
       y="325.54001"
       width="6.9000001"
       height="31.34"
       style="fill:#ffffff;stroke:#263238;stroke-width:0.75px;stroke-linecap:round;stroke-linejoin:round"
       id="rect93" />
    <rect
       x="151.37"
       y="350.39001"
       width="81.989998"
       height="12.98"
       rx="4.3299999"
       style="fill:#263238;stroke:#263238;stroke-linecap:round;stroke-linejoin:round"
       id="rect94" />
    <rect
       x="141.24001"
       y="293.51001"
       width="45.549999"
       height="34.889999"
       rx="8.3199997"
       style="fill:#263238"
       id="rect95" />
    <g
       clip-path="url(#freepik--clip-path-7--inject-121)"
       id="g96">
      <rect
         x="148.84"
         y="293.51001"
         width="45.549999"
         height="34.889999"
         rx="8.3199997"
         style="opacity:0.5"
         id="rect96" />
    </g>
    <rect
       x="141.24001"
       y="293.51001"
       width="45.549999"
       height="34.889999"
       rx="8.3199997"
       style="fill:none;stroke:#263238;stroke-linecap:round;stroke-linejoin:round"
       id="rect97" />
    <path
       d="m 218.79,348.43 a 28.76,28.76 0 0 1 7.11,-4.17"
       style="fill:none;stroke:#263238;stroke-width:0.75px;stroke-linecap:round;stroke-linejoin:round"
       id="path97" />
    <path
       d="m 223.08,341.89 c 0,0 -7.25,5.94 -5.78,6.83"
       style="fill:none;stroke:#263238;stroke-width:0.75px;stroke-linecap:round;stroke-linejoin:round"
       id="path98" />
    <path
       d="m 246,397.42 2.25,15.85 c 0,0 -4.21,3.44 -4.42,12.8 l 7.42,2.64 2,-2.64 6.62,6.9 c 0,0 11.73,5.28 13.33,1.75 1.6,-3.53 -4.87,-6.14 -10.34,-13.9 -1.42,-2 -6.17,-7.72 -6.17,-7.72 l 0.47,-16.54 z"
       style="fill:#263238;stroke:#263238;stroke-width:0.75px;stroke-linecap:round;stroke-linejoin:round"
       id="path99" />
    <path
       d="m 189.36,330.15 c 0,0 62.09,-4.16 64.92,4.61 2.83,8.77 4.16,36.84 4.3,48 0.14,11.16 -0.74,25.25 -0.74,25.25 a 19.72,19.72 0 0 1 -11.44,0 c 0,0 -2.73,-16.19 -4.7,-24.06 -1.97,-7.87 -4.06,-18.37 -2.87,-35 0,0 -59.5,9 -59.83,-1.44 -0.33,-10.44 10.36,-17.36 10.36,-17.36 z"
       style="fill:#ffffff"
       id="path100" />
    <g
       clip-path="url(#freepik--clip-path-8--inject-121)"
       id="g102">
      <path
         d="m 189.36,330.15 c 0,0 62.09,-4.16 64.92,4.61 2.83,8.77 4.16,36.84 4.3,48 0.14,11.16 -0.74,25.25 -0.74,25.25 a 19.72,19.72 0 0 1 -11.44,0 c 0,0 -2.73,-16.19 -4.7,-24.06 -1.97,-7.87 -4.06,-18.37 -2.87,-35 0,0 -59.5,9 -59.83,-1.44 -0.33,-10.44 10.36,-17.36 10.36,-17.36 z"
         style="opacity:0.5"
         id="path101" />
      <path
         d="m 233.1,333.09 1.08,0.48 0.43,0.17 0.26,0.12 a 6.91,6.91 0 0 1 1.31,0.73 c 4.45,2.17 6.55,6.13 5,11.18 a 6.26,6.26 0 0 1 -0.08,0.84 61.73,61.73 0 0 1 -3,10.41 3.68,3.68 0 0 1 0.47,2.28 c -0.16,1.27 -0.29,2.53 -0.39,3.8 a 6.3,6.3 0 0 1 0.42,3.47 14.74,14.74 0 0 0 -0.16,2.3 c 0.37,2.78 0.73,5.56 1.25,8.31 l 0.6,2.3 c 0,-0.54 0,-1.12 -0.06,-1.77 -1.16,-22.81 2.36,-13.54 3.91,-29.28 1.23,-11.84 -6.92,-14.67 -11.04,-15.34 z"
         style="opacity:0.2"
         id="path102" />
    </g>
    <path
       d="m 189.36,330.15 c 0,0 62.09,-4.16 64.92,4.61 2.83,8.77 4.16,36.84 4.3,48 0.14,11.16 -0.74,25.25 -0.74,25.25 a 19.72,19.72 0 0 1 -11.44,0 c 0,0 -2.73,-16.19 -4.7,-24.06 -1.97,-7.87 -4.06,-18.37 -2.87,-35 0,0 -59.5,9 -59.83,-1.44 -0.33,-10.44 10.36,-17.36 10.36,-17.36 z"
       style="fill:none;stroke:#263238;stroke-linecap:round;stroke-linejoin:round"
       id="path103" />
    <path
       d="m 245.5,343.3 c 0,0 -0.64,2.88 -4.66,5.67"
       style="fill:none;stroke:#263238;stroke-width:0.75px;stroke-linecap:round;stroke-linejoin:round"
       id="path104" />
    <path
       d="m 259.28,404.44 -0.43,4.2 c 0,0 -7.1,3.81 -13.35,0.29 l -1.3,-4.13 c 0,0 4.23,2.9 15.08,-0.36 z"
       style="fill:#92e3a9"
       id="path105" />
    <g
       clip-path="url(#freepik--clip-path-9--inject-121)"
       id="g106">
      <path
         d="m 259.28,404.44 -0.43,4.2 c 0,0 -7.1,3.81 -13.35,0.29 l -1.3,-4.13 c 0,0 4.23,2.9 15.08,-0.36 z"
         style="opacity:0.3;fill:#92e3a9;stroke:#263238;stroke-width:0.75px;stroke-miterlimit:10"
         id="path106" />
    </g>
    <path
       d="m 259.28,404.44 -0.43,4.2 c 0,0 -7.1,3.81 -13.35,0.29 l -1.3,-4.13 c 0,0 4.23,2.9 15.08,-0.36 z"
       style="fill:none;stroke:#263238;stroke-width:0.75px;stroke-linecap:round;stroke-linejoin:round"
       id="path107" />
    <path
       d="m 256.3,414.52 a 53.46,53.46 0 0 1 7.48,9.39"
       style="fill:none;stroke:#7f7f7f;stroke-linecap:round;stroke-linejoin:round"
       id="path108" />
    <path
       d="m 200.87,386.35 -6.93,14.43 c 0,0 -5.41,0.52 -10.78,8.19 l 4.71,6.31 3.13,-1.08 1.68,9.42 c 0,0 6.82,10.9 10.11,8.85 3.29,-2.05 -0.63,-7.81 -0.87,-17.3 -0.07,-2.47 -0.85,-9.85 -0.85,-9.85 l 9.58,-13.49 z"
       style="fill:#263238;stroke:#263238;stroke-width:0.75px;stroke-linecap:round;stroke-linejoin:round"
       id="path109" />
    <path
       d="m 168,332.49 c 0,0 -8.81,17.6 2.45,19.16 11.26,1.56 45.68,-0.44 45.68,-0.44 a 174.54,174.54 0 0 0 -11.44,21.58 c -4.46,10.54 -8.91,21.39 -8.91,21.39 0,0 1.93,5.2 9.8,6.24 0,0 6.39,-10 20.35,-25.55 13.96,-15.55 17.83,-31.2 14.86,-36.55 -2.97,-5.35 -18.42,-8.24 -43.38,-9.39 z"
       style="fill:#ffffff"
       id="path110" />
    <g
       clip-path="url(#freepik--clip-path-10--inject-121)"
       id="g111">
      <path
         d="m 168,332.49 c 0,0 -8.81,17.6 2.45,19.16 11.26,1.56 45.68,-0.44 45.68,-0.44 a 174.54,174.54 0 0 0 -11.44,21.58 c -4.46,10.54 -8.91,21.39 -8.91,21.39 0,0 1.93,5.2 9.8,6.24 0,0 6.39,-10 20.35,-25.55 13.96,-15.55 17.83,-31.2 14.86,-36.55 -2.97,-5.35 -18.42,-8.24 -43.38,-9.39 z"
         style="opacity:0.5"
         id="path111" />
    </g>
    <path
       d="m 168,332.49 c 0,0 -8.81,17.6 2.45,19.16 11.26,1.56 45.68,-0.44 45.68,-0.44 a 174.54,174.54 0 0 0 -11.44,21.58 c -4.46,10.54 -8.91,21.39 -8.91,21.39 0,0 1.93,5.2 9.8,6.24 0,0 6.39,-10 20.35,-25.55 13.96,-15.55 17.83,-31.2 14.86,-36.55 -2.97,-5.35 -18.42,-8.24 -43.38,-9.39 z"
       style="fill:none;stroke:#263238;stroke-linecap:round;stroke-linejoin:round"
       id="path112" />
    <path
       d="m 208.22,398.93 -2.67,3.27 c 0,0 -8,-0.74 -11.29,-7.13 l 1.19,-4.16 c 0,0 1.93,4.75 12.77,8.02 z"
       style="fill:#92e3a9"
       id="path113" />
    <g
       clip-path="url(#freepik--clip-path-11--inject-121)"
       id="g114">
      <path
         d="m 208.22,398.93 -2.67,3.27 c 0,0 -8,-0.74 -11.29,-7.13 l 1.19,-4.16 c 0,0 1.93,4.75 12.77,8.02 z"
         style="opacity:0.3;fill:#92e3a9;stroke:#263238;stroke-width:0.75px;stroke-miterlimit:10"
         id="path114" />
    </g>
    <path
       d="m 208.22,398.93 -2.67,3.27 c 0,0 -8,-0.74 -11.29,-7.13 l 1.19,-4.16 c 0,0 1.93,4.75 12.77,8.02 z"
       style="fill:none;stroke:#263238;stroke-width:0.75px;stroke-linecap:round;stroke-linejoin:round"
       id="path115" />
    <path
       d="m 199.7,406.68 c 0.4,2.18 1.15,6.62 1.54,11.41"
       style="fill:none;stroke:#7f7f7f;stroke-linecap:round;stroke-linejoin:round"
       id="path116" />
    <path
       d="m 196.49,227.22 c 0,0 7.65,-3.8 -0.41,-8.87 -8.06,-5.07 -22.15,8.87 -22.15,8.87 l -1.37,6.51 c 0,0 0.59,5.19 2.46,8.2 1.5,2.43 4.17,2.44 5.43,4.85 1.93,3.66 1.29,6.26 3.28,4.66 4.92,-4 6.51,-19.81 6.51,-19.81 z"
       style="fill:#263238;stroke:#263238;stroke-linecap:round;stroke-linejoin:round"
       id="path117" />
    <polygon
       points="184.81,241.98 181.97,255.04 193.54,258.45 194.87,250.65 "
       style="fill:#ffffff"
       id="polygon117" />
    <g
       clip-path="url(#freepik--clip-path-12--inject-121)"
       id="g118">
      <path
         d="m 183.83,242.89 c 0,0 0.82,4.5 3.27,7.33 2.45,2.83 8.84,6.19 8.84,6.19 l 0.55,-5.36 -10,-7.62 -1.68,-1.43 z"
         style="fill:#263238;stroke:#263238;stroke-width:0.5px;stroke-linecap:round;stroke-linejoin:round"
         id="path118" />
    </g>
    <polygon
       points="184.81,241.98 181.97,255.04 193.54,258.45 194.87,250.65 "
       style="fill:none;stroke:#263238;stroke-linecap:round;stroke-linejoin:round"
       id="polygon118" />
    <path
       d="m 196.74,224.47 c 0,0 4.57,8 4.47,10.31 0,0 6,15.75 0,18.34 -4.66,2 -10.51,-1.9 -12.8,-3.68 a 6.23,6.23 0 0 1 -1.55,-1.8 l -1.95,-3.43 c 0,0 -2.4,0.69 -4.59,-2.43 -2.19,-3.12 0.06,-6.08 2.47,-4.24 0,0 1.82,-3.77 1.25,-5.85 -0.57,-2.08 2.16,-2.11 2.28,-4.32 0.03,0 6.52,-0.23 10.42,-2.9 z"
       style="fill:#ffffff"
       id="path119" />
    <path
       d="m 196.74,224.47 c 0,0 4.57,8 4.47,10.31 0,0 6,15.75 0,18.34 -4.66,2 -10.51,-1.9 -12.8,-3.68 a 6.23,6.23 0 0 1 -1.55,-1.8 l -1.95,-3.43 c 0,0 -2.4,0.69 -4.59,-2.43 -2.19,-3.12 0.06,-6.08 2.47,-4.24 0,0 1.82,-3.77 1.25,-5.85 -0.57,-2.08 2.16,-2.11 2.28,-4.32 0.03,0 6.52,-0.23 10.42,-2.9 z"
       style="fill:none;stroke:#263238;stroke-linecap:round;stroke-linejoin:round"
       id="path120" />
    <path
       d="m 195.9,246.06 c 0,0 1.48,2 4.49,-0.67"
       style="fill:none;stroke:#263238;stroke-width:0.75px;stroke-linecap:round;stroke-linejoin:round"
       id="path121" />
    <path
       d="m 198.39,236.73 c 0.55,2.16 -0.09,4.18 -1.43,4.52 -1.34,0.34 -2.87,-1.12 -3.42,-3.27 -0.55,-2.15 0.33,-3 1.67,-3.33 1.34,-0.33 2.63,-0.07 3.18,2.08 z"
       style="fill:none;stroke:#263238;stroke-width:0.75px;stroke-linecap:round;stroke-linejoin:round"
       id="path122" />
    <path
       d="m 204.51,235 c 0.55,2.16 0.11,4.13 -1,4.41 -1.11,0.28 -2.43,-1.24 -3,-3.39 -0.57,-2.15 0.15,-2.94 1.24,-3.22 1.09,-0.28 2.25,0 2.76,2.2 z"
       style="fill:#ffffff;stroke:#263238;stroke-width:0.75px;stroke-linecap:round;stroke-linejoin:round"
       id="path123" />
    <path
       d="m 192.83,234.59 a 3,3 0 0 1 4.07,-1.36"
       style="fill:none;stroke:#263238;stroke-width:0.75px;stroke-linecap:round;stroke-linejoin:round"
       id="path124" />
    <path
       d="m 199.45,232.36 a 2,2 0 0 1 1.27,-1.46"
       style="fill:none;stroke:#263238;stroke-width:0.75px;stroke-linecap:round;stroke-linejoin:round"
       id="path125" />
    <polyline
       points="193.54 237.98 190.99 239.01 182.82 237.54"
       style="fill:none;stroke:#263238;stroke-width:0.75px;stroke-linecap:round;stroke-linejoin:round"
       id="polyline125" />
    <line
       x1="200.47"
       y1="235.61"
       x2="198.42999"
       y2="236.44"
       style="fill:none;stroke:#263238;stroke-width:0.75px;stroke-linecap:round;stroke-linejoin:round"
       id="line125" />
    <path
       d="m 197.26,237.25 c 0.07,0.68 -0.2,1.27 -0.63,1.32 -0.43,0.05 -0.83,-0.47 -0.91,-1.15 -0.08,-0.68 0.2,-1.27 0.62,-1.32 0.42,-0.05 0.84,0.46 0.92,1.15 z"
       style="fill:#263238"
       id="path126" />
    <path
       d="m 202.25,235.44 c 0.08,0.67 -0.1,1.23 -0.41,1.27 -0.31,0.04 -0.61,-0.48 -0.68,-1.14 -0.07,-0.66 0.1,-1.23 0.4,-1.26 0.3,-0.03 0.61,0.47 0.69,1.13 z"
       style="fill:#263238"
       id="path127" />
    <path
       d="m 199.94,235.84 4.2,3.69 a 0.86,0.86 0 0 1 -0.11,1.37 l -2.16,1.35"
       style="fill:#ffffff;stroke:#263238;stroke-width:0.75px;stroke-linecap:round;stroke-linejoin:round"
       id="path128" />
    <path
       d="m 176.15,227.49 c 0,0 -0.74,-13.3 -11.06,-8 -10.32,5.3 -0.46,20.9 -3.55,24.34 -3.09,3.44 2.82,1.9 3.55,-0.59 0.73,-2.49 0.13,4.15 1.56,4.39 1.43,0.24 1.66,-5.7 3,-5.7 1.34,0 -0.35,3.7 0.72,4.11 1.07,0.41 3.56,-7.26 4.27,-11.5 a 66.47,66.47 0 0 1 1.51,-7.05 z"
       style="fill:#263238;stroke:#263238;stroke-linecap:round;stroke-linejoin:round"
       id="path129" />
    <path
       d="m 176.15,225.68 c 0,0 -3.61,4 -2.2,14 0.05,-0.02 -6.95,-10.15 2.2,-14 z"
       style="fill:#92e3a9;stroke:#263238;stroke-linecap:round;stroke-linejoin:round"
       id="path130" />
    <path
       d="m 184.7,227.22 c 0,0 4,1.11 4.55,4.41 0.55,3.3 2.41,-7.58 -4.55,-4.41 z"
       style="fill:#263238;stroke:#263238;stroke-width:0.75px;stroke-linecap:round;stroke-linejoin:round"
       id="path131" />
    <path
       d="m 198,226.51 c 0,0 4.35,-1.31 5.65,1.54 -0.03,0 -0.65,-6.87 -5.65,-1.54 z"
       style="fill:#263238;stroke:#263238;stroke-width:0.75px;stroke-linecap:round;stroke-linejoin:round"
       id="path132" />
    <path
       d="m 232.34,223.65 c 0.88,-0.24 1.79,0.9 1.79,0.9 0.94,-1.6 2.44,1.06 2.44,1.06 1.26,-1.54 1.9,1.83 1.9,1.83 0,0 1.33,-0.31 1.17,1.38 -0.21,2.22 -2.79,7.3 -2.79,7.3 l -1.68,8.6 -6.29,-0.74 2,-8.25 -1.88,-3.62 a 10.37,10.37 0 0 1 -1,-4.66 c 0.3,-2.05 3.46,-3.57 4.34,-3.8 z"
       style="fill:#ffffff;stroke:#263238;stroke-linecap:round;stroke-linejoin:round"
       id="path133" />
    <path
       d="m 232.35,225.71 c 0,0 1.88,3.93 1.65,0 0,0 1.37,4.87 2.24,0.91 0,0 -0.53,4.55 1.32,2 0,0 -0.78,1.36 -0.43,2 0.35,0.64 1.34,-0.41 1.34,-0.41"
       style="fill:#ffffff;stroke:#263238;stroke-width:0.75px;stroke-linecap:round;stroke-linejoin:round"
       id="path134" />
    <path
       d="m 201.65,261.24 20.14,0.42 7.56,-21 6.65,2.34 c 0,0 -3.41,26.59 -6.82,28.17 C 225.77,272.75 205,275 205,275 c 0,0 -6.46,-7.13 -3.35,-13.76 z"
       style="fill:#92e3a9"
       id="path135" />
    <g
       clip-path="url(#freepik--clip-path-13--inject-121)"
       id="g136">
      <path
         d="m 208.8,267.27 a 13.62,13.62 0 0 0 -8.52,-6.64 c 3.09,2 4.93,6 6.14,9.27 a 24.31,24.31 0 0 1 1.11,4.08 66.25,66.25 0 0 0 13,-1.32 c -3.14,-0.17 -9.21,-1.05 -11.73,-5.39 z"
         style="opacity:0.2"
         id="path136" />
    </g>
    <path
       d="m 201.65,261.24 20.14,0.42 7.56,-21 6.65,2.34 c 0,0 -3.41,26.59 -6.82,28.17 C 225.77,272.75 205,275 205,275 c 0,0 -6.46,-7.13 -3.35,-13.76 z"
       style="fill:none;stroke:#263238;stroke-linecap:round;stroke-linejoin:round"
       id="path137" />
    <polygon
       points="236.53,241.38 229.11,239.02 228.16,242.28 236,244.95 "
       style="fill:#92e3a9;stroke:#263238;stroke-linecap:round;stroke-linejoin:round"
       id="polygon137" />
    <path
       d="m 239.16,232.73 v 0 a 5.61,5.61 0 0 1 -6.73,-4.22 l -7.77,-33.95 11,-2.51 7.73,33.95 a 5.62,5.62 0 0 1 -4.23,6.73 z"
       style="fill:#ffffff;stroke:#263238;stroke-width:0.75px;stroke-linecap:round;stroke-linejoin:round"
       id="path138" />
    <rect
       x="227.41"
       y="194.89999"
       width="7.2399998"
       height="5.1599998"
       transform="rotate(-12.89,231.01043,197.46922)"
       style="fill:#92e3a9"
       id="rect138" />
    <g
       clip-path="url(#freepik--clip-path-14--inject-121)"
       id="g139">
      <rect
         x="227.41"
         y="194.89999"
         width="7.2399998"
         height="5.1599998"
         transform="rotate(-12.89,231.01043,197.46922)"
         style="opacity:0.7;fill:#ffffff"
         id="rect139" />
    </g>
    <rect
       x="228.84"
       y="201.13"
       width="7.2399998"
       height="5.1599998"
       transform="rotate(-12.89,232.41576,203.67961)"
       style="fill:#92e3a9"
       id="rect140" />
    <g
       clip-path="url(#freepik--clip-path-15--inject-121)"
       id="g141">
      <rect
         x="228.84"
         y="201.13"
         width="7.2399998"
         height="5.1599998"
         transform="rotate(-12.89,232.41576,203.67961)"
         style="opacity:0.3;fill:#ffffff"
         id="rect141" />
    </g>
    <rect
       x="230.25999"
       y="207.36"
       width="7.2399998"
       height="5.1599998"
       transform="rotate(-12.89,233.86534,209.895)"
       style="fill:#92e3a9"
       id="rect142" />
    <rect
       x="231.69"
       y="213.58"
       width="7.2399998"
       height="5.1599998"
       transform="rotate(-12.89,235.26566,216.14965)"
       style="fill:#92e3a9"
       id="rect143" />
    <g
       clip-path="url(#freepik--clip-path-16--inject-121)"
       id="g144">
      <rect
         x="231.69"
         y="213.58"
         width="7.2399998"
         height="5.1599998"
         transform="rotate(-12.89,235.26566,216.14965)"
         style="opacity:0.2"
         id="rect144" />
    </g>
    <rect
       x="233.11"
       y="219.81"
       width="7.2399998"
       height="5.1599998"
       transform="rotate(-12.89,236.71524,222.36504)"
       style="fill:#92e3a9"
       id="rect145" />
    <g
       clip-path="url(#freepik--clip-path-17--inject-121)"
       id="g146">
      <rect
         x="233.11"
         y="219.81"
         width="7.2399998"
         height="5.1599998"
         transform="rotate(-12.89,236.71524,222.36504)"
         style="opacity:0.3"
         id="rect146" />
    </g>
    <path
       d="m 229.66,226.73 a 1.19,1.19 0 0 1 2.06,-0.65 c 1.62,1.19 4,1.58 3.73,2.32 -0.27,0.74 -0.89,1.19 -3.21,0.25 0,0 -0.41,0.25 0.17,1 a 6,6 0 0 1 1.54,2.94"
       style="fill:#ffffff;stroke:#263238;stroke-width:0.75px;stroke-linecap:round;stroke-linejoin:round"
       id="path146" />
    <path
       d="m 164.16,261.68 6.29,56.24 -4,16.91 c 0,0 4.21,0.95 15.88,-2.72 11.67,-3.67 24.16,-2.57 24.16,-2.57 0,0 5.17,-37.44 3.1,-49.14 a 46.85,46.85 0 0 0 -7.92,-19.16 c 0,0 -22.41,-9.8 -36.1,-2.31 a 2.77,2.77 0 0 0 -1.41,2.75 z"
       style="fill:#92e3a9"
       id="path147" />
    <g
       clip-path="url(#freepik--clip-path-18--inject-121)"
       id="g148">
      <path
         d="m 176.15,294.19 c 0.47,-7 -2.65,-18.51 -2.65,-18.51 l -2.33,0.31 a 131.52,131.52 0 0 0 0.18,20.34 c 0.24,2.71 1.67,5.53 1.58,8.22 -0.08,2.39 -1.45,4 -2.61,6 -0.2,0.34 -0.38,0.68 -0.58,1 a 4.3,4.3 0 0 1 0.63,3 c -0.13,1.27 -0.34,2.52 -0.57,3.76 a 5.26,5.26 0 0 1 -0.12,1.87 c -0.7,2.94 -1.32,5.85 -1.86,8.82 a 52,52 0 0 0 -1.23,6 63.42,63.42 0 0 0 13.06,-1.76 25.08,25.08 0 0 0 5.09,-1.83 c -16.19,2.39 -10.64,-8.08 -10.15,-12.43 0.49,-4.35 16.12,-9.66 16.9,-14.41 0.78,-4.75 -15.82,-3.41 -15.34,-10.38 z"
         style="opacity:0.12"
         id="path148" />
    </g>
    <path
       d="m 164.16,261.68 6.29,56.24 -4,16.91 c 0,0 4.21,0.95 15.88,-2.72 11.67,-3.67 24.16,-2.57 24.16,-2.57 0,0 5.17,-37.44 3.1,-49.14 a 46.85,46.85 0 0 0 -7.92,-19.16 c 0,0 -22.41,-9.8 -36.1,-2.31 a 2.77,2.77 0 0 0 -1.41,2.75 z"
       style="fill:none;stroke:#263238;stroke-linecap:round;stroke-linejoin:round"
       id="path149" />
    <path
       d="m 178.34,256.41 2.95,-5.76 a 99,99 0 0 0 10.35,2.88 c 5.67,1.24 4.3,2.88 4.3,2.88 l -1.45,4.37 c 0,0 -2.23,2.22 -16.15,-4.37 z"
       style="fill:#92e3a9;stroke:#263238;stroke-linecap:round;stroke-linejoin:round"
       id="path150" />
    <path
       d="m 167.38,300 c 0,0 3.21,-2.53 4,-1.45 0.79,1.08 -0.9,0.72 -2.17,4.4"
       style="fill:none;stroke:#263238;stroke-linecap:round;stroke-linejoin:round"
       id="path151" />
    <path
       d="m 196.16,326.66 v 0 a 4.51,4.51 0 0 1 3.57,-5.27 l 27.36,-5.26 1.7,8.83 -27.36,5.26 a 4.5,4.5 0 0 1 -5.27,-3.56 z"
       style="fill:#ffffff;stroke:#263238;stroke-width:0.75px;stroke-linecap:round;stroke-linejoin:round"
       id="path152" />
    <rect
       x="221.67999"
       y="319.07999"
       width="5.8000002"
       height="4.1300001"
       transform="rotate(79.11,224.58283,321.13944)"
       style="fill:#92e3a9"
       id="rect152" />
    <g
       clip-path="url(#freepik--clip-path-19--inject-121)"
       id="g153">
      <rect
         x="221.67999"
         y="319.07999"
         width="5.8000002"
         height="4.1300001"
         transform="rotate(79.11,224.58283,321.13944)"
         style="opacity:0.7;fill:#ffffff"
         id="rect153" />
    </g>
    <rect
       x="216.66"
       y="320.04001"
       width="5.8000002"
       height="4.1300001"
       transform="rotate(79.11,219.55515,322.10465)"
       style="fill:#92e3a9"
       id="rect154" />
    <g
       clip-path="url(#freepik--clip-path-20--inject-121)"
       id="g155">
      <rect
         x="216.66"
         y="320.04001"
         width="5.8000002"
         height="4.1300001"
         transform="rotate(79.11,219.55515,322.10465)"
         style="opacity:0.3;fill:#ffffff"
         id="rect155" />
    </g>
    <rect
       x="211.64"
       y="321.01001"
       width="5.79"
       height="4.1300001"
       transform="rotate(79.11,214.53853,323.07092)"
       style="fill:#92e3a9"
       id="rect156" />
    <rect
       x="206.62"
       y="321.98001"
       width="5.79"
       height="4.1300001"
       transform="rotate(79.11,209.5219,324.03719)"
       style="fill:#92e3a9"
       id="rect157" />
    <g
       clip-path="url(#freepik--clip-path-21--inject-121)"
       id="g158">
      <rect
         x="206.62"
         y="321.98001"
         width="5.79"
         height="4.1300001"
         transform="rotate(79.11,209.5219,324.03719)"
         style="opacity:0.2"
         id="rect158" />
    </g>
    <rect
       x="201.60001"
       y="322.94"
       width="5.79"
       height="4.1300001"
       transform="rotate(79.11,204.50027,324.9974)"
       style="fill:#92e3a9"
       id="rect159" />
    <g
       clip-path="url(#freepik--clip-path-22--inject-121)"
       id="g160">
      <rect
         x="201.60001"
         y="322.94"
         width="5.79"
         height="4.1300001"
         transform="rotate(79.11,204.50027,324.9974)"
         style="opacity:0.3"
         id="rect160" />
    </g>
    <path
       d="m 197.25,327.84 v 0 a 4.5,4.5 0 0 1 0.45,-6.35 l 21.06,-18.24 5.89,6.8 -21.06,18.24 a 4.49,4.49 0 0 1 -6.34,-0.45 z"
       style="fill:#ffffff;stroke:#263238;stroke-width:0.75px;stroke-linecap:round;stroke-linejoin:round"
       id="path160" />
    <rect
       x="216.2"
       y="306.79001"
       width="5.79"
       height="4.1300001"
       transform="rotate(49.11,219.09875,308.84286)"
       style="fill:#92e3a9"
       id="rect161" />
    <g
       clip-path="url(#freepik--clip-path-23--inject-121)"
       id="g162">
      <rect
         x="216.2"
         y="306.79001"
         width="5.79"
         height="4.1300001"
         transform="rotate(49.11,219.09875,308.84286)"
         style="opacity:0.7;fill:#ffffff"
         id="rect162" />
    </g>
    <rect
       x="212.33"
       y="310.13"
       width="5.8000002"
       height="4.1300001"
       transform="rotate(49.11,215.23374,312.1961)"
       style="fill:#92e3a9"
       id="rect163" />
    <g
       clip-path="url(#freepik--clip-path-24--inject-121)"
       id="g164">
      <rect
         x="212.33"
         y="310.13"
         width="5.8000002"
         height="4.1300001"
         transform="rotate(49.11,215.23374,312.1961)"
         style="opacity:0.3;fill:#ffffff"
         id="rect164" />
    </g>
    <rect
       x="208.47"
       y="313.48001"
       width="5.79"
       height="4.1300001"
       transform="rotate(49.11,211.36373,315.5384)"
       style="fill:#92e3a9"
       id="rect165" />
    <rect
       x="204.61"
       y="316.82999"
       width="5.79"
       height="4.1300001"
       transform="rotate(49.11,207.49872,318.89163)"
       style="fill:#92e3a9"
       id="rect166" />
    <g
       clip-path="url(#freepik--clip-path-25--inject-121)"
       id="g167">
      <rect
         x="204.61"
         y="316.82999"
         width="5.79"
         height="4.1300001"
         transform="rotate(49.11,207.49872,318.89163)"
         style="opacity:0.2"
         id="rect167" />
    </g>
    <rect
       x="200.74001"
       y="320.17001"
       width="5.8000002"
       height="4.1300001"
       transform="rotate(49.11,203.63966,322.22893)"
       style="fill:#92e3a9"
       id="rect168" />
    <g
       clip-path="url(#freepik--clip-path-26--inject-121)"
       id="g169">
      <rect
         x="200.74001"
         y="320.17001"
         width="5.8000002"
         height="4.1300001"
         transform="rotate(49.11,203.63966,322.22893)"
         style="opacity:0.3"
         id="rect169" />
    </g>
    <path
       d="m 198.1,328 v 0 a 4.5,4.5 0 0 1 -2.77,-5.72 l 9.12,-26.28 8.49,2.94 -9.12,26.33 A 4.49,4.49 0 0 1 198.1,328 Z"
       style="fill:#ffffff;stroke:#263238;stroke-width:0.75px;stroke-linecap:round;stroke-linejoin:round"
       id="path169" />
    <rect
       x="204.64"
       y="298.57001"
       width="5.8000002"
       height="4.1300001"
       transform="rotate(19.11,207.51256,300.6094)"
       style="fill:#92e3a9"
       id="rect170" />
    <g
       clip-path="url(#freepik--clip-path-27--inject-121)"
       id="g171">
      <rect
         x="204.64"
         y="298.57001"
         width="5.8000002"
         height="4.1300001"
         transform="rotate(19.11,207.51256,300.6094)"
         style="opacity:0.7;fill:#ffffff"
         id="rect171" />
    </g>
    <rect
       x="202.96001"
       y="303.39999"
       width="5.79"
       height="4.1300001"
       transform="rotate(19.11,205.85157,305.44024)"
       style="fill:#92e3a9"
       id="rect172" />
    <g
       clip-path="url(#freepik--clip-path-28--inject-121)"
       id="g173">
      <rect
         x="202.96001"
         y="303.39999"
         width="5.79"
         height="4.1300001"
         transform="rotate(19.11,205.85157,305.44024)"
         style="opacity:0.3;fill:#ffffff"
         id="rect173" />
    </g>
    <rect
       x="201.28999"
       y="308.23001"
       width="5.79"
       height="4.1300001"
       transform="rotate(19.11,204.19057,310.27109)"
       style="fill:#92e3a9"
       id="rect174" />
    <rect
       x="199.62"
       y="313.06"
       width="5.8000002"
       height="4.1300001"
       transform="rotate(19.11,202.49987,315.10693)"
       style="fill:#92e3a9"
       id="rect175" />
    <g
       clip-path="url(#freepik--clip-path-29--inject-121)"
       id="g176">
      <rect
         x="199.62"
         y="313.06"
         width="5.8000002"
         height="4.1300001"
         transform="rotate(19.11,202.49987,315.10693)"
         style="opacity:0.2"
         id="rect176" />
    </g>
    <rect
       x="197.94"
       y="317.89001"
       width="5.79"
       height="4.1300001"
       transform="rotate(19.11,200.83888,319.93777)"
       style="fill:#92e3a9"
       id="rect177" />
    <g
       clip-path="url(#freepik--clip-path-30--inject-121)"
       id="g178">
      <rect
         x="197.94"
         y="317.89001"
         width="5.79"
         height="4.1300001"
         transform="rotate(19.11,200.83888,319.93777)"
         style="opacity:0.3"
         id="rect178" />
    </g>
    <path
       d="m 187.59,311.53 7.58,5.53 c 0,0 8.6,0 10.16,2.35 1.56,2.35 2,5 0.6,5.95 -1.4,0.95 0.73,-2.54 -3.16,-4.31 0,0 2,9.07 -1.47,7.13 0,0 -0.45,1.54 -1.76,0.13 a 5,5 0 0 0 -0.48,-3.32 2.37,2.37 0 0 0 -1.83,-1.44 c 0,0 2.44,3.33 0.83,4.24 -1.3,0.73 -2,-4.06 -3.74,-4.6 a 5.34,5.34 0 0 1 -4.45,-3 L 184,317 Z"
       style="fill:#ffffff;stroke:#263238;stroke-linecap:round;stroke-linejoin:round"
       id="path178" />
    <path
       d="m 201.6,326.77 a 6.52,6.52 0 0 0 -1.32,-4.73"
       style="fill:none;stroke:#263238;stroke-width:0.75px;stroke-linecap:round;stroke-linejoin:round"
       id="path179" />
    <path
       d="m 203.48,319.49 c 0,0 -0.16,0.69 -1.72,0.54 -1.15,-0.11 -2.84,2.21 -4.6,1.86"
       style="fill:none;stroke:#263238;stroke-width:0.75px;stroke-linecap:round;stroke-linejoin:round"
       id="path180" />
    <path
       d="m 165.8,260.13 a 0.85,0.85 0 0 0 -1.48,0.2 c -1.65,4.24 -6.07,18.41 -3.69,43.53 0,0 1.91,5.13 24.35,14.93 l 4.27,-6.6 -16.59,-13.47 c 0,0 2.17,-18 0.53,-24.72"
       style="fill:#92e3a9;stroke:#263238;stroke-linecap:round;stroke-linejoin:round"
       id="path181" />
    <polygon
       points="187.15,320.46 191.49,313.17 188.26,310.67 183.11,319.01 "
       style="fill:#92e3a9;stroke:#263238;stroke-linecap:round;stroke-linejoin:round"
       id="polygon181" />
  </g>
  <g
     id="freepik--character-1--inject-121"
     transform="translate(-57.378546,-63.150002)">
    <path
       d="m 97.94,179.18 c 0.09,2.68 0.37,10.72 0.37,10.72 l 15.94,9.56 1,-18.22 0.55,-25 2.62,-3.64 c 0,0 3.92,-6 -2.62,-8.33 -6.54,-2.33 -4.72,2 -11.22,2.73 -6.5,0.73 -21.74,11 -14.84,19.93 6.9,8.93 8.04,7.77 8.2,12.25 z"
       style="fill:#999999"
       id="path182" />
    <g
       clip-path="url(#freepik--clip-path-31--inject-121)"
       id="g183">
      <path
         d="m 104.05,174.41 a 7.4,7.4 0 0 0 3.26,1.63 c 0,0 2.47,7 3.71,7.94 1.24,0.94 5.66,1.69 5.66,1.69 l 1.3,-9.23 -9.18,-6 -5,-1.5 z"
         style="fill:#263238;stroke:#263238;stroke-linecap:round;stroke-linejoin:round"
         id="path183" />
    </g>
    <path
       d="m 97.94,179.18 c 0.09,2.68 0.37,10.72 0.37,10.72 l 15.94,9.56 1,-18.22 0.55,-25 2.62,-3.64 c 0,0 3.92,-6 -2.62,-8.33 -6.54,-2.33 -4.72,2 -11.22,2.73 -6.5,0.73 -21.74,11 -14.84,19.93 6.9,8.93 8.04,7.77 8.2,12.25 z"
       style="fill:none;stroke:#263238;stroke-linecap:round;stroke-linejoin:round"
       id="path184" />
    <path
       d="m 115.79,156.26 2.62,-3.64 c 0,0 3.92,-6 -2.62,-8.33 -6.54,-2.33 -4.72,2 -11.22,2.73 -6.5,0.73 -21.73,10.98 -14.83,19.91 4.48,5.84 6.54,7.37 7.47,9 a 3.78,3.78 0 0 1 4.76,0.55 c 2.6,2.59 5.25,-11.88 5.25,-11.88 l 8.52,-6.05 z"
       style="fill:#263238;stroke:#263238;stroke-linecap:round;stroke-linejoin:round"
       id="path185" />
    <path
       d="m 104.18,165.89 c 0,0 -6.42,0.17 -3,5 3.42,4.83 7,3.91 7,3.91 l 3.91,7.45 c 0,0 13.61,1.92 16.82,1 3.21,-0.92 -2.34,-12.14 -2.34,-12.14 l 2.13,-2.44 a 1.31,1.31 0 0 0 -0.17,-1.9 l -5.08,-4.08 c 0.43,-2.51 -5.12,-10.06 -5.12,-10.06 0,0 -8.24,-0.09 -9,2.69 a 47.55,47.55 0 0 0 -1.13,5 l -4.68,1.91 z"
       style="fill:#999999"
       id="path186" />
    <g
       clip-path="url(#freepik--clip-path-32--inject-121)"
       id="g187">
      <path
         d="m 107.31,158.34 1,2 c 0,0 4.12,2.82 4.34,4.34 0.28,2 -1.85,3.38 2.5,7.63 4.35,4.25 8.52,-0.69 11.55,-1.21 3.03,-0.52 5.55,7.2 5.55,7.2 l -0.34,7 -16.76,0.52 -3.63,-2.25 -4.75,-8 c 0,0 5.15,-0.46 2.58,-5 -3.56,-6.27 -7.72,-5.38 -7.72,-5.38 l -2.87,-2.55 7.38,-5.31 z"
         style="opacity:0.3"
         id="path187" />
    </g>
    <path
       d="m 104.18,165.89 c 0,0 -6.42,0.17 -3,5 3.42,4.83 7,3.91 7,3.91 l 3.91,7.45 c 0,0 13.61,1.92 16.82,1 3.21,-0.92 -2.34,-12.14 -2.34,-12.14 l 2.13,-2.44 a 1.31,1.31 0 0 0 -0.17,-1.9 l -5.08,-4.08 c 0.43,-2.51 -5.12,-10.06 -5.12,-10.06 0,0 -8.24,-0.09 -9,2.69 a 47.55,47.55 0 0 0 -1.13,5 l -4.68,1.91 z"
       style="fill:none;stroke:#263238;stroke-linecap:round;stroke-linejoin:round"
       id="path188" />
    <path
       d="m 122.28,163.35 c 0.26,0.77 0.22,1.49 -0.1,1.6 -0.32,0.11 -0.79,-0.43 -1.05,-1.21 -0.26,-0.78 -0.21,-1.48 0.1,-1.59 0.31,-0.11 0.77,0.43 1.05,1.2 z"
       style="fill:#263238"
       id="path189" />
    <path
       d="m 121,159.73 c 0,0 -2.34,-0.52 -3,2.69"
       style="fill:none;stroke:#263238;stroke-linecap:round;stroke-linejoin:round"
       id="path190" />
    <path
       d="m 125.65,172.67 c 0,0 -0.81,2.26 -3.9,1.12"
       style="fill:none;stroke:#263238;stroke-linecap:round;stroke-linejoin:round"
       id="path191" />
    <path
       d="m 182.09,172.24 c 1,0.43 1.08,2.24 1.08,2.24 2.14,-0.87 1.62,2.87 1.62,2.87 2.39,-0.57 0.5,3.24 0.5,3.24 0,0 1.55,0.7 0.12,2.24 -1.88,2 -8.24,5.1 -8.24,5.1 l -8.12,7.24 -5.65,-5.46 8.14,-6.67 c 0,0 0.39,-2.17 0.9,-5 0,0 0.75,-3.48 2.55,-5.31 1.8,-1.83 6.01,-0.92 7.1,-0.49 z"
       style="fill:#999999;stroke:#263238;stroke-linecap:round;stroke-linejoin:round"
       id="path192" />
    <path
       d="m 180.56,174.28 c 0,0 -1.11,5.3 1.63,1.22 0,0 -2.3,5.84 1.53,2.59 0,0 -3.95,4.09 -0.19,2.93 0,0 -1.78,0.76 -1.92,1.64 -0.14,0.88 1.63,0.6 1.63,0.6"
       style="fill:#999999;stroke:#263238;stroke-linecap:round;stroke-linejoin:round"
       id="path193" />
    <path
       d="m 97.54,217 c 0,0 14.47,3.37 45.47,-1.2 0,0 23.81,-12.44 29.89,-23.89 l -5.65,-6.49 -29.25,16.42 c 0,0 -30.46,-4.7 -36.1,-4 z"
       style="fill:#263238;stroke:#263238;stroke-linecap:round;stroke-linejoin:round"
       id="path194" />
    <rect
       x="177.00999"
       y="143.27"
       width="49.619999"
       height="36.869999"
       transform="rotate(-10.01,201.81166,161.67347)"
       style="fill:#999999;stroke:#263238;stroke-width:0.75px;stroke-linecap:round;stroke-linejoin:round"
       id="rect194" />
    <rect
       x="178.06"
       y="149.17"
       width="5.1999998"
       height="3.8599999"
       transform="rotate(-10.01,180.643,151.13245)"
       style="fill:#263238;stroke:#263238;stroke-linecap:round;stroke-linejoin:round"
       id="rect195" />
    <polygon
       points="210.3,170.77 187.14,174.86 195.6,155.13 "
       style="fill:#92e3a9"
       id="polygon195" />
    <g
       clip-path="url(#freepik--clip-path-33--inject-121)"
       id="g196">
      <polygon
         points="210.3,170.77 187.14,174.86 195.6,155.13 "
         style="opacity:0.5;fill:#ffffff"
         id="polygon196" />
    </g>
    <polygon
       points="210.3,170.77 187.14,174.86 195.6,155.13 "
       style="fill:none;stroke:#263238;stroke-width:0.75px;stroke-linecap:round;stroke-linejoin:round"
       id="polygon197" />
    <polygon
       points="220.13,169.04 202.44,172.16 208.9,157.1 "
       style="fill:#92e3a9;stroke:#263238;stroke-width:0.75px;stroke-linecap:round;stroke-linejoin:round"
       id="polygon198" />
    <path
       d="m 207.11,153.1 a 3,3 0 1 1 -3.47,-2.43 3,3 0 0 1 3.47,2.43 z"
       style="fill:#92e3a9"
       id="path198" />
    <g
       clip-path="url(#freepik--clip-path-34--inject-121)"
       id="g199">
      <path
         d="m 207.11,153.1 a 3,3 0 1 1 -3.47,-2.43 3,3 0 0 1 3.47,2.43 z"
         style="opacity:0.7;fill:#ffffff"
         id="path199" />
    </g>
    <path
       d="m 207.11,153.1 a 3,3 0 1 1 -3.47,-2.43 3,3 0 0 1 3.47,2.43 z"
       style="fill:none;stroke:#263238;stroke-width:0.75px;stroke-linecap:round;stroke-linejoin:round"
       id="path200" />
    <path
       d="m 177.12,172.26 a 1.48,1.48 0 0 1 2.52,0.92 c 0.71,2.38 3.78,3.57 2.94,4.08 -0.84,0.51 -2.77,1.51 -4.36,-1.16 0,0 -0.59,-0.06 -0.55,1.09 0.05,1.4 0,3.15 -0.69,4.05"
       style="fill:#999999;stroke:#263238;stroke-linecap:round;stroke-linejoin:round"
       id="path201" />
    <path
       d="m 66.62,415.83 a 28.78,28.78 0 0 0 -5.38,11.39 3.14,3.14 0 0 0 2.46,3.78 l 20.3,4.14 c 4.46,0.92 11.29,0.73 14.74,0.56 a 2.8,2.8 0 0 0 2.66,-3.26 5.2,5.2 0 0 0 -2.93,-3.51 c -4.8,-2.66 -16.21,-4.45 -20.91,-11.66 z"
       style="fill:#263238;stroke:#263238;stroke-linecap:round;stroke-linejoin:round"
       id="path202" />
    <path
       d="m 127.15,290.94 c 0,0 -10.68,29.67 -24.35,58.06 0,0 -2.65,12.48 -8.62,21 l -15,47.89 c 0,0 -6.58,2.71 -14.38,-2 0,0 3.72,-30.64 13.23,-52.87 l 5.61,-17.61 7,-35.46 c 0,0 -5.93,-10.26 -4.35,-25.32 l 26.33,-0.36 z"
       style="fill:#92e3a9"
       id="path203" />
    <g
       clip-path="url(#freepik--clip-path-35--inject-121)"
       id="g204">
      <path
         d="m 93.34,286.3 c -1.77,1 -3.45,2.13 -5.25,3.07 a 23.27,23.27 0 0 0 -2.71,1.53 c 0.06,0 -0.06,0.09 -0.18,0.2 a 2.22,2.22 0 0 1 0,0.49 3.72,3.72 0 0 1 -0.26,0.88 4.34,4.34 0 0 1 1.29,3.53 c 0,0.46 0,0.92 -0.08,1.38 l 0.13,0.2 a 14.9,14.9 0 0 1 1.17,4.08 24.6,24.6 0 0 0 2.07,6.05 6.44,6.44 0 0 1 0.45,1.39 l 0.67,0.85 c 0,0 6.48,43.36 11.31,42.39 4.83,-0.97 8,-24.07 8,-24.07 z"
         style="opacity:0.2"
         id="path204" />
    </g>
    <path
       d="m 127.15,290.94 c 0,0 -10.68,29.67 -24.35,58.06 0,0 -2.65,12.48 -8.62,21 l -15,47.89 c 0,0 -6.58,2.71 -14.38,-2 0,0 3.72,-30.64 13.23,-52.87 l 5.61,-17.61 7,-35.46 c 0,0 -5.93,-10.26 -4.35,-25.32 l 26.33,-0.36 z"
       style="fill:none;stroke:#263238;stroke-linecap:round;stroke-linejoin:round"
       id="path205" />
    <path
       d="m 112,420.59 c 0,0 -3.2,4.27 -3.37,11.89 a 3.34,3.34 0 0 0 3.35,3.37 h 22 c 4.83,0 11.88,-1.65 15.43,-2.56 a 3,3 0 0 0 2.07,-4 5.58,5.58 0 0 0 -3.79,-3 c -5.56,-1.73 -17.79,-1.16 -24.21,-7.65 z"
       style="fill:#263238;stroke:#263238;stroke-linecap:round;stroke-linejoin:round"
       id="path206" />
    <path
       d="m 125.25,281.8 c 0,0 4.41,31.91 0,63.14 0,0 0.27,13 -2.85,22.9 l 2.49,51.27 c 0,0 -5.35,4.16 -14.2,2.08 0,0 -9.11,-32.27 -7,-55.43 l -1,-18.48 L 95.6,309 c 0,0 -8.13,-6 -11.19,-20.82 l 25,-8.33 z"
       style="fill:#92e3a9;stroke:#263238;stroke-linecap:round;stroke-linejoin:round"
       id="path207" />
    <path
       d="m 95.86,189.05 c 0,0 -10.93,8.33 -12.5,29.15 -1.57,20.82 -4.94,64.28 1.83,75.73 0,0 6.5,-11.69 41.64,-7 0,0 3.64,-17.44 -1.83,-51.53 -5.47,-34.09 -11.71,-42.7 -29.14,-46.35 z"
       style="fill:#263238;stroke:#263238;stroke-linecap:round;stroke-linejoin:round"
       id="path208" />
    <path
       d="m 95.86,190.09 1,-6.5 a 24.37,24.37 0 0 1 14.31,5.59 c 4.65,3.92 6.12,7.68 2.73,12.1 L 95.86,190.87 Z"
       style="fill:#263238;stroke:#263238;stroke-linecap:round;stroke-linejoin:round"
       id="path209" />
    <path
       d="m 113.66,198.84 c -3.81,-4.93 -8.68,-7.56 -15.28,-9.23"
       style="fill:none;stroke:#7f7f7f;stroke-width:0.75px;stroke-linecap:round;stroke-linejoin:round"
       id="path210" />
    <path
       d="m 122.1,219.58 c -1.85,-7.82 -3.93,-13.62 -6.55,-18"
       style="fill:none;stroke:#7f7f7f;stroke-width:0.75px;stroke-linecap:round;stroke-linejoin:round"
       id="path211" />
    <rect
       x="102.4"
       y="264.06"
       width="49.619999"
       height="36.869999"
       transform="rotate(-0.08,121.56351,272.23991)"
       style="fill:#999999;stroke:#263238;stroke-width:0.75px;stroke-linecap:round;stroke-linejoin:round"
       id="rect211" />
    <rect
       x="105.59"
       y="266.47"
       width="5.1999998"
       height="3.8599999"
       transform="rotate(-0.08,100.0876,257.90097)"
       style="fill:#263238;stroke:#263238;stroke-linecap:round;stroke-linejoin:round"
       id="rect212" />
    <polygon
       points="134,292.89 110.48,292.93 122.22,274.95 "
       style="fill:#92e3a9"
       id="polygon212" />
    <g
       clip-path="url(#freepik--clip-path-36--inject-121)"
       id="g213">
      <polygon
         points="134,292.89 110.48,292.93 122.22,274.95 "
         style="opacity:0.5;fill:#ffffff"
         id="polygon213" />
    </g>
    <polygon
       points="134,292.89 110.48,292.93 122.22,274.95 "
       style="fill:none;stroke:#263238;stroke-width:0.75px;stroke-linecap:round;stroke-linejoin:round"
       id="polygon214" />
    <polygon
       points="143.98,292.88 126.02,292.91 134.98,279.18 "
       style="fill:#92e3a9;stroke:#263238;stroke-width:0.75px;stroke-linecap:round;stroke-linejoin:round"
       id="polygon215" />
    <path
       d="m 133.91,274.93 a 3,3 0 1 1 -3,-3 3,3 0 0 1 3,3 z"
       style="fill:#92e3a9"
       id="path215" />
    <g
       clip-path="url(#freepik--clip-path-37--inject-121)"
       id="g216">
      <path
         d="m 133.91,274.93 a 3,3 0 1 1 -3,-3 3,3 0 0 1 3,3 z"
         style="opacity:0.7;fill:#ffffff"
         id="path216" />
    </g>
    <path
       d="m 133.91,274.93 a 3,3 0 1 1 -3,-3 3,3 0 0 1 3,3 z"
       style="fill:none;stroke:#263238;stroke-width:0.75px;stroke-linecap:round;stroke-linejoin:round"
       id="path217" />
    <rect
       x="102.4"
       y="264.06"
       width="49.619999"
       height="36.869999"
       transform="rotate(-7.48,127.25117,282.55363)"
       style="fill:#ffffff;stroke:#263238;stroke-width:0.75px;stroke-linecap:round;stroke-linejoin:round"
       id="rect217" />
    <rect
       x="103.94"
       y="269.04001"
       width="5.1999998"
       height="3.8599999"
       transform="rotate(-7.48,106.57552,270.98549)"
       style="fill:#263238;stroke:#263238;stroke-linecap:round;stroke-linejoin:round"
       id="rect218" />
    <polygon
       points="135.29,291.93 111.96,295 121.29,275.66 "
       style="fill:#92e3a9"
       id="polygon218" />
    <g
       clip-path="url(#freepik--clip-path-38--inject-121)"
       id="g219">
      <polygon
         points="135.29,291.93 111.96,295 121.29,275.66 "
         style="opacity:0.5;fill:#ffffff"
         id="polygon219" />
    </g>
    <polygon
       points="135.29,291.93 111.96,295 121.29,275.66 "
       style="fill:none;stroke:#263238;stroke-width:0.75px;stroke-linecap:round;stroke-linejoin:round"
       id="polygon220" />
    <polygon
       points="145.18,290.63 127.37,292.97 134.49,278.21 "
       style="fill:#92e3a9;stroke:#263238;stroke-width:0.75px;stroke-linecap:round;stroke-linejoin:round"
       id="polygon221" />
    <path
       d="m 132.88,274.13 a 3,3 0 1 1 -3.37,-2.58 3,3 0 0 1 3.37,2.58 z"
       style="fill:#92e3a9"
       id="path221" />
    <g
       clip-path="url(#freepik--clip-path-39--inject-121)"
       id="g222">
      <path
         d="m 132.88,274.13 a 3,3 0 1 1 -3.37,-2.58 3,3 0 0 1 3.37,2.58 z"
         style="opacity:0.7;fill:#ffffff"
         id="path222" />
    </g>
    <path
       d="m 132.88,274.13 a 3,3 0 1 1 -3.37,-2.58 3,3 0 0 1 3.37,2.58 z"
       style="fill:none;stroke:#263238;stroke-width:0.75px;stroke-linecap:round;stroke-linejoin:round"
       id="path223" />
    <path
       d="m 120.51,281.8 5.25,7.48 6,1.39 c 2.46,0.57 3.76,1.11 4.7,3.47 0.67,1.69 0.22,2.21 -1,2.65 0,0 3.58,6.87 -0.15,6.2 0,0 0.31,3.15 -3.41,2 0,0 -1.19,2.13 -3.77,0.4 0,0 -2,1.53 -4.78,-3.64 l -4,-7.36 -5.89,-6.64 z"
       style="fill:#999999;stroke:#263238;stroke-linecap:round;stroke-linejoin:round"
       id="path224" />
    <path
       d="m 135,300.77 c 0,0 0.5,2.08 -1.55,2 -2.05,-0.08 -1.68,2 -6.47,1.27"
       style="fill:#999999;stroke:#263238;stroke-linecap:round;stroke-linejoin:round"
       id="path225" />
    <path
       d="m 92.21,207 c 0,0 -5.2,15.61 -2.34,50 0,0 12.81,27.06 25.92,34.61 l 8.17,-6.77 -15.87,-32.27 c 0,0 8.12,-33.05 7.7,-39.29"
       style="fill:#263238;stroke:#263238;stroke-linecap:round;stroke-linejoin:round"
       id="path226" />
    <path
       d="m 113.93,226.7 c 1.19,-6 2,-11.3 1.91,-13.44"
       style="fill:none;stroke:#7f7f7f;stroke-width:0.75px;stroke-linecap:round;stroke-linejoin:round"
       id="path227" />
    <path
       d="m 109,254.28 -0.85,-1.73 c 0,0 3,-12.23 5.26,-23.22"
       style="fill:none;stroke:#7f7f7f;stroke-width:0.75px;stroke-linecap:round;stroke-linejoin:round"
       id="path228" />
    <line
       x1="113.4"
       y1="263.26001"
       x2="110.04"
       y2="256.42001"
       style="fill:none;stroke:#7f7f7f;stroke-width:0.75px;stroke-linecap:round;stroke-linejoin:round"
       id="line228" />
    <path
       d="m 89.64,253.29 c 0.08,1.21 0.17,2.43 0.28,3.69 a 155.33,155.33 0 0 0 10.63,18.44"
       style="fill:none;stroke:#7f7f7f;stroke-width:0.75px;stroke-linecap:round;stroke-linejoin:round"
       id="path229" />
    <path
       d="m 92.26,207 c 0,0 -4.53,13.61 -2.81,43.36"
       style="fill:none;stroke:#7f7f7f;stroke-width:0.75px;stroke-linecap:round;stroke-linejoin:round"
       id="path230" />
  </g>
  <g
     id="freepik--Tool--inject-121"
     transform="translate(-57.378546,-63.150002)">
    <path
       d="m 424.84,150.6 a 107.08,107.08 0 0 0 -6,-25.76"
       style="fill:none;stroke:#263238;stroke-linecap:round;stroke-linejoin:round"
       id="path231" />
    <path
       d="m 394.07,86.12 a 0.86,0.86 0 0 1 0.13,0.14"
       style="fill:none;stroke:#263238;stroke-linecap:round;stroke-linejoin:round"
       id="path232" />
    <path
       d="m 391.25,83.48 c -0.45,-0.41 -0.9,-0.8 -1.35,-1.18 v 0 C 378.76,72.73 370.06,70.6 366.41,70.12"
       style="fill:none;stroke:#263238;stroke-linecap:round;stroke-linejoin:round"
       id="path233" />
    <rect
       x="363.57999"
       y="68.489998"
       width="2.5"
       height="2.5"
       transform="rotate(-26.03,364.8361,69.745814)"
       style="fill:none;stroke:#263238;stroke-linecap:round;stroke-linejoin:round"
       id="rect233" />
    <rect
       x="423.69"
       y="150.69"
       width="2.5"
       height="2.5"
       transform="rotate(-26.03,424.95581,151.93554)"
       style="fill:none;stroke:#263238;stroke-linecap:round;stroke-linejoin:round"
       id="rect234" />
    <path
       d="m 406,97.81 1.33,1.34 a 0.91,0.91 0 0 1 -0.26,0.44 0.93,0.93 0 0 1 -0.42,0.26 l -1.35,-1.36 -11.81,-11.77 0.68,-0.7 z"
       style="fill:#263238;stroke:#263238;stroke-linecap:round;stroke-linejoin:round"
       id="path234" />
    <path
       d="m 407.59,98.08 a 1.41,1.41 0 0 1 0.35,1.44 1.3,1.3 0 0 1 -0.34,0.6 1.52,1.52 0 0 1 -0.57,0.34 1.45,1.45 0 0 1 -1.47,-0.34 1.46,1.46 0 0 1 -0.35,-1.48 1.42,1.42 0 0 1 0.35,-0.57 1.28,1.28 0 0 1 0.59,-0.35 1.42,1.42 0 0 1 1.44,0.36 z"
       style="fill:#263238;stroke:#263238;stroke-linecap:round;stroke-linejoin:round"
       id="path235" />
    <line
       x1="391.09"
       y1="83.480003"
       x2="379.5"
       y2="71.989998"
       style="fill:none;stroke:#263238;stroke-linecap:round;stroke-linejoin:round"
       id="line235" />
    <path
       d="m 379.72,70.72 a 1.12,1.12 0 1 1 -1.5,-0.54 1.12,1.12 0 0 1 1.5,0.54 z"
       style="fill:none;stroke:#263238;stroke-linecap:round;stroke-linejoin:round"
       id="path236" />
    <polygon
       points="394.07,86.12 393.92,86.28 393.39,86.82 390.88,86.8 390.89,83.48 394.22,83.48 394.2,85.98 "
       style="fill:none;stroke:#263238;stroke-linecap:round;stroke-linejoin:round"
       id="polygon236" />
    <polygon
       points="394.2,86.82 393.39,86.82 393.92,86.28 394.07,86.12 394.2,85.98 394.2,86.57 "
       style="fill:none;stroke:#5c5c5c;stroke-miterlimit:10"
       id="polygon237" />
    <polygon
       points="411.28,113.14 400.22,108.98 392.4,87.81 393.92,86.28 394.07,86.12 395.64,84.55 416.84,92.3 421.04,103.36 "
       style="fill:none;stroke:#263238;stroke-linecap:round;stroke-linejoin:round"
       id="polygon238" />
    <polygon
       points="411.28,113.15 421.04,103.36 434.06,110.38 419.16,125.31 "
       style="fill:none;stroke:#263238;stroke-linecap:round;stroke-linejoin:round"
       id="polygon239" />
    <polyline
       points="416.14 112.03 422.15 106 427.75 108.99"
       style="fill:none;stroke:#263238;stroke-linecap:round;stroke-linejoin:round"
       id="polyline239" />
    <line
       x1="414.26999"
       y1="113.91"
       x2="414.87"
       y2="113.3"
       style="fill:none;stroke:#263238;stroke-linecap:round;stroke-linejoin:round"
       id="line239" />
  </g>
  <g
     id="freepik--light-bulb--inject-121"
     transform="translate(-57.378546,-63.150002)">
    <path
       d="m 125.89,96 a 15.43,15.43 0 1 0 -28.66,11.43 c 2.29,5.74 8.41,7.8 13.11,11.19 1.46,1.06 3.46,6.36 3.46,6.36 l 12.2,-4.84 c 0,0 -2.2,-5.22 -1.86,-7 1.02,-5.68 4.04,-11.39 1.75,-17.14 z"
       style="fill:none;stroke:#263238;stroke-linecap:round;stroke-linejoin:round"
       id="path239" />
    <path
       d="m 114.35,123.25 h 13.09 v 0.34 A 3.41,3.41 0 0 1 124,127 h -6.27 a 3.41,3.41 0 0 1 -3.41,-3.41 v -0.34 z"
       transform="rotate(-21.74,120.85016,125.09759)"
       style="fill:none;stroke:#263238;stroke-linecap:round;stroke-linejoin:round"
       id="path240" />
    <path
       d="m 114.35,123.25 h 13.09 v 0.34 A 3.41,3.41 0 0 1 124,127 h -6.27 a 3.41,3.41 0 0 1 -3.41,-3.41 v -0.34 z"
       transform="rotate(-21.74,120.85016,125.09759)"
       style="opacity:0.5;fill:none;stroke:#263238;stroke-linecap:round;stroke-linejoin:round"
       id="path241" />
    <path
       d="m 119.42,127.57 h 6.12 v 0.28 a 2.78,2.78 0 0 1 -2.78,2.78 h -0.55 a 2.78,2.78 0 0 1 -2.78,-2.78 v -0.28 z"
       transform="rotate(-21.73,122.48136,129.09071)"
       style="fill:none;stroke:#263238;stroke-linecap:round;stroke-linejoin:round"
       id="path242" />
    <path
       d="m 119.42,127.57 h 6.12 v 0.28 a 2.78,2.78 0 0 1 -2.78,2.78 h -0.55 a 2.78,2.78 0 0 1 -2.78,-2.78 v -0.28 z"
       transform="rotate(-21.73,122.48136,129.09071)"
       style="opacity:0.2;fill:none;stroke:#263238;stroke-linecap:round;stroke-linejoin:round"
       id="path243" />
    <line
       x1="103.12"
       y1="68.980003"
       x2="106.65"
       y2="82.18"
       style="fill:none;stroke:#263238;stroke-linecap:round;stroke-linejoin:round"
       id="line243" />
    <line
       x1="101.69"
       y1="63.650002"
       x2="102.41"
       y2="66.339996"
       style="fill:none;stroke:#263238;stroke-linecap:round;stroke-linejoin:round"
       id="line244" />
    <line
       x1="87.809998"
       y1="107.47"
       x2="74.300003"
       y2="111.09"
       style="fill:none;stroke:#263238;stroke-linecap:round;stroke-linejoin:round"
       id="line245" />
    <line
       x1="92.830002"
       y1="106.13"
       x2="90.540001"
       y2="106.74"
       style="fill:none;stroke:#263238;stroke-linecap:round;stroke-linejoin:round"
       id="line246" />
    <line
       x1="144.74001"
       y1="92.209999"
       x2="130.60001"
       y2="96"
       style="fill:none;stroke:#263238;stroke-linecap:round;stroke-linejoin:round"
       id="line247" />
    <line
       x1="149.12"
       y1="91.040001"
       x2="147.11"
       y2="91.580002"
       style="fill:none;stroke:#263238;stroke-linecap:round;stroke-linejoin:round"
       id="line248" />
    <line
       x1="101.94"
       y1="118"
       x2="92.349998"
       y2="134.61"
       style="fill:none;stroke:#263238;stroke-linecap:round;stroke-linejoin:round"
       id="line249" />
    <line
       x1="131.08"
       y1="67.519997"
       x2="121.49"
       y2="84.129997"
       style="fill:none;stroke:#263238;stroke-linecap:round;stroke-linejoin:round"
       id="line250" />
    <line
       x1="94.769997"
       y1="91.290001"
       x2="78.169998"
       y2="81.699997"
       style="fill:none;stroke:#263238;stroke-linecap:round;stroke-linejoin:round"
       id="line251" />
    <line
       x1="131.17"
       y1="112.3"
       x2="128.64999"
       y2="110.84"
       style="fill:none;stroke:#263238;stroke-linecap:round;stroke-linejoin:round"
       id="line252" />
    <line
       x1="145.25999"
       y1="120.43"
       x2="133.47"
       y2="113.63"
       style="fill:none;stroke:#263238;stroke-linecap:round;stroke-linejoin:round"
       id="line253" />
  </g>
</svg>
